<?xml version="1.0" standalone="no"?>
<!DOCTYPE svg PUBLIC "-//W3C//DTD SVG 1.1//EN" "http://www.w3.org/Graphics/SVG/1.1/DTD/svg11.dtd" >
<svg>
<metadata>
Created by FontForge 20090622 at Mon Sep  7 09:34:13 2015
 By deploy user
\(c\)  Copyright Jeremy Tankard 1998.          Email=jtankard@typography.demon.co.uk
</metadata>
<defs>
<font id="Bliss-Regular" horiz-adv-x="0" >
  <font-face 
    font-family="Bliss"
    font-weight="400"
    font-stretch="normal"
    units-per-em="1000"
    panose-1="2 0 5 6 8 0 0 2 0 4"
    ascent="800"
    descent="-200"
    x-height="473"
    cap-height="659"
    bbox="-50 -237 1141 853"
    underline-thickness="20"
    underline-position="-123"
    unicode-range="U+0020-U+FB02"
  />
<missing-glyph horiz-adv-x="500" 
 />
    <glyph glyph-name=".notdef" horiz-adv-x="500" 
 />
    <glyph glyph-name="NUL" horiz-adv-x="500" 
 />
    <glyph glyph-name="nonmarkingreturn" horiz-adv-x="246" 
 />
    <glyph glyph-name="space" unicode=" " horiz-adv-x="246" 
 />
    <glyph glyph-name="exclam" unicode="!" horiz-adv-x="276" 
d="M184 601v58h-90v-57q0 -93 1 -155t3.5 -107.5t7 -83t12.5 -82.5h42q7 45 11.5 82.5t7.5 83t4 107t1 154.5zM198 49q0 26 -16.5 44t-42.5 18t-42.5 -18t-16.5 -44t16.5 -43.5t42.5 -17.5t42.5 17.5t16.5 43.5z" />
    <glyph glyph-name="quotedbl" unicode="&#x22;" horiz-adv-x="362" 
d="M306 708h-90l13 -219h66zM148 708h-90l13 -219h66z" />
    <glyph glyph-name="numbersign" unicode="#" horiz-adv-x="678" 
d="M642 419v76h-126l35 164h-86l-35 -164h-114l35 164h-86l-36 -164h-139v-76h123l-36 -168h-139v-76h123l-37 -175h86l38 175h113l-37 -175h86l38 175h142v76h-126l36 168h142zM413 419l-36 -168h-113l36 168h113z" />
    <glyph glyph-name="dollar" unicode="$" horiz-adv-x="524" 
d="M453 181q0 47 -20.5 80t-51 58t-66 44t-66 38t-51 41t-20.5 52q0 42 30 60.5t73 18.5q38 0 75 -12.5t66 -29.5v86q-18 10 -46 18.5t-66 11.5v93h-75v-95q-69 -11 -107.5 -54.5t-38.5 -99.5q0 -42 13 -69t33 -48q28 -31 66.5 -52.5l73.5 -42t59.5 -44.5t24.5 -60
q0 -23 -10 -39.5t-26.5 -26.5t-37 -14.5t-40.5 -4.5q-44 0 -79.5 15.5t-55.5 29.5l-39 -70q24 -16 60 -30.5t87 -18.5v-96h76v98q70 12 114.5 54.5t44.5 108.5z" />
    <glyph glyph-name="percent" unicode="%" horiz-adv-x="843" 
d="M780 169q0 44 -11.5 77t-32 55.5t-48.5 33.5t-61 11q-32 0 -60.5 -11t-50 -33.5t-34 -56t-12.5 -77.5t11.5 -77t32 -55.5t48.5 -33.5t61 -11q32 0 60.5 11t50 33.5t34 56t12.5 77.5zM690 676h-89l-446 -696h88zM375 491q0 43 -12 76.5t-32.5 55.5t-48.5 33.5t-61 11.5
q-32 0 -60.5 -11.5t-50 -34t-34 -56t-12.5 -77.5t12 -76.5t32.5 -55t48.5 -33.5t60 -11q33 0 61.5 11t50 33.5t34 56t12.5 77.5zM699 168q0 -55 -17 -86t-55 -31q-34 0 -55 27t-21 92q0 55 18.5 85.5t53.5 30.5t55.5 -26.5t20.5 -91.5zM293 489q0 -54 -16.5 -85t-55.5 -31
q-34 0 -54.5 26.5t-20.5 92.5q0 54 18 84.5t53 30.5t55.5 -26t20.5 -92z" />
    <glyph glyph-name="ampersand" unicode="&#x26;" horiz-adv-x="724" 
d="M707 7l-17 56q-35 -7 -69.5 12.5t-71.5 53.5q45 48 74.5 95t40.5 89l-75 19q-5 -16 -14.5 -36t-22 -40.5t-28 -41t-30.5 -36.5q-20 17 -43.5 40l-46.5 46.5l-43 45.5t-32 37q30 16 55 33.5t43 38.5t28.5 46.5t10.5 55.5q0 32 -12 58.5t-34.5 46t-53.5 30t-70 10.5
q-40 0 -72 -11.5t-54.5 -31t-35 -45.5t-12.5 -54q0 -50 22 -84.5t57 -72.5q-69 -29 -107.5 -73.5t-38.5 -115.5q0 -38 13.5 -72t40 -60t64 -41.5t85.5 -15.5q72 0 127.5 24.5t100.5 62.5q39 -33 80 -57.5t81 -24.5q17 0 33 3t27 10zM377 516q0 -31 -25 -61t-73 -55l-31 37.5
t-21 31t-12 28t-4 27.5q0 12 4.5 24.5t14.5 23t25.5 17t37.5 6.5q24 0 40 -8t26 -19.5t14 -25.5t4 -26zM427 124q-33 -31 -74.5 -45.5t-73.5 -14.5q-61 0 -96 34.5t-35 85.5q0 39 21.5 71t78.5 56q16 -20 38.5 -44.5l47.5 -50.5l49 -50t44 -42z" />
    <glyph glyph-name="quotesingle" unicode="'" horiz-adv-x="204" 
d="M148 708h-90l13 -219h66z" />
    <glyph glyph-name="parenleft" unicode="(" horiz-adv-x="322" 
d="M298 -194q-34 48 -58.5 93.5t-40 98.5t-23 118t-7.5 152t7.5 152.5t23 118.5t39.5 99t58 94l-62 43q-47 -56 -78 -115.5t-49 -123t-25.5 -131t-7.5 -137.5q0 -71 7.5 -137.5t25.5 -129.5t49 -122.5t78 -115.5z" />
    <glyph glyph-name="parenright" unicode=")" horiz-adv-x="322" 
d="M249 268q0 70 -7.5 137.5t-25.5 131t-49 123t-78 115.5l-62 -43q34 -48 58 -94t39.5 -99t23 -118.5t7.5 -152.5t-7.5 -152t-23.5 -118t-40 -98.5t-58 -93.5l63 -43q47 56 78 115.5t49 122.5t25.5 129.5t7.5 137.5z" />
    <glyph glyph-name="asterisk" unicode="*" horiz-adv-x="484" 
d="M422 466q-16 9 -36 17.5t-40 16l-38 14.5t-29 13q11 6 29 12t38 13.5t40.5 16t35.5 17.5l-38 65q-15 -9 -32.5 -21.5t-34 -26l-31.5 -25.5t-25 -19q1 13 4 31.5l6.5 39.5t6 42.5t2.5 38.5h-75q0 -18 2.5 -39.5t5.5 -42.5t6 -40t4 -32q-11 7 -25.5 19.5l-31 26l-33.5 26.5
t-32 22l-38 -65q15 -9 35.5 -17.5t40.5 -16l38 -14t29 -12.5q-11 -6 -29 -13l-38 -14.5t-40.5 -16t-35.5 -17.5l38 -65q16 9 33.5 22.5l34 27l31.5 26t25 18.5q-1 -12 -4 -31l-6.5 -40.5t-6 -43t-2.5 -39.5l75 1q0 18 -2.5 39.5t-6.5 42.5t-7 40t-4 32q10 -7 25 -19.5
l31.5 -26.5t34 -27t32.5 -21z" />
    <glyph glyph-name="plus" unicode="+" horiz-adv-x="615" 
d="M544 213v79h-192v209h-87v-209h-194v-79h194v-213h87v213h192z" />
    <glyph glyph-name="comma" unicode="," horiz-adv-x="209" 
d="M150 116l-88 -18q4 -28 5 -52.5t-2 -47.5t-10 -46.5t-20 -48.5l49 -27q48 52 63.5 113t2.5 127z" />
    <glyph glyph-name="hyphen" unicode="-" horiz-adv-x="363" 
d="M314 210v75h-263v-75h263z" />
    <glyph glyph-name="hyphen" unicode="&#xad;" horiz-adv-x="363" 
d="M314 210v75h-263v-75h263z" />
    <glyph glyph-name="period" unicode="." horiz-adv-x="209" 
d="M165 49q0 26 -16.5 44t-42.5 18q-25 0 -42 -18t-17 -44t17 -43.5t42 -17.5q26 0 42.5 17.5t16.5 43.5z" />
    <glyph glyph-name="slash" unicode="/" horiz-adv-x="361" 
d="M352 696h-87l-254 -729h87z" />
    <glyph glyph-name="zero" unicode="0" horiz-adv-x="524" 
d="M494 326q0 81 -16.5 144t-46.5 106t-72.5 65.5t-94.5 22.5t-95 -22.5t-74 -65.5t-48 -106t-17 -144t16 -144t46 -105.5t72 -64.5t94 -22t95.5 22t74.5 64.5t48.5 105.5t17.5 144zM403 318q0 -52 -8 -98t-25 -80.5t-43 -54.5t-62 -20q-65 0 -104 69.5t-39 200.5q0 52 8 98
t24.5 81t43 55.5t62.5 20.5q65 0 104 -70.5t39 -201.5z" />
    <glyph glyph-name="one" unicode="1" horiz-adv-x="524" 
d="M374 0v664h-68l-200 -99l25 -67l157 71v-569h86z" />
    <glyph glyph-name="two" unicode="2" horiz-adv-x="524" 
d="M464 0v84l-308 -6q10 55 37 94t61 69t71.5 56t68.5 54.5t51 64t20 85.5q0 34 -11.5 63.5t-35.5 51.5t-59.5 35t-83.5 13q-66 0 -117.5 -16.5t-88.5 -36.5l27 -72q28 16 69.5 31.5t95.5 15.5q46 0 77 -21.5t31 -70.5q0 -39 -21.5 -65.5t-55 -51.5l-73 -53.5t-75.5 -71
t-62.5 -103t-34.5 -149.5h417z" />
    <glyph glyph-name="three" unicode="3" horiz-adv-x="524" 
d="M476 195q0 62 -34.5 101.5t-88.5 48.5v1q45 20 74 58.5t29 95.5q0 33 -11.5 62.5t-35 52t-59 36t-82.5 13.5q-69 0 -119.5 -18.5t-85.5 -35.5l23 -70q27 14 70 30t95 16q53 0 83 -26.5t30 -68.5q0 -23 -8 -44t-27.5 -37.5t-51 -27t-78.5 -11.5l-69 -2v-74h86
q89 0 127 -29.5t38 -82.5q0 -31 -14.5 -53.5t-37.5 -37.5t-51.5 -22t-56.5 -7q-49 0 -84 8.5t-67 22.5l-26 -69q33 -15 77 -25t95 -10q66 0 115 16.5t81 44.5t48 65t16 79z" />
    <glyph glyph-name="four" unicode="4" horiz-adv-x="524" 
d="M516 170v78h-99v416h-59l-322 -428v-66h294v-172h87v172h99zM334 513q-1 -12 -2 -36.5t-1 -47.5l-1 -181l-111 -2q-17 0 -42 -0.5t-42 -0.5z" />
    <glyph glyph-name="five" unicode="5" horiz-adv-x="524" 
d="M474 657h-364v-332h87q49 0 83.5 -9.5t56.5 -26.5t31.5 -41t9.5 -53q0 -33 -13 -57.5t-35 -41t-51 -25t-61 -8.5q-48 0 -76.5 7.5t-50.5 19.5l-27 -70q20 -11 58 -20.5t89 -9.5q67 0 116 17.5t81.5 46.5t48 68t15.5 83q0 39 -14 76t-46 64.5t-84.5 43t-129.5 10.5v181
l256 -5z" />
    <glyph glyph-name="six" unicode="6" horiz-adv-x="524" 
d="M491 211q0 51 -17 89t-45 64t-65 39t-77 13q-47 0 -86 -16t-70 -36q4 53 21 95t43 71t60.5 44.5t73.5 15.5q49 0 101 -26l25 73q-35 16 -69 21.5t-64 5.5q-67 0 -120.5 -29.5t-90.5 -80t-57 -117t-20 -140.5q0 -83 19 -141.5t51 -95.5t75.5 -54.5t91.5 -17.5
q46 0 86 15.5t70 44.5t47 70.5t17 92.5zM276 338q25 0 48 -9t40 -26.5t27 -42.5t10 -57q0 -68 -35.5 -104t-90.5 -36q-32 0 -59.5 16.5t-47 46t-30 71t-8.5 91.5q29 20 66 35t80 15z" />
    <glyph glyph-name="seven" unicode="7" horiz-adv-x="524" 
d="M507 623v36h-432l20 -79l293 5q-30 -44 -67 -106t-73 -137.5t-66.5 -162.5t-46.5 -181h91q16 93 44.5 178t65 163t80 148.5t91.5 135.5z" />
    <glyph glyph-name="eight" unicode="8" horiz-adv-x="524" 
d="M494 177q0 62 -32.5 102t-89.5 60v1q12 7 29 19.5t32.5 32t27 45t11.5 57.5q0 29 -11 59.5t-35 55t-61.5 40t-90.5 15.5q-51 0 -91 -13.5t-67 -37t-41.5 -55.5t-14.5 -69q0 -54 24.5 -89t66.5 -61v-1q-20 -9 -41 -22.5t-38 -33.5t-28.5 -47t-11.5 -62q0 -87 58.5 -135
t167.5 -48q55 0 99 14.5t74.5 39.5t46.5 59t16 74zM150 495q0 43 32.5 71t83.5 28q27 0 48 -9t35.5 -23.5t22 -33.5t7.5 -39q0 -24 -8.5 -43t-21.5 -34t-28.5 -26t-28.5 -19q-26 6 -51.5 15t-45.5 24t-32.5 36.5t-12.5 52.5zM400 172q0 -26 -11 -47t-30 -35t-43.5 -21.5
t-51.5 -7.5q-29 0 -54.5 7.5t-44.5 22t-30 36.5t-11 51q0 27 11 48t27.5 37t35.5 26t34 15q32 -5 62.5 -15t54 -26t37.5 -38.5t14 -52.5z" />
    <glyph glyph-name="nine" unicode="9" horiz-adv-x="524" 
d="M490 355q0 79 -17.5 137t-48 96t-73 57t-93.5 19q-47 0 -87 -17t-69 -46.5t-45.5 -70t-16.5 -87.5q0 -56 18 -95t47 -63t64 -35t70 -11q46 0 84 16t73 43h1q-5 -111 -57 -172.5t-139 -61.5q-62 0 -119 28l-25 -74q36 -15 72 -21.5t70 -6.5q69 0 123 25.5t91.5 73t57 115
t19.5 151.5zM396 383q-20 -26 -56 -47t-80 -21q-63 0 -96.5 37t-33.5 102q0 60 32 98.5t92 38.5q63 0 102 -55t40 -153z" />
    <glyph glyph-name="colon" unicode=":" horiz-adv-x="209" 
d="M165 394q0 26 -16.5 44t-42.5 18q-25 0 -42 -18t-17 -44t17 -43.5t42 -17.5q26 0 42.5 17.5t16.5 43.5zM165 49q0 26 -16.5 44t-42.5 18q-25 0 -42 -18t-17 -44t17 -43.5t42 -17.5q26 0 42.5 17.5t16.5 43.5z" />
    <glyph glyph-name="semicolon" unicode=";" horiz-adv-x="209" 
d="M165 394q0 26 -16.5 44t-42.5 18q-25 0 -42 -18t-17 -44t17 -43.5t42 -17.5q26 0 42.5 17.5t16.5 43.5zM150 116l-88 -18q4 -28 5 -52.5t-2 -47.5t-10 -46.5t-20 -48.5l48 -27q48 52 63.5 113t3.5 127z" />
    <glyph glyph-name="semicolon" unicode="&#x37e;" horiz-adv-x="209" 
d="M165 394q0 26 -16.5 44t-42.5 18q-25 0 -42 -18t-17 -44t17 -43.5t42 -17.5q26 0 42.5 17.5t16.5 43.5zM150 116l-88 -18q4 -28 5 -52.5t-2 -47.5t-10 -46.5t-20 -48.5l48 -27q48 52 63.5 113t3.5 127z" />
    <glyph glyph-name="less" unicode="&#x3c;" horiz-adv-x="603" 
d="M501 33v85l-293 122l-56 19v2l56 19l293 122v85l-434 -189v-76z" />
    <glyph glyph-name="equal" unicode="=" horiz-adv-x="615" 
d="M544 307v79h-473v-79h473zM544 121v79h-473v-79h473z" />
    <glyph glyph-name="greater" unicode="&#x3e;" horiz-adv-x="603" 
d="M536 222v76l-434 189v-85l293 -122l56 -19v-2l-56 -19l-293 -122v-85z" />
    <glyph glyph-name="question" unicode="?" horiz-adv-x="462" 
d="M409 533q0 66 -42.5 105t-119.5 39q-56 0 -103.5 -22t-82.5 -57l42 -56q31 29 63 45t69 16q36 0 58.5 -19.5t22.5 -54.5q0 -27 -14.5 -49.5t-37 -42t-48 -38t-48 -39t-37 -43t-14.5 -50.5q0 -29 11 -52.5t34 -46.5l67 42q-10 12 -18 24t-8 31q0 17 15.5 33.5t38 34
l49.5 38t49.5 44.5t38 53t15.5 65zM259 49q0 26 -16.5 44t-42.5 18t-42.5 -18t-16.5 -44t16.5 -43.5t42.5 -17.5t42.5 17.5t16.5 43.5z" />
    <glyph glyph-name="at" unicode="@" horiz-adv-x="777" 
d="M736 367q0 71 -25.5 129t-70.5 99t-106 63.5t-133 22.5q-75 0 -140.5 -26.5t-114 -76t-76 -119.5t-27.5 -157q0 -75 21.5 -136t61.5 -104.5t96 -67t124 -23.5q38 0 79.5 5.5t83.5 21.5l-24 63q-25 -13 -61 -19t-70 -6q-51 0 -94.5 17.5t-75 52t-49.5 84.5t-18 115
q0 73 21 130.5t58.5 97.5t89 61.5t113.5 21.5q67 0 116.5 -21.5t82.5 -56.5t49 -80t16 -92q0 -76 -25 -119.5t-64 -43.5q-20 0 -30 9t-14 24t-3 35t4 42l23 165q-35 22 -71 32.5t-70 10.5q-44 0 -81.5 -16t-65.5 -45t-44 -69.5t-16 -89.5q0 -45 11 -75.5t28 -49t39 -26.5
t45 -8q25 0 47 8t40 20.5t31 26.5t18 26h1q6 -38 32.5 -60t64.5 -22q78 0 125.5 56.5t47.5 169.5zM473 438l-8 -74q-5 -48 -18.5 -78t-30.5 -47.5t-35.5 -24t-33.5 -6.5q-29 0 -45.5 21.5t-16.5 70.5q0 36 10 65t26.5 49.5t39 32t48.5 11.5q32 0 64 -20z" />
    <glyph glyph-name="A" unicode="A" horiz-adv-x="595" 
d="M583 0l-257 661h-57l-253 -661h88l62 172h255l67 -172h95zM391 249h-194l73 200q17 46 26 81h1q8 -35 25 -82z" />
    <glyph glyph-name="B" unicode="B" horiz-adv-x="530" 
d="M491 195q0 31 -11 58.5t-29 48t-41 34t-48 18.5v1q44 19 66 57t22 86q0 29 -10.5 57.5t-32.5 51.5t-55.5 37.5t-79.5 14.5h-192v-659h179q65 0 109.5 17.5t71.5 45.5t39 63t12 69zM244 580q58 0 85.5 -26.5t27.5 -72.5q0 -26 -9.5 -45.5t-24.5 -32.5t-34.5 -20t-39.5 -7
h-80v204h75zM396 193q0 -50 -34.5 -82t-101.5 -32h-91v218h96q61 0 96 -29.5t35 -74.5z" />
    <glyph glyph-name="C" unicode="C" horiz-adv-x="590" 
d="M559 43l-26 69q-35 -19 -74.5 -30.5t-82.5 -11.5q-56 0 -99.5 19.5t-74.5 54t-47 81.5t-16 103q0 54 16.5 101t48 82.5t76 55.5t100.5 20q54 0 92.5 -13t76.5 -36l1 88q-26 15 -69 26.5t-100 11.5q-76 0 -138 -26.5t-106.5 -73t-69 -108.5t-24.5 -134q0 -71 22 -132
t63.5 -105.5t101 -69.5t134.5 -25q48 0 97 12.5t98 40.5z" />
    <glyph glyph-name="D" unicode="D" horiz-adv-x="644" 
d="M603 336q0 69 -21.5 128.5t-66 102.5t-112.5 67.5t-161 24.5h-162v-659h162q91 0 159 26t113 71.5t67 107t22 131.5zM510 336q0 -51 -14 -97.5t-45 -82t-81 -56.5t-122 -21h-79v501h80q67 0 116 -19t81.5 -52t48 -77.5t15.5 -95.5z" />
    <glyph glyph-name="E" unicode="E" horiz-adv-x="469" 
d="M419 0v79h-250v219h217v78h-217v204h219l29 79h-337v-659h339z" />
    <glyph glyph-name="F" unicode="F" horiz-adv-x="461" 
d="M418 659h-338v-659h89v295h217v78h-217v207h219z" />
    <glyph glyph-name="G" unicode="G" horiz-adv-x="670" 
d="M601 45v278h-89v-230q-18 -11 -47 -17.5t-71 -6.5q-59 0 -106.5 18.5t-80.5 52.5t-50.5 82t-17.5 108q0 55 16.5 102t48.5 81.5t80.5 53.5t111.5 19q57 0 104 -16.5t80 -33.5l1 90q-29 13 -77 25.5t-110 12.5q-79 0 -143.5 -25t-110.5 -70.5t-71.5 -109t-25.5 -139.5
q0 -72 23.5 -132.5t66.5 -104.5t104 -68.5t135 -24.5q37 0 71.5 5t64 13.5t53 18t40.5 18.5z" />
    <glyph glyph-name="H" unicode="H" horiz-adv-x="683" 
d="M605 0v659h-89v-285h-347v285h-89v-659h89v295h347v-295h89z" />
    <glyph glyph-name="I" unicode="I" horiz-adv-x="247" 
d="M169 0v659h-89v-659h89z" />
    <glyph glyph-name="J" unicode="J" horiz-adv-x="306" 
d="M228 25v634h-89v-626q0 -65 -16 -102t-66 -37q-14 0 -29.5 1.5t-27.5 6.5l-17 -72q13 -5 33 -8t37 -3q52 0 85.5 14.5t53.5 41.5t28 65t8 85z" />
    <glyph glyph-name="K" unicode="K" horiz-adv-x="549" 
d="M537 0l-290 335l268 322h-107l-238 -294h-2v296h-88v-659h89v295h1l253 -295h114z" />
    <glyph glyph-name="L" unicode="L" horiz-adv-x="425" 
d="M414 0v79h-245v580h-89v-659h334z" />
    <glyph glyph-name="M" unicode="M" horiz-adv-x="794" 
d="M716 0v659h-89l-188 -296q-14 -21 -21 -35.5l-13 -27.5h-2q-6 14 -14 28t-22 34l-200 297h-87v-659h89v449q0 17 -0.5 31.5t-3.5 37.5h2q10 -23 19 -37.5l17 -27.5l174 -261h52l163 260l18 29.5t18 36.5h1q-2 -23 -2 -38v-32v-448h89z" />
    <glyph glyph-name="N" unicode="N" horiz-adv-x="719" 
d="M641 0v659h-89v-428q0 -25 0.5 -46t1.5 -40h-2q-10 20 -26 42.5l-46 62.5l-309 409h-91v-659h89v441q0 49 -3 82h2q11 -20 26.5 -41.5l41.5 -56.5l322 -425h83z" />
    <glyph glyph-name="O" unicode="O" horiz-adv-x="743" 
d="M43 325q0 -78 27 -143t76 -110q44 -40 100.5 -61t125.5 -21q71 0 129.5 23t103.5 66q46 45 71.5 108.5t25.5 139.5q0 70 -21.5 129.5t-61.5 104.5q-44 49 -107 76t-140 27q-72 0 -131.5 -24.5t-104.5 -69.5q-45 -46 -69 -108t-24 -137zM606 326q0 -59 -16.5 -107
t-47 -81.5t-74 -51.5t-96.5 -18t-96.5 18t-74 51.5t-47 81.5t-16.5 107t16.5 107t47 81.5t74 51.5t96.5 18q56 0 99.5 -19t73.5 -53.5t45.5 -82t15.5 -103.5z" />
    <glyph glyph-name="P" unicode="P" horiz-adv-x="489" 
d="M453 452q0 100 -61 153.5t-166 53.5h-146v-659h89v237h47q63 0 108 18.5t73.5 49t42 69t13.5 78.5zM360 451q0 -62 -32.5 -100t-104.5 -38h-54v267h49q71 0 106.5 -36t35.5 -93z" />
    <glyph glyph-name="Q" unicode="Q" horiz-adv-x="743" 
d="M702 327q0 77 -25.5 141t-73.5 109q-44 42 -102 64.5t-129 22.5q-73 0 -133.5 -25.5t-104.5 -71.5t-67.5 -107.5t-23.5 -134.5q0 -78 26 -141.5t73 -109.5q58 -54 142 -76q22 -30 47.5 -58t56 -50t66 -35t79.5 -13q34 0 65 5t55 16l-19 65q-14 -5 -34.5 -9.5t-43.5 -4.5
q-26 0 -47.5 5t-40 15t-35.5 24t-35 31q118 10 196 81q52 46 80 112t28 145zM606 326q0 -59 -16.5 -107t-47 -81.5t-74 -51.5t-96.5 -18t-96.5 18t-74 51.5t-47 81.5t-16.5 107t16.5 107t47 81.5t74 51.5t96.5 18q56 0 99.5 -19t73.5 -53.5t45.5 -82t15.5 -103.5z" />
    <glyph glyph-name="R" unicode="R" horiz-adv-x="540" 
d="M528 0l-72 116.5l-58.5 93t-43.5 63t-27 28.5v1q25 9 47.5 25t40 38t28 50t10.5 63q0 37 -12.5 70t-39 58t-69 39t-102.5 14h-150v-659h89v273h66q20 -5 65 -75l124 -198h104zM360 468q0 -25 -9.5 -47t-26.5 -38.5t-40 -26t-50 -9.5h-65v233h62q36 0 60.5 -9t39.5 -24.5
t22 -36t7 -42.5z" />
    <glyph glyph-name="S" unicode="S" horiz-adv-x="486" 
d="M446 167q0 50 -21.5 85t-53.5 61t-70 46t-70 41t-53.5 45.5t-21.5 58.5q0 43 33 63t79 20q41 0 79 -12.5t68 -31.5l1 88q-24 12 -61.5 22.5t-90.5 10.5q-47 0 -84 -13t-62.5 -36t-38.5 -54t-13 -66q0 -38 12.5 -67t33.5 -52q30 -33 71 -56l78.5 -45.5t63.5 -49.5t26 -67
q0 -24 -11.5 -41.5t-29.5 -29t-40 -16.5t-43 -5q-48 0 -86 16t-59 32l-40 -69q29 -20 75 -37.5t113 -17.5q46 0 85.5 12.5t68.5 36t45.5 56t16.5 72.5z" />
    <glyph glyph-name="T" unicode="T" horiz-adv-x="514" 
d="M510 659h-490v-79h189v-580h90v580h184z" />
    <glyph glyph-name="U" unicode="U" horiz-adv-x="669" 
d="M586 229v430h-89v-424q0 -38 -9 -69.5t-30 -54.5q-20 -20 -51 -31.5t-77 -11.5q-41 0 -69.5 11.5t-47.5 31.5q-25 26 -34.5 60.5t-9.5 69.5v418h-89v-420q0 -49 13 -100t51 -89q29 -28 74 -44t110 -16q69 0 117 18t79 50q32 33 47 77.5t15 93.5z" />
    <glyph glyph-name="V" unicode="V" horiz-adv-x="628" 
d="M616 659h-92l-174 -418q-12 -29 -21.5 -54.5l-18.5 -51.5h-2l-18.5 53.5t-19.5 53.5l-161 417h-96l263 -662h56z" />
    <glyph glyph-name="W" unicode="W" horiz-adv-x="922" 
d="M911 659h-93l-136 -423l-15 -49.5t-13 -48.5h-2q-7 24 -16 48.5l-19 52.5l-145 420h-92l45 -128l-108 -299l-17.5 -50.5t-15.5 -47.5h-2l-14 49t-16 50l-141 426h-98l231 -662h69l120 324q16 43 33 99h2q8 -28 16.5 -53l16.5 -47l116 -323h69z" />
    <glyph glyph-name="X" unicode="X" horiz-adv-x="591" 
d="M579 659h-101l-173 -261l-171 261h-104l215 -323l-232 -336h101l184 271l174 -271h102l-214 332z" />
    <glyph glyph-name="Y" unicode="Y" horiz-adv-x="551" 
d="M540 659h-94l-111 -205l-27.5 -52.5t-25.5 -52.5h-2q-11 24 -26.5 52l-29.5 54l-113 204h-98l221 -394v-265h89v263z" />
    <glyph glyph-name="Z" unicode="Z" horiz-adv-x="558" 
d="M528 0v80l-340 -2l328 581h-468l26 -80l301 3l-332 -582h485z" />
    <glyph glyph-name="bracketleft" unicode="[" horiz-adv-x="286" 
d="M263 -233v73h-96v859h96v72h-179v-1004h179z" />
    <glyph glyph-name="backslash" unicode="\" horiz-adv-x="371" 
d="M358 -33l-254 729h-89l254 -729h89z" />
    <glyph glyph-name="bracketright" unicode="]" horiz-adv-x="286" 
d="M204 -233v1004h-179v-72h96v-859h-96v-73h179z" />
    <glyph glyph-name="asciicircum" unicode="^" horiz-adv-x="596" 
d="M499 287l-163 372h-76l-163 -372h84l97 231l19 56h2l19 -56l97 -231h84z" />
    <glyph glyph-name="underscore" unicode="_" horiz-adv-x="450" 
d="M450 -124v60h-450v-60h450z" />
    <glyph glyph-name="grave" unicode="`" horiz-adv-x="542" 
d="M379 531l-88 147h-113l124 -147h77z" />
    <glyph glyph-name="a" unicode="a" horiz-adv-x="471" 
d="M423 0q-3 6 -4.5 16.5t-3 29t-2 46.5t-0.5 70v159q0 46 -13 77t-35.5 50.5t-54 28t-68.5 8.5q-46 0 -87 -11t-86 -43l33 -60q20 14 50 27.5t74 13.5q42 0 70 -22t28 -77v-18l-92 -3q-94 -3 -143.5 -43t-49.5 -112q0 -34 12 -61.5t32 -46.5t47 -29t57 -10q51 0 85.5 17
t57.5 38l19 -45h74zM324 110q-15 -15 -41 -30.5t-68 -15.5q-44 0 -65.5 23t-21.5 57q0 36 25.5 55.5t84.5 21.5l86 3v-114z" />
    <glyph glyph-name="b" unicode="b" horiz-adv-x="505" 
d="M467 253q0 58 -17.5 102t-47.5 72.5t-68.5 43t-80.5 14.5q-29 0 -53.5 -5.5t-48.5 -14.5v243h-88v-687q20 -12 55 -21.5t85 -9.5q54 0 102 17.5t84 51.5t57 83t21 111zM379 248q0 -39 -12 -72t-33.5 -58t-50.5 -39t-62 -14q-22 0 -38.5 2.5t-31.5 8.5v309q15 7 35 14
t52 7q34 0 60 -12t44 -33t27.5 -50t9.5 -63z" />
    <glyph glyph-name="c" unicode="c" horiz-adv-x="429" 
d="M419 38l-25 61q-23 -14 -51 -24.5t-65 -10.5q-36 0 -64 13.5t-47 36.5t-29 55t-10 68q0 37 10.5 69t30 55.5t47.5 36.5t63 13q38 0 68.5 -10t53.5 -26l1 79q-23 13 -55 22t-70 9q-57 0 -101.5 -20.5t-75 -55.5t-46 -80.5t-15.5 -96.5q0 -49 14 -93t42.5 -77t70 -52.5
t97.5 -19.5q48 0 88.5 15t67.5 33z" />
    <glyph glyph-name="d" unicode="d" horiz-adv-x="509" 
d="M449 25v683h-89v-230q-14 3 -31 5t-40 2q-53 0 -98.5 -19t-79.5 -53t-53 -80.5t-19 -101.5q0 -61 20 -106t53.5 -75t78.5 -45t96 -15q54 0 95 10.5t67 24.5zM360 75q-11 -5 -27.5 -8t-33.5 -3q-85 0 -128 48.5t-43 123.5q0 40 13 72.5t35.5 55t52.5 34.5t64 12
q25 0 39 -2.5t28 -7.5v-325z" />
    <glyph glyph-name="e" unicode="e" horiz-adv-x="473" 
d="M435 218v23q0 55 -13 100t-38.5 77t-62 49.5t-82.5 17.5q-45 0 -82 -18.5t-63.5 -51.5t-40.5 -77t-14 -95q0 -50 13.5 -95.5t41 -80.5t70 -56t100.5 -21q42 0 84 13t73 36l-25 59q-24 -14 -54 -23.5t-61 -9.5q-36 0 -63.5 12t-46.5 33t-29 48.5t-10 59.5h303zM341 287
h-210q0 25 7.5 48t21.5 40.5t33.5 27.5t44.5 10q26 0 45.5 -11t32 -29t19 -40.5t6.5 -45.5z" />
    <glyph glyph-name="f" unicode="f" horiz-adv-x="316" 
d="M323 690q-19 10 -40 14t-38 4q-23 0 -49 -6.5t-48 -23.5t-36.5 -48t-14.5 -79v-78h-62v-72h62v-401h89v401h96l28 72h-124v86q0 76 61 76q32 0 58 -13z" />
    <glyph glyph-name="g" unicode="g" horiz-adv-x="483" 
d="M482 -82q0 44 -24 69.5t-60.5 39.5t-78.5 19.5l-78.5 10.5t-60.5 12.5t-24 25.5q0 16 5.5 27t14.5 22q27 -10 62 -10q40 0 74.5 12.5t60 35.5t39.5 54.5t14 70.5q0 38 -13.5 68t-37.5 54q14 7 31.5 6.5t36.5 -5.5l22 74q-49 7 -83.5 -5t-53.5 -30q-3 -2 -5 -2.5t-7 1.5
q-33 17 -86 17q-40 0 -73.5 -13.5t-57.5 -37t-37.5 -55t-13.5 -67.5q0 -45 20.5 -84.5t58.5 -59.5q-29 -23 -42.5 -46.5t-13.5 -42.5q0 -17 7 -32.5t26 -26.5q-39 -19 -64 -47.5t-25 -68.5q0 -29 15 -54.5t43.5 -45t70 -30.5t94.5 -11q64 0 110 13t76 34.5t44 49.5t14 58z
M234 413q46 0 74 -29t28 -74q0 -51 -28.5 -77.5t-71.5 -26.5q-46 0 -73 30.5t-27 75.5q0 47 27.5 74t70.5 27zM384 -91q0 -35 -37.5 -56t-101.5 -21q-67 0 -106 24.5t-39 59.5q0 15 6 27.5t15 22t19 17t18 12.5q22 -7 60 -10.5t75 -10.5t64 -21.5t27 -43.5z" />
    <glyph glyph-name="h" unicode="h" horiz-adv-x="515" 
d="M455 0v311q0 50 -12.5 83.5t-32.5 53.5t-45 28.5t-51 8.5q-49 0 -87 -18.5t-76 -47.5v289h-88v-708h88v338q13 12 28.5 23.5t33 21t35.5 15.5t38 6q26 0 42 -10t24.5 -26.5t11 -37.5t2.5 -42v-288h89z" />
    <glyph glyph-name="i" unicode="i" horiz-adv-x="240" 
d="M120 680q-25 0 -42 -17.5t-17 -40.5q0 -25 17 -42t42 -17q24 0 41.5 17.5t17.5 41.5t-17.5 41t-41.5 17zM164 0v473h-88v-473h88z" />
    <glyph glyph-name="j" unicode="j" horiz-adv-x="251" 
d="M132 680q-25 0 -42 -17.5t-17 -40.5q0 -25 17 -42t42 -17t42 17.5t17 41.5t-17 41t-42 17zM176 -65v538h-89v-529q0 -55 -15 -82t-50 -27q-17 0 -29 4t-23 9l-20 -66q20 -11 41.5 -15t42.5 -4q28 0 54 9t45.5 29.5t31 53t11.5 80.5z" />
    <glyph glyph-name="k" unicode="k" horiz-adv-x="446" 
d="M453 0l-227 277l203 196h-110l-166 -165h-2v400h-88v-708h88v237h2l191 -237h109z" />
    <glyph glyph-name="l" unicode="l" horiz-adv-x="247" 
d="M227 9l-11 65q-10 -3 -16.5 -3.5t-11.5 -0.5q-20 0 -28.5 10.5t-8.5 41.5v586h-88v-625q0 -40 21 -66.5t70 -26.5q19 0 36 4t37 15z" />
    <glyph glyph-name="m" unicode="m" horiz-adv-x="811" 
d="M751 0v332q0 43 -12.5 72.5t-32.5 47.5t-46.5 25.5t-54.5 7.5q-41 0 -86 -20.5t-85 -56.5q-14 35 -44.5 56t-74.5 21q-39 0 -80.5 -16t-86.5 -51l-11 55h-74v-473h89v341q13 12 28 23.5t32 21t36.5 15.5t40.5 6q23 0 37.5 -8t22.5 -22.5t11 -33.5t3 -41v-302h89v318v12
q0 7 -1 12q26 23 60.5 44t77.5 21q23 0 37 -8t22 -21.5t11 -32.5t3 -41v-304h89z" />
    <glyph glyph-name="n" unicode="n" horiz-adv-x="516" 
d="M456 0v317q0 45 -12 77t-32 52.5t-45 29.5t-51 9q-50 0 -88.5 -18t-79.5 -48l-11 54h-74v-473h88v338q28 24 63.5 45t74.5 21q26 0 41.5 -10.5t23.5 -27.5t10.5 -37.5t2.5 -41.5v-287h89z" />
    <glyph glyph-name="o" unicode="o" horiz-adv-x="521" 
d="M261 485q-48 0 -87 -16.5t-68 -46.5q-32 -34 -49.5 -81t-17.5 -105t17.5 -106.5t50.5 -81.5q60 -58 153 -58q97 0 157 62q32 33 49.5 80.5t17.5 104.5t-16.5 104t-48.5 80q-29 31 -69 47.5t-89 16.5zM260 412q64 0 98.5 -47.5t34.5 -126.5q0 -78 -34 -126.5t-97 -48.5
t-98 48t-35 127q0 78 33.5 126t97.5 48z" />
    <glyph glyph-name="p" unicode="p" horiz-adv-x="506" 
d="M468 243q0 56 -16.5 100.5t-47 76t-75.5 48.5t-102 17q-54 0 -95 -11t-69 -21v-690h88v241q16 -6 34 -10t42 -4q47 0 90.5 17t77 49.5t53.5 79.5t20 107zM377 240q0 -82 -41.5 -129t-112.5 -47q-22 0 -38 4t-34 12v317q15 5 32.5 8t40.5 3q31 0 59 -10t49 -30.5t33 -52.5
t12 -75z" />
    <glyph glyph-name="q" unicode="q" horiz-adv-x="515" 
d="M455 -237v691q-23 10 -64 20.5t-88 10.5q-54 0 -102 -18t-84 -51t-57 -81t-21 -108t17.5 -104.5t46 -74t64.5 -44t74 -14.5q35 0 69 11t56 25v-263h89zM366 105q-14 -11 -42.5 -25t-62.5 -14q-27 0 -51 10.5t-42 31.5t-28.5 52t-10.5 71q0 37 11.5 70t33 57t52 38
t69.5 14q41 0 71 -11v-294z" />
    <glyph glyph-name="r" unicode="r" horiz-adv-x="330" 
d="M335 469q-9 6 -23.5 11t-33.5 5q-26 0 -56 -12.5t-74 -52.5l-12 53h-73v-473h88v346q29 26 53.5 39t48.5 13q25 0 47 -11z" />
    <glyph glyph-name="s" unicode="s" horiz-adv-x="388" 
d="M355 132q0 39 -16.5 65t-40.5 43t-53 29t-53 24t-40.5 27t-16.5 39q0 29 23 41.5t58 12.5q37 0 66 -9t56 -20v76q-25 11 -55.5 18t-70.5 7q-41 0 -72 -10t-51.5 -28t-30.5 -41.5t-10 -50.5q0 -41 16 -67t40 -43t52 -28.5t52 -23.5t40 -28t16 -42q0 -30 -26 -47t-68 -17
q-38 0 -68.5 12t-50.5 25l-31 -67q25 -15 61 -27t90 -12q38 0 71.5 8t58.5 25t39.5 44t14.5 65z" />
    <glyph glyph-name="t" unicode="t" horiz-adv-x="356" 
d="M341 38l-26 60q-14 -11 -36 -21t-46 -10q-46 0 -46 57v278h117l29 71h-146v134l-89 -28v-106h-79v-71h79v-308q0 -47 25.5 -75.5t81.5 -28.5q33 0 69.5 13t66.5 35z" />
    <glyph glyph-name="u" unicode="u" horiz-adv-x="514" 
d="M454 0q-3 8 -4.5 19t-3 30.5t-2 49.5t-0.5 77v297h-88v-354q-8 -9 -19 -18.5t-26 -17.5t-32.5 -13.5t-37.5 -5.5q-44 0 -66.5 25.5t-22.5 79.5v304h-89v-311q0 -52 14.5 -85.5t36.5 -52.5t48 -26.5t50 -7.5q48 0 86.5 17.5t64.5 40.5l19 -48h72z" />
    <glyph glyph-name="v" unicode="v" horiz-adv-x="461" 
d="M456 473h-86l-141 -360h-2l-129 360h-91l185 -476h67z" />
    <glyph glyph-name="w" unicode="w" horiz-adv-x="714" 
d="M709 473h-85l-109 -358h-3l-114 358h-75l-112 -357h-3l-111 357h-90l162 -476h73l114 362h3l114 -362h74z" />
    <glyph glyph-name="x" unicode="x" horiz-adv-x="459" 
d="M454 0l-162 240l161 233h-94l-120 -178l-118 178h-101l157 -229l-170 -244h96l126 188l126 -188h99z" />
    <glyph glyph-name="y" unicode="y" horiz-adv-x="492" 
d="M479 473h-88l-124 -370h-3l-162 370h-94l214 -475q-26 -91 -63 -127.5t-78 -36.5q-22 0 -39 4t-32 12l-22 -68q20 -8 42 -13.5t53 -5.5q30 0 59 7t56 29t52 61t48 104z" />
    <glyph glyph-name="z" unicode="z" horiz-adv-x="395" 
d="M382 0v75l-225 -2l220 400h-353l22 -74l199 2l-226 -401h363z" />
    <glyph glyph-name="braceleft" unicode="{" horiz-adv-x="322" 
d="M294 -141q-52 8 -72 32t-20 72v41q0 24 0.5 49t0.5 50v46q0 33 -6.5 55.5t-16.5 37t-22 21.5t-23 9v2q11 2 23 9t22 21.5t16.5 37t6.5 55.5v46t-0.5 50t-0.5 48v42q0 48 20 72t72 32l-17 83q-47 -8 -79 -23t-51.5 -38t-27.5 -53t-8 -67v-47t0.5 -56.5t0.5 -59.5v-53
t-6 -37t-15.5 -19.5t-20.5 -8t-21 -1.5v-68q10 0 21 -1.5t20.5 -8t15.5 -19.5t6 -37v-54q0 -29 -0.5 -58.5t-0.5 -57.5v-46q0 -37 8 -67t27.5 -53t51.5 -38.5t79 -22.5z" />
    <glyph glyph-name="bar" unicode="|" horiz-adv-x="252" 
d="M168 -237v1017h-84v-1017h84z" />
    <glyph glyph-name="braceright" unicode="}" horiz-adv-x="322" 
d="M274 239v68q-10 0 -21 1.5t-20.5 8t-15.5 19.5t-6 37v53q0 30 0.5 59.5t0.5 56.5v47q0 37 -8 67t-27.5 53t-51.5 38t-79 23l-17 -83q52 -8 72 -32t20 -72v-42q0 -23 -0.5 -48t-0.5 -50v-46q0 -33 6 -55.5t16 -37t22.5 -21.5t23.5 -9v-2q-11 -2 -23.5 -9t-22.5 -21.5
t-16 -37t-6 -55.5v-46t0.5 -50t0.5 -49v-41q0 -48 -20 -72t-72 -32l17 -83q47 7 79 22.5t51.5 38.5t27.5 53t8 67v46v57q0 30 -0.5 59.5t-0.5 53.5t6 37t15.5 19.5t20.5 8t21 1.5z" />
    <glyph glyph-name="asciitilde" unicode="~" horiz-adv-x="611" 
d="M534 241l-41 66q-29 -20 -49 -31t-42 -11q-13 0 -28 4t-33 11l-50 19q-47 18 -82 18q-31 0 -61.5 -14t-70.5 -43l40 -66q29 20 49 30.5t43 10.5q13 0 27.5 -3.5t33.5 -10.5l50 -19q46 -18 81 -18q32 0 62 14t71 43z" />
    <glyph glyph-name="Adieresis" unicode="&#xc4;" horiz-adv-x="595" 
d="M442 759q0 23 -15 38t-37 15t-37 -15t-15 -38t15 -38t37 -15t37 15t15 38zM266 759q0 23 -15 38t-37 15t-37 -15t-15 -38t15 -38t37 -15t37 15t15 38zM583 0l-257 661h-57l-253 -661h88l62 172h255l67 -172h95zM391 249h-194l73 200q17 46 26 81h1q8 -35 25 -82z" />
    <glyph glyph-name="Aring" unicode="&#xc5;" horiz-adv-x="595" 
d="M584 0l-256 655q32 8 51 32.5t19 59.5q0 43 -27 69t-71 26q-43 0 -71 -26t-28 -69q0 -35 18 -59t49 -33l-251 -655h88l62 172h255l67 -172h95zM347 748q0 -26 -12 -40t-36 -14q-21 0 -34 14t-13 40q0 24 12.5 38.5t34.5 14.5q23 0 35.5 -14.5t12.5 -38.5zM392 249h-195
l74 200q9 24 15 43.5t10 37.5h1q8 -35 25 -82z" />
    <glyph glyph-name="Ccedilla" unicode="&#xc7;" horiz-adv-x="590" 
d="M559 43l-26 69q-35 -19 -74.5 -30.5t-82.5 -11.5q-56 0 -99.5 19.5t-74.5 54t-47 81.5t-16 103q0 54 16.5 101t48 82.5t76 55.5t100.5 20q54 0 92.5 -13t76.5 -36l1 88q-26 15 -69 26.5t-100 11.5q-76 0 -138 -26.5t-106.5 -73t-69 -108.5t-24.5 -134q0 -66 18.5 -122.5
t53.5 -99.5t85 -70.5t114 -35.5l-24 -75l29 -1q20 -1 32.5 -6.5t12.5 -19.5t-12 -21.5t-27 -7.5t-26 3.5t-20 8.5l-15 -42q11 -5 26 -9t38 -4q17 0 35 4.5t32.5 13.5t24 23t9.5 33t-7 30.5t-17.5 18t-22.5 9t-21 3.5l11 35q47 1 93.5 14t93.5 39z" />
    <glyph glyph-name="Eacute" unicode="&#xc9;" horiz-adv-x="469" 
d="M379 843h-113l-87 -147h76zM419 0v79h-250v219h217v78h-217v204h219l29 79h-337v-659h339z" />
    <glyph glyph-name="Ntilde" unicode="&#xd1;" horiz-adv-x="719" 
d="M490 796v24h-55v-9q0 -25 -22 -25q-9 0 -19 3.5t-21 8.5l-29 13q-19 8 -31.5 11t-24.5 3q-31 0 -51 -20.5t-20 -54.5v-23h55v9q0 25 22 25q9 0 19.5 -3.5t20.5 -8.5l29 -13q19 -8 31.5 -11t25.5 -3q30 0 50 20t20 54zM641 0v659h-89v-428q0 -25 0.5 -46t1.5 -40h-2
q-10 20 -26 42.5l-46 62.5l-309 409h-91v-659h89v441q0 49 -3 82h2q11 -20 26.5 -41.5l41.5 -56.5l322 -425h83z" />
    <glyph glyph-name="Odieresis" unicode="&#xd6;" horiz-adv-x="743" 
d="M511 759q0 23 -15 38t-37 15t-37 -15t-15 -38t15 -38t37 -15t37 15t15 38zM335 759q0 23 -15 38t-37 15t-37 -15t-15 -38t15 -38t37 -15t37 15t15 38zM43 325q0 -78 27 -143t76 -110q44 -40 100.5 -61t125.5 -21q71 0 129.5 23t103.5 66q46 45 71.5 108.5t25.5 139.5
q0 70 -21.5 129.5t-61.5 104.5q-44 49 -107 76t-140 27q-72 0 -131.5 -24.5t-104.5 -69.5q-45 -46 -69 -108t-24 -137zM606 326q0 -59 -16.5 -107t-47 -81.5t-74 -51.5t-96.5 -18t-96.5 18t-74 51.5t-47 81.5t-16.5 107t16.5 107t47 81.5t74 51.5t96.5 18q56 0 99.5 -19
t73.5 -53.5t45.5 -82t15.5 -103.5z" />
    <glyph glyph-name="Udieresis" unicode="&#xdc;" horiz-adv-x="669" 
d="M473 759q0 23 -15 38t-37 15t-37 -15t-15 -38t15 -38t37 -15t37 15t15 38zM298 759q0 23 -15.5 38t-37.5 15q-21 0 -36.5 -15t-15.5 -38t15.5 -38t36.5 -15q22 0 37.5 15t15.5 38zM586 229v430h-89v-424q0 -38 -9 -69.5t-30 -54.5q-20 -20 -51 -31.5t-77 -11.5
q-41 0 -69.5 11.5t-47.5 31.5q-25 26 -34.5 60.5t-9.5 69.5v418h-89v-420q0 -49 13 -100t51 -89q29 -28 74 -44t110 -16q69 0 117 18t79 50q32 33 47 77.5t15 93.5z" />
    <glyph glyph-name="aacute" unicode="&#xe1;" horiz-adv-x="471" 
d="M383 678h-113l-87 -147h76zM422 0q-2 6 -4 16.5t-3 29t-1.5 46.5t-0.5 70v159q0 46 -13 77t-35.5 50.5t-54 28t-68.5 8.5q-46 0 -87 -11t-86 -43l33 -60q20 14 50 27.5t73 13.5t71 -22t28 -77v-18l-92 -3q-94 -3 -143.5 -43t-49.5 -112q0 -34 12 -61.5t32 -46.5t47 -29
t57 -10q51 0 85.5 17t56.5 38l20 -45h73zM323 110q-14 -15 -40.5 -30.5t-68.5 -15.5q-44 0 -65.5 23t-21.5 57q0 36 26 55.5t85 21.5l85 3v-114z" />
    <glyph glyph-name="agrave" unicode="&#xe0;" horiz-adv-x="471" 
d="M302 531l-88 147h-113l124 -147h77zM422 0q-2 6 -4 16.5t-3 29t-1.5 46.5t-0.5 70v159q0 46 -13 77t-35.5 50.5t-54 28t-68.5 8.5q-46 0 -87 -11t-86 -43l33 -60q20 14 50 27.5t73 13.5t71 -22t28 -77v-18l-92 -3q-94 -3 -143.5 -43t-49.5 -112q0 -34 12 -61.5t32 -46.5
t47 -29t57 -10q51 0 85.5 17t56.5 38l20 -45h73zM323 110q-14 -15 -40.5 -30.5t-68.5 -15.5q-44 0 -65.5 23t-21.5 57q0 36 26 55.5t85 21.5l85 3v-114z" />
    <glyph glyph-name="acircumflex" unicode="&#xe2;" horiz-adv-x="471" 
d="M387 531l-105 147h-78l-103 -147h81l60 91l63 -91h82zM422 0q-2 6 -4 16.5t-3 29t-1.5 46.5t-0.5 70v159q0 46 -13 77t-35.5 50.5t-54 28t-68.5 8.5q-46 0 -87 -11t-86 -43l33 -60q20 14 50 27.5t73 13.5t71 -22t28 -77v-18l-92 -3q-94 -3 -143.5 -43t-49.5 -112
q0 -34 12 -61.5t32 -46.5t47 -29t57 -10q51 0 85.5 17t56.5 38l20 -45h73zM323 110q-14 -15 -40.5 -30.5t-68.5 -15.5q-44 0 -65.5 23t-21.5 57q0 36 26 55.5t85 21.5l85 3v-114z" />
    <glyph glyph-name="adieresis" unicode="&#xe4;" horiz-adv-x="471" 
d="M381 609q0 23 -15 38t-37 15t-37 -15t-15 -38t15 -38t37 -15t37 15t15 38zM205 609q0 23 -15 38t-37 15t-37 -15t-15 -38t15 -38t37 -15t37 15t15 38zM422 0q-2 6 -4 16.5t-3 29t-1.5 46.5t-0.5 70v159q0 46 -13 77t-35.5 50.5t-54 28t-68.5 8.5q-46 0 -87 -11t-86 -43
l33 -60q20 14 50 27.5t73 13.5t71 -22t28 -77v-18l-92 -3q-94 -3 -143.5 -43t-49.5 -112q0 -34 12 -61.5t32 -46.5t47 -29t57 -10q51 0 85.5 17t56.5 38l20 -45h73zM323 110q-14 -15 -40.5 -30.5t-68.5 -15.5q-44 0 -65.5 23t-21.5 57q0 36 26 55.5t85 21.5l85 3v-114z" />
    <glyph glyph-name="atilde" unicode="&#xe3;" horiz-adv-x="471" 
d="M385 623v24h-55v-10q0 -25 -22 -25q-9 0 -19 4t-21 9l-29 13q-19 8 -32 11t-24 3q-31 0 -51 -20.5t-20 -54.5v-23h55v9q0 25 22 25q9 0 19 -3.5t21 -8.5l29 -13q19 -8 31.5 -11.5t25.5 -3.5q30 0 50 20.5t20 54.5zM422 0q-2 6 -4 16.5t-3 29t-1.5 46.5t-0.5 70v159
q0 46 -13 77t-35.5 50.5t-54 28t-68.5 8.5q-46 0 -87 -11t-86 -43l33 -60q20 14 50 27.5t73 13.5t71 -22t28 -77v-18l-92 -3q-94 -3 -143.5 -43t-49.5 -112q0 -34 12 -61.5t32 -46.5t47 -29t57 -10q51 0 85.5 17t56.5 38l20 -45h73zM323 110q-14 -15 -40.5 -30.5
t-68.5 -15.5q-44 0 -65.5 23t-21.5 57q0 36 26 55.5t85 21.5l85 3v-114z" />
    <glyph glyph-name="aring" unicode="&#xe5;" horiz-adv-x="471" 
d="M343 619q0 43 -27.5 68.5t-71.5 25.5q-43 0 -71 -25.5t-28 -68.5q0 -44 27 -70t71 -26q43 0 71.5 26t28.5 70zM422 0q-2 6 -4 16.5t-3 29t-1.5 46.5t-0.5 70v159q0 46 -13 77t-35.5 50.5t-54 28t-68.5 8.5q-46 0 -87 -11t-86 -43l33 -60q20 14 50 27.5t73 13.5t71 -22
t28 -77v-18l-92 -3q-94 -3 -143.5 -43t-49.5 -112q0 -34 12 -61.5t32 -46.5t47 -29t57 -10q51 0 85.5 17t56.5 38l20 -45h73zM291 620q0 -26 -12 -40t-36 -14q-21 0 -34 14t-13 40q0 24 12.5 38.5t34.5 14.5q23 0 35.5 -14.5t12.5 -38.5zM323 110q-14 -15 -40.5 -30.5
t-68.5 -15.5q-44 0 -65.5 23t-21.5 57q0 36 26 55.5t85 21.5l85 3v-114z" />
    <glyph glyph-name="ccedilla" unicode="&#xe7;" horiz-adv-x="429" 
d="M421 39l-25 60q-23 -14 -51.5 -24t-65.5 -10t-65 13.5t-47 36.5t-29 55t-10 68q0 37 10.5 69t30.5 55.5t48 36.5t64 13q38 0 68 -10t55 -27v79q-23 13 -55.5 22t-70.5 9q-58 0 -102.5 -20.5t-75 -55.5t-46 -81t-15.5 -96q0 -44 12 -85t36 -73.5t59.5 -54t82.5 -27.5
l-23 -73l30 -1q20 -1 32 -6.5t12 -19.5t-12 -21.5t-27 -7.5t-25.5 3.5t-20.5 8.5l-15 -41q11 -6 26 -10t39 -4q17 0 34.5 4.5t32 13.5t24 23t9.5 33t-7 30.5t-17.5 18t-22.5 9t-21 3.5l12 36q41 5 75 18.5t57 29.5z" />
    <glyph glyph-name="eacute" unicode="&#xe9;" horiz-adv-x="473" 
d="M398 678h-113l-88 -147h77zM435 218v23q0 55 -13 100t-38.5 77t-62 49.5t-82.5 17.5q-45 0 -82 -18.5t-63.5 -51.5t-40.5 -77t-14 -95q0 -50 13.5 -95.5t41 -80.5t70 -56t100.5 -21q42 0 84 13t73 36l-25 59q-24 -14 -54 -23.5t-61 -9.5q-36 0 -63.5 12t-46.5 33
t-29 48.5t-10 59.5h303zM341 287h-210q0 25 7.5 48t21.5 40.5t33.5 27.5t44.5 10q26 0 45.5 -11t32 -29t19 -40.5t6.5 -45.5z" />
    <glyph glyph-name="egrave" unicode="&#xe8;" horiz-adv-x="473" 
d="M315 531l-87 147h-113l124 -147h76zM435 218v23q0 55 -13 100t-38.5 77t-62 49.5t-82.5 17.5q-45 0 -82 -18.5t-63.5 -51.5t-40.5 -77t-14 -95q0 -50 13.5 -95.5t41 -80.5t70 -56t100.5 -21q42 0 84 13t73 36l-25 59q-24 -14 -54 -23.5t-61 -9.5q-36 0 -63.5 12t-46.5 33
t-29 48.5t-10 59.5h303zM341 287h-210q0 25 7.5 48t21.5 40.5t33.5 27.5t44.5 10q26 0 45.5 -11t32 -29t19 -40.5t6.5 -45.5z" />
    <glyph glyph-name="ecircumflex" unicode="&#xea;" horiz-adv-x="473" 
d="M389 531l-105 147h-79l-103 -147h81l61 91l63 -91h82zM435 218v23q0 55 -13 100t-38.5 77t-62 49.5t-82.5 17.5q-45 0 -82 -18.5t-63.5 -51.5t-40.5 -77t-14 -95q0 -50 13.5 -95.5t41 -80.5t70 -56t100.5 -21q42 0 84 13t73 36l-25 59q-24 -14 -54 -23.5t-61 -9.5
q-36 0 -63.5 12t-46.5 33t-29 48.5t-10 59.5h303zM341 287h-210q0 25 7.5 48t21.5 40.5t33.5 27.5t44.5 10q26 0 45.5 -11t32 -29t19 -40.5t6.5 -45.5z" />
    <glyph glyph-name="edieresis" unicode="&#xeb;" horiz-adv-x="473" 
d="M383 609q0 23 -15.5 38t-37.5 15q-21 0 -36.5 -15t-15.5 -38t15.5 -38t36.5 -15q22 0 37.5 15t15.5 38zM207 609q0 23 -15.5 38t-36.5 15q-22 0 -37.5 -15t-15.5 -38t15.5 -38t37.5 -15q21 0 36.5 15t15.5 38zM435 218v23q0 55 -13 100t-38.5 77t-62 49.5t-82.5 17.5
q-45 0 -82 -18.5t-63.5 -51.5t-40.5 -77t-14 -95q0 -50 13.5 -95.5t41 -80.5t70 -56t100.5 -21q42 0 84 13t73 36l-25 59q-24 -14 -54 -23.5t-61 -9.5q-36 0 -63.5 12t-46.5 33t-29 48.5t-10 59.5h303zM341 287h-210q0 25 7.5 48t21.5 40.5t33.5 27.5t44.5 10q26 0 45.5 -11
t32 -29t19 -40.5t6.5 -45.5z" />
    <glyph glyph-name="iacute" unicode="&#xed;" horiz-adv-x="240" 
d="M260 678h-113l-88 -147h77zM165 0v473h-89v-473h89z" />
    <glyph glyph-name="igrave" unicode="&#xec;" horiz-adv-x="240" 
d="M188 531l-88 147h-113l124 -147h77zM165 0v473h-89v-473h89z" />
    <glyph glyph-name="icircumflex" unicode="&#xee;" horiz-adv-x="240" 
d="M267 531l-106 147h-78l-103 -147h81l61 91l62 -91h83zM165 0v473h-89v-473h89z" />
    <glyph glyph-name="idieresis" unicode="&#xef;" horiz-adv-x="240" 
d="M263 609q0 23 -15 38t-37 15t-37 -15t-15 -38t15 -38t37 -15t37 15t15 38zM87 609q0 23 -15 38t-37 15t-37 -15t-15 -38t15 -38t37 -15t37 15t15 38zM165 0v473h-89v-473h89z" />
    <glyph glyph-name="ntilde" unicode="&#xf1;" horiz-adv-x="516" 
d="M403 623v24h-55v-10q0 -25 -22 -25q-9 0 -19 4t-21 9l-29 13q-19 8 -31.5 11t-24.5 3q-31 0 -51 -20.5t-20 -54.5v-23h55v9q0 25 22 25q9 0 19.5 -3.5t20.5 -8.5l29 -13q19 -8 31.5 -11.5t25.5 -3.5q30 0 50 20.5t20 54.5zM456 0v317q0 45 -12 77t-32 52.5t-45 29.5
t-51 9q-50 0 -88.5 -18t-79.5 -48l-11 54h-74v-473h88v338q28 24 63.5 45t74.5 21q26 0 41.5 -10.5t23.5 -27.5t10.5 -37.5t2.5 -41.5v-287h89z" />
    <glyph glyph-name="oacute" unicode="&#xf3;" horiz-adv-x="521" 
d="M429 678h-113l-88 -147h77zM261 485q-48 0 -87 -16.5t-68 -46.5q-32 -34 -49.5 -81t-17.5 -105t17.5 -106.5t50.5 -81.5q60 -58 153 -58q97 0 157 62q32 33 49.5 80.5t17.5 104.5t-16.5 104t-48.5 80q-29 31 -69 47.5t-89 16.5zM260 412q64 0 98.5 -47.5t34.5 -126.5
q0 -78 -34 -126.5t-97 -48.5t-98 48t-35 127q0 78 33.5 126t97.5 48z" />
    <glyph glyph-name="ograve" unicode="&#xf2;" horiz-adv-x="521" 
d="M325 531l-88 147h-113l124 -147h77zM261 485q-48 0 -87 -16.5t-68 -46.5q-32 -34 -49.5 -81t-17.5 -105t17.5 -106.5t50.5 -81.5q60 -58 153 -58q97 0 157 62q32 33 49.5 80.5t17.5 104.5t-16.5 104t-48.5 80q-29 31 -69 47.5t-89 16.5zM260 412q64 0 98.5 -47.5
t34.5 -126.5q0 -78 -34 -126.5t-97 -48.5t-98 48t-35 127q0 78 33.5 126t97.5 48z" />
    <glyph glyph-name="ocircumflex" unicode="&#xf4;" horiz-adv-x="521" 
d="M408 531l-105 147h-78l-103 -147h81l60 91l63 -91h82zM261 485q-48 0 -87 -16.5t-68 -46.5q-32 -34 -49.5 -81t-17.5 -105t17.5 -106.5t50.5 -81.5q60 -58 153 -58q97 0 157 62q32 33 49.5 80.5t17.5 104.5t-16.5 104t-48.5 80q-29 31 -69 47.5t-89 16.5zM260 412
q64 0 98.5 -47.5t34.5 -126.5q0 -78 -34 -126.5t-97 -48.5t-98 48t-35 127q0 78 33.5 126t97.5 48z" />
    <glyph glyph-name="odieresis" unicode="&#xf6;" horiz-adv-x="521" 
d="M403 609q0 23 -15 38t-37 15t-37 -15t-15 -38t15 -38t37 -15t37 15t15 38zM228 609q0 23 -15.5 38t-37.5 15q-21 0 -36.5 -15t-15.5 -38t15.5 -38t36.5 -15q22 0 37.5 15t15.5 38zM261 485q-48 0 -87 -16.5t-68 -46.5q-32 -34 -49.5 -81t-17.5 -105t17.5 -106.5
t50.5 -81.5q60 -58 153 -58q97 0 157 62q32 33 49.5 80.5t17.5 104.5t-16.5 104t-48.5 80q-29 31 -69 47.5t-89 16.5zM260 412q64 0 98.5 -47.5t34.5 -126.5q0 -78 -34 -126.5t-97 -48.5t-98 48t-35 127q0 78 33.5 126t97.5 48z" />
    <glyph glyph-name="otilde" unicode="&#xf5;" horiz-adv-x="521" 
d="M412 623v24h-55v-10q0 -25 -22 -25q-9 0 -19 4t-21 9l-29 13q-19 8 -31.5 11t-24.5 3q-31 0 -51 -20.5t-20 -54.5v-23h55v9q0 25 22 25q9 0 19.5 -3.5t20.5 -8.5l29 -13q19 -8 31.5 -11.5t25.5 -3.5q30 0 50 20.5t20 54.5zM261 485q-48 0 -87 -16.5t-68 -46.5
q-32 -34 -49.5 -81t-17.5 -105t17.5 -106.5t50.5 -81.5q60 -58 153 -58q97 0 157 62q32 33 49.5 80.5t17.5 104.5t-16.5 104t-48.5 80q-29 31 -69 47.5t-89 16.5zM260 412q64 0 98.5 -47.5t34.5 -126.5q0 -78 -34 -126.5t-97 -48.5t-98 48t-35 127q0 78 33.5 126t97.5 48z
" />
    <glyph glyph-name="uacute" unicode="&#xfa;" horiz-adv-x="514" 
d="M410 678h-113l-88 -147h77zM454 0q-3 8 -4.5 19t-3 30.5t-2 49.5t-0.5 77v297h-88v-354q-8 -9 -19.5 -18.5t-26 -17.5t-32 -13.5t-37.5 -5.5q-44 0 -67 25.5t-23 79.5v304h-88v-311q0 -52 14.5 -85.5t36.5 -52.5t48 -26.5t50 -7.5q48 0 86.5 17.5t64.5 40.5l19 -48h72z
" />
    <glyph glyph-name="ugrave" unicode="&#xf9;" horiz-adv-x="514" 
d="M311 531l-88 147h-113l124 -147h77zM454 0q-3 8 -4.5 19t-3 30.5t-2 49.5t-0.5 77v297h-88v-354q-8 -9 -19.5 -18.5t-26 -17.5t-32 -13.5t-37.5 -5.5q-44 0 -67 25.5t-23 79.5v304h-88v-311q0 -52 14.5 -85.5t36.5 -52.5t48 -26.5t50 -7.5q48 0 86.5 17.5t64.5 40.5
l19 -48h72z" />
    <glyph glyph-name="ucircumflex" unicode="&#xfb;" horiz-adv-x="514" 
d="M397 531l-106 147h-78l-103 -147h81l61 91l62 -91h83zM454 0q-3 8 -4.5 19t-3 30.5t-2 49.5t-0.5 77v297h-88v-354q-8 -9 -19.5 -18.5t-26 -17.5t-32 -13.5t-37.5 -5.5q-44 0 -67 25.5t-23 79.5v304h-88v-311q0 -52 14.5 -85.5t36.5 -52.5t48 -26.5t50 -7.5
q48 0 86.5 17.5t64.5 40.5l19 -48h72z" />
    <glyph glyph-name="udieresis" unicode="&#xfc;" horiz-adv-x="514" 
d="M394 609q0 23 -15.5 38t-36.5 15q-22 0 -37.5 -15t-15.5 -38t15.5 -38t37.5 -15q21 0 36.5 15t15.5 38zM218 609q0 23 -15 38t-37 15t-37 -15t-15 -38t15 -38t37 -15t37 15t15 38zM454 0q-3 8 -4.5 19t-3 30.5t-2 49.5t-0.5 77v297h-88v-354q-8 -9 -19.5 -18.5t-26 -17.5
t-32 -13.5t-37.5 -5.5q-44 0 -67 25.5t-23 79.5v304h-88v-311q0 -52 14.5 -85.5t36.5 -52.5t48 -26.5t50 -7.5q48 0 86.5 17.5t64.5 40.5l19 -48h72z" />
    <glyph glyph-name="dagger" unicode="&#x2020;" horiz-adv-x="519" 
d="M449 388v96q-16 0 -37 -2.5t-43 -5.5l-41.5 -5.5t-32.5 -3.5q0 15 2 35t4.5 42l5 43t2.5 37h-97q0 -17 2 -38t4.5 -43t4.5 -42t1 -34q-13 1 -32.5 3.5l-41 5.5t-42.5 5.5t-37 2.5v-96q17 0 38 2t42 5l40 5.5t32 2.5q2 -31 -2 -88t-4 -150v-211h87v211q0 91 -4.5 148.5
t-2.5 89.5q13 0 32 -2.5l40 -5.5t42 -5t38 -2z" />
    <glyph glyph-name="degree" unicode="&#xb0;" horiz-adv-x="388" 
d="M348 506q0 33 -11.5 61t-32.5 48.5t-49 32t-61 11.5t-61 -11.5t-49 -32t-32.5 -48.5t-11.5 -61t11.5 -61t32 -48.5t48.5 -32t61 -11.5t61.5 11.5t49 32t32.5 48.5t12 61zM276 506q0 -38 -23.5 -62.5t-58.5 -24.5t-59 24.5t-24 62.5t24 62.5t59 24.5t58.5 -24.5
t23.5 -62.5z" />
    <glyph glyph-name="cent" unicode="&#xa2;" horiz-adv-x="524" 
d="M441 146l-22 60q-18 -12 -44.5 -21t-64.5 -9q-32 0 -59 11t-47 31.5t-31.5 49t-11.5 64.5q0 30 10.5 59t30.5 51t49 35.5t67 13.5q35 0 61.5 -7.5t46.5 -18.5v76q-17 10 -42 16t-60 7v88h-75v-96q-41 -10 -73 -32t-54.5 -52t-34 -67t-11.5 -78q0 -44 12.5 -81t35 -65.5
t53.5 -48t68 -26.5v-99h75v96q37 4 69 15t52 28z" />
    <glyph glyph-name="sterling" unicode="&#xa3;" horiz-adv-x="524" 
d="M464 642q-17 8 -44.5 15t-61.5 7q-26 0 -61 -7.5t-67 -30t-54.5 -64.5t-22.5 -112v-74h-74v-76h74q0 -24 -2.5 -60.5t-11.5 -72t-27 -64t-48 -37.5v-66h396v79h-180q-26 0 -53 -1t-47 -5v1q18 15 29.5 42t18.5 59t10 65t3 60h160l29 76h-189v69q0 44 11.5 72.5t29.5 45
t40.5 23t44.5 6.5q24 0 44.5 -6t33.5 -14z" />
    <glyph glyph-name="section" unicode="&#xa7;" horiz-adv-x="519" 
d="M479 256q0 47 -22 80t-54.5 57.5t-70.5 43.5t-70.5 38t-54.5 42t-22 54q0 39 30 57t74 18q38 0 75.5 -12t66.5 -30v87q-21 11 -57 21.5t-89 10.5q-43 0 -77.5 -11.5t-58.5 -32.5t-37 -50t-13 -63q0 -42 14 -70.5t35 -48.5q-43 -23 -66.5 -59.5t-23.5 -80.5
q0 -49 21.5 -81.5t53 -56.5t69 -42t69 -36t53 -40.5t21.5 -55.5q0 -23 -10 -39t-26.5 -26t-37 -14.5t-41.5 -4.5q-46 0 -81.5 15t-55.5 29l-38 -69q25 -18 69 -34.5t107 -16.5q44 0 81.5 11t65.5 32t43.5 52t15.5 70q0 36 -14 64t-37 50q39 23 66 58.5t27 83.5zM390 244
q0 -30 -14 -54t-36 -41q-32 21 -67 39t-64.5 37.5t-48.5 42.5t-19 54t15.5 52.5t37.5 36.5q31 -20 65.5 -36.5t63.5 -35t48 -41t19 -54.5z" />
    <glyph glyph-name="bullet" unicode="&#x2022;" horiz-adv-x="307" 
d="M255 318q0 45 -28.5 75t-73.5 30q-44 0 -72.5 -30t-28.5 -75q0 -44 28.5 -74t72.5 -30q45 0 73.5 30t28.5 74z" />
    <glyph glyph-name="paragraph" unicode="&#xb6;" horiz-adv-x="598" 
d="M518 -160v819h-265h-17q-40 0 -74 -15.5t-59 -42t-39 -62t-14 -76.5q0 -40 14 -75.5t39 -62.5t59 -42.5t74 -15.5h12v-427h81v751h107v-751h82z" />
    <glyph glyph-name="germandbls" unicode="&#xdf;" horiz-adv-x="577" 
d="M544 151q0 34 -12.5 60t-31 47t-40.5 38l-40.5 32.5t-31 31.5t-12.5 34q0 29 26 45.5t74 27.5q1 8 1 15v14q0 58 -18 98t-47 65.5t-64.5 37t-71.5 11.5q-34 0 -71.5 -9.5t-69 -34t-52 -67.5t-20.5 -109v-629h88v633q0 39 10 66.5t27 45t39 25t47 7.5q54 0 83.5 -35
t31.5 -89q-47 -17 -75 -47t-28 -79q0 -32 12.5 -55.5t31 -42t40 -34t40 -32t31 -35.5t12.5 -45q0 -45 -26 -64t-67 -19q-37 0 -66.5 11.5t-47.5 24.5l-32 -67q23 -14 58 -26t87 -12q37 0 70.5 9t59 28t40.5 49.5t15 74.5z" />
    <glyph glyph-name="registered" unicode="&#xae;" horiz-adv-x="589" 
d="M527 429q0 50 -17.5 93.5t-49 75t-74 49.5t-92.5 18q-52 0 -94.5 -18t-73 -49.5t-47.5 -75t-17 -93.5t16.5 -93.5t47 -75t73 -49.5t94.5 -18q49 0 92 18t74.5 49.5t49.5 75t18 93.5zM472 429q0 -40 -13.5 -75t-37 -60.5t-56.5 -40t-72 -14.5t-72 14.5t-57 40t-37.5 60.5
t-13.5 75t13.5 75t37.5 60.5t57 40t72 14.5t72 -14.5t56.5 -40t37 -60.5t13.5 -75zM399 300q-29 50 -51 84t-30 37v1q9 3 18.5 8.5t18 13.5t14 20t5.5 28q0 31 -22.5 51.5t-66.5 20.5h-74v-264h48v108h12q9 0 25.5 -29l46.5 -79h56zM324 487q0 -20 -14.5 -30t-34.5 -10h-16
v77h18q47 0 47 -37z" />
    <glyph glyph-name="copyright" unicode="&#xa9;" horiz-adv-x="787" 
d="M725 327q0 72 -25 134t-69.5 107t-105 70.5t-132.5 25.5q-74 0 -135 -25.5t-104.5 -70.5t-67.5 -107t-24 -134t23.5 -134t66.5 -107t104 -70.5t135 -25.5q72 0 133 25.5t105.5 70.5t70 107t25.5 134zM661 327q0 -61 -20.5 -113t-56.5 -89.5t-85 -59t-106 -21.5
t-105.5 21.5t-84.5 59t-56.5 89.5t-20.5 113t20.5 113t56.5 89.5t84.5 59t105.5 21.5t106 -21.5t85 -59t56.5 -89.5t20.5 -113zM518 156l-20 52q-21 -12 -43.5 -19.5t-48.5 -7.5q-60 0 -95 40.5t-35 104.5q0 31 9 57.5t26.5 45.5t41.5 30t54 11q35 0 58 -8.5t45 -22.5v66
q-14 8 -40 15.5t-61 7.5q-44 0 -80.5 -16t-62.5 -43.5t-40.5 -65t-14.5 -80.5t13.5 -79.5t38.5 -63t59 -41.5t75 -15q31 0 61 7.5t60 24.5z" />
    <glyph glyph-name="trademark" unicode="&#x2122;" horiz-adv-x="819" 
d="M751 264v395h-71l-99 -155q-10 -15 -15.5 -25.5t-11.5 -23.5h-2l-13.5 24l-15.5 25l-104 155h-69v-395h71v228v26q0 13 -2 29h1q5 -13 13 -26l15 -24l85 -124h40l80 124l15 24t13 26h1q-2 -16 -2 -29v-26v-228h71zM329 659h-306v-64h110v-331h71v331h103z" />
    <glyph glyph-name="acute" unicode="&#xb4;" horiz-adv-x="542" 
d="M379 678h-113l-88 -147h77z" />
    <glyph glyph-name="dieresis" unicode="&#xa8;" horiz-adv-x="383" 
d="M332 609q0 23 -15 38t-37 15t-37 -15t-15 -38t15 -38t37 -15t37 15t15 38zM157 609q0 23 -15.5 38t-37.5 15q-21 0 -36.5 -15t-15.5 -38t15.5 -38t36.5 -15q22 0 37.5 15t15.5 38z" />
    <glyph glyph-name="notequal" unicode="&#x2260;" 
 />
    <glyph glyph-name="AE" unicode="&#xc6;" horiz-adv-x="802" 
d="M752 0v79h-211l-38 219h216v78h-231l-34 204h266l30 79h-388l-346 -659h91l91 172h236l30 -172h288zM418 249h-179l98 195l21 42.5t19 43.5h1q4 -27 6 -45.5t5 -40.5z" />
    <glyph glyph-name="Oslash" unicode="&#xd8;" horiz-adv-x="743" 
d="M594 691l-53 -70q-75 43 -170 43q-72 0 -132 -25t-104 -70q-45 -45 -69.5 -107.5t-24.5 -136.5q0 -75 24 -136.5t69 -106.5l-52 -68l62 -45l50 67q77 -48 177 -48q71 0 129 23.5t103 67.5q47 45 72 108.5t25 139.5q0 71 -24.5 137t-72.5 111l54 71zM606 326
q0 -59 -17 -107t-47.5 -82t-74 -52.5t-96.5 -18.5q-38 0 -70 9t-58 26l306 403q29 -33 43 -78.5t14 -99.5zM491 556l-304 -403q-52 67 -52 173q0 59 17 107t47.5 81.5t74 52t97.5 18.5q35 0 65 -7.5t55 -21.5z" />
    <glyph glyph-name="infinity" unicode="&#x221e;" 
 />
    <glyph glyph-name="plusminus" unicode="&#xb1;" horiz-adv-x="613" 
d="M544 278v79h-192v145h-87v-145h-194v-79h194v-144h87v144h192zM544 0v79h-473v-79h473z" />
    <glyph glyph-name="lessequal" unicode="&#x2264;" 
 />
    <glyph glyph-name="greaterequal" unicode="&#x2265;" 
 />
    <glyph glyph-name="yen" unicode="&#xa5;" horiz-adv-x="524" 
d="M523 659h-94l-111 -205l-28.5 -53t-25.5 -52h-2l-27 52l-29 54l-110 204h-98l179 -324h-129v-70h168v-77h-168v-70h168v-118h89v118h165v70h-165v77h165v70h-125z" />
    <glyph glyph-name="mu" unicode="&#xb5;" horiz-adv-x="530" 
d="M462 0q-3 8 -5 18.5t-3.5 28.5t-2 45.5t-0.5 69.5v311h-88v-354q-8 -9 -19 -18.5t-26 -17.5t-32.5 -13.5t-37.5 -5.5q-44 0 -66.5 25.5t-22.5 79.5v304h-89v-709h89v140q0 25 -0.5 55t-2.5 55h1q9 -11 30 -17.5t44 -6.5q38 0 75 17t64 41l19 -48h73z" />
    <glyph glyph-name="mu" unicode="&#x3bc;" horiz-adv-x="530" 
d="M462 0q-3 8 -5 18.5t-3.5 28.5t-2 45.5t-0.5 69.5v311h-88v-354q-8 -9 -19 -18.5t-26 -17.5t-32.5 -13.5t-37.5 -5.5q-44 0 -66.5 25.5t-22.5 79.5v304h-89v-709h89v140q0 25 -0.5 55t-2.5 55h1q9 -11 30 -17.5t44 -6.5q38 0 75 17t64 41l19 -48h73z" />
    <glyph glyph-name="partialdiff" unicode="&#x2202;" 
 />
    <glyph glyph-name="summation" unicode="&#x2211;" 
 />
    <glyph glyph-name="product" unicode="&#x220f;" 
 />
    <glyph glyph-name="pi" unicode="&#x3c0;" 
 />
    <glyph glyph-name="integral" unicode="&#x222b;" 
 />
    <glyph glyph-name="ordfeminine" unicode="&#xaa;" horiz-adv-x="397" 
d="M329 351q-3 9 -5 30t-2 75v102q0 30 -9.5 50.5t-26 32.5t-38 17.5t-44.5 5.5q-32 0 -62 -10t-56 -27l24 -48q14 9 34.5 18t46.5 9q23 0 42.5 -11.5t19.5 -41.5v-10l-66 -2q-57 -2 -88.5 -28t-31.5 -73q0 -45 28.5 -70t70.5 -25q35 0 59 11t38 25l11 -30h55zM253 426
q-9 -8 -27.5 -17t-41.5 -9q-25 0 -35.5 13t-10.5 32q0 20 13.5 31.5t45.5 12.5l56 1v-64z" />
    <glyph glyph-name="ordmasculine" unicode="&#xba;" horiz-adv-x="429" 
d="M363 504q0 72 -40 117q-19 20 -45.5 31.5t-61.5 11.5q-64 0 -105 -41q-20 -21 -32 -51t-12 -68q0 -77 44 -121q19 -18 43.5 -28t56.5 -10t58.5 9t45.5 27q22 21 35 53t13 70zM291 504q0 -49 -20.5 -75t-53.5 -26q-35 0 -56 27t-21 75q0 49 21.5 74.5t54.5 25.5
q35 0 55 -26.5t20 -74.5z" />
    <glyph glyph-name="Omega" unicode="&#x3a9;" 
 />
    <glyph glyph-name="Omega" unicode="&#x2126;" 
 />
    <glyph glyph-name="ae" unicode="&#xe6;" horiz-adv-x="754" 
d="M716 220v21q0 55 -13 100t-38.5 77t-62 49.5t-82.5 17.5q-43 0 -77 -18.5t-59 -46.5q-20 34 -57 49.5t-85 15.5q-46 0 -89 -13t-83 -42l32 -59q20 14 50 27.5t73 13.5q45 0 72.5 -22.5t27.5 -77.5v-23h-85q-100 0 -150.5 -40t-50.5 -112q0 -34 12 -61.5t33 -46.5t49 -29
t61 -10q34 0 60.5 7.5t48 19t39 26t32.5 28.5q29 -38 71 -59.5t100 -21.5q42 0 84 13t73 36l-25 59q-24 -14 -54 -23.5t-61 -9.5q-36 0 -63.5 12t-47 33t-29.5 49.5t-10 60.5h304zM622 289h-210q0 25 7.5 47.5t21 39.5t33 27.5t44.5 10.5q26 0 45.5 -11t32 -29t19.5 -40.5
t7 -44.5zM344 122q-20 -20 -50 -39t-76 -19q-47 0 -69 23t-22 56q0 36 28.5 56.5t100.5 20.5h66q2 -26 7.5 -52t14.5 -46z" />
    <glyph glyph-name="oslash" unicode="&#xf8;" horiz-adv-x="524" 
d="M479 469l-51 36l-44 -55q-52 35 -122 35q-47 0 -86.5 -16.5t-68.5 -46.5q-32 -34 -49.5 -81t-17.5 -105q0 -51 13.5 -94.5t39.5 -75.5l-47 -63l51 -39l44 59q49 -33 120 -33q48 0 88 16t69 46q32 33 49.5 80.5t17.5 104.5q0 51 -13.5 94.5t-39.5 74.5zM337 388l-187 -249
q-20 42 -20 99q0 78 34 126t97 48q46 0 76 -24zM395 238q0 -78 -34.5 -126.5t-97.5 -48.5q-43 0 -73 24l187 247q18 -41 18 -96z" />
    <glyph glyph-name="questiondown" unicode="&#xbf;" horiz-adv-x="462" 
d="M306 424q0 26 -17 43.5t-42 17.5q-26 0 -43 -17.5t-17 -43.5t17 -44t43 -18q25 0 42 18t17 44zM403 -125l-42 56q-31 -29 -63 -45t-69 -16q-36 0 -58.5 19.5t-22.5 54.5q0 27 14.5 49.5t37 42t48 38t48 39t37 43t14.5 50.5q0 29 -11 52.5t-34 46.5l-67 -42q10 -12 18 -24
t8 -31q0 -17 -15.5 -33.5t-38 -34l-49.5 -38t-49.5 -44.5t-38 -53t-15.5 -65q0 -66 42.5 -105t118.5 -39q57 0 104.5 22t82.5 57z" />
    <glyph glyph-name="exclamdown" unicode="&#xa1;" horiz-adv-x="276" 
d="M198 424q0 26 -16.5 43.5t-42.5 17.5t-42.5 -17.5t-16.5 -43.5t16.5 -44t42.5 -18t42.5 18t16.5 44zM184 -187v59q0 93 -1 154.5t-4 107t-7.5 83t-11.5 82.5h-42q-8 -45 -12.5 -82.5t-7 -83t-3.5 -107.5t-1 -155v-58h90z" />
    <glyph glyph-name="logicalnot" unicode="&#xac;" horiz-adv-x="615" 
d="M544 84v292h-473v-79h386v-213h87z" />
    <glyph glyph-name="radical" unicode="&#x221a;" 
 />
    <glyph glyph-name="florin" unicode="&#x192;" horiz-adv-x="524" 
d="M508 681q-25 15 -50.5 21t-52.5 6q-30 0 -61 -8t-57.5 -29.5t-45.5 -60.5t-25 -101l-12 -123h-105v-72h99l-25 -275q-4 -40 -13 -66t-22.5 -41.5t-30.5 -22t-36 -6.5q-39 0 -68 20l-36 -66q25 -15 51 -21t55 -6q30 0 62 8t59 33q25 24 42.5 64.5t23.5 105.5l25 273h111
l27 72h-132l11 113q4 40 13 66t22.5 41.5t30.5 22t36 6.5q39 0 68 -20z" />
    <glyph glyph-name="approxequal" unicode="&#x2248;" 
 />
    <glyph glyph-name="Delta" unicode="&#x394;" 
 />
    <glyph glyph-name="Delta" unicode="&#x2206;" 
 />
    <glyph glyph-name="guillemotleft" unicode="&#xab;" horiz-adv-x="560" 
d="M492 52l-138 189l138 190l-70 42l-166 -232l166 -231zM283 52l-138 189l138 190l-70 42l-166 -232l166 -231z" />
    <glyph glyph-name="guillemotright" unicode="&#xbb;" horiz-adv-x="560" 
d="M515 241l-166 232l-70 -42l138 -190l-138 -189l70 -42zM306 241l-166 232l-70 -42l138 -190l-138 -189l70 -42z" />
    <glyph glyph-name="ellipsis" unicode="&#x2026;" horiz-adv-x="710" 
d="M666 49q0 26 -16.5 44t-42.5 18t-42.5 -18t-16.5 -44t16.5 -43.5t42.5 -17.5t42.5 17.5t16.5 43.5zM416 49q0 26 -17 44t-42 18q-26 0 -43 -18t-17 -44t17 -43.5t43 -17.5q25 0 42 17.5t17 43.5zM165 49q0 26 -16.5 44t-42.5 18q-25 0 -42 -18t-17 -44t17 -43.5t42 -17.5
q26 0 42.5 17.5t16.5 43.5z" />
    <glyph glyph-name="nonbreakingspace" unicode="&#xa0;" horiz-adv-x="246" 
 />
    <glyph glyph-name="Agrave" unicode="&#xc0;" horiz-adv-x="595" 
d="M359 696l-88 147h-113l124 -147h77zM583 0l-257 661h-57l-253 -661h88l62 172h255l67 -172h95zM391 249h-194l73 200q17 46 26 81h1q8 -35 25 -82z" />
    <glyph glyph-name="Atilde" unicode="&#xc3;" horiz-adv-x="595" 
d="M435 797v24h-55v-10q0 -25 -22 -25q-10 0 -20 4t-20 9l-30 13q-34 14 -56 14q-31 0 -51 -20.5t-20 -54.5v-23h55v9q0 25 22 25q10 0 20 -3.5t20 -8.5l29 -13q19 -8 32 -11.5t25 -3.5q31 0 51 20.5t20 54.5zM583 0l-257 661h-57l-253 -661h88l62 172h255l67 -172h95z
M391 249h-194l73 200q17 46 26 81h1q8 -35 25 -82z" />
    <glyph glyph-name="Otilde" unicode="&#xd5;" horiz-adv-x="743" 
d="M507 796v24h-55v-9q0 -25 -22 -25q-9 0 -19 3.5t-21 8.5l-29 13q-19 8 -32 11t-24 3q-31 0 -51 -20.5t-20 -54.5v-23h55v9q0 25 22 25q9 0 19 -3.5t21 -8.5l29 -13q19 -8 31.5 -11t25.5 -3q30 0 50 20t20 54zM43 325q0 -78 27 -143t76 -110q44 -40 100.5 -61t125.5 -21
q71 0 129.5 23t103.5 66q46 45 71.5 108.5t25.5 139.5q0 70 -21.5 129.5t-61.5 104.5q-44 49 -107 76t-140 27q-72 0 -131.5 -24.5t-104.5 -69.5q-45 -46 -69 -108t-24 -137zM606 326q0 -59 -16.5 -107t-47 -81.5t-74 -51.5t-96.5 -18t-96.5 18t-74 51.5t-47 81.5t-16.5 107
t16.5 107t47 81.5t74 51.5t96.5 18q56 0 99.5 -19t73.5 -53.5t45.5 -82t15.5 -103.5z" />
    <glyph glyph-name="OE" unicode="&#x152;" horiz-adv-x="862" 
d="M813 0v79h-251v219h217v78h-217v204h219l30 79h-299q-14 0 -34.5 1t-41 1.5t-37.5 1.5t-25 1q-72 0 -132.5 -25.5t-105 -70.5t-69 -107t-24.5 -135q0 -78 26.5 -143t75.5 -110q43 -41 100.5 -62.5t125.5 -21.5q15 0 38.5 1.5t50 4t51 4t40.5 1.5h262zM473 77
q-27 -4 -55 -7t-45 -3q-54 0 -98 19t-74.5 53.5t-47 82.5t-16.5 107q0 58 16.5 105t46.5 80.5t73 52t97 18.5q17 0 46.5 -2.5t56.5 -7.5v-498z" />
    <glyph glyph-name="oe" unicode="&#x153;" horiz-adv-x="822" 
d="M784 218v23q0 55 -13 100t-38.5 77t-62 49.5t-82.5 17.5q-52 0 -91 -24.5t-63 -63.5q-27 40 -69 64t-104 24q-48 0 -87 -16.5t-68 -46.5q-32 -34 -49.5 -81t-17.5 -105t17.5 -106.5t50.5 -81.5q29 -29 67.5 -44t85.5 -15q60 0 103 24t72 68q27 -40 71.5 -65.5
t106.5 -25.5q42 0 84 13t73 36l-25 59q-24 -14 -54 -23.5t-61 -9.5q-36 0 -63.5 12t-46.5 33t-29 48.5t-10 59.5h303zM691 287h-210q0 25 7.5 48t21 40.5t33 27.5t44.5 10q26 0 45.5 -11t32 -29t19.5 -40.5t7 -45.5zM260 412q64 0 98.5 -47.5t34.5 -126.5q0 -78 -34 -126.5
t-97 -48.5t-98 48t-35 127q0 78 33.5 126t97.5 48z" />
    <glyph glyph-name="endash" unicode="&#x2013;" horiz-adv-x="500" 
d="M500 214v71h-500v-71h500z" />
    <glyph glyph-name="emdash" unicode="&#x2014;" horiz-adv-x="1000" 
d="M1000 214v71h-1000v-71h1000z" />
    <glyph glyph-name="quotedblleft" unicode="&#x201c;" horiz-adv-x="394" 
d="M337 510q-21 51 -28 95.5t5 100.5l-53 13q-35 -61 -34.5 -124.5t28.5 -124.5zM169 510q-21 51 -28 95.5t5 100.5l-53 13q-35 -61 -34.5 -124.5t28.5 -124.5z" />
    <glyph glyph-name="quotedblright" unicode="&#x201d;" horiz-adv-x="405" 
d="M342 716l-88 -18q4 -28 5 -52.5t-2 -47.5t-10 -46.5t-20 -48.5l48 -27q48 52 63.5 113t3.5 127zM174 716l-88 -18q4 -28 5 -52.5t-2 -47.5t-10 -46.5t-20 -48.5l49 -27q48 52 63.5 113t2.5 127z" />
    <glyph glyph-name="quoteleft" unicode="&#x2018;" horiz-adv-x="226" 
d="M169 510q-21 51 -28 95.5t5 100.5l-53 13q-35 -61 -34.5 -124.5t28.5 -124.5z" />
    <glyph glyph-name="quoteright" unicode="&#x2019;" horiz-adv-x="237" 
d="M174 716l-88 -18q4 -28 5 -52.5t-2 -47.5t-10 -46.5t-20 -48.5l49 -27q48 52 63.5 113t2.5 127z" />
    <glyph glyph-name="divide" unicode="&#xf7;" horiz-adv-x="615" 
d="M366 427q0 26 -16.5 43t-41.5 17q-24 0 -40.5 -17t-16.5 -43q0 -25 16.5 -42t40.5 -17q25 0 41.5 17t16.5 42zM544 213v79h-473v-79h473zM366 78q0 25 -16.5 42t-41.5 17q-24 0 -40.5 -17t-16.5 -42t16.5 -42t40.5 -17q25 0 41.5 17t16.5 42z" />
    <glyph glyph-name="lozenge" unicode="&#x25ca;" 
 />
    <glyph glyph-name="ydieresis" unicode="&#xff;" horiz-adv-x="492" 
d="M392 609q0 23 -15 38t-37 15t-37 -15t-15 -38t15 -38t37 -15t37 15t15 38zM216 609q0 23 -15 38t-37 15t-37 -15t-15 -38t15 -38t37 -15t37 15t15 38zM479 473h-88l-124 -370h-3l-162 370h-94l214 -475q-26 -91 -62.5 -127.5t-77.5 -36.5q-23 0 -39.5 4t-32.5 12l-22 -68
q20 -8 42 -13.5t53 -5.5q30 0 59 7t56 29t52 61t48 104z" />
    <glyph glyph-name="Ydieresis" unicode="&#x178;" horiz-adv-x="551" 
d="M417 759q0 23 -15 38t-37 15t-37 -15t-15 -38t15 -38t37 -15t37 15t15 38zM242 759q0 23 -15.5 38t-37.5 15q-21 0 -36.5 -15t-15.5 -38t15.5 -38t36.5 -15q22 0 37.5 15t15.5 38zM540 659h-94l-111 -205l-27.5 -52.5t-25.5 -52.5h-2q-11 24 -26.5 52l-29.5 54l-113 204
h-98l221 -394v-265h89v263z" />
    <glyph glyph-name="fraction" unicode="&#x2044;" horiz-adv-x="462" 
d="M496 676h-90l-446 -696h89z" />
    <glyph glyph-name="fraction" unicode="&#x2215;" horiz-adv-x="462" 
d="M496 676h-90l-446 -696h89z" />
    <glyph glyph-name="currency" unicode="&#xa4;" horiz-adv-x="581" 
d="M181 372h295l27 67h-308q20 68 67.5 109t119.5 41q49 0 87.5 -13t72.5 -36v86q-23 15 -65.5 26.5t-93.5 11.5q-111 0 -184 -60t-99 -165h-79v-67h68q-3 -24 -3 -50q0 -14 0.5 -26t1.5 -25h-67v-67h78q25 -103 93 -158.5t178 -55.5q50 0 94.5 11t89.5 38l-25 72
q-31 -19 -68 -31t-78 -12q-74 0 -119.5 36.5t-66.5 99.5h251l27 67h-293q-3 27 -3 56q0 13 0.5 23.5t1.5 21.5z" />
    <glyph glyph-name="guilsinglleft" unicode="&#x2039;" horiz-adv-x="351" 
d="M283 52l-138 189l138 190l-70 42l-166 -232l166 -231z" />
    <glyph glyph-name="guilsinglright" unicode="&#x203a;" horiz-adv-x="351" 
d="M306 241l-166 232l-70 -42l138 -190l-138 -189l70 -42z" />
    <glyph glyph-name="fi" unicode="&#xfb01;" horiz-adv-x="554" 
d="M434 680q-24 0 -41 -17.5t-17 -40.5q0 -25 17 -42t41 -17q25 0 42 17.5t17 41.5t-17 41t-42 17zM479 0v473h-89v-473h89zM320 690q-18 10 -39 14t-38 4q-23 0 -49 -6.5t-48 -23.5t-36.5 -48t-14.5 -79v-78h-60v-72h60v-401h89v401h96l27 72h-123v86q0 76 60 76
q34 0 58 -13z" />
    <glyph glyph-name="fl" unicode="&#xfb02;" horiz-adv-x="556" 
d="M543 9l-11 65q-11 -3 -17 -3.5t-11 -0.5q-20 0 -28.5 10.5t-8.5 41.5v586h-89v-625q0 -40 21.5 -66.5t70.5 -26.5q19 0 36 4t37 15zM320 690q-18 10 -39 14t-38 4q-23 0 -49 -6.5t-48 -23.5t-36.5 -48t-14.5 -79v-78h-60v-72h60v-401h89v401h96l27 72h-123v86q0 76 60 76
q34 0 58 -13z" />
    <glyph glyph-name="daggerdbl" unicode="&#x2021;" horiz-adv-x="519" 
d="M449 94v96q-17 0 -38 -2t-42 -5l-40 -5.5t-32 -2.5q-1 19 1.5 47t2.5 67q0 40 -2.5 68t-1.5 46q13 0 32 -2.5l40 -5.5t42 -5t38 -2v96q-16 0 -37 -2.5t-43 -5.5l-41.5 -5.5t-32.5 -3.5q0 15 2 35t4.5 42l5 43t2.5 37h-97q0 -17 2 -38t4.5 -43t4.5 -42t1 -34
q-13 1 -32.5 3.5l-41 5.5t-42.5 5.5t-37 2.5v-96q17 0 38 2t42 5l40 5.5t32 2.5q2 -18 -1 -45.5t-3 -68.5q0 -40 3 -67.5t1 -46.5q-13 0 -32 2.5l-40 5.5t-42 5t-38 2v-96q16 0 37 2.5t42.5 5.5l41 5.5t32.5 3.5q1 -14 -1 -34t-4.5 -42t-4.5 -43t-2 -38h97q0 16 -2.5 37
l-5 43t-4.5 42t-2 35q13 -1 32.5 -3.5l41.5 -5.5t43 -5.5t37 -2.5z" />
    <glyph glyph-name="periodcentered" unicode="&#xb7;" horiz-adv-x="209" 
d="M165 254q0 26 -16.5 43.5t-42.5 17.5q-25 0 -42 -17.5t-17 -43.5t17 -43.5t42 -17.5q26 0 42.5 17.5t16.5 43.5z" />
    <glyph glyph-name="periodcentered" unicode="&#x2219;" horiz-adv-x="209" 
d="M165 254q0 26 -16.5 43.5t-42.5 17.5q-25 0 -42 -17.5t-17 -43.5t17 -43.5t42 -17.5q26 0 42.5 17.5t16.5 43.5z" />
    <glyph glyph-name="quotesinglbase" unicode="&#x201a;" horiz-adv-x="237" 
d="M174 116l-88 -18q4 -28 5 -52.5t-2 -47.5t-10 -46.5t-20 -48.5l49 -27q48 52 63.5 113t2.5 127z" />
    <glyph glyph-name="quotedblbase" unicode="&#x201e;" horiz-adv-x="405" 
d="M342 116l-88 -18q4 -28 5 -52.5t-2 -47.5t-10 -46.5t-20 -48.5l48 -27q48 52 63.5 113t3.5 127zM174 116l-88 -18q4 -28 5 -52.5t-2 -47.5t-10 -46.5t-20 -48.5l49 -27q48 52 63.5 113t2.5 127z" />
    <glyph glyph-name="perthousand" unicode="&#x2030;" horiz-adv-x="1204" 
d="M1141 169q0 44 -12 77t-32.5 55.5t-48.5 33.5t-60 11q-33 0 -61.5 -11t-49.5 -33.5t-33.5 -56t-12.5 -77.5t11.5 -77t32 -55.5t48.5 -33.5t61 -11q32 0 60.5 11t50 33.5t34 56t12.5 77.5zM780 169q0 44 -11.5 77t-32 55.5t-48.5 33.5t-61 11q-32 0 -60.5 -11t-50 -33.5
t-34 -56t-12.5 -77.5t11.5 -77t32 -55.5t48.5 -33.5t61 -11q32 0 60.5 11t50 33.5t34 56t12.5 77.5zM690 676h-89l-446 -696h88zM375 491q0 43 -12 76.5t-32.5 55.5t-48.5 33.5t-61 11.5q-32 0 -60.5 -11.5t-50 -34t-34 -56t-12.5 -77.5t12 -76.5t32.5 -55t48.5 -33.5
t60 -11q33 0 61.5 11t50 33.5t34 56t12.5 77.5zM1059 168q0 -55 -16.5 -86t-54.5 -31q-35 0 -55.5 27t-20.5 92q0 55 18.5 85.5t53.5 30.5t55 -26.5t20 -91.5zM699 168q0 -55 -17 -86t-55 -31q-34 0 -55 27t-21 92q0 55 18.5 85.5t53.5 30.5t55.5 -26.5t20.5 -91.5zM293 489
q0 -54 -16.5 -85t-55.5 -31q-34 0 -54.5 26.5t-20.5 92.5q0 54 18 84.5t53 30.5t55.5 -26t20.5 -92z" />
    <glyph glyph-name="Acircumflex" unicode="&#xc2;" horiz-adv-x="595" 
d="M444 696l-106 147h-78l-103 -147h81l61 91l62 -91h83zM583 0l-257 661h-57l-253 -661h88l62 172h255l67 -172h95zM391 249h-194l73 200q17 46 26 81h1q8 -35 25 -82z" />
    <glyph glyph-name="Ecircumflex" unicode="&#xca;" horiz-adv-x="469" 
d="M388 696l-105 147h-78l-103 -147h81l60 91l63 -91h82zM419 0v79h-250v219h217v78h-217v204h219l29 79h-337v-659h339z" />
    <glyph glyph-name="Aacute" unicode="&#xc1;" horiz-adv-x="595" 
d="M446 843h-113l-88 -147h77zM583 0l-257 661h-57l-253 -661h88l62 172h255l67 -172h95zM391 249h-194l73 200q17 46 26 81h1q8 -35 25 -82z" />
    <glyph glyph-name="Edieresis" unicode="&#xcb;" horiz-adv-x="469" 
d="M386 759q0 23 -15 38t-37 15t-37 -15t-15 -38t15 -38t37 -15t37 15t15 38zM210 759q0 23 -15 38t-37 15t-37 -15t-15 -38t15 -38t37 -15t37 15t15 38zM419 0v79h-250v219h217v78h-217v204h219l29 79h-337v-659h339z" />
    <glyph glyph-name="Egrave" unicode="&#xc8;" horiz-adv-x="469" 
d="M320 696l-88 147h-113l124 -147h77zM419 0v79h-250v219h217v78h-217v204h219l29 79h-337v-659h339z" />
    <glyph glyph-name="Iacute" unicode="&#xcd;" horiz-adv-x="247" 
d="M256 843h-113l-87 -147h76zM169 0v659h-89v-659h89z" />
    <glyph glyph-name="Icircumflex" unicode="&#xce;" horiz-adv-x="247" 
d="M268 696l-105 147h-79l-103 -147h81l61 91l63 -91h82zM169 0v659h-89v-659h89z" />
    <glyph glyph-name="Idieresis" unicode="&#xcf;" horiz-adv-x="247" 
d="M265 759q0 23 -15 38t-37 15t-37 -15t-15 -38t15 -38t37 -15t37 15t15 38zM90 759q0 23 -15.5 38t-37.5 15q-21 0 -36.5 -15t-15.5 -38t15.5 -38t36.5 -15q22 0 37.5 15t15.5 38zM169 0v659h-89v-659h89z" />
    <glyph glyph-name="Igrave" unicode="&#xcc;" horiz-adv-x="247" 
d="M193 696l-87 147h-113l124 -147h76zM169 0v659h-89v-659h89z" />
    <glyph glyph-name="Oacute" unicode="&#xd3;" horiz-adv-x="743" 
d="M526 843h-113l-88 -147h77zM43 325q0 -78 27 -143t76 -110q44 -40 100.5 -61t125.5 -21q71 0 129.5 23t103.5 66q46 45 71.5 108.5t25.5 139.5q0 70 -21.5 129.5t-61.5 104.5q-44 49 -107 76t-140 27q-72 0 -131.5 -24.5t-104.5 -69.5q-45 -46 -69 -108t-24 -137z
M606 326q0 -59 -16.5 -107t-47 -81.5t-74 -51.5t-96.5 -18t-96.5 18t-74 51.5t-47 81.5t-16.5 107t16.5 107t47 81.5t74 51.5t96.5 18q56 0 99.5 -19t73.5 -53.5t45.5 -82t15.5 -103.5z" />
    <glyph glyph-name="Ocircumflex" unicode="&#xd4;" horiz-adv-x="743" 
d="M510 696l-105 147h-78l-103 -147h81l60 91l63 -91h82zM43 325q0 -78 27 -143t76 -110q44 -40 100.5 -61t125.5 -21q71 0 129.5 23t103.5 66q46 45 71.5 108.5t25.5 139.5q0 70 -21.5 129.5t-61.5 104.5q-44 49 -107 76t-140 27q-72 0 -131.5 -24.5t-104.5 -69.5
q-45 -46 -69 -108t-24 -137zM606 326q0 -59 -16.5 -107t-47 -81.5t-74 -51.5t-96.5 -18t-96.5 18t-74 51.5t-47 81.5t-16.5 107t16.5 107t47 81.5t74 51.5t96.5 18q56 0 99.5 -19t73.5 -53.5t45.5 -82t15.5 -103.5z" />
    <glyph glyph-name="Ograve" unicode="&#xd2;" horiz-adv-x="743" 
d="M425 696l-88 147h-113l124 -147h77zM43 325q0 -78 27 -143t76 -110q44 -40 100.5 -61t125.5 -21q71 0 129.5 23t103.5 66q46 45 71.5 108.5t25.5 139.5q0 70 -21.5 129.5t-61.5 104.5q-44 49 -107 76t-140 27q-72 0 -131.5 -24.5t-104.5 -69.5q-45 -46 -69 -108t-24 -137
zM606 326q0 -59 -16.5 -107t-47 -81.5t-74 -51.5t-96.5 -18t-96.5 18t-74 51.5t-47 81.5t-16.5 107t16.5 107t47 81.5t74 51.5t96.5 18q56 0 99.5 -19t73.5 -53.5t45.5 -82t15.5 -103.5z" />
    <glyph glyph-name="Uacute" unicode="&#xda;" horiz-adv-x="669" 
d="M484 843h-113l-87 -147h76zM586 229v430h-89v-424q0 -38 -9 -69.5t-30 -54.5q-20 -20 -51 -31.5t-77 -11.5q-41 0 -69.5 11.5t-47.5 31.5q-25 26 -34.5 60.5t-9.5 69.5v418h-89v-420q0 -49 13 -100t51 -89q29 -28 74 -44t110 -16q69 0 117 18t79 50q32 33 47 77.5
t15 93.5z" />
    <glyph glyph-name="Ucircumflex" unicode="&#xdb;" horiz-adv-x="669" 
d="M478 696l-106 147h-78l-103 -147h81l61 91l62 -91h83zM586 229v430h-89v-424q0 -38 -9 -69.5t-30 -54.5q-20 -20 -51 -31.5t-77 -11.5q-41 0 -69.5 11.5t-47.5 31.5q-25 26 -34.5 60.5t-9.5 69.5v418h-89v-420q0 -49 13 -100t51 -89q29 -28 74 -44t110 -16q69 0 117 18
t79 50q32 33 47 77.5t15 93.5z" />
    <glyph glyph-name="Ugrave" unicode="&#xd9;" horiz-adv-x="669" 
d="M391 696l-88 147h-113l124 -147h77zM586 229v430h-89v-424q0 -38 -9 -69.5t-30 -54.5q-20 -20 -51 -31.5t-77 -11.5q-41 0 -69.5 11.5t-47.5 31.5q-25 26 -34.5 60.5t-9.5 69.5v418h-89v-420q0 -49 13 -100t51 -89q29 -28 74 -44t110 -16q69 0 117 18t79 50
q32 33 47 77.5t15 93.5z" />
    <glyph glyph-name="dotlessi" unicode="&#x131;" horiz-adv-x="258" 
d="M174 0v473h-88v-473h88z" />
    <glyph glyph-name="circumflex" unicode="&#x2c6;" horiz-adv-x="411" 
d="M350 531l-105 147h-78l-103 -147h81l61 91l62 -91h82z" />
    <glyph glyph-name="tilde" unicode="&#x2dc;" horiz-adv-x="395" 
d="M335 623v24h-55v-10q0 -25 -22 -25q-10 0 -20 4t-20 9l-29 13q-19 8 -32 11t-24 3q-31 0 -51 -20.5t-20 -54.5v-23h54v9q0 25 23 25q9 0 19 -3.5t20 -8.5l30 -13q19 -8 31.5 -11.5t25.5 -3.5q30 0 50 20.5t20 54.5z" />
    <glyph glyph-name="macron" unicode="&#xaf;" horiz-adv-x="386" 
d="M323 571v57h-258v-57h258z" />
    <glyph glyph-name="macron" unicode="&#x2c9;" horiz-adv-x="386" 
d="M323 571v57h-258v-57h258z" />
    <glyph glyph-name="breve" unicode="&#x2d8;" horiz-adv-x="342" 
d="M300 655h-54q-2 -23 -17 -36.5t-42 -13.5h-10q-26 0 -41 13.5t-17 36.5h-54q0 -53 28.5 -81.5t82.5 -28.5h6q56 0 87 28.5t31 81.5z" />
    <glyph glyph-name="dotaccent" unicode="&#x2d9;" horiz-adv-x="381" 
d="M244 609q0 23 -15.5 38t-37.5 15q-21 0 -36.5 -15t-15.5 -38t15.5 -38t36.5 -15q22 0 37.5 15t15.5 38z" />
    <glyph glyph-name="ring" unicode="&#x2da;" horiz-adv-x="406" 
d="M303 619q0 43 -27.5 68.5t-70.5 25.5q-44 0 -71.5 -25.5t-27.5 -68.5q0 -44 26.5 -70t71.5 -26q43 0 71 26t28 70zM251 620q0 -26 -12 -40t-35 -14q-22 0 -35 14t-13 40q0 24 12.5 38.5t35.5 14.5t35 -14.5t12 -38.5z" />
    <glyph glyph-name="cedilla" unicode="&#xb8;" horiz-adv-x="509" 
d="M326 -106q0 19 -7 30.5t-17.5 18t-22.5 9t-21 3.5l14 45h-60l-25 -81l29 -1q20 -1 32.5 -6.5t12.5 -19.5t-12 -21.5t-27 -7.5t-26 3.5t-20 8.5l-15 -42q11 -5 26 -9t38 -4q17 0 35 4.5t32.5 13.5t24 23t9.5 33z" />
    <glyph glyph-name="hungarumlaut" unicode="&#x2dd;" horiz-adv-x="685" 
d="M520 678h-107l-82 -147h72zM360 678h-106l-82 -147h72z" />
    <glyph glyph-name="ogonek" unicode="&#x2db;" horiz-adv-x="509" 
d="M323 -166l-13 43q-20 -11 -45 -11q-6 0 -14 1.5t-15 5t-12 11t-5 19.5q0 17 9.5 33t22 28.5t25.5 22t21 13.5h-59l-22.5 -14.5t-28.5 -24t-24 -32.5t-10 -40t10 -35.5t24 -21t30.5 -10t28.5 -2.5q24 0 45 4.5t32 9.5z" />
    <glyph glyph-name="caron" unicode="&#x2c7;" horiz-adv-x="411" 
d="M351 678h-81l-60 -91l-63 91h-82l105 -147h78z" />
    <glyph glyph-name="lslash" unicode="&#x142;" horiz-adv-x="331" 
d="M204 708h-89v-372l-76 -44v-88l76 44v-165q0 -40 21.5 -66.5t69.5 -26.5q20 0 36.5 4t36.5 15l-11 65q-10 -3 -16.5 -3.5t-11.5 -0.5q-20 0 -28 10.5t-8 41.5v178l89 51v88l-89 -52v321z" />
    <glyph glyph-name="Scaron" unicode="&#x160;" horiz-adv-x="486" 
d="M399 843h-81l-61 -91l-63 91h-82l105 -147h79zM446 167q0 50 -21.5 85t-53.5 61t-70 46t-70 41t-53.5 45.5t-21.5 58.5q0 43 33 63t79 20q41 0 79 -12.5t68 -31.5l1 88q-24 12 -61.5 22.5t-90.5 10.5q-47 0 -84 -13t-62.5 -36t-38.5 -54t-13 -66q0 -38 12.5 -67t33.5 -52
q30 -33 71 -56l78.5 -45.5t63.5 -49.5t26 -67q0 -24 -11.5 -41.5t-29.5 -29t-40 -16.5t-43 -5q-48 0 -86 16t-59 32l-40 -69q29 -20 75 -37.5t113 -17.5q46 0 85.5 12.5t68.5 36t45.5 56t16.5 72.5z" />
    <glyph glyph-name="scaron" unicode="&#x161;" horiz-adv-x="414" 
d="M363 678h-81l-61 -91l-63 91h-82l105 -147h79zM355 132q0 39 -16.5 65t-40.5 43t-53 29t-53 24t-40.5 27t-16.5 39q0 29 23 41.5t58 12.5q37 0 66 -9t56 -20v76q-25 11 -55.5 18t-70.5 7q-41 0 -72 -10t-51.5 -28t-30.5 -41.5t-10 -50.5q0 -41 16 -67t40 -43t52 -28.5
t52 -23.5t40 -28t16 -42q0 -30 -26 -47t-68 -17q-38 0 -68.5 12t-50.5 25l-31 -67q25 -15 61 -27t90 -12q38 0 71.5 8t58.5 25t39.5 44t14.5 65z" />
    <glyph glyph-name="Yacute" unicode="&#xdd;" horiz-adv-x="551" 
d="M428 853h-113l-88 -147h77zM540 659h-94l-111 -205l-27.5 -52.5t-25.5 -52.5h-2q-11 24 -26.5 52l-29.5 54l-113 204h-98l221 -394v-265h89v263z" />
    <glyph glyph-name="yacute" unicode="&#xfd;" horiz-adv-x="516" 
d="M407 678h-113l-88 -147h77zM487 473h-88l-124 -370h-3l-162 370h-94l214 -475q-26 -91 -62.5 -127.5t-77.5 -36.5q-23 0 -39.5 4t-32.5 12l-22 -68q20 -8 42 -13.5t53 -5.5q30 0 59 7t56 29t52 61t48 104z" />
    <glyph glyph-name="Thorn" unicode="&#xde;" horiz-adv-x="494" 
d="M449 342q0 49 -16 87.5t-46 65t-72.5 40.5t-94.5 14h-51v110h-89v-659h89v127h46q63 0 107.5 19t72.5 49.5t41 69t13 77.5zM360 341q0 -62 -32.5 -100t-104.5 -38h-54v266h49q71 0 106.5 -35.5t35.5 -92.5z" />
    <glyph glyph-name="thorn" unicode="&#xfe;" horiz-adv-x="522" 
d="M476 243q0 58 -17.5 103t-48.5 76t-74.5 47t-95.5 16q-22 0 -42.5 -2.5t-38.5 -6.5v232h-88v-944h88v240q16 -6 34 -10t42 -4q20 0 41.5 3.5t42.5 11.5q31 12 59 32t50 49.5t35 68.5t13 88zM385 240q0 -81 -41.5 -128.5t-112.5 -47.5q-22 0 -38 4t-34 12v316q16 5 33.5 8
t40.5 3q31 0 58.5 -10t48.5 -30.5t33 -52t12 -74.5z" />
    <glyph glyph-name="Zcaron" unicode="&#x17d;" horiz-adv-x="558" 
d="M428 853h-81l-61 -92l-63 92h-82l105 -147h79zM528 0v80l-340 -2l328 581h-468l26 -80l301 3l-332 -582h485z" />
    <glyph glyph-name="zcaron" unicode="&#x17e;" horiz-adv-x="421" 
d="M358 678h-81l-61 -91l-62 91h-83l106 -147h78zM390 0v75l-225 -2l220 400h-353l22 -74l199 2l-226 -401h363z" />
    <glyph glyph-name="onehalf" unicode="&#xbd;" horiz-adv-x="832" 
d="M791 0v72l-174 -4q7 28 23 47t35.5 34t40.5 28t38 29t28 37.5t11 52.5q0 45 -30 74.5t-87 29.5q-41 0 -74.5 -11t-67.5 -28l24 -61q25 14 50.5 24.5t51.5 10.5q24 0 37 -13.5t13 -31.5q0 -20 -13 -34.5t-33 -29.5l-44 -32.5t-45 -43t-37 -62t-19 -88.5h272zM673 676h-90
l-445 -696h88zM230 266v398h-65l-126 -60l24 -62l91 39v-315h76z" />
    <glyph glyph-name="onequarter" unicode="&#xbc;" horiz-adv-x="832" 
d="M767 88v65h-53v245h-79l-193 -257v-53h195v-88h77v88h53zM673 676h-90l-445 -696h88zM230 266v398h-65l-126 -60l24 -62l91 39v-315h76zM638 293q-2 -23 -1.5 -48t0.5 -51v-41h-31q-22 0 -40 -1t-35 -3z" />
    <glyph glyph-name="onesuperior" unicode="&#xb9;" horiz-adv-x="367" 
d="M248 266v398h-65l-126 -60l24 -62l90 39v-315h77z" />
    <glyph glyph-name="threequarters" unicode="&#xbe;" horiz-adv-x="832" 
d="M785 88v65h-53v245h-78l-194 -257v-53h196v-88h76v88h53zM693 676h-90l-445 -696h88zM311 383q0 38 -24 61.5t-57 28.5v1q28 10 48 34.5t20 59.5q0 40 -29 69t-89 29q-40 0 -73 -8.5t-62 -21.5l21 -60q23 11 46.5 18t51.5 7q51 0 51 -43q0 -21 -18.5 -39t-62.5 -19
l-50 -1v-65h51q51 0 71.5 -15.5t20.5 -39.5q0 -25 -21 -39t-56 -14q-27 0 -48.5 5t-45.5 14l-24 -61q27 -12 57.5 -17.5t62.5 -5.5q80 0 119.5 34.5t39.5 87.5zM656 293q-2 -23 -1.5 -48t0.5 -51v-41h-31q-21 0 -39.5 -1t-35.5 -3z" />
    <glyph glyph-name="threesuperior" unicode="&#xb3;" horiz-adv-x="367" 
d="M319 383q0 38 -24 61.5t-57 28.5v1q28 10 48 34.5t20 59.5q0 40 -29 69t-89 29q-40 0 -73 -8.5t-62 -21.5l21 -60q23 11 46.5 18t51.5 7q51 0 51 -43q0 -21 -18.5 -39t-62.5 -19l-50 -1v-65h51q51 0 71.5 -15.5t20.5 -39.5q0 -25 -21 -39t-56 -14q-27 0 -48.5 5t-45.5 14
l-24 -61q27 -12 57.5 -17.5t62.5 -5.5q80 0 119.5 34.5t39.5 87.5z" />
    <glyph glyph-name="twosuperior" unicode="&#xb2;" horiz-adv-x="367" 
d="M309 266v72l-174 -4q7 28 23 47t35.5 34t40.5 28t38 29t28 37.5t11 52.5q0 45 -30.5 74.5t-87.5 29.5q-40 0 -73.5 -11t-67.5 -28l23 -61q26 14 51 24.5t51 10.5q25 0 37.5 -13.5t12.5 -31.5q0 -20 -13 -34.5t-33 -29.5l-44 -32.5t-45 -43t-36.5 -62t-18.5 -88.5h272z
" />
    <glyph glyph-name="brokenbar" unicode="&#xa6;" horiz-adv-x="252" 
d="M168 425v355h-84v-355h84zM168 -237v355h-84v-355h84z" />
    <glyph glyph-name="minus" unicode="&#x2212;" horiz-adv-x="615" 
d="M544 213v79h-473v-79h473z" />
    <glyph glyph-name="multiply" unicode="&#xd7;" horiz-adv-x="628" 
d="M571 45l-201 202l201 200l-55 56l-202 -200l-202 201l-56 -56l202 -201l-201 -202l56 -56l201 202l201 -202z" />
    <glyph glyph-name="RS" 
 />
    <glyph glyph-name="US" 
 />
    <glyph glyph-name="Lslash" unicode="&#x141;" horiz-adv-x="462" 
d="M451 0v79h-246v179l161 93v86l-161 -93v315h-88v-366l-79 -45v-87l79 45v-206h334z" />
    <glyph glyph-name="DEL" 
 />
    <glyph glyph-name="apple" horiz-adv-x="590" 
d="M510 53l-64 64q20 28 30.5 61t10.5 69q0 37 -11 69.5t-29 59.5l64 64l-56 56l-64 -64q-28 20 -61 30.5t-69 10.5q-37 0 -70 -11t-61 -30l-64 64l-56 -56l66 -64q-20 -28 -30.5 -60.5t-10.5 -68.5q0 -37 11 -69.5t30 -60.5l-65 -65l56 -56l65 66q28 -20 60.5 -30.5
t68.5 -10.5q37 0 69.5 11t59.5 29l64 -64zM415 247q0 -33 -12 -62t-32.5 -50.5t-48.5 -34t-61 -12.5t-61.5 12.5t-49 34t-32.5 50.5t-12 62t12 62t32.5 50.5t49 34t61.5 12.5t61 -12.5t48.5 -34t32.5 -50.5t12 -62z" />
    <glyph glyph-name="Eth" unicode="&#xd0;" horiz-adv-x="680" 
d="M639 336q0 69 -21.5 128.5t-66 102.5t-112.5 67.5t-161 24.5h-162v-288h-78v-79h78v-292h162q91 0 159 26t113 71.5t67 107t22 131.5zM546 336q0 -51 -14 -97.5t-45 -82t-81 -56.5t-122 -21h-79v213h164v79h-164v209h80q67 0 116 -19t81.5 -52t48 -77.5t15.5 -95.5z" />
    <glyph glyph-name="eth" unicode="&#xf0;" horiz-adv-x="555" 
d="M509 298q0 118 -24 197t-70 130l89 38l-23 58l-119 -50q-44 29 -97.5 45t-106.5 23l-23 -69q39 -4 74.5 -12.5t65.5 -22.5l-103 -44l24 -58l139 60q39 -37 61 -88t27 -112h-1q-10 17 -22.5 33.5t-31 29.5t-44.5 21t-63 8q-47 0 -86 -18t-67.5 -50.5t-44.5 -78t-16 -99.5
q0 -58 18 -106t51 -81q29 -29 69 -45.5t90 -16.5q51 0 93.5 18.5t74 56t49 95.5t17.5 138zM275 413q32 0 58 -13.5t44 -37t27.5 -54.5t9.5 -66q0 -39 -8.5 -71.5t-26 -56t-43 -37t-59.5 -13.5q-66 0 -103 48.5t-37 128.5q0 79 36 125.5t102 46.5z" />
    </font>
</defs>
</svg>
