<?xml version="1.0" standalone="no"?>
<!DOCTYPE svg PUBLIC "-//W3C//DTD SVG 1.1//EN" "http://www.w3.org/Graphics/SVG/1.1/DTD/svg11.dtd" >
<svg>
<metadata>
Created by FontForge 20090622 at Tue Sep 29 13:48:48 2015
 By deploy user
Copyright (c) JT Types Ltd., 1996-2011. All rights reserved.
</metadata>
<defs>
<font id="Bliss2-Regular" horiz-adv-x="525" >
  <font-face 
    font-family="Bliss 2 Regular"
    font-weight="400"
    font-stretch="normal"
    units-per-em="1000"
    panose-1="2 0 5 6 3 0 0 2 0 4"
    ascent="760"
    descent="-240"
    x-height="473"
    cap-height="659"
    bbox="-179 -285 1147 953"
    underline-thickness="50"
    underline-position="-100"
    unicode-range="U+0020-U+FB02"
  />
<missing-glyph horiz-adv-x="550" 
d="M50 0v659h450v-659h-450zM101 48h348v563h-348v-563zM231 222q-29 29 -29 60q0 25 20.5 48.5t44.5 38.5t44.5 37.5t20.5 47.5q0 21 -15.5 34t-39.5 13q-41 0 -85 -39l-27 35q49 51 117 51q48 0 77 -25.5t29 -65.5q0 -31 -20.5 -59t-45.5 -45t-45.5 -35.5t-20.5 -32.5
q0 -16 17 -35zM255 107q-16 0 -27 11t-11 28t11 28.5t27 11.5t26.5 -11.5t10.5 -28.5t-10.5 -28t-26.5 -11z" />
    <glyph glyph-name="fi" unicode="fi" horiz-adv-x="545" 
d="M97 0v402h-65v71h65v77q0 81 41 119.5t104 38.5q44 0 81 -17l-18 -71q-28 11 -54 11q-66 0 -66 -78v-80h121l-23 -71h-98v-402h-88zM386 0v473h88v-473h-88zM430 570q-24 0 -40 16.5t-16 40.5t16 40t40 16q25 0 41.5 -16t16.5 -40t-16.5 -40.5t-41.5 -16.5z" />
    <glyph glyph-name="fl" unicode="fl" horiz-adv-x="571" 
d="M97 0v402h-65v71h65v77q0 81 41 119.5t104 38.5q44 0 81 -17l-18 -71q-28 11 -54 11q-66 0 -66 -78v-80h121l-23 -71h-98v-402h-88zM383 93v615h88v-590q0 -26 8 -36.5t27 -10.5q14 0 30 6l18 -69q-34 -14 -73 -14q-98 0 -98 99z" />
    <glyph glyph-name=".notdef" horiz-adv-x="550" 
d="M50 0v659h450v-659h-450zM101 48h348v563h-348v-563zM231 222q-29 29 -29 60q0 25 20.5 48.5t44.5 38.5t44.5 37.5t20.5 47.5q0 21 -15.5 34t-39.5 13q-41 0 -85 -39l-27 35q49 51 117 51q48 0 77 -25.5t29 -65.5q0 -31 -20.5 -59t-45.5 -45t-45.5 -35.5t-20.5 -32.5
q0 -16 17 -35zM255 107q-16 0 -27 11t-11 28t11 28.5t27 11.5t26.5 -11.5t10.5 -28.5t-10.5 -28t-26.5 -11z" />
    <glyph glyph-name=".null" horiz-adv-x="0" 
 />
    <glyph glyph-name="nonmarkingreturn" horiz-adv-x="333" 
 />
    <glyph glyph-name="space" unicode=" " horiz-adv-x="223" 
 />
    <glyph glyph-name="space" unicode="&#xa0;" horiz-adv-x="223" 
 />
    <glyph glyph-name="exclam" unicode="!" horiz-adv-x="267" 
d="M110 181q-14 86 -17 159t-3 269v50h88v-51q0 -190 -3.5 -264.5t-16.5 -162.5h-48zM134 -8q-22 0 -38 16.5t-16 39.5t16 39t38 16t37.5 -16t15.5 -39t-15.5 -39.5t-37.5 -16.5z" />
    <glyph glyph-name="quotedbl" unicode="&#x22;" horiz-adv-x="357" 
d="M71 484l-12 224h85l-9 -224h-64zM227 484l-12 224h86l-10 -224h-64z" />
    <glyph glyph-name="numbersign" unicode="#" horiz-adv-x="683" 
d="M125 0l36 175h-119v72h135l35 165h-119v71h134l37 175h84l-37 -175h125l37 175h84l-37 -175h120v-71h-136l-35 -165h120v-72h-135l-37 -175h-83l36 175h-125l-36 -175h-84zM260 247h126l35 165h-126z" />
    <glyph glyph-name="dollar" unicode="$" horiz-adv-x="530" 
d="M217 -82v100q-79 5 -146 48l35 66q65 -42 135 -42q47 0 80.5 20t33.5 65q0 37 -28 66.5t-67.5 51l-79 45t-67.5 62t-28 89.5q0 58 40 102.5t110 53.5v96h68v-94q67 -6 114 -30v-76q-68 35 -139 35q-46 0 -73.5 -20.5t-27.5 -60.5q0 -30 20 -54.5t50 -41t64.5 -37.5
t64.5 -42.5t50 -57t20 -79.5q0 -65 -43 -108.5t-117 -55.5v-101h-69z" />
    <glyph glyph-name="percent" unicode="%" horiz-adv-x="847" 
d="M209 316q-67 0 -109.5 45t-42.5 129t42.5 129.5t109.5 45.5q66 0 109 -45.5t43 -129.5t-43 -129t-109 -45zM209 374q38 0 58.5 31.5t20.5 84.5t-20.5 84.5t-58.5 31.5t-58.5 -31.5t-20.5 -84.5t20.5 -84.5t58.5 -31.5zM638 -10q-66 0 -109 45.5t-43 128.5q0 84 43 129.5
t109 45.5t109 -45.5t43 -129.5q0 -83 -43 -128.5t-109 -45.5zM638 48q38 0 58.5 31.5t20.5 84.5q0 54 -20.5 85.5t-58.5 31.5t-58.5 -31.5t-20.5 -85.5q0 -53 20.5 -84.5t58.5 -31.5zM179 0l412 659h76l-412 -659h-76z" />
    <glyph glyph-name="ampersand" unicode="&#x26;" horiz-adv-x="730" 
d="M486 73q-104 -83 -226 -83q-93 0 -148 53.5t-55 132.5q0 128 143 192q-30 34 -44 52.5t-25 45.5t-11 57q0 60 48.5 101t127.5 41q80 0 127.5 -40t47.5 -104q0 -102 -140 -173q75 -90 160 -169q66 71 93 152l76 -19q-39 -109 -112 -185q66 -60 116 -60q14 0 25 3l17 -68
q-20 -8 -55 -8q-73 0 -165 79zM272 63q78 0 154 61q-94 88 -179 189q-99 -46 -99 -130q0 -53 34 -86.5t90 -33.5zM280 403q100 48 100 118q0 29 -21 53t-63 24q-41 0 -63 -22t-22 -52q0 -44 69 -121z" />
    <glyph glyph-name="quotesingle" unicode="'" horiz-adv-x="201" 
d="M70 484l-12 224h86l-10 -224h-64z" />
    <glyph glyph-name="parenleft" unicode="(" horiz-adv-x="324" 
d="M239 -236q-91 104 -127 228.5t-36 275.5t36 275.5t127 229.5l60 -43q-71 -97 -101 -198t-30 -264t29.5 -264t100.5 -196z" />
    <glyph glyph-name="parenright" unicode=")" horiz-adv-x="324" 
d="M26 -192q71 95 100.5 196t29.5 264t-29.5 264t-100.5 198l59 43q91 -104 127 -229t36 -276t-36 -275.5t-126 -228.5z" />
    <glyph glyph-name="asterisk" unicode="*" horiz-adv-x="479" 
d="M205 335q-1 30 7.5 87t9.5 73q-6 -4 -54 -42t-76 -53l-34 58q27 17 84 40t64 26q-4 2 -62 25t-85 40l33 59q27 -15 73.5 -52t57.5 -44q0 4 -9 66.5t-8 94.5h67q1 -31 -7.5 -92.5t-9.5 -67.5q7 5 55.5 42t76.5 52l33 -58q-27 -16 -83 -38t-66 -27q8 -4 64.5 -26.5
t84.5 -39.5l-34 -58q-28 15 -76.5 53.5t-54.5 42.5q0 -4 9 -66.5t8 -94.5h-68z" />
    <glyph glyph-name="plus" unicode="+" horiz-adv-x="532" 
d="M224 0v215h-195v74h195v210h83v-210h195v-74h-195v-215h-83z" />
    <glyph glyph-name="comma" unicode="," horiz-adv-x="223" 
d="M34 -119q45 76 45 152q0 33 -6 66l86 16q6 -32 6 -63q0 -108 -84 -196z" />
    <glyph glyph-name="hyphen" unicode="-" horiz-adv-x="359" 
d="M53 210v76h254v-76h-254z" />
    <glyph glyph-name="hyphen" unicode="&#x2010;" horiz-adv-x="359" 
d="M53 210v76h254v-76h-254z" />
    <glyph glyph-name="hyphen" unicode="&#xad;" horiz-adv-x="359" 
d="M53 210v76h254v-76h-254z" />
    <glyph glyph-name="period" unicode="." horiz-adv-x="223" 
d="M110 -8q-22 0 -38 16.5t-16 39.5t16 39t38 16t38 -16t16 -39t-16 -39.5t-38 -16.5z" />
    <glyph glyph-name="slash" unicode="/" horiz-adv-x="367" 
d="M16 -34l250 730h86l-250 -730h-86z" />
    <glyph glyph-name="zero" unicode="0" horiz-adv-x="558" 
d="M279 -10q-105 0 -166.5 88t-61.5 249t61.5 249.5t166.5 88.5t166.5 -88.5t61.5 -249.5t-61.5 -249t-166.5 -88zM279 66q65 0 100 68.5t35 192.5q0 125 -34.5 193.5t-100.5 68.5q-65 0 -99.5 -68.5t-34.5 -193.5t34.5 -193t99.5 -68z" />
    <glyph glyph-name="one" unicode="1" horiz-adv-x="421" 
d="M220 0v570l-155 -74l-30 70l202 98h70v-664h-87z" />
    <glyph glyph-name="two" unicode="2" horiz-adv-x="515" 
d="M36 0q6 70 27 127t50 94t63 67.5t66.5 53.5t59 44.5t43 48t16.5 57.5q0 49 -32 73t-81 24q-78 0 -164 -45l-25 69q96 52 199 52q96 0 146 -46t50 -120q0 -40 -15 -73.5t-39.5 -58.5t-54 -48l-61 -47.5t-59.5 -51t-49 -64.5t-29 -83h309v-73h-420z" />
    <glyph glyph-name="three" unicode="3" horiz-adv-x="536" 
d="M36 24l25 72q66 -30 144 -30q75 0 119.5 30.5t44.5 91.5q0 80 -86 101q-31 7 -84 7h-76v73h64q85 0 124.5 31.5t39.5 84.5q0 48 -29 76t-86 28q-77 0 -157 -45l-26 69q92 52 192 52q96 0 147 -49.5t51 -123.5q0 -107 -104 -149v-2q58 -11 90.5 -50.5t32.5 -100.5
q0 -88 -65 -144t-191 -56q-94 0 -170 34z" />
    <glyph glyph-name="four" unicode="4" horiz-adv-x="560" 
d="M45 171v62l318 431h63v-420h97v-73h-97v-171h-87v171h-294zM142 243q9 0 38.5 0.5t42.5 0.5h116v138q0 67 5 142z" />
    <glyph glyph-name="five" unicode="5" horiz-adv-x="513" 
d="M43 20l25 72q55 -26 124 -26q72 0 118 34.5t46 99.5q0 81 -75 110q-38 14 -117 14h-75v335h361l-19 -73h-255v-190h26q77 0 121 -16q126 -46 126 -177q0 -94 -64.5 -153.5t-192.5 -59.5q-87 0 -149 30z" />
    <glyph glyph-name="six" unicode="6" horiz-adv-x="544" 
d="M288 -10q-103 0 -170 79.5t-67 232.5q0 154 78 258.5t209 104.5q68 0 128 -28l-24 -71q-49 25 -101 25q-78 0 -132 -60t-65 -168q76 50 161 50q86 0 142 -54t56 -149q0 -101 -60 -160.5t-155 -59.5zM288 64q58 0 90 35.5t32 100.5t-34 102t-89 37q-76 0 -142 -51
q0 -102 40 -163t103 -61z" />
    <glyph glyph-name="seven" unicode="7" horiz-adv-x="478" 
d="M83 0q63 330 253 586h-293l-20 73h430v-35q-211 -267 -278 -624h-92z" />
    <glyph glyph-name="eight" unicode="8" horiz-adv-x="557" 
d="M274 -10q-105 0 -164 48.5t-59 131.5q0 61 35 105t90 64v2q-105 50 -105 149q0 77 57 126t152 49q94 0 148 -49.5t54 -119.5q0 -103 -105 -153v-2q128 -47 128 -164q0 -82 -62 -134.5t-169 -52.5zM278 62q56 0 95 29t39 80q0 30 -12.5 52.5t-39 38t-48 23.5t-59.5 20
q-45 -15 -76.5 -47t-31.5 -78q0 -58 38 -88t95 -30zM298 374q91 38 91 116q0 44 -30.5 73.5t-81.5 29.5q-49 0 -81 -26.5t-32 -70.5q0 -50 36 -77.5t98 -44.5z" />
    <glyph glyph-name="nine" unicode="9" horiz-adv-x="538" 
d="M203 -10q-77 0 -144 29l23 72q61 -27 121 -27q85 0 134.5 59.5t57.5 173.5h-2q-66 -56 -154 -56q-81 0 -139.5 51t-58.5 153q0 97 60 158.5t154 61.5q107 0 169 -79t62 -233q0 -171 -72.5 -267t-210.5 -96zM258 315q39 0 76.5 19.5t59.5 48.5q0 94 -38.5 151t-102.5 57
q-55 0 -87.5 -39t-32.5 -100q0 -64 32.5 -100.5t92.5 -36.5z" />
    <glyph glyph-name="colon" unicode=":" horiz-adv-x="223" 
d="M110 333q-22 0 -38 16.5t-16 39.5t15.5 39t38.5 16t38.5 -16t15.5 -39t-16 -39.5t-38 -16.5zM110 -8q-22 0 -38 16.5t-16 39.5t16 39t38 16t38 -16t16 -39t-16 -39.5t-38 -16.5z" />
    <glyph glyph-name="semicolon" unicode=";" horiz-adv-x="223" 
d="M110 333q-22 0 -38 16.5t-16 39.5t15.5 39t38.5 16t38.5 -16t15.5 -39t-16 -39.5t-38 -16.5zM34 -119q45 76 45 152q0 33 -6 66l86 16q6 -32 6 -63q0 -108 -84 -196z" />
    <glyph glyph-name="less" unicode="&#x3c;" horiz-adv-x="576" 
d="M62 223v74l421 184v-77l-340 -143v-2l340 -143v-77z" />
    <glyph glyph-name="equal" unicode="=" horiz-adv-x="532" 
d="M29 305v74h473v-74h-473zM29 125v75h473v-75h-473z" />
    <glyph glyph-name="greater" unicode="&#x3e;" horiz-adv-x="576" 
d="M93 39v77l341 143v2l-341 143v77l421 -184v-74z" />
    <glyph glyph-name="question" unicode="?" horiz-adv-x="464" 
d="M152 181q-36 39 -36 87q0 33 20 62t48 49.5l56.5 40t48.5 44t20 52.5q0 35 -22.5 54t-59.5 19q-67 0 -132 -57l-41 58q83 75 184 75q78 0 122 -39.5t44 -101.5q0 -39 -20.5 -72.5t-50 -56t-59 -42.5t-50 -42t-20.5 -45q0 -27 20 -50zM193 -8q-22 0 -38 16.5t-16 39.5
t16 39t38 16t37.5 -16t15.5 -39t-15.5 -39.5t-37.5 -16.5z" />
    <glyph glyph-name="at" unicode="@" horiz-adv-x="771" 
d="M479 -58l18 -55q-69 -27 -153 -27q-135 0 -221.5 90.5t-86.5 239.5q0 171 105.5 275.5t257.5 104.5q147 0 241 -87t94 -229q0 -109 -47 -167t-121 -58q-40 0 -66 22t-32 62h-2q-15 -32 -52.5 -57t-84.5 -25q-52 0 -90 37.5t-38 118.5q0 98 59 160.5t148 62.5
q75 0 141 -40l-21 -161q-4 -38 -4 -52q0 -68 50 -68q42 0 68 43.5t26 117.5q0 110 -70.5 186t-200.5 76q-125 0 -209.5 -86.5t-84.5 -230.5q0 -131 70.5 -204t178.5 -73q74 0 127 24zM462 253l10 79q-29 19 -65 19q-55 0 -92 -45t-37 -117q0 -97 67 -97q41 0 74 37.5
t43 123.5z" />
    <glyph glyph-name="A" unicode="A" horiz-adv-x="599" 
d="M14 0l251 661h64l256 -661h-95l-65 173h-255l-64 -173h-92zM197 246h200l-61 172l-37 110h-2q-7 -25 -38 -111z" />
    <glyph glyph-name="B" unicode="B" horiz-adv-x="545" 
d="M84 0v659h166q100 0 151.5 -47.5t51.5 -119.5q0 -48 -22.5 -85.5t-62.5 -55.5v-2q57 -13 92 -56.5t35 -103.5q0 -84 -59 -136.5t-167 -52.5h-185zM173 74h91q140 0 140 114q0 51 -35.5 81t-94.5 30h-101v-225zM173 373h67q60 0 92 28.5t32 78.5q0 48 -30 76.5t-92 28.5
h-69v-212z" />
    <glyph glyph-name="C" unicode="C" horiz-adv-x="602" 
d="M541 109l25 -71q-91 -48 -193 -48q-149 0 -234.5 92t-85.5 240q0 146 93 244.5t241 98.5q102 0 166 -35v-83q-79 42 -164 42q-111 0 -176.5 -74.5t-65.5 -188.5q0 -116 64 -188t172 -72q79 0 158 43z" />
    <glyph glyph-name="D" unicode="D" horiz-adv-x="663" 
d="M84 0v659h173q171 0 262 -89t91 -237q0 -149 -93.5 -241t-265.5 -92h-167zM173 73h78q138 0 201.5 73t63.5 189q0 114 -67.5 182.5t-198.5 68.5h-77v-513z" />
    <glyph glyph-name="E" unicode="E" horiz-adv-x="479" 
d="M84 0v659h333l-26 -73h-218v-212h215v-74h-215v-227h248v-73h-337z" />
    <glyph glyph-name="F" unicode="F" horiz-adv-x="457" 
d="M84 0v659h334l-26 -73h-219v-212h214v-74h-214v-300h-89z" />
    <glyph glyph-name="G" unicode="G" horiz-adv-x="684" 
d="M608 314v-273q-100 -51 -223 -51q-151 0 -241.5 91.5t-90.5 237.5q0 153 96 249.5t252 96.5q97 0 183 -35v-83q-84 42 -178 42q-123 0 -191 -72t-68 -190q0 -120 66.5 -190.5t179.5 -70.5q77 0 127 24v224h88z" />
    <glyph glyph-name="H" unicode="H" horiz-adv-x="694" 
d="M84 0v659h89v-284h349v284h88v-659h-88v299h-349v-299h-89z" />
    <glyph glyph-name="I" unicode="I" horiz-adv-x="257" 
d="M84 0v659h89v-659h-89z" />
    <glyph glyph-name="J" unicode="J" horiz-adv-x="301" 
d="M-28 -172l17 74q22 -9 53 -9q50 0 68 27t18 79v660h89v-676q0 -77 -41.5 -121.5t-128.5 -44.5q-37 0 -75 11z" />
    <glyph glyph-name="K" unicode="K" horiz-adv-x="557" 
d="M84 0v659h89v-295h2l242 295h104l-270 -324l288 -335h-110l-254 297h-2v-297h-89z" />
    <glyph glyph-name="L" unicode="L" horiz-adv-x="436" 
d="M84 0v659h89v-586h241v-73h-330z" />
    <glyph glyph-name="M" unicode="M" horiz-adv-x="800" 
d="M84 0v659h82l180 -268q45 -67 60 -92h2l58 96l168 264h82v-659h-88v407q0 71 1 104h-1q-11 -20 -47 -78l-152 -242h-44l-167 247q-31 45 -45 71h-2q2 -29 2 -100v-409h-89z" />
    <glyph glyph-name="N" unicode="N" horiz-adv-x="729" 
d="M84 0v659h86l298 -388q48 -62 89 -123h2q-2 36 -2 115v396h88v-659h-77l-309 403l-87 119h-2q3 -47 3 -110v-412h-89z" />
    <glyph glyph-name="O" unicode="O" horiz-adv-x="756" 
d="M378 -10q-142 0 -233.5 93t-91.5 244q0 149 91.5 243.5t233.5 94.5t233 -95t91 -243q0 -151 -92 -244t-232 -93zM378 66q104 0 167 71t63 190q0 116 -61.5 189t-168.5 73q-104 0 -167.5 -72t-63.5 -190q0 -119 63 -190t168 -71z" />
    <glyph glyph-name="P" unicode="P" horiz-adv-x="516" 
d="M84 0v659h135q91 0 145 -30q99 -54 99 -181q0 -134 -116 -186q-54 -24 -136 -24h-38v-238h-89zM173 311h44q56 0 90 18q63 32 63 119q0 82 -59 117q-36 21 -93 21h-45v-275z" />
    <glyph glyph-name="Q" unicode="Q" horiz-adv-x="756" 
d="M288 1q-106 27 -170.5 113.5t-64.5 212.5q0 149 91.5 243.5t233.5 94.5t233 -95t91 -243q0 -144 -83 -234.5t-214 -99.5q65 -77 154 -77q40 0 74 12l21 -70q-46 -18 -107 -18q-83 0 -143.5 42.5t-115.5 118.5zM378 66q104 0 167 71t63 190q0 116 -61.5 189t-168.5 73
q-104 0 -167.5 -72t-63.5 -190q0 -119 63 -190t168 -71z" />
    <glyph glyph-name="R" unicode="R" horiz-adv-x="556" 
d="M84 0v659h149q92 0 146 -32q84 -47 84 -150q0 -133 -132 -173v-2q25 -14 80 -106l117 -196h-104l-108 183q-46 83 -75 90h-68v-273h-89zM173 346h59q49 0 85 21q54 29 54 101q0 60 -42 91q-36 27 -96 27h-60v-240z" />
    <glyph glyph-name="S" unicode="S" horiz-adv-x="505" 
d="M51 42l37 69q67 -45 144 -45q55 0 90.5 23.5t35.5 73.5q0 41 -29.5 71.5t-72 52.5l-85 46t-72 64t-29.5 95q0 74 54 123.5t146 49.5q85 0 149 -32v-81q-69 37 -146 37q-46 0 -78 -21.5t-32 -66.5q0 -38 30 -67.5t72.5 -51t84.5 -46.5t72 -67t30 -99q0 -83 -61 -131.5
t-158 -48.5q-105 0 -182 52z" />
    <glyph glyph-name="T" unicode="T" horiz-adv-x="509" 
d="M208 0v586h-190v73h487l-25 -73h-183v-586h-89z" />
    <glyph glyph-name="U" unicode="U" horiz-adv-x="666" 
d="M333 -10q-183 0 -236 136q-18 48 -18 113v420h89v-413q0 -56 15 -90q36 -90 150 -90q115 0 151 90q14 35 14 93v410h89v-420q0 -69 -20 -115q-53 -134 -234 -134z" />
    <glyph glyph-name="V" unicode="V" horiz-adv-x="621" 
d="M276 -4l-263 663h96l150 -388q26 -67 51 -140h2q28 84 51 142l149 386h96l-264 -663h-68z" />
    <glyph glyph-name="W" unicode="W" horiz-adv-x="914" 
d="M239 -4l-226 663h100l125 -391q26 -79 40 -135h3q21 74 43 134l95 279l-39 113h93l131 -390q39 -119 43 -136h2q15 63 38 134l121 392h93l-219 -663h-73l-103 300q-33 94 -43 132h-3q-10 -37 -43 -132l-105 -300h-73z" />
    <glyph glyph-name="X" unicode="X" horiz-adv-x="603" 
d="M18 0l232 331l-217 328h103l170 -260l179 260h100l-227 -325l221 -334h-101l-176 266l-185 -266h-99z" />
    <glyph glyph-name="Y" unicode="Y" horiz-adv-x="552" 
d="M233 0v263l-220 396h98l166 -313h2l163 313h97l-218 -398v-261h-88z" />
    <glyph glyph-name="Z" unicode="Z" horiz-adv-x="554" 
d="M42 0l331 586h-301l-24 73h463l-327 -586h340v-73h-482z" />
    <glyph glyph-name="bracketleft" unicode="[" horiz-adv-x="285" 
d="M80 -233v1005h180v-69h-97v-868h97v-68h-180z" />
    <glyph glyph-name="backslash" unicode="\" horiz-adv-x="374" 
d="M268 -34l-250 730h87l250 -730h-87z" />
    <glyph glyph-name="bracketright" unicode="]" horiz-adv-x="285" 
d="M26 -233v68h98v868h-98v69h181v-1005h-181z" />
    <glyph glyph-name="asciicircum" unicode="^" horiz-adv-x="565" 
d="M86 287l158 372h76l159 -372h-77l-119 292h-2l-118 -292h-77z" />
    <glyph glyph-name="underscore" unicode="_" horiz-adv-x="446" 
d="M0 -120v54h446v-54h-446z" />
    <glyph glyph-name="grave" unicode="`" horiz-adv-x="368" 
d="M164 531l-89 147h100l58 -147h-69z" />
    <glyph glyph-name="grave" unicode="&#x300;" horiz-adv-x="368" 
d="M164 531l-89 147h100l58 -147h-69z" />
    <glyph glyph-name="a" unicode="a" horiz-adv-x="471" 
d="M344 0l-15 51q-65 -61 -141 -61q-66 0 -109 40.5t-43 107.5q0 90 80 128q43 21 119 24l88 3v25q0 48 -26.5 72t-71.5 24q-66 0 -129 -37l-31 61q78 47 171 47q83 0 129 -41t46 -124v-172q0 -112 9 -148h-76zM323 230l-77 -3q-52 -1 -83 -17q-37 -21 -37 -67
q0 -37 22.5 -59t59.5 -22q61 0 115 54v114z" />
    <glyph glyph-name="b" unicode="b" horiz-adv-x="511" 
d="M205 -10q-83 0 -138 30v688h88v-243q53 20 101 20q95 0 156 -61.5t61 -173.5q0 -120 -75 -190t-193 -70zM219 65q73 0 118 49.5t45 131.5q0 74 -36.5 119t-102.5 45q-43 0 -88 -21v-313q30 -11 64 -11z" />
    <glyph glyph-name="c" unicode="c" horiz-adv-x="432" 
d="M267 -10q-107 0 -168 68.5t-61 173.5q0 108 67 180.5t173 72.5q68 0 121 -30v-77q-52 34 -114 34q-71 0 -113.5 -49t-42.5 -126q0 -82 40.5 -128t109.5 -46q53 0 113 33l26 -62q-64 -44 -151 -44z" />
    <glyph glyph-name="d" unicode="d" horiz-adv-x="517" 
d="M292 -10q-110 0 -182 63.5t-72 177.5q0 112 71 183t178 71q44 0 75 -9v232h88v-685q-61 -33 -158 -33zM294 65q43 0 68 11v324q-35 11 -69 11q-71 0 -117.5 -47.5t-46.5 -130.5q0 -78 44 -123t121 -45z" />
    <glyph glyph-name="e" unicode="e" horiz-adv-x="473" 
d="M267 -10q-112 0 -170.5 71t-58.5 179q0 109 55 177t145 68q92 0 144 -66t52 -180v-22h-306q2 -69 41.5 -112t108.5 -43q58 0 117 32l28 -61q-68 -43 -156 -43zM128 283h215q-2 55 -28.5 93.5t-76.5 38.5q-49 0 -79 -38t-31 -94z" />
    <glyph glyph-name="f" unicode="f" horiz-adv-x="316" 
d="M97 0v402h-65v71h65v77q0 81 41 119.5t104 38.5q44 0 81 -17l-18 -71q-28 11 -54 11q-66 0 -66 -78v-80h121l-23 -71h-98v-402h-88z" />
    <glyph glyph-name="g" unicode="g" horiz-adv-x="483" 
d="M229 -237q-97 0 -154 36.5t-57 100.5q0 79 87 119q-33 19 -33 59q0 48 53 92q-76 47 -76 144q0 72 49.5 121t130.5 49q53 0 91 -18q6 -4 11 1q39 39 103 39q14 0 29 -3l-20 -66q-13 3 -29 3q-26 0 -42 -11q49 -49 49 -119q0 -77 -52 -124.5t-135 -47.5q-34 0 -60 9
q-22 -25 -22 -48q0 -25 32 -37t78 -17.5t92 -15t78 -38.5t32 -78q0 -67 -62.5 -108.5t-172.5 -41.5zM238 -171q66 0 102.5 21t36.5 54q0 28 -24.5 44.5t-55 21.5t-75 11.5t-67.5 13.5q-56 -36 -56 -80q0 -40 38 -63t101 -23zM235 208q44 0 71.5 27t27.5 76q0 45 -27.5 74
t-72.5 29q-44 0 -71.5 -27.5t-27.5 -74.5q0 -45 27 -74.5t73 -29.5z" />
    <glyph glyph-name="h" unicode="h" horiz-adv-x="521" 
d="M67 0v708h88v-292q81 69 161 69q62 0 103 -40.5t41 -127.5v-317h-88v288q0 119 -82 119q-62 0 -135 -64v-343h-88z" />
    <glyph glyph-name="i" unicode="i" horiz-adv-x="229" 
d="M70 0v473h88v-473h-88zM114 570q-24 0 -40 16.5t-16 40.5t16 40t40 16q25 0 41.5 -16t16.5 -40t-16.5 -40.5t-41.5 -16.5z" />
    <glyph glyph-name="j" unicode="j" horiz-adv-x="241" 
d="M-53 -222l18 73q27 -11 49 -11q36 0 52.5 22.5t16.5 72.5v538h88v-553q0 -77 -40 -117t-106 -40q-47 0 -78 15zM126 570q-24 0 -40 16.5t-16 40.5t16 40t40 16q25 0 41.5 -16t16.5 -40t-16.5 -40.5t-41.5 -16.5z" />
    <glyph glyph-name="k" unicode="k" horiz-adv-x="457" 
d="M67 0v708h88v-406h2l171 171h104l-203 -202l223 -271h-105l-190 235h-2v-235h-88z" />
    <glyph glyph-name="l" unicode="l" horiz-adv-x="255" 
d="M67 93v615h88v-590q0 -26 8 -36.5t27 -10.5q14 0 30 6l18 -69q-34 -14 -73 -14q-98 0 -98 99z" />
    <glyph glyph-name="m" unicode="m" horiz-adv-x="812" 
d="M62 0v473h74l10 -58q86 70 163 70q89 0 123 -79q88 79 174 79q63 0 104 -41.5t41 -126.5v-317h-88v291q0 55 -17 85.5t-62 30.5q-60 0 -134 -63q0 -4 0.5 -12.5t0.5 -12.5v-319h-88v290q0 56 -17 86.5t-62 30.5q-60 0 -134 -63v-344h-88z" />
    <glyph glyph-name="n" unicode="n" horiz-adv-x="516" 
d="M62 0v473h74l11 -58q85 70 164 70q62 0 103 -40.5t41 -127.5v-317h-88v288q0 119 -81 119q-61 0 -136 -64v-343h-88z" />
    <glyph glyph-name="o" unicode="o" 
d="M262 -10q-100 0 -162 70.5t-62 176.5q0 107 62.5 177.5t162.5 70.5q99 0 161.5 -71t62.5 -177t-62.5 -176.5t-162.5 -70.5zM262 63q62 0 98 48.5t36 125.5q0 78 -36 126.5t-97 48.5q-62 0 -98 -48.5t-36 -126.5q0 -77 36 -125.5t97 -48.5z" />
    <glyph glyph-name="p" unicode="p" horiz-adv-x="509" 
d="M62 -237v693q82 29 163 29q117 0 181.5 -65t64.5 -181q0 -112 -67.5 -180.5t-173.5 -68.5q-42 0 -80 15v-242h-88zM150 82q35 -17 76 -17q74 0 114 47t40 128q0 85 -43 128t-115 43q-34 0 -72 -11v-318z" />
    <glyph glyph-name="q" unicode="q" horiz-adv-x="513" 
d="M244 -10q-85 0 -145.5 62t-60.5 172q0 122 74 191.5t187 69.5q86 0 154 -28v-694h-88v261q-52 -34 -121 -34zM262 65q54 0 103 36v297q-34 13 -71 13q-77 0 -121 -50.5t-44 -132.5q0 -73 37 -118t96 -45z" />
    <glyph glyph-name="r" unicode="r" horiz-adv-x="334" 
d="M62 0v473h74l10 -58q66 70 133 70q34 0 56 -14l-31 -78q-22 12 -46 12q-46 0 -108 -61v-344h-88z" />
    <glyph glyph-name="s" unicode="s" horiz-adv-x="392" 
d="M24 32l28 66q60 -36 122 -36q43 0 69.5 16.5t26.5 51.5q0 26 -23 44t-55.5 30.5t-65 28t-55.5 45.5t-23 73q0 58 44 96t122 38q64 0 124 -23v-76q-61 27 -120 27q-83 0 -83 -58q0 -26 23 -44t55.5 -30.5t65 -28t55.5 -46t23 -75.5q0 -69 -51 -105t-129 -36q-87 0 -153 42
z" />
    <glyph glyph-name="t" unicode="t" horiz-adv-x="360" 
d="M217 -10q-55 0 -85.5 30.5t-30.5 85.5v296h-81v71h81v108l88 28v-136h142l-24 -71h-118v-279q0 -60 48 -60q36 0 76 25l29 -61q-52 -37 -125 -37z" />
    <glyph glyph-name="u" unicode="u" horiz-adv-x="514" 
d="M207 -10q-41 0 -78 21t-54 69q-13 38 -13 90v303h88v-287q0 -46 9 -70q18 -49 76 -49q35 0 68 17.5t53 41.5v347h88v-327q0 -112 10 -146h-78l-15 53q-70 -63 -154 -63z" />
    <glyph glyph-name="v" unicode="v" horiz-adv-x="459" 
d="M195 -3l-187 476h92l131 -360h2l127 360h91l-185 -476h-71z" />
    <glyph glyph-name="w" unicode="w" horiz-adv-x="708" 
d="M170 -3l-161 476h92l108 -359h2l106 359h77l110 -360h2l106 360h89l-163 -476h-72l-109 360h-2l-110 -360h-75z" />
    <glyph glyph-name="x" unicode="x" horiz-adv-x="460" 
d="M9 0l173 237l-166 236h97l120 -174l123 174h94l-169 -234l168 -239h-95l-124 177l-125 -177h-96z" />
    <glyph glyph-name="y" unicode="y" horiz-adv-x="483" 
d="M-14 -219l21 71q32 -16 68 -16q46 0 81.5 38t62.5 125l-210 474h94l156 -368h2l123 368h90l-178 -503q-23 -65 -49.5 -108t-55.5 -63.5t-54.5 -28t-59.5 -7.5q-52 0 -91 18z" />
    <glyph glyph-name="z" unicode="z" horiz-adv-x="393" 
d="M19 0l233 402h-200l-19 71h350l-231 -402h228v-71h-361z" />
    <glyph glyph-name="braceleft" unicode="{" horiz-adv-x="328" 
d="M278 -224q-89 11 -125 54.5t-36 119.5v217q0 70 -67 73v66q67 3 67 73v217q0 76 36 119.5t125 54.5l17 -80q-50 -7 -71.5 -32t-21.5 -73v-191q0 -108 -70 -120v-2q70 -12 70 -120v-191q0 -48 21.5 -73t71.5 -32z" />
    <glyph glyph-name="bar" unicode="|" horiz-adv-x="256" 
d="M86 -237v1017h84v-1017h-84z" />
    <glyph glyph-name="braceright" unicode="}" horiz-adv-x="328" 
d="M35 -144q49 7 70.5 32t21.5 73v191q0 108 71 120v2q-71 12 -71 120v191q0 48 -21.5 73t-70.5 32l16 80q90 -11 126 -54.5t36 -119.5v-217q0 -70 67 -73v-66q-67 -3 -67 -73v-217q0 -76 -36 -119.5t-126 -54.5z" />
    <glyph glyph-name="asciitilde" unicode="~" horiz-adv-x="532" 
d="M72 207l-46 54q67 67 136 67q38 0 109.5 -30t100.5 -30q24 0 42.5 9.5t45.5 33.5l46 -54q-67 -67 -137 -67q-37 0 -109 30t-100 30q-41 0 -88 -43z" />
    <glyph glyph-name="exclamdown" unicode="&#xa1;" horiz-adv-x="267" 
d="M134 373q-22 0 -38 16.5t-16 39.5t15.5 39t38.5 16q22 0 37.5 -16t15.5 -39t-15.5 -39.5t-37.5 -16.5zM90 -181v50q0 196 3 268.5t17 158.5h48q13 -86 16 -159t3 -269v-49h-87z" />
    <glyph glyph-name="cent" unicode="&#xa2;" horiz-adv-x="530" 
d="M248 0v106q-80 14 -125.5 75.5t-45.5 145.5q0 83 47.5 147.5t124.5 80.5v104h69v-96q62 -3 105 -28v-72q-48 30 -115 30q-62 0 -103.5 -44.5t-41.5 -115.5q0 -74 39.5 -117t102.5 -43q59 0 112 29l24 -64q-54 -32 -125 -35v-103h-68z" />
    <glyph glyph-name="sterling" unicode="&#xa3;" horiz-adv-x="530" 
d="M66 0v60q91 39 91 240h-76v73h76v79q0 63 20 108t52.5 66t63 30t63.5 9q59 0 117 -22l-19 -72q-41 18 -87 18q-54 0 -88.5 -34.5t-34.5 -111.5v-70h190l-24 -73h-166q0 -166 -65 -231v-2q48 6 106 6h186v-73h-405z" />
    <glyph glyph-name="currency" unicode="&#xa4;" horiz-adv-x="530" 
d="M459 78l-65 66q-58 -42 -129 -42q-72 0 -130 42l-65 -66l-55 54l66 66q-42 58 -42 130t41 130l-66 65l55 54l65 -66q59 43 131 43t131 -43l64 65l54 -54l-65 -64q42 -60 42 -130t-43 -131l65 -64zM265 170q64 0 108.5 46t44.5 112t-44.5 112.5t-108.5 46.5
q-65 0 -109.5 -46.5t-44.5 -112.5t44.5 -112t109.5 -46z" />
    <glyph glyph-name="yen" unicode="&#xa5;" horiz-adv-x="530" 
d="M221 0v119h-156v62h156v81h-156v61h128l-161 336h95l137 -312h2l137 312h94l-160 -336h127v-61h-155v-81h155v-62h-155v-119h-88z" />
    <glyph glyph-name="brokenbar" unicode="&#xa6;" horiz-adv-x="256" 
d="M86 423v357h84v-357h-84zM86 -237v358h84v-358h-84z" />
    <glyph glyph-name="section" unicode="&#xa7;" horiz-adv-x="536" 
d="M57 -113l36 65q66 -43 142 -43q53 0 88.5 21t35.5 70q0 28 -16 50t-42 37t-57 29t-62 30t-57 35.5t-42 49.5t-16 69q0 90 83 144q-51 44 -51 116t51.5 117.5t135.5 45.5q92 0 156 -32l-1 -78q-68 37 -147 37q-45 0 -76 -21.5t-31 -61.5q0 -38 30.5 -66t73.5 -47
t86.5 -40.5t74 -61t30.5 -95.5q0 -89 -82 -141q48 -46 48 -110q0 -84 -59.5 -127.5t-152.5 -43.5q-106 0 -179 52zM352 151q49 37 49 92q0 26 -12 47.5t-35 38t-45.5 28t-56.5 27.5t-54 27q-51 -32 -51 -90q0 -26 12.5 -47.5t36 -38t46.5 -28.5t56.5 -28t53.5 -28z" />
    <glyph glyph-name="dieresis" unicode="&#xa8;" horiz-adv-x="368" 
d="M93 555q-20 0 -34.5 14.5t-14.5 35.5q0 20 14.5 34.5t34.5 14.5t34.5 -14.5t14.5 -34.5q0 -21 -14.5 -35.5t-34.5 -14.5zM275 555q-21 0 -35.5 14.5t-14.5 35.5q0 20 14.5 34.5t35.5 14.5q20 0 34.5 -14.5t14.5 -34.5q0 -21 -14.5 -35.5t-34.5 -14.5z" />
    <glyph glyph-name="dieresis" unicode="&#x308;" horiz-adv-x="368" 
d="M93 555q-20 0 -34.5 14.5t-14.5 35.5q0 20 14.5 34.5t34.5 14.5t34.5 -14.5t14.5 -34.5q0 -21 -14.5 -35.5t-34.5 -14.5zM275 555q-21 0 -35.5 14.5t-14.5 35.5q0 20 14.5 34.5t35.5 14.5q20 0 34.5 -14.5t14.5 -34.5q0 -21 -14.5 -35.5t-34.5 -14.5z" />
    <glyph glyph-name="copyright" unicode="&#xa9;" horiz-adv-x="776" 
d="M388 -10q-144 0 -238 96.5t-94 240.5t94 240.5t238 96.5t238 -96.5t94 -240.5t-94 -240.5t-238 -96.5zM388 39q118 0 196 81.5t78 206.5q0 124 -77.5 205.5t-196.5 81.5t-196.5 -81.5t-77.5 -205.5q0 -125 78 -206.5t196 -81.5zM490 204l19 -45q-54 -32 -115 -32
q-83 0 -131.5 55t-48.5 140q0 86 51 145.5t137 59.5q53 0 95 -23v-55q-42 25 -94 25q-58 0 -94 -41t-36 -106q0 -69 34.5 -109t91.5 -40q45 0 91 26z" />
    <glyph glyph-name="ordfeminine" unicode="&#xaa;" horiz-adv-x="357" 
d="M250 270l-10 32q-45 -39 -98 -39q-48 0 -79 28.5t-31 77.5q0 52 38 79.5t110 29.5l53 2v13q0 29 -18.5 43.5t-48.5 14.5q-45 0 -90 -24l-27 48q55 36 125 36q129 0 129 -122v-113q0 -73 10 -106h-63zM233 357v69l-51 -2q-77 -2 -77 -51q0 -22 14 -36t38 -14q39 0 76 34z
" />
    <glyph glyph-name="guillemotleft" unicode="&#xab;" horiz-adv-x="569" 
d="M211 13l-167 228l167 229l71 -40l-138 -189l138 -188zM433 13l-167 228l167 229l70 -40l-138 -189l138 -188z" />
    <glyph glyph-name="logicalnot" unicode="&#xac;" horiz-adv-x="532" 
d="M419 24v214h-390v75h473v-289h-83z" />
    <glyph glyph-name="registered" unicode="&#xae;" horiz-adv-x="578" 
d="M287 180q-104 0 -171 69t-67 173t67.5 173.5t170.5 69.5t171.5 -70t68.5 -173t-68.5 -172.5t-171.5 -69.5zM287 220q85 0 139.5 58t54.5 144q0 87 -54.5 144.5t-139.5 57.5t-139 -58t-54 -144t54.5 -144t138.5 -58zM209 297v260h69q27 0 46 -7q47 -15 47 -64
q0 -56 -62 -69v-1q19 -14 77 -119h-48q-56 104 -71 109h-17v-109h-41zM250 439h18q58 0 58 44q0 27 -22 35q-11 5 -36 5h-18v-84z" />
    <glyph glyph-name="macron" unicode="&#xaf;" horiz-adv-x="368" 
d="M54 572v70h260v-70h-260z" />
    <glyph glyph-name="macron" unicode="&#x304;" horiz-adv-x="368" 
d="M54 572v70h260v-70h-260z" />
    <glyph glyph-name="macron" unicode="&#x2c9;" horiz-adv-x="368" 
d="M54 572v70h260v-70h-260z" />
    <glyph glyph-name="degree" unicode="&#xb0;" horiz-adv-x="386" 
d="M192 353q-66 0 -109.5 43.5t-43.5 109.5t43.5 109.5t110.5 43.5t110.5 -43.5t43.5 -109.5t-44 -109.5t-111 -43.5zM193 413q37 0 62.5 26.5t25.5 66.5t-25.5 66.5t-62.5 26.5t-62.5 -26.5t-25.5 -66.5t25.5 -66.5t62.5 -26.5z" />
    <glyph glyph-name="plusminus" unicode="&#xb1;" horiz-adv-x="532" 
d="M224 129v151h-195v75h195v151h83v-151h195v-75h-195v-151h-83zM29 0v74h473v-74h-473z" />
    <glyph glyph-name="twosuperior" unicode="&#xb2;" horiz-adv-x="334" 
d="M27 404q2 52 22.5 93t48 65t54.5 43.5t45.5 39t18.5 41.5q0 21 -15.5 33.5t-41.5 12.5q-39 0 -97 -30l-22 56q69 37 131 37q58 0 90 -28.5t32 -74.5q0 -37 -24.5 -68t-55 -49.5t-60 -47t-36.5 -60.5h177v-63h-267z" />
    <glyph glyph-name="threesuperior" unicode="&#xb3;" horiz-adv-x="336" 
d="M19 420l20 56q42 -19 87 -19q84 0 84 58q0 36 -37 48q-20 8 -60 8h-43v56h36q34 0 57 9q34 15 34 49q0 24 -16.5 36t-42.5 12q-38 0 -89 -22l-20 56q63 28 122 28q56 0 89.5 -28t33.5 -72q0 -65 -68 -90v-2q39 -7 60 -31t21 -62q0 -49 -40.5 -81t-117.5 -32
q-64 0 -110 23z" />
    <glyph glyph-name="acute" unicode="&#xb4;" horiz-adv-x="368" 
d="M135 531l58 147h100l-89 -147h-69z" />
    <glyph glyph-name="acute" unicode="&#x301;" horiz-adv-x="368" 
d="M135 531l58 147h100l-89 -147h-69z" />
    <glyph glyph-name="mu" unicode="&#xb5;" horiz-adv-x="543" 
d="M62 -237v710h88v-303q0 -47 25.5 -75t71.5 -28q42 0 75.5 29.5t33.5 89.5v287h88v-327q0 -44 8 -58.5t27 -14.5q13 0 29 6l18 -71q-33 -14 -69 -14q-35 0 -56.5 19.5t-26.5 54.5h-2q-45 -78 -129 -78q-63 0 -95 43h-2q4 -40 4 -131v-139h-88z" />
    <glyph glyph-name="mu" unicode="&#x3bc;" horiz-adv-x="543" 
d="M62 -237v710h88v-303q0 -47 25.5 -75t71.5 -28q42 0 75.5 29.5t33.5 89.5v287h88v-327q0 -44 8 -58.5t27 -14.5q13 0 29 6l18 -71q-33 -14 -69 -14q-35 0 -56.5 19.5t-26.5 54.5h-2q-45 -78 -129 -78q-63 0 -95 43h-2q4 -40 4 -131v-139h-88z" />
    <glyph glyph-name="paragraph" unicode="&#xb6;" horiz-adv-x="616" 
d="M265 -160v375q-91 4 -147 65.5t-56 156.5q0 97 61.5 159.5t165.5 62.5h231v-819h-76v755h-103v-755h-76z" />
    <glyph glyph-name="periodcentered" unicode="&#xb7;" horiz-adv-x="223" 
d="M110 197q-22 0 -38 16.5t-16 39.5t16 39t38 16t38 -16t16 -39t-16 -39.5t-38 -16.5z" />
    <glyph glyph-name="periodcentered" unicode="&#x2219;" horiz-adv-x="223" 
d="M110 197q-22 0 -38 16.5t-16 39.5t16 39t38 16t38 -16t16 -39t-16 -39.5t-38 -16.5z" />
    <glyph glyph-name="cedilla" unicode="&#xb8;" horiz-adv-x="368" 
d="M87 -201l15 48q23 -10 49 -10q23 0 37.5 9.5t14.5 27.5q0 23 -21 29.5t-63 6.5l27 90h69l-17 -52q82 -7 82 -73q0 -40 -32.5 -63.5t-90.5 -23.5q-35 0 -70 11z" />
    <glyph glyph-name="cedilla" unicode="&#x327;" horiz-adv-x="368" 
d="M87 -201l15 48q23 -10 49 -10q23 0 37.5 9.5t14.5 27.5q0 23 -21 29.5t-63 6.5l27 90h69l-17 -52q82 -7 82 -73q0 -40 -32.5 -63.5t-90.5 -23.5q-35 0 -70 11z" />
    <glyph glyph-name="onesuperior" unicode="&#xb9;" horiz-adv-x="332" 
d="M176 404v313l-118 -45l-26 56l158 65h58v-389h-72z" />
    <glyph glyph-name="ordmasculine" unicode="&#xba;" horiz-adv-x="380" 
d="M190 263q-72 0 -117 49.5t-45 124.5t45 124.5t117 49.5t117 -49.5t45 -124.5t-45 -124.5t-117 -49.5zM190 324q41 0 65.5 31.5t24.5 81.5t-24.5 81.5t-65.5 31.5t-65 -31.5t-24 -81.5t24 -81.5t65 -31.5z" />
    <glyph glyph-name="guillemotright" unicode="&#xbb;" horiz-adv-x="569" 
d="M64 53l138 188l-138 189l70 40l168 -229l-168 -228zM286 53l138 188l-138 189l70 40l167 -229l-167 -228z" />
    <glyph glyph-name="onequarter" unicode="&#xbc;" horiz-adv-x="887" 
d="M183 0l413 659h76l-413 -659h-76zM199 274v313l-118 -45l-26 56l158 65h58v-389h-72zM482 86v46l192 257h66v-246h53v-57h-53v-86h-71v86h-187zM561 142q7 0 31.5 0.5t38.5 0.5h38v36q0 68 3 112z" />
    <glyph glyph-name="onehalf" unicode="&#xbd;" horiz-adv-x="887" 
d="M173 0l413 659h76l-413 -659h-76zM191 274v313l-118 -45l-26 56l158 65h58v-389h-72zM543 0q2 52 22.5 93t48 65t54.5 43.5t45.5 39t18.5 41.5q0 21 -15.5 33.5t-41.5 12.5q-39 0 -97 -30l-22 56q69 37 131 37q58 0 90 -28.5t32 -74.5q0 -37 -24.5 -68t-55 -49.5t-60 -47
t-36.5 -60.5h177v-63h-267z" />
    <glyph glyph-name="threequarters" unicode="&#xbe;" horiz-adv-x="887" 
d="M205 0l413 659h76l-413 -659h-76zM56 290l20 56q42 -19 87 -19q84 0 84 58q0 36 -37 48q-20 8 -60 8h-43v56h36q34 0 57 9q34 15 34 49q0 24 -16.5 36t-42.5 12q-38 0 -89 -22l-20 56q63 28 122 28q56 0 89.5 -28t33.5 -72q0 -65 -68 -90v-2q39 -7 60 -31t21 -62
q0 -49 -40.5 -81t-117.5 -32q-64 0 -110 23zM501 86v46l192 257h66v-246h53v-57h-53v-86h-71v86h-187zM580 142q7 0 31.5 0.5t38.5 0.5h38v36q0 68 3 112z" />
    <glyph glyph-name="questiondown" unicode="&#xbf;" horiz-adv-x="459" 
d="M266 374q-23 0 -38.5 16t-15.5 39t16 39.5t38 16.5t37.5 -16.5t15.5 -39.5t-15.5 -39t-37.5 -16zM363 -55l41 -58q-81 -75 -184 -75q-78 0 -122 39.5t-44 101.5q0 48 31.5 88t69 62.5t69 51t31.5 56.5q0 27 -20 50l72 35q36 -39 36 -87q0 -33 -20 -62t-48.5 -49.5
l-56.5 -40t-48 -44t-20 -52.5q0 -35 22.5 -54t59.5 -19q68 0 131 57z" />
    <glyph glyph-name="Agrave" unicode="&#xc0;" horiz-adv-x="599" 
d="M14 0l251 661h64l256 -661h-95l-65 173h-255l-64 -173h-92zM197 246h200l-61 172l-37 110h-2q-7 -25 -38 -111zM278 696l-89 147h100l58 -147h-69z" />
    <glyph glyph-name="Aacute" unicode="&#xc1;" horiz-adv-x="599" 
d="M14 0l251 661h64l256 -661h-95l-65 173h-255l-64 -173h-92zM197 246h200l-61 172l-37 110h-2q-7 -25 -38 -111zM249 696l58 147h100l-89 -147h-69z" />
    <glyph glyph-name="Acircumflex" unicode="&#xc2;" horiz-adv-x="599" 
d="M14 0l251 661h64l256 -661h-95l-65 173h-255l-64 -173h-92zM197 246h200l-61 172l-37 110h-2q-7 -25 -38 -111zM160 696l99 147h78l99 -147h-73l-65 93l-65 -93h-73z" />
    <glyph glyph-name="Atilde" unicode="&#xc3;" horiz-adv-x="599" 
d="M14 0l251 661h64l256 -661h-95l-65 173h-255l-64 -173h-92zM197 246h200l-61 172l-37 110h-2q-7 -25 -38 -111zM153 724v28q0 36 21.5 57t53.5 21q30 0 72 -23t56 -23q25 0 25 40h61v-27q0 -37 -21 -58t-53 -21q-30 0 -72.5 23.5t-56.5 23.5q-25 0 -25 -41h-61z" />
    <glyph glyph-name="Adieresis" unicode="&#xc4;" horiz-adv-x="599" 
d="M14 0l251 661h64l256 -661h-95l-65 173h-255l-64 -173h-92zM197 246h200l-61 172l-37 110h-2q-7 -25 -38 -111zM207 704q-20 0 -34.5 14.5t-14.5 35.5q0 20 14.5 34.5t34.5 14.5t34.5 -14.5t14.5 -34.5q0 -21 -14.5 -35.5t-34.5 -14.5zM389 704q-21 0 -35.5 14.5
t-14.5 35.5q0 20 14.5 34.5t35.5 14.5q20 0 34.5 -14.5t14.5 -34.5q0 -21 -14.5 -35.5t-34.5 -14.5z" />
    <glyph glyph-name="Aring" unicode="&#xc5;" horiz-adv-x="599" 
d="M14 0l248 654q-34 8 -53.5 32t-19.5 59q0 44 29.5 70t77.5 26t78 -26t30 -70q0 -35 -20 -58.5t-53 -31.5l254 -655h-95l-65 173h-255l-64 -173h-92zM197 246h200l-61 173q-28 82 -37 113h-2q-8 -30 -38 -113zM296 694q21 0 34 13.5t13 37.5t-13 38t-34 14t-33.5 -14
t-12.5 -38t12.5 -37.5t33.5 -13.5z" />
    <glyph glyph-name="AE" unicode="&#xc6;" horiz-adv-x="809" 
d="M13 0l347 659h387l-26 -73h-267l36 -212h228v-74h-215l39 -227h209v-73h-287l-30 173h-237l-91 -173h-93zM237 246h185l-30 183q0 2 -7 40t-9 58h-2q-6 -14 -52 -111z" />
    <glyph glyph-name="Ccedilla" unicode="&#xc7;" horiz-adv-x="602" 
d="M246 -201l14 48q23 -10 50 -10q51 0 51 37q0 23 -21.5 30t-62.5 6l26 86q-118 21 -184 109t-66 217q0 146 93 244.5t241 98.5q102 0 166 -35v-83q-79 42 -164 42q-111 0 -176.5 -74.5t-65.5 -188.5q0 -116 64 -188t172 -72q79 0 158 43l25 -71q-89 -48 -196 -48l-13 -42
q82 -7 82 -73q0 -40 -33 -63.5t-91 -23.5q-34 0 -69 11z" />
    <glyph glyph-name="Egrave" unicode="&#xc8;" horiz-adv-x="479" 
d="M84 0v659h333l-26 -73h-218v-212h215v-74h-215v-227h248v-73h-337zM221 696l-89 147h100l58 -147h-69z" />
    <glyph glyph-name="Eacute" unicode="&#xc9;" horiz-adv-x="479" 
d="M84 0v659h333l-26 -73h-218v-212h215v-74h-215v-227h248v-73h-337zM198 696l58 147h100l-89 -147h-69z" />
    <glyph glyph-name="Ecircumflex" unicode="&#xca;" horiz-adv-x="479" 
d="M84 0v659h333l-26 -73h-218v-212h215v-74h-215v-227h248v-73h-337zM107 696l99 147h78l99 -147h-73l-65 93l-65 -93h-73z" />
    <glyph glyph-name="Edieresis" unicode="&#xcb;" horiz-adv-x="479" 
d="M85 0v659h333l-26 -73h-218v-212h215v-74h-215v-227h248v-73h-337zM157 704q-20 0 -34.5 14.5t-14.5 35.5q0 20 14.5 34.5t34.5 14.5t34.5 -14.5t14.5 -34.5q0 -21 -14.5 -35.5t-34.5 -14.5zM339 704q-21 0 -35.5 14.5t-14.5 35.5q0 20 14.5 34.5t35.5 14.5
q20 0 34.5 -14.5t14.5 -34.5q0 -21 -14.5 -35.5t-34.5 -14.5z" />
    <glyph glyph-name="Igrave" unicode="&#xcc;" horiz-adv-x="257" 
d="M84 0v659h89v-659h-89zM108 696l-89 147h100l58 -147h-69z" />
    <glyph glyph-name="Iacute" unicode="&#xcd;" horiz-adv-x="257" 
d="M84 0v659h89v-659h-89zM78 696l58 147h100l-89 -147h-69z" />
    <glyph glyph-name="Icircumflex" unicode="&#xce;" horiz-adv-x="257" 
d="M84 0v659h89v-659h-89zM-11 696l99 147h78l99 -147h-73l-65 93l-65 -93h-73z" />
    <glyph glyph-name="Idieresis" unicode="&#xcf;" horiz-adv-x="257" 
d="M84 0v659h89v-659h-89zM37 704q-20 0 -34.5 14.5t-14.5 35.5q0 20 14.5 34.5t34.5 14.5t34.5 -14.5t14.5 -34.5q0 -21 -14.5 -35.5t-34.5 -14.5zM219 704q-21 0 -35.5 14.5t-14.5 35.5q0 20 14.5 34.5t35.5 14.5q20 0 34.5 -14.5t14.5 -34.5q0 -21 -14.5 -35.5
t-34.5 -14.5z" />
    <glyph glyph-name="Eth" unicode="&#xd0;" horiz-adv-x="663" 
d="M84 0v297h-75v73h75v289h173q171 0 262 -89t91 -237q0 -149 -93.5 -241t-265.5 -92h-167zM173 73h78q138 0 201.5 73t63.5 189q0 114 -67.5 182.5t-198.5 68.5h-77v-216h159v-73h-159v-224z" />
    <glyph glyph-name="Ntilde" unicode="&#xd1;" horiz-adv-x="729" 
d="M84 0v659h86l298 -388q48 -62 89 -123h2q-2 36 -2 115v396h88v-659h-77l-309 403l-87 119h-2q3 -47 3 -110v-412h-89zM221 724v28q0 36 21.5 57t53.5 21q30 0 72 -23t56 -23q25 0 25 40h61v-27q0 -37 -21 -58t-53 -21q-30 0 -72.5 23.5t-56.5 23.5q-25 0 -25 -41h-61z
" />
    <glyph glyph-name="Ograve" unicode="&#xd2;" horiz-adv-x="756" 
d="M378 -10q-142 0 -233.5 93t-91.5 244q0 149 91.5 243.5t233.5 94.5t233 -95t91 -243q0 -151 -92 -244t-232 -93zM378 66q104 0 167 71t63 190q0 116 -61.5 189t-168.5 73q-104 0 -167.5 -72t-63.5 -190q0 -119 63 -190t168 -71zM355 696l-89 147h100l58 -147h-69z" />
    <glyph glyph-name="Oacute" unicode="&#xd3;" horiz-adv-x="756" 
d="M378 -10q-142 0 -233.5 93t-91.5 244q0 149 91.5 243.5t233.5 94.5t233 -95t91 -243q0 -151 -92 -244t-232 -93zM378 66q104 0 167 71t63 190q0 116 -61.5 189t-168.5 73q-104 0 -167.5 -72t-63.5 -190q0 -119 63 -190t168 -71zM337 696l58 147h100l-89 -147h-69z" />
    <glyph glyph-name="Ocircumflex" unicode="&#xd4;" horiz-adv-x="756" 
d="M378 -10q-142 0 -233.5 93t-91.5 244q0 149 91.5 243.5t233.5 94.5t233 -95t91 -243q0 -151 -92 -244t-232 -93zM378 66q104 0 167 71t63 190q0 116 -61.5 189t-168.5 73q-104 0 -167.5 -72t-63.5 -190q0 -119 63 -190t168 -71zM240 696l99 147h78l99 -147h-73l-65 93
l-65 -93h-73z" />
    <glyph glyph-name="Otilde" unicode="&#xd5;" horiz-adv-x="756" 
d="M378 -10q-142 0 -233.5 93t-91.5 244q0 149 91.5 243.5t233.5 94.5t233 -95t91 -243q0 -151 -92 -244t-232 -93zM378 66q104 0 167 71t63 190q0 116 -61.5 189t-168.5 73q-104 0 -167.5 -72t-63.5 -190q0 -119 63 -190t168 -71zM235 724v28q0 36 21.5 57t53.5 21
q30 0 72 -23t56 -23q25 0 25 40h61v-27q0 -37 -21 -58t-53 -21q-30 0 -72.5 23.5t-56.5 23.5q-25 0 -25 -41h-61z" />
    <glyph glyph-name="Odieresis" unicode="&#xd6;" horiz-adv-x="756" 
d="M378 -10q-142 0 -233.5 93t-91.5 244q0 149 91.5 243.5t233.5 94.5t233 -95t91 -243q0 -151 -92 -244t-232 -93zM378 66q104 0 167 71t63 190q0 116 -61.5 189t-168.5 73q-104 0 -167.5 -72t-63.5 -190q0 -119 63 -190t168 -71zM290 704q-20 0 -34.5 14.5t-14.5 35.5
q0 20 14.5 34.5t34.5 14.5t34.5 -14.5t14.5 -34.5q0 -21 -14.5 -35.5t-34.5 -14.5zM472 704q-21 0 -35.5 14.5t-14.5 35.5q0 20 14.5 34.5t35.5 14.5q20 0 34.5 -14.5t14.5 -34.5q0 -21 -14.5 -35.5t-34.5 -14.5z" />
    <glyph glyph-name="multiply" unicode="&#xd7;" horiz-adv-x="555" 
d="M95 13l-55 55l183 183l-183 183l54 55l184 -183l183 183l54 -55l-183 -183l183 -183l-55 -54l-182 183z" />
    <glyph glyph-name="Oslash" unicode="&#xd8;" horiz-adv-x="759" 
d="M123 -21l-56 45l65 74q-77 91 -77 229q0 149 91.5 243.5t233.5 94.5q106 0 188 -61l65 76l57 -45l-68 -77q82 -93 82 -231q0 -151 -92 -244t-232 -93q-112 0 -194 62zM567 491l-330 -377q60 -49 143 -49q104 0 167.5 71.5t63.5 190.5q0 97 -44 164zM189 168l329 375
q-57 46 -138 46q-104 0 -168 -72t-64 -190q0 -97 41 -159z" />
    <glyph glyph-name="Ugrave" unicode="&#xd9;" horiz-adv-x="666" 
d="M333 -10q-183 0 -236 136q-18 48 -18 113v420h89v-413q0 -56 15 -90q36 -90 150 -90q115 0 151 90q14 35 14 93v410h89v-420q0 -69 -20 -115q-53 -134 -234 -134zM311 696l-89 147h100l58 -147h-69z" />
    <glyph glyph-name="Uacute" unicode="&#xda;" horiz-adv-x="666" 
d="M333 -10q-183 0 -236 136q-18 48 -18 113v420h89v-413q0 -56 15 -90q36 -90 150 -90q115 0 151 90q14 35 14 93v410h89v-420q0 -69 -20 -115q-53 -134 -234 -134zM293 696l58 147h100l-89 -147h-69z" />
    <glyph glyph-name="Ucircumflex" unicode="&#xdb;" horiz-adv-x="666" 
d="M333 -10q-183 0 -236 136q-18 48 -18 113v420h89v-413q0 -56 15 -90q36 -90 150 -90q115 0 151 90q14 35 14 93v410h89v-420q0 -69 -20 -115q-53 -134 -234 -134zM198 696l99 147h78l99 -147h-73l-65 93l-65 -93h-73z" />
    <glyph glyph-name="Udieresis" unicode="&#xdc;" horiz-adv-x="666" 
d="M333 -10q-183 0 -236 136q-18 48 -18 113v420h89v-413q0 -56 15 -90q36 -90 150 -90q115 0 151 90q14 35 14 93v410h89v-420q0 -69 -20 -115q-53 -134 -234 -134zM246 704q-20 0 -34.5 14.5t-14.5 35.5q0 20 14.5 34.5t34.5 14.5t34.5 -14.5t14.5 -34.5
q0 -21 -14.5 -35.5t-34.5 -14.5zM428 704q-21 0 -35.5 14.5t-14.5 35.5q0 20 14.5 34.5t35.5 14.5q20 0 34.5 -14.5t14.5 -34.5q0 -21 -14.5 -35.5t-34.5 -14.5z" />
    <glyph glyph-name="Yacute" unicode="&#xdd;" horiz-adv-x="552" 
d="M233 0v263l-220 396h98l166 -313h2l163 313h97l-218 -398v-261h-88zM230 696l58 147h100l-89 -147h-69z" />
    <glyph glyph-name="Thorn" unicode="&#xde;" horiz-adv-x="516" 
d="M84 0v659h89v-111h46q91 0 145 -30q99 -54 99 -181q0 -134 -116 -186q-54 -24 -136 -24h-38v-127h-89zM173 200h44q56 0 90 18q63 31 63 119q0 82 -59 117q-34 20 -93 20h-45v-274z" />
    <glyph glyph-name="germandbls" unicode="&#xdf;" horiz-adv-x="583" 
d="M62 -141v627q0 64 19.5 110t52.5 69t66.5 33t69.5 10q87 0 145.5 -53t58.5 -163v-24q-99 -20 -99 -76q0 -29 26.5 -52.5t65.5 -52t57 -59.5q23 -37 23 -87q0 -75 -51.5 -113t-127.5 -38q-82 0 -144 40l28 66q57 -34 113 -34q95 0 95 76q0 36 -26 63t-65.5 54.5
t-56.5 52.5q-24 32 -24 73q0 92 100 126q-2 60 -32 94t-86 34q-53 0 -86.5 -34t-33.5 -107v-635h-88z" />
    <glyph glyph-name="agrave" unicode="&#xe0;" horiz-adv-x="471" 
d="M344 0l-15 51q-65 -61 -141 -61q-66 0 -109 40.5t-43 107.5q0 90 80 128q43 21 119 24l88 3v25q0 48 -26.5 72t-71.5 24q-66 0 -129 -37l-31 61q78 47 171 47q83 0 129 -41t46 -124v-172q0 -112 9 -148h-76zM323 230l-77 -3q-52 -1 -83 -17q-37 -21 -37 -67
q0 -37 22.5 -59t59.5 -22q61 0 115 54v114zM215 531l-89 147h100l58 -147h-69z" />
    <glyph glyph-name="aacute" unicode="&#xe1;" horiz-adv-x="471" 
d="M344 0l-15 51q-65 -61 -141 -61q-66 0 -109 40.5t-43 107.5q0 90 80 128q43 21 119 24l88 3v25q0 48 -26.5 72t-71.5 24q-66 0 -129 -37l-31 61q78 47 171 47q83 0 129 -41t46 -124v-172q0 -112 9 -148h-76zM323 230l-77 -3q-52 -1 -83 -17q-37 -21 -37 -67
q0 -37 22.5 -59t59.5 -22q61 0 115 54v114zM186 531l58 147h100l-89 -147h-69z" />
    <glyph glyph-name="acircumflex" unicode="&#xe2;" horiz-adv-x="471" 
d="M344 0l-15 51q-65 -61 -141 -61q-66 0 -109 40.5t-43 107.5q0 90 80 128q43 21 119 24l88 3v25q0 48 -26.5 72t-71.5 24q-66 0 -129 -37l-31 61q78 47 171 47q83 0 129 -41t46 -124v-172q0 -112 9 -148h-76zM323 230l-77 -3q-52 -1 -83 -17q-37 -21 -37 -67
q0 -37 22.5 -59t59.5 -22q61 0 115 54v114zM96 531l99 147h78l99 -147h-73l-65 93l-65 -93h-73z" />
    <glyph glyph-name="atilde" unicode="&#xe3;" horiz-adv-x="473" 
d="M344 0l-15 51q-65 -61 -141 -61q-66 0 -109 40.5t-43 107.5q0 90 80 128q43 21 119 24l88 3v25q0 48 -26.5 72t-71.5 24q-66 0 -129 -37l-31 61q78 47 171 47q83 0 129 -41t46 -124v-172q0 -112 9 -148h-76zM323 230l-77 -3q-52 -1 -83 -17q-37 -21 -37 -67
q0 -37 22.5 -59t59.5 -22q61 0 115 54v114zM90 552v27q0 37 21 58t54 21q30 0 72 -23.5t56 -23.5q25 0 25 41h61v-28q0 -36 -21 -57t-53 -21q-30 0 -72.5 23t-56.5 23q-25 0 -25 -40h-61z" />
    <glyph glyph-name="adieresis" unicode="&#xe4;" horiz-adv-x="471" 
d="M344 0l-15 51q-65 -61 -141 -61q-66 0 -109 40.5t-43 107.5q0 90 80 128q43 21 119 24l88 3v25q0 48 -26.5 72t-71.5 24q-66 0 -129 -37l-31 61q78 47 171 47q83 0 129 -41t46 -124v-172q0 -112 9 -148h-76zM323 230l-77 -3q-52 -1 -83 -17q-37 -21 -37 -67
q0 -37 22.5 -59t59.5 -22q61 0 115 54v114zM144 555q-20 0 -34.5 14.5t-14.5 35.5q0 20 14.5 34.5t34.5 14.5t34.5 -14.5t14.5 -34.5q0 -21 -14.5 -35.5t-34.5 -14.5zM326 555q-21 0 -35.5 14.5t-14.5 35.5q0 20 14.5 34.5t35.5 14.5q20 0 34.5 -14.5t14.5 -34.5
q0 -21 -14.5 -35.5t-34.5 -14.5z" />
    <glyph glyph-name="aring" unicode="&#xe5;" horiz-adv-x="471" 
d="M344 0l-15 51q-65 -61 -141 -61q-66 0 -109 40.5t-43 107.5q0 90 80 128q43 21 119 24l88 3v25q0 48 -26.5 72t-71.5 24q-66 0 -129 -37l-31 61q78 47 171 47q83 0 129 -41t46 -124v-172q0 -112 9 -148h-76zM323 230l-77 -3q-52 -1 -83 -17q-37 -21 -37 -67
q0 -37 22.5 -59t59.5 -22q61 0 115 54v114zM235 523q-48 0 -77.5 26.5t-29.5 69.5t29.5 69.5t77.5 26.5t77.5 -26.5t29.5 -69.5t-29.5 -69.5t-77.5 -26.5zM235 567q21 0 33.5 14t12.5 38t-12.5 38t-33.5 14t-34 -14t-13 -38t13 -38t34 -14z" />
    <glyph glyph-name="ae" unicode="&#xe6;" horiz-adv-x="758" 
d="M193 -10q-69 0 -113 40t-44 108q0 74 54 110.5t144 36.5h93v33q0 48 -28 72t-73 24q-64 0 -130 -37l-31 61q78 47 170 47q107 0 144 -78h2q53 78 147 78q89 0 140 -65.5t51 -180.5v-19h-305q2 -71 41.5 -114.5t107.5 -43.5q58 0 118 32l27 -61q-68 -43 -156 -43
q-120 0 -180 88q-74 -88 -179 -88zM209 62q39 0 74.5 21.5t58.5 51.5q-12 36 -14 85h-88q-114 0 -114 -79q0 -35 23 -57t60 -22zM415 285h213q-2 55 -28.5 92.5t-75.5 37.5t-78 -37.5t-31 -92.5z" />
    <glyph glyph-name="ccedilla" unicode="&#xe7;" horiz-adv-x="432" 
d="M148 -201l14 48q23 -10 49 -10q23 0 37.5 9.5t14.5 27.5q0 17 -14.5 25.5t-28.5 9.5t-41 1l26 87q-80 18 -123.5 82t-43.5 153q0 108 67 180.5t173 72.5q68 0 121 -30v-77q-52 34 -114 34q-71 0 -113.5 -49t-42.5 -126q0 -82 40.5 -128t109.5 -46q53 0 113 33l26 -62
q-62 -44 -143 -44h-3l-13 -42q82 -7 82 -73q0 -40 -33 -63.5t-91 -23.5q-34 0 -69 11z" />
    <glyph glyph-name="egrave" unicode="&#xe8;" horiz-adv-x="473" 
d="M267 -10q-112 0 -170.5 71t-58.5 179q0 109 55 177t145 68q92 0 144 -66t52 -180v-22h-306q2 -69 41.5 -112t108.5 -43q58 0 117 32l28 -61q-68 -43 -156 -43zM128 283h215q-2 55 -28.5 93.5t-76.5 38.5q-49 0 -79 -38t-31 -94zM222 531l-89 147h100l58 -147h-69z" />
    <glyph glyph-name="eacute" unicode="&#xe9;" horiz-adv-x="473" 
d="M267 -10q-112 0 -170.5 71t-58.5 179q0 109 55 177t145 68q92 0 144 -66t52 -180v-22h-306q2 -69 41.5 -112t108.5 -43q58 0 117 32l28 -61q-68 -43 -156 -43zM128 283h215q-2 55 -28.5 93.5t-76.5 38.5q-49 0 -79 -38t-31 -94zM193 531l58 147h100l-89 -147h-69z" />
    <glyph glyph-name="ecircumflex" unicode="&#xea;" horiz-adv-x="473" 
d="M267 -10q-112 0 -170.5 71t-58.5 179q0 109 55 177t145 68q92 0 144 -66t52 -180v-22h-306q2 -69 41.5 -112t108.5 -43q58 0 117 32l28 -61q-68 -43 -156 -43zM128 283h215q-2 55 -28.5 93.5t-76.5 38.5q-49 0 -79 -38t-31 -94zM103 531l99 147h78l99 -147h-73l-65 93
l-65 -93h-73z" />
    <glyph glyph-name="edieresis" unicode="&#xeb;" horiz-adv-x="473" 
d="M267 -10q-112 0 -170.5 71t-58.5 179q0 109 55 177t145 68q92 0 144 -66t52 -180v-22h-306q2 -69 41.5 -112t108.5 -43q58 0 117 32l28 -61q-68 -43 -156 -43zM128 283h215q-2 55 -28.5 93.5t-76.5 38.5q-49 0 -79 -38t-31 -94zM151 555q-20 0 -34.5 14.5t-14.5 35.5
q0 20 14.5 34.5t34.5 14.5t34.5 -14.5t14.5 -34.5q0 -21 -14.5 -35.5t-34.5 -14.5zM333 555q-21 0 -35.5 14.5t-14.5 35.5q0 20 14.5 34.5t35.5 14.5q20 0 34.5 -14.5t14.5 -34.5q0 -21 -14.5 -35.5t-34.5 -14.5z" />
    <glyph glyph-name="igrave" unicode="&#xec;" horiz-adv-x="229" 
d="M70 0v473h88v-473h-88zM96 531l-89 147h100l58 -147h-69z" />
    <glyph glyph-name="iacute" unicode="&#xed;" horiz-adv-x="229" 
d="M70 0v473h88v-473h-88zM67 531l58 147h100l-89 -147h-69z" />
    <glyph glyph-name="icircumflex" unicode="&#xee;" horiz-adv-x="229" 
d="M70 0v473h88v-473h-88zM-23 531l99 147h78l99 -147h-73l-65 93l-65 -93h-73z" />
    <glyph glyph-name="idieresis" unicode="&#xef;" horiz-adv-x="229" 
d="M70 0v473h88v-473h-88zM25 555q-20 0 -34.5 14.5t-14.5 35.5q0 20 14.5 34.5t34.5 14.5t34.5 -14.5t14.5 -34.5q0 -21 -14.5 -35.5t-34.5 -14.5zM207 555q-21 0 -35.5 14.5t-14.5 35.5q0 20 14.5 34.5t35.5 14.5q20 0 34.5 -14.5t14.5 -34.5q0 -21 -14.5 -35.5
t-34.5 -14.5z" />
    <glyph glyph-name="eth" unicode="&#xf0;" horiz-adv-x="541" 
d="M451 662l-93 -43q129 -107 129 -329q0 -151 -62.5 -225.5t-164.5 -74.5q-99 0 -160.5 69t-61.5 175q0 108 57.5 177.5t155.5 69.5q48 0 90 -23t66 -59h2q-23 119 -122 185l-133 -62l-23 47l94 42q-46 20 -123 25l15 72q116 -9 194 -55l117 55zM262 63q62 0 98 47.5
t36 127.5q0 76 -36.5 123t-97.5 47q-62 0 -97.5 -48t-35.5 -125q0 -78 36 -125t97 -47z" />
    <glyph glyph-name="ntilde" unicode="&#xf1;" horiz-adv-x="516" 
d="M62 0v473h74l11 -58q85 70 164 70q62 0 103 -40.5t41 -127.5v-317h-88v288q0 119 -81 119q-61 0 -136 -64v-343h-88zM104 552v27q0 37 21 58t54 21q30 0 72 -23.5t56 -23.5q25 0 25 41h61v-28q0 -36 -21 -57t-53 -21q-30 0 -72.5 23t-56.5 23q-25 0 -25 -40h-61z" />
    <glyph glyph-name="ograve" unicode="&#xf2;" 
d="M262 -10q-100 0 -162 70.5t-62 176.5q0 107 62.5 177.5t162.5 70.5q99 0 161.5 -71t62.5 -177t-62.5 -176.5t-162.5 -70.5zM262 63q62 0 98 48.5t36 125.5q0 78 -36 126.5t-97 48.5q-62 0 -98 -48.5t-36 -126.5q0 -77 36 -125.5t97 -48.5zM239 531l-89 147h100l58 -147
h-69z" />
    <glyph glyph-name="oacute" unicode="&#xf3;" 
d="M262 -10q-100 0 -162 70.5t-62 176.5q0 107 62.5 177.5t162.5 70.5q99 0 161.5 -71t62.5 -177t-62.5 -176.5t-162.5 -70.5zM262 63q62 0 98 48.5t36 125.5q0 78 -36 126.5t-97 48.5q-62 0 -98 -48.5t-36 -126.5q0 -77 36 -125.5t97 -48.5zM221 531l58 147h100l-89 -147
h-69z" />
    <glyph glyph-name="ocircumflex" unicode="&#xf4;" 
d="M262 -10q-100 0 -162 70.5t-62 176.5q0 107 62.5 177.5t162.5 70.5q99 0 161.5 -71t62.5 -177t-62.5 -176.5t-162.5 -70.5zM262 63q62 0 98 48.5t36 125.5q0 78 -36 126.5t-97 48.5q-62 0 -98 -48.5t-36 -126.5q0 -77 36 -125.5t97 -48.5zM124 531l99 147h78l99 -147h-73
l-65 93l-65 -93h-73z" />
    <glyph glyph-name="otilde" unicode="&#xf5;" 
d="M262 -10q-100 0 -162 70.5t-62 176.5q0 107 62.5 177.5t162.5 70.5q99 0 161.5 -71t62.5 -177t-62.5 -176.5t-162.5 -70.5zM262 63q62 0 98 48.5t36 125.5q0 78 -36 126.5t-97 48.5q-62 0 -98 -48.5t-36 -126.5q0 -77 36 -125.5t97 -48.5zM118 552v27q0 37 21 58t54 21
q30 0 72 -23.5t56 -23.5q25 0 25 41h61v-28q0 -36 -21 -57t-53 -21q-30 0 -72.5 23t-56.5 23q-25 0 -25 -40h-61z" />
    <glyph glyph-name="odieresis" unicode="&#xf6;" 
d="M262 -10q-100 0 -162 70.5t-62 176.5q0 107 62.5 177.5t162.5 70.5q99 0 161.5 -71t62.5 -177t-62.5 -176.5t-162.5 -70.5zM262 63q62 0 98 48.5t36 125.5q0 78 -36 126.5t-97 48.5q-62 0 -98 -48.5t-36 -126.5q0 -77 36 -125.5t97 -48.5zM172 555q-20 0 -34.5 14.5
t-14.5 35.5q0 20 14.5 34.5t34.5 14.5t34.5 -14.5t14.5 -34.5q0 -21 -14.5 -35.5t-34.5 -14.5zM354 555q-21 0 -35.5 14.5t-14.5 35.5q0 20 14.5 34.5t35.5 14.5q20 0 34.5 -14.5t14.5 -34.5q0 -21 -14.5 -35.5t-34.5 -14.5z" />
    <glyph glyph-name="divide" unicode="&#xf7;" horiz-adv-x="532" 
d="M267 370q-21 0 -35.5 15.5t-14.5 36.5q0 22 14.5 37.5t35.5 15.5t36 -15.5t15 -37.5q0 -21 -15 -36.5t-36 -15.5zM29 215v74h473v-74h-473zM267 29q-21 0 -35.5 15t-14.5 37t14.5 37t35.5 15t36 -15t15 -37t-15 -37t-36 -15z" />
    <glyph glyph-name="oslash" unicode="&#xf8;" 
d="M92 -22l-43 34l46 56q-57 70 -57 169q0 107 62.5 177.5t162.5 70.5q72 0 128 -43l40 51l43 -35l-43 -53q56 -69 56 -168q0 -106 -62.5 -176.5t-162.5 -70.5q-71 0 -128 42zM182 92q33 -30 80 -30q62 0 98.5 49t36.5 126q0 57 -20 99zM148 137l195 245q-33 31 -80 31
q-62 0 -98.5 -49t-36.5 -127q0 -58 20 -100z" />
    <glyph glyph-name="ugrave" unicode="&#xf9;" horiz-adv-x="514" 
d="M207 -10q-41 0 -78 21t-54 69q-13 38 -13 90v303h88v-287q0 -46 9 -70q18 -49 76 -49q35 0 68 17.5t53 41.5v347h88v-327q0 -112 10 -146h-78l-15 53q-70 -63 -154 -63zM232 531l-89 147h100l58 -147h-69z" />
    <glyph glyph-name="uacute" unicode="&#xfa;" horiz-adv-x="514" 
d="M207 -10q-41 0 -78 21t-54 69q-13 38 -13 90v303h88v-287q0 -46 9 -70q18 -49 76 -49q35 0 68 17.5t53 41.5v347h88v-327q0 -112 10 -146h-78l-15 53q-70 -63 -154 -63zM210 531l58 147h100l-89 -147h-69z" />
    <glyph glyph-name="ucircumflex" unicode="&#xfb;" horiz-adv-x="514" 
d="M207 -10q-41 0 -78 21t-54 69q-13 38 -13 90v303h88v-287q0 -46 9 -70q18 -49 76 -49q35 0 68 17.5t53 41.5v347h88v-327q0 -112 10 -146h-78l-15 53q-70 -63 -154 -63zM118 531l99 147h78l99 -147h-73l-65 93l-65 -93h-73z" />
    <glyph glyph-name="udieresis" unicode="&#xfc;" horiz-adv-x="514" 
d="M207 -10q-41 0 -78 21t-54 69q-13 38 -13 90v303h88v-287q0 -46 9 -70q18 -49 76 -49q35 0 68 17.5t53 41.5v347h88v-327q0 -112 10 -146h-78l-15 53q-70 -63 -154 -63zM166 555q-20 0 -34.5 14.5t-14.5 35.5q0 20 14.5 34.5t34.5 14.5t34.5 -14.5t14.5 -34.5
q0 -21 -14.5 -35.5t-34.5 -14.5zM348 555q-21 0 -35.5 14.5t-14.5 35.5q0 20 14.5 34.5t35.5 14.5q20 0 34.5 -14.5t14.5 -34.5q0 -21 -14.5 -35.5t-34.5 -14.5z" />
    <glyph glyph-name="yacute" unicode="&#xfd;" horiz-adv-x="483" 
d="M-14 -219l21 71q32 -16 68 -16q46 0 81.5 38t62.5 125l-210 474h94l156 -368h2l123 368h90l-178 -503q-23 -65 -49.5 -108t-55.5 -63.5t-54.5 -28t-59.5 -7.5q-52 0 -91 18zM199 531l58 147h100l-89 -147h-69z" />
    <glyph glyph-name="thorn" unicode="&#xfe;" horiz-adv-x="514" 
d="M67 -237v945h88v-233q40 10 82 10q112 0 175.5 -64.5t63.5 -178.5q0 -113 -67 -182.5t-175 -69.5q-41 0 -79 15v-242h-88zM155 82q35 -17 75 -17q74 0 114.5 47.5t40.5 128.5q0 84 -43.5 127t-114.5 43q-39 0 -72 -12v-317z" />
    <glyph glyph-name="ydieresis" unicode="&#xff;" horiz-adv-x="483" 
d="M-14 -219l21 71q32 -16 68 -16q46 0 81.5 38t62.5 125l-210 474h94l156 -368h2l123 368h90l-178 -503q-23 -65 -49.5 -108t-55.5 -63.5t-54.5 -28t-59.5 -7.5q-52 0 -91 18zM157 555q-20 0 -34.5 14.5t-14.5 35.5q0 20 14.5 34.5t34.5 14.5t34.5 -14.5t14.5 -34.5
q0 -21 -14.5 -35.5t-34.5 -14.5zM339 555q-21 0 -35.5 14.5t-14.5 35.5q0 20 14.5 34.5t35.5 14.5q20 0 34.5 -14.5t14.5 -34.5q0 -21 -14.5 -35.5t-34.5 -14.5z" />
    <glyph glyph-name="Amacron" unicode="&#x100;" horiz-adv-x="599" 
d="M14 0l251 661h64l256 -661h-95l-65 173h-255l-64 -173h-92zM197 246h200l-61 172l-37 110h-2q-7 -25 -38 -111zM168 713v69h260v-69h-260z" />
    <glyph glyph-name="amacron" unicode="&#x101;" horiz-adv-x="471" 
d="M344 0l-15 51q-65 -61 -141 -61q-66 0 -109 40.5t-43 107.5q0 90 80 128q43 21 119 24l88 3v25q0 48 -26.5 72t-71.5 24q-66 0 -129 -37l-31 61q78 47 171 47q83 0 129 -41t46 -124v-172q0 -112 9 -148h-76zM323 230l-77 -3q-52 -1 -83 -17q-37 -21 -37 -67
q0 -37 22.5 -59t59.5 -22q61 0 115 54v114zM105 572v70h260v-70h-260z" />
    <glyph glyph-name="Abreve" unicode="&#x102;" horiz-adv-x="599" 
d="M14 0l251 661h64l256 -661h-95l-65 173h-255l-64 -173h-92zM197 246h200l-61 172l-37 110h-2q-7 -25 -38 -111zM367 828h63q-4 -59 -39.5 -93.5t-93.5 -34.5t-92.5 34t-38.5 94h63q9 -68 69 -68t69 68z" />
    <glyph glyph-name="abreve" unicode="&#x103;" horiz-adv-x="471" 
d="M344 0l-15 51q-65 -61 -141 -61q-66 0 -109 40.5t-43 107.5q0 90 80 128q43 21 119 24l88 3v25q0 48 -26.5 72t-71.5 24q-66 0 -129 -37l-31 61q78 47 171 47q83 0 129 -41t46 -124v-172q0 -112 9 -148h-76zM323 230l-77 -3q-52 -1 -83 -17q-37 -21 -37 -67
q0 -37 22.5 -59t59.5 -22q61 0 115 54v114zM304 671h63q-4 -59 -39.5 -93.5t-93.5 -34.5t-92.5 34t-38.5 94h63q4 -31 21.5 -49.5t47.5 -18.5t47.5 18.5t21.5 49.5z" />
    <glyph glyph-name="Aogonek" unicode="&#x104;" horiz-adv-x="599" 
d="M329 661l256 -661q-53 -20 -85 -51.5t-32 -65.5q0 -39 37 -39q17 0 38 7l11 -53q-33 -11 -67 -11q-45 0 -70 23t-25 58q0 71 96 138l-63 167h-255l-64 -173h-92l251 661h64zM197 246h200l-61 172q-35 103 -37 110h-2q-7 -25 -38 -111z" />
    <glyph glyph-name="aogonek" unicode="&#x105;" horiz-adv-x="471" 
d="M420 -3q-102 -50 -102 -114q0 -39 37 -39q18 0 38 7l11 -53q-33 -11 -67 -11q-45 0 -70 23t-25 58q0 76 100 139l-13 44q-65 -61 -141 -61q-66 0 -109 40.5t-43 107.5q0 90 80 128q43 21 119 24l88 3v25q0 48 -26.5 72t-71.5 24q-66 0 -129 -37l-31 61q78 47 171 47
q83 0 129 -41t46 -124v-173q0 -114 9 -150zM208 62q61 0 115 54v114l-77 -3q-52 -1 -83 -17q-37 -21 -37 -67q0 -37 22.5 -59t59.5 -22z" />
    <glyph glyph-name="Cacute" unicode="&#x106;" horiz-adv-x="602" 
d="M541 109l25 -71q-91 -48 -193 -48q-149 0 -234.5 92t-85.5 240q0 146 93 244.5t241 98.5q102 0 166 -35v-83q-79 42 -164 42q-111 0 -176.5 -74.5t-65.5 -188.5q0 -116 64 -188t172 -72q79 0 158 43zM297 696l58 147h100l-89 -147h-69z" />
    <glyph glyph-name="cacute" unicode="&#x107;" horiz-adv-x="432" 
d="M267 -10q-107 0 -168 68.5t-61 173.5q0 108 67 180.5t173 72.5q68 0 121 -30v-77q-52 34 -114 34q-71 0 -113.5 -49t-42.5 -126q0 -82 40.5 -128t109.5 -46q53 0 113 33l26 -62q-64 -44 -151 -44zM201 531l58 147h100l-89 -147h-69z" />
    <glyph glyph-name="Ccircumflex" unicode="&#x108;" horiz-adv-x="602" 
d="M541 109l25 -71q-91 -48 -193 -48q-149 0 -234.5 92t-85.5 240q0 146 93 244.5t241 98.5q102 0 166 -35v-83q-79 42 -164 42q-111 0 -176.5 -74.5t-65.5 -188.5q0 -116 64 -188t172 -72q79 0 158 43zM211 696l99 147h78l99 -147h-73l-65 93l-65 -93h-73z" />
    <glyph glyph-name="ccircumflex" unicode="&#x109;" horiz-adv-x="432" 
d="M267 -10q-107 0 -168 68.5t-61 173.5q0 108 67 180.5t173 72.5q68 0 121 -30v-77q-52 34 -114 34q-71 0 -113.5 -49t-42.5 -126q0 -82 40.5 -128t109.5 -46q53 0 113 33l26 -62q-64 -44 -151 -44zM111 531l99 147h78l99 -147h-73l-65 93l-65 -93h-73z" />
    <glyph glyph-name="Cdotaccent" unicode="&#x10a;" horiz-adv-x="602" 
d="M541 109l25 -71q-91 -48 -193 -48q-149 0 -234.5 92t-85.5 240q0 146 93 244.5t241 98.5q102 0 166 -35v-83q-79 42 -164 42q-111 0 -176.5 -74.5t-65.5 -188.5q0 -116 64 -188t172 -72q79 0 158 43zM349 704q-24 0 -40 16.5t-16 40.5t16 40t40 16q25 0 41 -16t16 -40
t-16 -40.5t-41 -16.5z" />
    <glyph glyph-name="cdotaccent" unicode="&#x10b;" horiz-adv-x="432" 
d="M267 -10q-107 0 -168 68.5t-61 173.5q0 108 67 180.5t173 72.5q68 0 121 -30v-77q-52 34 -114 34q-71 0 -113.5 -49t-42.5 -126q0 -82 40.5 -128t109.5 -46q53 0 113 33l26 -62q-64 -44 -151 -44zM249 570q-24 0 -40 16.5t-16 40.5t16 40t40 16q25 0 41 -16t16 -40
t-16 -40.5t-41 -16.5z" />
    <glyph glyph-name="Ccaron" unicode="&#x10c;" horiz-adv-x="602" 
d="M541 109l25 -71q-91 -48 -193 -48q-149 0 -234.5 92t-85.5 240q0 146 93 244.5t241 98.5q102 0 166 -35v-83q-79 42 -164 42q-111 0 -176.5 -74.5t-65.5 -188.5q0 -116 64 -188t172 -72q79 0 158 43zM311 696l-100 147h74l66 -93l64 93h72l-98 -147h-78z" />
    <glyph glyph-name="ccaron" unicode="&#x10d;" horiz-adv-x="432" 
d="M267 -10q-107 0 -168 68.5t-61 173.5q0 108 67 180.5t173 72.5q68 0 121 -30v-77q-52 34 -114 34q-71 0 -113.5 -49t-42.5 -126q0 -82 40.5 -128t109.5 -46q53 0 113 33l26 -62q-64 -44 -151 -44zM211 532l-100 147h74l66 -93l64 93h72l-98 -147h-78z" />
    <glyph glyph-name="Dcaron" unicode="&#x10e;" horiz-adv-x="663" 
d="M84 0v659h173q171 0 262 -89t91 -237q0 -149 -93.5 -241t-265.5 -92h-167zM173 73h78q138 0 201.5 73t63.5 189q0 114 -67.5 182.5t-198.5 68.5h-77v-513zM252 696l-100 147h74l66 -93l64 93h72l-98 -147h-78z" />
    <glyph glyph-name="dcaron" unicode="&#x10f;" horiz-adv-x="520" 
d="M292 -10q-110 0 -182 63.5t-72 177.5q0 112 71 183t178 71q44 0 75 -9v232h88v-685q-61 -33 -158 -33zM294 65q43 0 68 11v324q-35 11 -69 11q-71 0 -117.5 -47.5t-46.5 -130.5q0 -78 44 -123t121 -45zM522 509l-35 57q43 22 43 69q0 35 -22 73h79q23 -33 23 -76
q0 -84 -88 -123z" />
    <glyph glyph-name="Dcroat" unicode="&#x110;" horiz-adv-x="663" 
d="M84 0v297h-75v73h75v289h173q171 0 262 -89t91 -237q0 -149 -93.5 -241t-265.5 -92h-167zM173 73h78q138 0 201.5 73t63.5 189q0 114 -67.5 182.5t-198.5 68.5h-77v-216h159v-73h-159v-224z" />
    <glyph glyph-name="dcroat" unicode="&#x111;" horiz-adv-x="520" 
d="M286 -10q-107 0 -177.5 63.5t-70.5 178.5q0 112 71.5 182.5t179.5 70.5q35 0 73 -9v84h-133v69h133v79h88v-79h60v-69h-60v-535q-65 -35 -164 -35zM293 65q41 0 69 11v326q-35 11 -69 11q-71 0 -118 -47.5t-47 -129.5q0 -77 44.5 -124t120.5 -47z" />
    <glyph glyph-name="Emacron" unicode="&#x112;" horiz-adv-x="479" 
d="M84 0v659h333l-26 -73h-218v-212h215v-74h-215v-227h248v-73h-337zM116 713v69h260v-69h-260z" />
    <glyph glyph-name="emacron" unicode="&#x113;" horiz-adv-x="473" 
d="M267 -10q-112 0 -170.5 71t-58.5 179q0 109 55 177t145 68q92 0 144 -66t52 -180v-22h-306q2 -69 41.5 -112t108.5 -43q58 0 117 32l28 -61q-68 -43 -156 -43zM128 283h215q-2 55 -28.5 93.5t-76.5 38.5q-49 0 -79 -38t-31 -94zM111 572v70h260v-70h-260z" />
    <glyph glyph-name="Ebreve" unicode="&#x114;" horiz-adv-x="479" 
d="M84 0v659h333l-26 -73h-218v-212h215v-74h-215v-227h248v-73h-337zM314 828h63q-4 -59 -39.5 -93.5t-93.5 -34.5t-92.5 34t-38.5 94h63q4 -31 21.5 -49.5t47.5 -18.5t47.5 18.5t21.5 49.5z" />
    <glyph glyph-name="ebreve" unicode="&#x115;" horiz-adv-x="473" 
d="M267 -10q-112 0 -170.5 71t-58.5 179q0 109 55 177t145 68q92 0 144 -66t52 -180v-22h-306q2 -69 41.5 -112t108.5 -43q58 0 117 32l28 -61q-68 -43 -156 -43zM128 283h215q-2 55 -28.5 93.5t-76.5 38.5q-49 0 -79 -38t-31 -94zM311 671h63q-4 -59 -39.5 -93.5
t-93.5 -34.5t-92.5 34t-38.5 94h63q9 -68 69 -68t69 68z" />
    <glyph glyph-name="Edotaccent" unicode="&#x116;" horiz-adv-x="479" 
d="M84 0v659h333l-26 -73h-218v-212h215v-74h-215v-227h248v-73h-337zM243 704q-24 0 -40 16.5t-16 40.5t16 40t40 16q25 0 41 -16t16 -40t-16 -40.5t-41 -16.5z" />
    <glyph glyph-name="edotaccent" unicode="&#x117;" horiz-adv-x="473" 
d="M267 -10q-112 0 -170.5 71t-58.5 179q0 109 55 177t145 68q92 0 144 -66t52 -180v-22h-306q2 -69 41.5 -112t108.5 -43q58 0 117 32l28 -61q-68 -43 -156 -43zM128 283h215q-2 55 -28.5 93.5t-76.5 38.5q-49 0 -79 -38t-31 -94zM241 570q-24 0 -40 16.5t-16 40.5t16 40
t40 16q25 0 41 -16t16 -40t-16 -40.5t-41 -16.5z" />
    <glyph glyph-name="Eogonek" unicode="&#x118;" horiz-adv-x="479" 
d="M84 0v659h333l-26 -73h-218v-212h215v-74h-215v-227h248v-73h-17q-105 -52 -105 -117q0 -39 37 -39q17 0 38 7l11 -53q-33 -11 -67 -11q-45 0 -70 23t-25 58q0 72 88 132h-227z" />
    <glyph glyph-name="eogonek" unicode="&#x119;" horiz-adv-x="473" 
d="M205 -132q0 69 75 121v2q-2 0 -9 -0.5t-11 -0.5q-108 1 -165 72t-57 178q0 109 55 177t145 68q92 0 144 -66t52 -180v-22h-306q2 -69 41.5 -112t108.5 -43q58 0 117 32l28 -61q-142 -80 -142 -150q0 -39 37 -39q17 0 38 7l11 -53q-33 -11 -67 -11q-45 0 -70 23t-25 58z
M128 283h215q-2 55 -28.5 93.5t-76.5 38.5q-49 0 -79 -38t-31 -94z" />
    <glyph glyph-name="Ecaron" unicode="&#x11a;" horiz-adv-x="479" 
d="M84 0v659h333l-26 -73h-218v-212h215v-74h-215v-227h248v-73h-337zM208 696l-100 147h74l66 -93l64 93h72l-98 -147h-78z" />
    <glyph glyph-name="ecaron" unicode="&#x11b;" horiz-adv-x="473" 
d="M267 -10q-112 0 -170.5 71t-58.5 179q0 109 55 177t145 68q92 0 144 -66t52 -180v-22h-306q2 -69 41.5 -112t108.5 -43q58 0 117 32l28 -61q-68 -43 -156 -43zM128 283h215q-2 55 -28.5 93.5t-76.5 38.5q-49 0 -79 -38t-31 -94zM203 532l-100 147h74l66 -93l64 93h72
l-98 -147h-78z" />
    <glyph glyph-name="Gcircumflex" unicode="&#x11c;" horiz-adv-x="684" 
d="M608 314v-273q-100 -51 -223 -51q-151 0 -241.5 91.5t-90.5 237.5q0 153 96 249.5t252 96.5q97 0 183 -35v-83q-84 42 -178 42q-123 0 -191 -72t-68 -190q0 -120 66.5 -190.5t179.5 -70.5q77 0 127 24v224h88zM228 696l99 147h78l99 -147h-73l-65 93l-65 -93h-73z" />
    <glyph glyph-name="gcircumflex" unicode="&#x11d;" horiz-adv-x="483" 
d="M229 -237q-97 0 -154 36.5t-57 100.5q0 79 87 119q-33 19 -33 59q0 48 53 92q-76 47 -76 144q0 72 49.5 121t130.5 49q53 0 91 -18q6 -4 11 1q39 39 103 39q14 0 29 -3l-20 -66q-13 3 -29 3q-26 0 -42 -11q49 -49 49 -119q0 -77 -52 -124.5t-135 -47.5q-34 0 -60 9
q-22 -25 -22 -48q0 -25 32 -37t78 -17.5t92 -15t78 -38.5t32 -78q0 -67 -62.5 -108.5t-172.5 -41.5zM238 -171q66 0 102.5 21t36.5 54q0 28 -24.5 44.5t-55 21.5t-75 11.5t-67.5 13.5q-56 -36 -56 -80q0 -40 38 -63t101 -23zM235 208q44 0 71.5 27t27.5 76q0 45 -27.5 74
t-72.5 29q-44 0 -71.5 -27.5t-27.5 -74.5q0 -45 27 -74.5t73 -29.5zM96 531l99 147h78l99 -147h-73l-65 93l-65 -93h-73z" />
    <glyph glyph-name="Gbreve" unicode="&#x11e;" horiz-adv-x="684" 
d="M608 314v-273q-100 -51 -223 -51q-151 0 -241.5 91.5t-90.5 237.5q0 153 96 249.5t252 96.5q97 0 183 -35v-83q-84 42 -178 42q-123 0 -191 -72t-68 -190q0 -120 66.5 -190.5t179.5 -70.5q77 0 127 24v224h88zM432 828h63q-4 -59 -39.5 -93.5t-93.5 -34.5t-92.5 34
t-38.5 94h63q4 -31 21.5 -49.5t47.5 -18.5t47.5 18.5t21.5 49.5z" />
    <glyph glyph-name="gbreve" unicode="&#x11f;" horiz-adv-x="483" 
d="M229 -237q-97 0 -154 36.5t-57 100.5q0 79 87 119q-33 19 -33 59q0 48 53 92q-76 47 -76 144q0 72 49.5 121t130.5 49q53 0 91 -18q6 -4 11 1q39 39 103 39q14 0 29 -3l-20 -66q-13 3 -29 3q-26 0 -42 -11q49 -49 49 -119q0 -77 -52 -124.5t-135 -47.5q-34 0 -60 9
q-22 -25 -22 -48q0 -25 32 -37t78 -17.5t92 -15t78 -38.5t32 -78q0 -67 -62.5 -108.5t-172.5 -41.5zM238 -171q66 0 102.5 21t36.5 54q0 28 -24.5 44.5t-55 21.5t-75 11.5t-67.5 13.5q-56 -36 -56 -80q0 -40 38 -63t101 -23zM235 208q44 0 71.5 27t27.5 76q0 45 -27.5 74
t-72.5 29q-44 0 -71.5 -27.5t-27.5 -74.5q0 -45 27 -74.5t73 -29.5zM304 671h63q-4 -59 -39.5 -93.5t-93.5 -34.5t-92.5 34t-38.5 94h63q4 -31 21.5 -49.5t47.5 -18.5t47.5 18.5t21.5 49.5z" />
    <glyph glyph-name="Gdotaccent" unicode="&#x120;" horiz-adv-x="684" 
d="M608 314v-273q-100 -51 -223 -51q-151 0 -241.5 91.5t-90.5 237.5q0 153 96 249.5t252 96.5q97 0 183 -35v-83q-84 42 -178 42q-123 0 -191 -72t-68 -190q0 -120 66.5 -190.5t179.5 -70.5q77 0 127 24v224h88zM366 704q-24 0 -40 16.5t-16 40.5t16 40t40 16q25 0 41 -16
t16 -40t-16 -40.5t-41 -16.5z" />
    <glyph glyph-name="gdotaccent" unicode="&#x121;" horiz-adv-x="483" 
d="M229 -237q-97 0 -154 36.5t-57 100.5q0 79 87 119q-33 19 -33 59q0 48 53 92q-76 47 -76 144q0 72 49.5 121t130.5 49q53 0 91 -18q6 -4 11 1q39 39 103 39q14 0 29 -3l-20 -66q-13 3 -29 3q-26 0 -42 -11q49 -49 49 -119q0 -77 -52 -124.5t-135 -47.5q-34 0 -60 9
q-22 -25 -22 -48q0 -25 32 -37t78 -17.5t92 -15t78 -38.5t32 -78q0 -67 -62.5 -108.5t-172.5 -41.5zM238 -171q66 0 102.5 21t36.5 54q0 28 -24.5 44.5t-55 21.5t-75 11.5t-67.5 13.5q-56 -36 -56 -80q0 -40 38 -63t101 -23zM235 208q44 0 71.5 27t27.5 76q0 45 -27.5 74
t-72.5 29q-44 0 -71.5 -27.5t-27.5 -74.5q0 -45 27 -74.5t73 -29.5zM234 570q-24 0 -40 16.5t-16 40.5t16 40t40 16q25 0 41 -16t16 -40t-16 -40.5t-41 -16.5z" />
    <glyph glyph-name="Gcommaaccent" unicode="&#x122;" horiz-adv-x="682" 
d="M300 -237l-23 56q72 18 72 67q0 27 -22 62h77q24 -32 24 -73q0 -89 -128 -112zM606 314v-273q-100 -51 -223 -51q-151 0 -241.5 91.5t-90.5 237.5q0 153 96 249.5t252 96.5q97 0 183 -35v-83q-84 42 -178 42q-123 0 -191 -72t-68 -190q0 -120 66.5 -190.5t179.5 -70.5
q77 0 127 24v224h88z" />
    <glyph glyph-name="gcommaaccent" unicode="&#x123;" horiz-adv-x="483" 
d="M271 531h-77q-24 32 -24 73q0 89 128 112l23 -56q-72 -18 -72 -67q0 -27 22 -62zM229 -237q-97 0 -154 36.5t-57 100.5q0 79 87 119q-33 19 -33 59q0 48 53 92q-76 47 -76 144q0 72 49.5 121t130.5 49q53 0 91 -18q6 -4 11 1q39 39 103 39q14 0 29 -3l-20 -66
q-13 3 -29 3q-26 0 -42 -11q49 -49 49 -119q0 -77 -52 -124.5t-135 -47.5q-34 0 -60 9q-22 -25 -22 -48q0 -25 32 -37t78 -17.5t92 -15t78 -38.5t32 -78q0 -67 -62.5 -108.5t-172.5 -41.5zM238 -171q66 0 102.5 21t36.5 54q0 28 -24.5 44.5t-55 21.5t-75 11.5t-67.5 13.5
q-56 -36 -56 -80q0 -40 38 -63t101 -23zM235 208q44 0 71.5 27t27.5 76q0 45 -27.5 74t-72.5 29q-44 0 -71.5 -27.5t-27.5 -74.5q0 -45 27 -74.5t73 -29.5z" />
    <glyph glyph-name="Hcircumflex" unicode="&#x124;" horiz-adv-x="694" 
d="M84 0v659h89v-284h349v284h88v-659h-88v299h-349v-299h-89zM211 696l99 147h78l99 -147h-73l-65 93l-65 -93h-73z" />
    <glyph glyph-name="hcircumflex" unicode="&#x125;" horiz-adv-x="521" 
d="M67 0v708h88v-292q81 69 161 69q62 0 103 -40.5t41 -127.5v-317h-88v288q0 119 -82 119q-62 0 -135 -64v-343h-88zM-26 726l99 147h78l99 -147h-73l-65 93l-65 -93h-73z" />
    <glyph glyph-name="Hbar" unicode="&#x126;" horiz-adv-x="694" 
d="M84 0v478h-64v70h64v111h89v-111h349v111h88v-111h64v-70h-64v-478h-88v299h-349v-299h-89zM173 375h349v103h-349v-103z" />
    <glyph glyph-name="hbar" unicode="&#x127;" horiz-adv-x="516" 
d="M62 0v555h-61v69h61v84h88v-84h134v-69h-134v-139q81 69 161 69q62 0 103 -40.5t41 -127.5v-317h-88v288q0 119 -81 119q-61 0 -136 -64v-343h-88z" />
    <glyph glyph-name="Itilde" unicode="&#x128;" horiz-adv-x="257" 
d="M84 0v659h89v-659h-89zM-17 724v28q0 36 21.5 57t53.5 21q30 0 72 -23t56 -23q25 0 25 40h61v-27q0 -37 -21 -58t-53 -21q-30 0 -72.5 23.5t-56.5 23.5q-25 0 -25 -41h-61z" />
    <glyph glyph-name="itilde" unicode="&#x129;" horiz-adv-x="229" 
d="M70 0v473h88v-473h-88zM-29 552v27q0 37 21.5 58t53.5 21q30 0 72 -23.5t56 -23.5q25 0 25 41h61v-28q0 -36 -21 -57t-53 -21q-30 0 -72.5 23t-56.5 23q-25 0 -25 -40h-61z" />
    <glyph glyph-name="Imacron" unicode="&#x12a;" horiz-adv-x="257" 
d="M84 0v659h89v-659h-89zM-2 713v69h260v-69h-260z" />
    <glyph glyph-name="imacron" unicode="&#x12b;" horiz-adv-x="229" 
d="M70 0v473h88v-473h-88zM-14 572v70h260v-70h-260z" />
    <glyph glyph-name="Ibreve" unicode="&#x12c;" horiz-adv-x="257" 
d="M84 0v659h89v-659h-89zM197 828h63q-4 -59 -39.5 -93.5t-93.5 -34.5t-92.5 34t-38.5 94h63q9 -68 69 -68t69 68z" />
    <glyph glyph-name="ibreve" unicode="&#x12d;" horiz-adv-x="229" 
d="M70 0v473h88v-473h-88zM185 671h63q-4 -59 -39.5 -93.5t-93.5 -34.5t-92.5 34t-38.5 94h63q9 -68 69 -68t69 68z" />
    <glyph glyph-name="Iogonek" unicode="&#x12e;" horiz-adv-x="257" 
d="M84 5v654h89v-659q-37 -22 -58.5 -52.5t-21.5 -60.5q0 -43 38 -43q17 0 37 7l11 -53q-36 -11 -66 -11q-46 0 -71 23.5t-25 64.5q0 70 67 130z" />
    <glyph glyph-name="iogonek" unicode="&#x12f;" horiz-adv-x="229" 
d="M4 -125q0 69 66 130v468h88v-473q-37 -22 -58 -52.5t-21 -60.5q0 -43 39 -43q16 0 36 7l12 -53q-38 -11 -66 -11q-46 0 -71 23.5t-25 64.5zM114 570q-24 0 -40 16.5t-16 40.5t16 40t40 16q25 0 41.5 -16t16.5 -40t-16.5 -40.5t-41.5 -16.5z" />
    <glyph glyph-name="Idotaccent" unicode="&#x130;" horiz-adv-x="257" 
d="M84 0v659h89v-659h-89zM129 704q-24 0 -40 16.5t-16 40.5t16 40t40 16q25 0 41 -16t16 -40t-16 -40.5t-41 -16.5z" />
    <glyph glyph-name="dotlessi" unicode="&#x131;" horiz-adv-x="229" 
d="M70 0v473h88v-473h-88z" />
    <glyph glyph-name="IJ" unicode="&#x132;" horiz-adv-x="556" 
d="M84 0v659h89v-659h-89zM227 -172l17 74q22 -9 53 -9q50 0 68 27t18 79v660h89v-676q0 -77 -41.5 -121.5t-128.5 -44.5q-36 0 -75 11z" />
    <glyph glyph-name="ij" unicode="&#x133;" horiz-adv-x="470" 
d="M70 0v473h88v-473h-88zM114 570q-24 0 -40 16.5t-16 40.5t16 40t40 16q25 0 41.5 -16t16.5 -40t-16.5 -40.5t-41.5 -16.5zM166 -222l18 73q28 -11 49 -11q36 0 52.5 22.5t16.5 72.5v538h88v-553q0 -77 -40 -117t-106 -40q-47 0 -78 15zM345 570q-24 0 -40 16.5t-16 40.5
t16 40t40 16q25 0 41.5 -16t16.5 -40t-16.5 -40.5t-41.5 -16.5z" />
    <glyph glyph-name="Jcircumflex" unicode="&#x134;" horiz-adv-x="301" 
d="M-28 -172l17 74q22 -9 53 -9q50 0 68 27t18 79v660h89v-676q0 -77 -41.5 -121.5t-128.5 -44.5q-37 0 -75 11zM32 696l99 147h78l99 -147h-73l-65 93l-65 -93h-73z" />
    <glyph glyph-name="jcircumflex" unicode="&#x135;" horiz-adv-x="241" 
d="M-53 -220l18 67q29 -11 50 -11q37 0 52.5 24.5t15.5 74.5v538h88v-550q0 -81 -41 -120.5t-100 -39.5q-45 0 -83 17zM-17 531l98 147h78l99 -147h-73l-65 93l-65 -93h-72z" />
    <glyph glyph-name="Kcommaaccent" unicode="&#x136;" horiz-adv-x="557" 
d="M84 0v659h89v-295h2l242 295h104l-270 -324l288 -335h-110l-254 297h-2v-297h-89zM208 -237l-23 56q72 18 72 67q0 27 -22 62h77q24 -32 24 -73q0 -89 -128 -112z" />
    <glyph glyph-name="kcommaaccent" unicode="&#x137;" horiz-adv-x="457" 
d="M67 0v708h88v-406h2l171 171h104l-203 -202l223 -271h-105l-190 235h-2v-235h-88zM164 -237l-23 56q72 18 72 67q0 27 -22 62h77q24 -32 24 -73q0 -89 -128 -112z" />
    <glyph glyph-name="Lacute" unicode="&#x139;" horiz-adv-x="436" 
d="M84 0v659h89v-586h241v-73h-330zM88 696l58 147h100l-89 -147h-69z" />
    <glyph glyph-name="lacute" unicode="&#x13a;" horiz-adv-x="255" 
d="M69 732l50 127h96l-77 -127h-69zM67 93v615h88v-590q0 -26 8 -36.5t27 -10.5q14 0 30 6l18 -69q-34 -14 -73 -14q-98 0 -98 99z" />
    <glyph glyph-name="Lcommaaccent" unicode="&#x13b;" horiz-adv-x="436" 
d="M84 0v659h89v-586h241v-73h-330zM173 -237l-23 56q72 18 72 67q0 27 -22 62h77q24 -32 24 -73q0 -89 -128 -112z" />
    <glyph glyph-name="lcommaaccent" unicode="&#x13c;" horiz-adv-x="255" 
d="M64 93v615h88v-590q0 -26 8 -36.5t27 -10.5q14 0 30 6l18 -69q-34 -14 -73 -14q-98 0 -98 99zM78 -237l-23 56q72 18 72 67q0 27 -22 62h77q24 -32 24 -73q0 -89 -128 -112z" />
    <glyph glyph-name="Lcaron" unicode="&#x13d;" horiz-adv-x="436" 
d="M84 0v659h89v-586h241v-73h-330zM291 509l-35 57q43 22 43 69q0 35 -22 73h79q23 -33 23 -76q0 -84 -88 -123z" />
    <glyph glyph-name="lcaron" unicode="&#x13e;" horiz-adv-x="255" 
d="M67 93v615h88v-590q0 -26 8 -36.5t27 -10.5q14 0 30 6l18 -69q-34 -14 -73 -14q-98 0 -98 99zM229 509l-35 57q43 22 43 69q0 35 -22 73h79q23 -33 23 -76q0 -84 -88 -123z" />
    <glyph glyph-name="Ldot" unicode="&#x13f;" horiz-adv-x="436" 
d="M84 0v659h89v-586h241v-73h-330zM330 291q-22 0 -38 16.5t-16 39.5t16 39t38 16t38 -16t16 -39t-16 -39.5t-38 -16.5z" />
    <glyph glyph-name="ldot" unicode="&#x140;" horiz-adv-x="290" 
d="M67 93v615h88v-590q0 -26 8 -36.5t27 -10.5q14 0 30 6l18 -69q-34 -14 -73 -14q-98 0 -98 99zM252 197q-22 0 -38 16.5t-16 39.5t16 39t38 16t38 -16t16 -39t-16 -39.5t-38 -16.5z" />
    <glyph glyph-name="Lslash" unicode="&#x141;" horiz-adv-x="436" 
d="M25 201v84l59 35v339h89v-287l153 91v-83l-153 -91v-216h241v-73h-330v237z" />
    <glyph glyph-name="lslash" unicode="&#x142;" horiz-adv-x="285" 
d="M30 242v83l60 36v347h88v-294l70 40v-84l-70 -41v-209q0 -27 8.5 -37.5t27.5 -10.5q16 0 30 7l18 -71q-34 -14 -73 -14q-99 0 -99 99v184z" />
    <glyph glyph-name="Nacute" unicode="&#x143;" horiz-adv-x="729" 
d="M84 0v659h86l298 -388q48 -62 89 -123h2q-2 36 -2 115v396h88v-659h-77l-309 403l-87 119h-2q3 -47 3 -110v-412h-89zM319 696l58 147h100l-89 -147h-69z" />
    <glyph glyph-name="nacute" unicode="&#x144;" horiz-adv-x="516" 
d="M62 0v473h74l11 -58q85 70 164 70q62 0 103 -40.5t41 -127.5v-317h-88v288q0 119 -81 119q-61 0 -136 -64v-343h-88zM200 531l58 147h100l-89 -147h-69z" />
    <glyph glyph-name="Ncommaaccent" unicode="&#x145;" horiz-adv-x="729" 
d="M84 0v659h86l298 -388q48 -62 89 -123h2q-2 36 -2 115v396h88v-659h-77l-309 403l-87 119h-2q3 -47 3 -110v-412h-89zM300 -237l-23 56q72 18 72 67q0 27 -22 62h77q24 -32 24 -73q0 -89 -128 -112z" />
    <glyph glyph-name="ncommaaccent" unicode="&#x146;" horiz-adv-x="516" 
d="M62 0v473h74l11 -58q85 70 164 70q62 0 103 -40.5t41 -127.5v-317h-88v288q0 119 -81 119q-61 0 -136 -64v-343h-88zM185 -237l-23 56q72 18 72 67q0 27 -22 62h77q24 -32 24 -73q0 -89 -128 -112z" />
    <glyph glyph-name="Ncaron" unicode="&#x147;" horiz-adv-x="729" 
d="M84 0v659h86l298 -388q48 -62 89 -123h2q-2 36 -2 115v396h88v-659h-77l-309 403l-87 119h-2q3 -47 3 -110v-412h-89zM327 696l-100 147h74l66 -93l64 93h72l-98 -147h-78z" />
    <glyph glyph-name="ncaron" unicode="&#x148;" horiz-adv-x="518" 
d="M62 0v473h74l11 -58q85 70 164 70q62 0 103 -40.5t41 -127.5v-317h-88v288q0 119 -81 119q-61 0 -136 -64v-343h-88zM207 532l-100 147h74l66 -93l64 93h72l-98 -147h-78z" />
    <glyph glyph-name="Eng" unicode="&#x14a;" horiz-adv-x="729" 
d="M84 0v659h86l298 -388q48 -62 89 -123h2q-2 36 -2 115v396h88v-692q0 -81 -41 -123t-112 -42q-46 0 -81 15l19 73q24 -12 53 -12q41 0 57.5 25t16.5 77v35l-298 388l-87 119h-2q3 -47 3 -110v-412h-89z" />
    <glyph glyph-name="eng" unicode="&#x14b;" horiz-adv-x="516" 
d="M232 -180l17 73q27 -11 49 -11q37 0 53 22.5t16 72.5v311q0 119 -81 119q-61 0 -136 -64v-343h-88v473h74l11 -58q85 70 164 70q62 0 103 -40.5t41 -127.5v-355q0 -77 -39.5 -117t-105.5 -40q-47 0 -78 15z" />
    <glyph glyph-name="Omacron" unicode="&#x14c;" horiz-adv-x="756" 
d="M378 -10q-142 0 -233.5 93t-91.5 244q0 149 91.5 243.5t233.5 94.5t233 -95t91 -243q0 -151 -92 -244t-232 -93zM378 66q104 0 167 71t63 190q0 116 -61.5 189t-168.5 73q-104 0 -167.5 -72t-63.5 -190q0 -119 63 -190t168 -71zM251 713v69h260v-69h-260z" />
    <glyph glyph-name="omacron" unicode="&#x14d;" 
d="M262 -10q-100 0 -162 70.5t-62 176.5q0 107 62.5 177.5t162.5 70.5q99 0 161.5 -71t62.5 -177t-62.5 -176.5t-162.5 -70.5zM262 63q62 0 98 48.5t36 125.5q0 78 -36 126.5t-97 48.5q-62 0 -98 -48.5t-36 -126.5q0 -77 36 -125.5t97 -48.5zM133 572v70h260v-70h-260z" />
    <glyph glyph-name="Obreve" unicode="&#x14e;" horiz-adv-x="756" 
d="M378 -10q-142 0 -233.5 93t-91.5 244q0 149 91.5 243.5t233.5 94.5t233 -95t91 -243q0 -151 -92 -244t-232 -93zM378 66q104 0 167 71t63 190q0 116 -61.5 189t-168.5 73q-104 0 -167.5 -72t-63.5 -190q0 -119 63 -190t168 -71zM449 828h63q-4 -59 -39.5 -93.5
t-93.5 -34.5t-92.5 34t-38.5 94h63q9 -68 69 -68t69 68z" />
    <glyph glyph-name="obreve" unicode="&#x14f;" 
d="M262 -10q-100 0 -162 70.5t-62 176.5q0 107 62.5 177.5t162.5 70.5q99 0 161.5 -71t62.5 -177t-62.5 -176.5t-162.5 -70.5zM262 63q62 0 98 48.5t36 125.5q0 78 -36 126.5t-97 48.5q-62 0 -98 -48.5t-36 -126.5q0 -77 36 -125.5t97 -48.5zM332 671h63q-4 -59 -39.5 -93.5
t-93.5 -34.5t-92.5 34t-38.5 94h63q4 -31 21.5 -49.5t47.5 -18.5t47.5 18.5t21.5 49.5z" />
    <glyph glyph-name="Ohungarumlaut" unicode="&#x150;" horiz-adv-x="756" 
d="M378 -10q-142 0 -233.5 93t-91.5 244q0 149 91.5 243.5t233.5 94.5t233 -95t91 -243q0 -151 -92 -244t-232 -93zM378 66q104 0 167 71t63 190q0 116 -61.5 189t-168.5 73q-104 0 -167.5 -72t-63.5 -190q0 -119 63 -190t168 -71zM270 696l58 147h101l-90 -147h-69z
M435 696l58 147h100l-89 -147h-69z" />
    <glyph glyph-name="ohungarumlaut" unicode="&#x151;" 
d="M262 -10q-100 0 -162 70.5t-62 176.5q0 107 62.5 177.5t162.5 70.5q99 0 161.5 -71t62.5 -177t-62.5 -176.5t-162.5 -70.5zM262 63q62 0 98 48.5t36 125.5q0 78 -36 126.5t-97 48.5q-62 0 -98 -48.5t-36 -126.5q0 -77 36 -125.5t97 -48.5zM152 531l58 147h101l-90 -147
h-69zM317 531l58 147h100l-89 -147h-69z" />
    <glyph glyph-name="OE" unicode="&#x152;" horiz-adv-x="883" 
d="M384 -10q-112 0 -191 53q-65 41 -101.5 113.5t-36.5 168.5q0 93 37.5 167.5t104.5 118.5q79 54 195 54q23 0 90 -3t112 -3h227l-26 -73h-219v-212h216v-74h-216v-227h249v-73h-225q-52 0 -124 -5t-92 -5zM390 66q56 0 98 8v506q-43 9 -99 9q-84 0 -141 -43
q-99 -68 -99 -220q0 -157 107 -224q56 -36 134 -36z" />
    <glyph glyph-name="oe" unicode="&#x153;" horiz-adv-x="828" 
d="M261 -10q-99 0 -161 70.5t-62 176.5t61.5 177t159.5 71q60 0 105.5 -27t69.5 -74h2q23 47 64.5 74t94.5 27q90 0 142.5 -66.5t52.5 -179.5v-22h-306q2 -68 42 -111.5t108 -43.5q58 0 117 32l28 -61q-68 -43 -156 -43q-127 0 -185 104h-2q-55 -104 -175 -104zM262 63
q62 0 97 48t35 126t-35 127t-96 49q-62 0 -98 -49t-36 -127q0 -77 36 -125.5t97 -48.5zM484 283h215q-2 55 -28.5 93.5t-76.5 38.5q-49 0 -79 -38t-31 -94z" />
    <glyph glyph-name="Racute" unicode="&#x154;" horiz-adv-x="556" 
d="M84 0v659h149q92 0 146 -32q84 -47 84 -150q0 -133 -132 -173v-2q25 -14 80 -106l117 -196h-104l-108 183q-46 83 -75 90h-68v-273h-89zM173 346h59q49 0 85 21q54 29 54 101q0 60 -42 91q-36 27 -96 27h-60v-240zM199 696l58 147h100l-89 -147h-69z" />
    <glyph glyph-name="racute" unicode="&#x155;" horiz-adv-x="334" 
d="M62 0v473h74l10 -58q66 70 133 70q34 0 56 -14l-31 -78q-22 12 -46 12q-46 0 -108 -61v-344h-88zM129 531l58 147h100l-89 -147h-69z" />
    <glyph glyph-name="Rcommaaccent" unicode="&#x156;" horiz-adv-x="556" 
d="M84 0v659h149q92 0 146 -32q84 -47 84 -150q0 -133 -132 -173v-2q25 -14 80 -106l117 -196h-104l-108 183q-46 83 -75 90h-68v-273h-89zM173 346h59q49 0 85 21q54 29 54 101q0 60 -42 91q-36 27 -96 27h-60v-240zM214 -237l-23 56q72 18 72 67q0 27 -22 62h77
q24 -32 24 -73q0 -89 -128 -112z" />
    <glyph glyph-name="rcommaaccent" unicode="&#x157;" horiz-adv-x="334" 
d="M62 0v473h74l10 -58q66 70 133 70q34 0 56 -14l-31 -78q-22 12 -46 12q-46 0 -108 -61v-344h-88zM48 -237l-23 56q72 18 72 67q0 27 -22 62h77q24 -32 24 -73q0 -89 -128 -112z" />
    <glyph glyph-name="Rcaron" unicode="&#x158;" horiz-adv-x="556" 
d="M84 0v659h149q92 0 146 -32q84 -47 84 -150q0 -133 -132 -173v-2q25 -14 80 -106l117 -196h-104l-108 183q-46 83 -75 90h-68v-273h-89zM173 346h59q49 0 85 21q54 29 54 101q0 60 -42 91q-36 27 -96 27h-60v-240zM208 696l-100 147h74l66 -93l64 93h72l-98 -147h-78z
" />
    <glyph glyph-name="rcaron" unicode="&#x159;" horiz-adv-x="334" 
d="M57 0v473h74l10 -58q66 70 133 70q34 0 56 -14l-31 -78q-23 12 -46 12q-46 0 -108 -61v-344h-88zM137 532l-100 147h74l66 -93l64 93h72l-98 -147h-78z" />
    <glyph glyph-name="Sacute" unicode="&#x15a;" horiz-adv-x="503" 
d="M51 42l37 69q67 -45 144 -45q55 0 90.5 23.5t35.5 73.5q0 41 -29.5 71.5t-72 52.5l-85 46t-72 64t-29.5 95q0 74 54 123.5t146 49.5q85 0 149 -32v-81q-69 37 -146 37q-46 0 -78 -21.5t-32 -66.5q0 -38 30 -67.5t72.5 -51t84.5 -46.5t72 -67t30 -99q0 -83 -61 -131.5
t-158 -48.5q-105 0 -182 52zM207 696l58 147h100l-89 -147h-69z" />
    <glyph glyph-name="sacute" unicode="&#x15b;" horiz-adv-x="392" 
d="M24 32l28 66q60 -36 122 -36q43 0 69.5 16.5t26.5 51.5q0 26 -23 44t-55.5 30.5t-65 28t-55.5 45.5t-23 73q0 58 44 96t122 38q64 0 124 -23v-76q-61 27 -120 27q-83 0 -83 -58q0 -26 23 -44t55.5 -30.5t65 -28t55.5 -46t23 -75.5q0 -69 -51 -105t-129 -36q-87 0 -153 42
zM159 531l58 147h100l-89 -147h-69z" />
    <glyph glyph-name="Scircumflex" unicode="&#x15c;" horiz-adv-x="503" 
d="M51 42l37 69q67 -45 144 -45q55 0 90.5 23.5t35.5 73.5q0 41 -29.5 71.5t-72 52.5l-85 46t-72 64t-29.5 95q0 74 54 123.5t146 49.5q85 0 149 -32v-81q-69 37 -146 37q-46 0 -78 -21.5t-32 -66.5q0 -38 30 -67.5t72.5 -51t84.5 -46.5t72 -67t30 -99q0 -83 -61 -131.5
t-158 -48.5q-105 0 -182 52zM116 696l99 147h78l99 -147h-73l-65 93l-65 -93h-73z" />
    <glyph glyph-name="scircumflex" unicode="&#x15d;" horiz-adv-x="392" 
d="M24 32l28 66q60 -36 122 -36q43 0 69.5 16.5t26.5 51.5q0 26 -23 44t-55.5 30.5t-65 28t-55.5 45.5t-23 73q0 58 44 96t122 38q64 0 124 -23v-76q-61 27 -120 27q-83 0 -83 -58q0 -26 23 -44t55.5 -30.5t65 -28t55.5 -46t23 -75.5q0 -69 -51 -105t-129 -36q-87 0 -153 42
zM59 531l99 147h78l99 -147h-73l-65 93l-65 -93h-73z" />
    <glyph glyph-name="Scedilla" unicode="&#x15e;" horiz-adv-x="495" 
d="M142 -201l15 48q21 -10 49 -10q23 0 37.5 9.5t14.5 27.5q0 22 -21 29t-63 7l25 82q-86 7 -148 50l37 69q67 -45 144 -45q55 0 90.5 23.5t35.5 73.5q0 41 -29.5 71.5t-72 52.5l-85 46t-72 64t-29.5 95q0 74 54 123.5t146 49.5q85 0 149 -32v-81q-69 37 -146 37
q-46 0 -78 -21.5t-32 -66.5q0 -38 30 -67.5t72.5 -51t84.5 -46.5t72 -67t30 -99q0 -76 -50.5 -123t-134.5 -55l-14 -44q82 -7 82 -73q0 -40 -32.5 -63.5t-90.5 -23.5q-35 0 -70 11z" />
    <glyph glyph-name="Scedilla" unicode="&#xf6c1;" horiz-adv-x="495" 
d="M142 -201l15 48q21 -10 49 -10q23 0 37.5 9.5t14.5 27.5q0 22 -21 29t-63 7l25 82q-86 7 -148 50l37 69q67 -45 144 -45q55 0 90.5 23.5t35.5 73.5q0 41 -29.5 71.5t-72 52.5l-85 46t-72 64t-29.5 95q0 74 54 123.5t146 49.5q85 0 149 -32v-81q-69 37 -146 37
q-46 0 -78 -21.5t-32 -66.5q0 -38 30 -67.5t72.5 -51t84.5 -46.5t72 -67t30 -99q0 -76 -50.5 -123t-134.5 -55l-14 -44q82 -7 82 -73q0 -40 -32.5 -63.5t-90.5 -23.5q-35 0 -70 11z" />
    <glyph glyph-name="scedilla" unicode="&#x15f;" horiz-adv-x="392" 
d="M87 -201l14 48q23 -10 49 -10q23 0 37.5 9.5t14.5 27.5q0 17 -14.5 25.5t-28.5 9.5t-41 1l25 82q-66 6 -119 40l28 66q60 -36 122 -36q43 0 69.5 16.5t26.5 51.5q0 26 -23 44t-55.5 30.5t-65 28t-55.5 45.5t-23 73q0 58 44 96t122 38q64 0 124 -23v-76q-61 27 -120 27
q-83 0 -83 -58q0 -26 23 -44t55.5 -30.5t65 -28t55.5 -46t23 -75.5q0 -61 -40 -96.5t-106 -42.5l-14 -44q83 -7 83 -73q0 -40 -33 -63.5t-91 -23.5q-36 0 -69 11z" />
    <glyph glyph-name="scedilla" unicode="&#xf6c2;" horiz-adv-x="392" 
d="M87 -201l14 48q23 -10 49 -10q23 0 37.5 9.5t14.5 27.5q0 17 -14.5 25.5t-28.5 9.5t-41 1l25 82q-66 6 -119 40l28 66q60 -36 122 -36q43 0 69.5 16.5t26.5 51.5q0 26 -23 44t-55.5 30.5t-65 28t-55.5 45.5t-23 73q0 58 44 96t122 38q64 0 124 -23v-76q-61 27 -120 27
q-83 0 -83 -58q0 -26 23 -44t55.5 -30.5t65 -28t55.5 -46t23 -75.5q0 -61 -40 -96.5t-106 -42.5l-14 -44q83 -7 83 -73q0 -40 -33 -63.5t-91 -23.5q-36 0 -69 11z" />
    <glyph glyph-name="Scaron" unicode="&#x160;" horiz-adv-x="503" 
d="M51 42l37 69q67 -45 144 -45q55 0 90.5 23.5t35.5 73.5q0 41 -29.5 71.5t-72 52.5l-85 46t-72 64t-29.5 95q0 74 54 123.5t146 49.5q85 0 149 -32v-81q-69 37 -146 37q-46 0 -78 -21.5t-32 -66.5q0 -38 30 -67.5t72.5 -51t84.5 -46.5t72 -67t30 -99q0 -83 -61 -131.5
t-158 -48.5q-105 0 -182 52zM213 696l-100 147h74l66 -93l64 93h72l-98 -147h-78z" />
    <glyph glyph-name="scaron" unicode="&#x161;" horiz-adv-x="392" 
d="M24 32l28 66q60 -36 122 -36q43 0 69.5 16.5t26.5 51.5q0 26 -23 44t-55.5 30.5t-65 28t-55.5 45.5t-23 73q0 58 44 96t122 38q64 0 124 -23v-76q-61 27 -120 27q-83 0 -83 -58q0 -26 23 -44t55.5 -30.5t65 -28t55.5 -46t23 -75.5q0 -69 -51 -105t-129 -36q-87 0 -153 42
zM159 532l-100 147h74l66 -93l64 93h72l-98 -147h-78z" />
    <glyph glyph-name="Tcommaaccent" unicode="&#x162;" horiz-adv-x="509" 
d="M185 -237l-23 56q72 18 72 67q0 27 -22 62h77q24 -32 24 -73q0 -89 -128 -112zM208 0v586h-190v73h487l-25 -73h-183v-586h-89z" />
    <glyph glyph-name="Tcommaaccent" unicode="&#x21a;" horiz-adv-x="509" 
d="M185 -237l-23 56q72 18 72 67q0 27 -22 62h77q24 -32 24 -73q0 -89 -128 -112zM208 0v586h-190v73h487l-25 -73h-183v-586h-89z" />
    <glyph glyph-name="tcommaaccent" unicode="&#x163;" horiz-adv-x="360" 
d="M217 -10q-55 0 -85.5 30.5t-30.5 85.5v296h-81v71h81v108l88 28v-136h142l-24 -71h-118v-279q0 -60 48 -60q36 0 76 25l29 -61q-52 -37 -125 -37zM120 -237l-23 56q72 18 72 67q0 27 -22 62h77q24 -32 24 -73q0 -89 -128 -112z" />
    <glyph glyph-name="tcommaaccent" unicode="&#x21b;" horiz-adv-x="360" 
d="M217 -10q-55 0 -85.5 30.5t-30.5 85.5v296h-81v71h81v108l88 28v-136h142l-24 -71h-118v-279q0 -60 48 -60q36 0 76 25l29 -61q-52 -37 -125 -37zM120 -237l-23 56q72 18 72 67q0 27 -22 62h77q24 -32 24 -73q0 -89 -128 -112z" />
    <glyph glyph-name="Tcaron" unicode="&#x164;" horiz-adv-x="509" 
d="M208 0v586h-190v73h487l-25 -73h-183v-586h-89zM216 696l-100 147h74l66 -93l64 93h72l-98 -147h-78z" />
    <glyph glyph-name="tcaron" unicode="&#x165;" horiz-adv-x="360" 
d="M217 -10q-55 0 -85.5 30.5t-30.5 85.5v296h-81v71h81v108l88 28v-136h142l-24 -71h-118v-279q0 -60 48 -60q36 0 76 25l29 -61q-52 -37 -125 -37zM272 509l-35 57q43 22 43 69q0 35 -22 73h79q23 -33 23 -76q0 -84 -88 -123z" />
    <glyph glyph-name="Tbar" unicode="&#x166;" horiz-adv-x="509" 
d="M208 0v283h-117v74h117v229h-190v73h487l-25 -73h-183v-229h117v-74h-117v-283h-89z" />
    <glyph glyph-name="tbar" unicode="&#x167;" horiz-adv-x="360" 
d="M20 225v70h81v107h-81v71h81v108l88 28v-136h142l-24 -71h-118v-107h93v-70h-93v-102q0 -60 48 -60q36 0 78 29l27 -62q-58 -40 -126 -40q-55 0 -85 30.5t-30 85.5v119h-81z" />
    <glyph glyph-name="Utilde" unicode="&#x168;" horiz-adv-x="666" 
d="M333 -10q-183 0 -236 136q-18 48 -18 113v420h89v-413q0 -56 15 -90q36 -90 150 -90q115 0 151 90q14 35 14 93v410h89v-420q0 -69 -20 -115q-53 -134 -234 -134zM191 724v28q0 36 21.5 57t53.5 21q30 0 72 -23t56 -23q25 0 25 40h61v-27q0 -37 -21 -58t-53 -21
q-30 0 -72.5 23.5t-56.5 23.5q-25 0 -25 -41h-61z" />
    <glyph glyph-name="utilde" unicode="&#x169;" horiz-adv-x="514" 
d="M207 -10q-41 0 -78 21t-54 69q-13 38 -13 90v303h88v-287q0 -46 9 -70q18 -49 76 -49q35 0 68 17.5t53 41.5v347h88v-327q0 -112 10 -146h-78l-15 53q-70 -63 -154 -63zM112 552v27q0 37 21 58t54 21q30 0 72 -23.5t56 -23.5q25 0 25 41h61v-28q0 -36 -21 -57t-53 -21
q-30 0 -72.5 23t-56.5 23q-25 0 -25 -40h-61z" />
    <glyph glyph-name="Umacron" unicode="&#x16a;" horiz-adv-x="666" 
d="M333 -10q-183 0 -236 136q-18 48 -18 113v420h89v-413q0 -56 15 -90q36 -90 150 -90q115 0 151 90q14 35 14 93v410h89v-420q0 -69 -20 -115q-53 -134 -234 -134zM207 713v69h260v-69h-260z" />
    <glyph glyph-name="umacron" unicode="&#x16b;" horiz-adv-x="514" 
d="M207 -10q-41 0 -78 21t-54 69q-13 38 -13 90v303h88v-287q0 -46 9 -70q18 -49 76 -49q35 0 68 17.5t53 41.5v347h88v-327q0 -112 10 -146h-78l-15 53q-70 -63 -154 -63zM127 572v70h260v-70h-260z" />
    <glyph glyph-name="Ubreve" unicode="&#x16c;" horiz-adv-x="666" 
d="M333 -10q-183 0 -236 136q-18 48 -18 113v420h89v-413q0 -56 15 -90q36 -90 150 -90q115 0 151 90q14 35 14 93v410h89v-420q0 -69 -20 -115q-53 -134 -234 -134zM405 828h63q-4 -59 -39.5 -93.5t-93.5 -34.5t-92.5 34t-38.5 94h63q9 -68 69 -68t69 68z" />
    <glyph glyph-name="ubreve" unicode="&#x16d;" horiz-adv-x="514" 
d="M207 -10q-41 0 -78 21t-54 69q-13 38 -13 90v303h88v-287q0 -46 9 -70q18 -49 76 -49q35 0 68 17.5t53 41.5v347h88v-327q0 -112 10 -146h-78l-15 53q-70 -63 -154 -63zM324 671h63q-4 -59 -39.5 -93.5t-93.5 -34.5t-92.5 34t-38.5 94h63q4 -31 21.5 -49.5t47.5 -18.5
t47.5 18.5t21.5 49.5z" />
    <glyph glyph-name="Uring" unicode="&#x16e;" horiz-adv-x="666" 
d="M333 -10q-183 0 -236 136q-18 48 -18 113v420h89v-413q0 -56 15 -90q36 -90 150 -90q115 0 151 90q14 35 14 93v410h89v-420q0 -69 -20 -115q-53 -134 -234 -134zM337 653q-48 0 -77.5 26t-29.5 70q0 43 29.5 69.5t77.5 26.5t77.5 -26.5t29.5 -69.5q0 -44 -29.5 -70
t-77.5 -26zM337 697q21 0 33.5 14t12.5 38t-12.5 37.5t-33.5 13.5t-34 -13.5t-13 -37.5t13 -38t34 -14z" />
    <glyph glyph-name="uring" unicode="&#x16f;" horiz-adv-x="514" 
d="M207 -10q-41 0 -78 21t-54 69q-13 38 -13 90v303h88v-287q0 -46 9 -70q18 -49 76 -49q35 0 68 17.5t53 41.5v347h88v-327q0 -112 10 -146h-78l-15 53q-70 -63 -154 -63zM257 523q-48 0 -77.5 26.5t-29.5 69.5t29.5 69.5t77.5 26.5t77.5 -26.5t29.5 -69.5t-29.5 -69.5
t-77.5 -26.5zM257 567q21 0 33.5 14t12.5 38t-12.5 38t-33.5 14t-34 -14t-13 -38t13 -38t34 -14z" />
    <glyph glyph-name="Uhungarumlaut" unicode="&#x170;" horiz-adv-x="666" 
d="M333 -10q-183 0 -236 136q-18 48 -18 113v420h89v-413q0 -56 15 -90q36 -90 150 -90q115 0 151 90q14 35 14 93v410h89v-420q0 -69 -20 -115q-53 -134 -234 -134zM209 696l58 147h101l-90 -147h-69zM374 696l58 147h100l-89 -147h-69z" />
    <glyph glyph-name="uhungarumlaut" unicode="&#x171;" horiz-adv-x="514" 
d="M207 -10q-41 0 -78 21t-54 69q-13 38 -13 90v303h88v-287q0 -46 9 -70q18 -49 76 -49q35 0 68 17.5t53 41.5v347h88v-327q0 -112 10 -146h-78l-15 53q-70 -63 -154 -63zM136 531l58 147h101l-90 -147h-69zM301 531l58 147h100l-89 -147h-69z" />
    <glyph glyph-name="Uogonek" unicode="&#x172;" horiz-adv-x="666" 
d="M414 -149l11 -53q-33 -11 -67 -11q-45 0 -70 23t-25 58q0 64 72 120v2q-184 -1 -238 136q-18 48 -18 113v420h89v-413q0 -56 15 -90q36 -90 150 -90q115 0 151 90q14 35 14 93v410h89v-420q0 -69 -20 -115q-29 -78 -108 -112q-48 -21 -84 -57.5t-36 -71.5q0 -39 37 -39
q17 0 38 7z" />
    <glyph glyph-name="uogonek" unicode="&#x173;" horiz-adv-x="514" 
d="M375 7l-14 46q-70 -63 -154 -63q-41 0 -78 21t-54 69q-13 38 -13 90v303h88v-287q0 -46 9 -70q18 -49 76 -49q35 0 68 17.5t53 41.5v347h88v-322q0 -120 10 -154q-104 -50 -104 -114q0 -39 37 -39q17 0 38 7l11 -53q-33 -11 -67 -11q-45 0 -70 23t-25 58q0 77 101 139z
" />
    <glyph glyph-name="Wcircumflex" unicode="&#x174;" horiz-adv-x="914" 
d="M239 -4l-226 663h100l125 -391q26 -79 40 -135h3q21 74 43 134l95 279l-39 113h93l131 -390q39 -119 43 -136h2q15 63 38 134l121 392h93l-219 -663h-73l-103 300q-33 94 -43 132h-3q-10 -37 -43 -132l-105 -300h-73zM323 696l99 147h78l99 -147h-73l-65 93l-65 -93h-73z
" />
    <glyph glyph-name="wcircumflex" unicode="&#x175;" horiz-adv-x="708" 
d="M170 -3l-161 476h92l108 -359h2l106 359h77l110 -360h2l106 360h89l-163 -476h-72l-109 360h-2l-110 -360h-75zM217 531l99 147h78l99 -147h-73l-65 93l-65 -93h-73z" />
    <glyph glyph-name="Ycircumflex" unicode="&#x176;" horiz-adv-x="552" 
d="M233 0v263l-220 396h98l166 -313h2l163 313h97l-218 -398v-261h-88zM140 696l99 147h78l99 -147h-73l-65 93l-65 -93h-73z" />
    <glyph glyph-name="ycircumflex" unicode="&#x177;" horiz-adv-x="483" 
d="M-14 -219l21 71q32 -16 68 -16q46 0 81.5 38t62.5 125l-210 474h94l156 -368h2l123 368h90l-178 -503q-23 -65 -49.5 -108t-55.5 -63.5t-54.5 -28t-59.5 -7.5q-52 0 -91 18zM109 531l99 147h78l99 -147h-73l-65 93l-65 -93h-73z" />
    <glyph glyph-name="Ydieresis" unicode="&#x178;" horiz-adv-x="552" 
d="M233 0v263l-220 396h98l166 -313h2l163 313h97l-218 -398v-261h-88zM188 704q-20 0 -34.5 14.5t-14.5 35.5q0 20 14.5 34.5t34.5 14.5t34.5 -14.5t14.5 -34.5q0 -21 -14.5 -35.5t-34.5 -14.5zM370 704q-21 0 -35.5 14.5t-14.5 35.5q0 20 14.5 34.5t35.5 14.5
q20 0 34.5 -14.5t14.5 -34.5q0 -21 -14.5 -35.5t-34.5 -14.5z" />
    <glyph glyph-name="Zacute" unicode="&#x179;" horiz-adv-x="554" 
d="M42 0l331 586h-301l-24 73h463l-327 -586h340v-73h-482zM238 696l58 147h100l-89 -147h-69z" />
    <glyph glyph-name="zacute" unicode="&#x17a;" horiz-adv-x="393" 
d="M19 0l233 402h-200l-19 71h350l-231 -402h228v-71h-361zM158 531l58 147h100l-89 -147h-69z" />
    <glyph glyph-name="Zdotaccent" unicode="&#x17b;" horiz-adv-x="554" 
d="M42 0l331 586h-301l-24 73h463l-327 -586h340v-73h-482zM285 704q-24 0 -40 16.5t-16 40.5t16 40t40 16q25 0 41 -16t16 -40t-16 -40.5t-41 -16.5z" />
    <glyph glyph-name="zdotaccent" unicode="&#x17c;" horiz-adv-x="393" 
d="M19 0l233 402h-200l-19 71h350l-231 -402h228v-71h-361zM206 570q-24 0 -40 16.5t-16 40.5t16 40t40 16q25 0 41 -16t16 -40t-16 -40.5t-41 -16.5z" />
    <glyph glyph-name="Zcaron" unicode="&#x17d;" horiz-adv-x="554" 
d="M42 0l331 586h-301l-24 73h463l-327 -586h340v-73h-482zM246 696l-100 147h74l66 -93l64 93h72l-98 -147h-78z" />
    <glyph glyph-name="zcaron" unicode="&#x17e;" horiz-adv-x="393" 
d="M19 0l233 402h-200l-19 71h350l-231 -402h228v-71h-361zM168 532l-100 147h74l66 -93l64 93h72l-98 -147h-78z" />
    <glyph glyph-name="florin" unicode="&#x192;" horiz-adv-x="530" 
d="M289 313l-26 -286q-9 -98 -46 -141q-48 -56 -135 -56q-60 0 -111 25l34 71q33 -18 71 -18q49 0 73 33q19 28 23 78l27 294h-98v71h104l11 125q7 86 37 128q47 71 144 71q61 0 112 -25l-34 -71q-30 18 -71 18q-50 0 -76 -39q-16 -26 -20 -74l-12 -133h125l-24 -71h-108z
" />
    <glyph glyph-name="Aringacute" unicode="&#x1fa;" horiz-adv-x="599" 
d="M14 0l248 654q-34 8 -53.5 32t-19.5 59q0 39 24.5 64.5t65.5 30.5l44 113h100l-77 -122q58 -23 58 -86q0 -35 -20 -58.5t-53 -31.5l254 -655h-95l-65 173h-255l-64 -173h-92zM197 246h200l-61 173q-28 82 -37 113h-2q-8 -30 -38 -113zM296 694q21 0 34 13.5t13 37.5
t-13 38t-34 14t-33.5 -14t-12.5 -38t12.5 -37.5t33.5 -13.5z" />
    <glyph glyph-name="aringacute" unicode="&#x1fb;" horiz-adv-x="471" 
d="M188 -10q-66 0 -109 40.5t-43 107.5q0 90 80 128q43 21 119 24l88 3v25q0 48 -26.5 72t-71.5 24q-66 0 -129 -37l-31 61q78 47 171 47q83 0 129 -41t46 -124v-173q0 -111 9 -147h-76l-15 51q-65 -61 -141 -61zM235 516q-48 0 -78 26.5t-30 69.5q0 38 23.5 63t62.5 30
l52 135h100l-87 -140q64 -20 64 -88q0 -43 -30 -69.5t-77 -26.5zM208 62q61 0 115 54v114l-77 -3q-52 -1 -83 -17q-37 -21 -37 -67q0 -37 22.5 -59t59.5 -22zM235 560q21 0 33.5 14t12.5 38t-12.5 38t-33.5 14q-22 0 -34.5 -14t-12.5 -38t12.5 -38t34.5 -14z" />
    <glyph glyph-name="AEacute" unicode="&#x1fc;" horiz-adv-x="809" 
d="M13 0l347 659h387l-26 -73h-267l36 -212h228v-74h-215l39 -227h209v-73h-287l-30 173h-237l-91 -173h-93zM237 246h185l-30 183q0 2 -7 40t-9 58h-2q-6 -14 -52 -111zM439 696l58 147h100l-89 -147h-69z" />
    <glyph glyph-name="aeacute" unicode="&#x1fd;" horiz-adv-x="757" 
d="M193 -10q-69 0 -113 40t-44 108q0 74 54 110.5t144 36.5h93v33q0 48 -28 72t-73 24q-64 0 -130 -37l-31 61q78 47 170 47q107 0 144 -78h2q53 78 147 78q89 0 140 -65.5t51 -180.5v-19h-305q2 -71 41.5 -114.5t107.5 -43.5q58 0 118 32l27 -61q-68 -43 -156 -43
q-120 0 -180 88q-74 -88 -179 -88zM209 62q39 0 74.5 21.5t58.5 51.5q-12 36 -14 85h-88q-114 0 -114 -79q0 -35 23 -57t60 -22zM415 285h213q-2 55 -28.5 92.5t-75.5 37.5t-78 -37.5t-31 -92.5zM345 531l58 147h100l-89 -147h-69z" />
    <glyph glyph-name="Oslashacute" unicode="&#x1fe;" horiz-adv-x="759" 
d="M123 -21l-56 45l65 74q-77 91 -77 229q0 149 91.5 243.5t233.5 94.5q106 0 188 -61l65 76l57 -45l-68 -77q82 -93 82 -231q0 -151 -92 -244t-232 -93q-112 0 -194 62zM567 491l-330 -377q60 -49 143 -49q104 0 167.5 71.5t63.5 190.5q0 97 -44 164zM189 168l329 375
q-57 46 -138 46q-104 0 -168 -72t-64 -190q0 -97 41 -159zM338 696l58 147h100l-89 -147h-69z" />
    <glyph glyph-name="oslashacute" unicode="&#x1ff;" 
d="M92 -22l-43 34l46 56q-57 70 -57 169q0 107 62.5 177.5t162.5 70.5q72 0 128 -43l40 51l43 -35l-43 -53q56 -69 56 -168q0 -106 -62.5 -176.5t-162.5 -70.5q-71 0 -128 42zM182 92q33 -30 80 -30q62 0 98.5 49t36.5 126q0 57 -20 99zM148 137l195 245q-33 31 -80 31
q-62 0 -98.5 -49t-36.5 -127q0 -58 20 -100zM221 531l58 147h100l-89 -147h-69z" />
    <glyph glyph-name="Scommaaccent" unicode="&#x218;" horiz-adv-x="503" 
d="M51 42l37 69q67 -45 144 -45q55 0 90.5 23.5t35.5 73.5q0 41 -29.5 71.5t-72 52.5l-85 46t-72 64t-29.5 95q0 74 54 123.5t146 49.5q85 0 149 -32v-81q-69 37 -146 37q-46 0 -78 -21.5t-32 -66.5q0 -38 30 -67.5t72.5 -51t84.5 -46.5t72 -67t30 -99q0 -83 -61 -131.5
t-158 -48.5q-105 0 -182 52zM174 -237l-23 56q72 18 72 67q0 27 -22 62h77q24 -32 24 -73q0 -89 -128 -112z" />
    <glyph glyph-name="scommaaccent" unicode="&#x219;" horiz-adv-x="392" 
d="M24 32l28 66q60 -36 122 -36q43 0 69.5 16.5t26.5 51.5q0 26 -23 44t-55.5 30.5t-65 28t-55.5 45.5t-23 73q0 58 44 96t122 38q64 0 124 -23v-76q-61 27 -120 27q-83 0 -83 -58q0 -26 23 -44t55.5 -30.5t65 -28t55.5 -46t23 -75.5q0 -69 -51 -105t-129 -36q-87 0 -153 42
zM127 -237l-23 56q72 18 72 67q0 27 -22 62h77q24 -32 24 -73q0 -89 -128 -112z" />
    <glyph glyph-name="circumflex" unicode="&#x2c6;" horiz-adv-x="368" 
d="M45 531l99 147h78l99 -147h-73l-65 93l-65 -93h-73z" />
    <glyph glyph-name="circumflex" unicode="&#x302;" horiz-adv-x="368" 
d="M45 531l99 147h78l99 -147h-73l-65 93l-65 -93h-73z" />
    <glyph glyph-name="caron" unicode="&#x2c7;" horiz-adv-x="368" 
d="M145 532l-100 147h74l66 -93l64 93h72l-98 -147h-78z" />
    <glyph glyph-name="caron" unicode="&#x30c;" horiz-adv-x="368" 
d="M145 532l-100 147h74l66 -93l64 93h72l-98 -147h-78z" />
    <glyph glyph-name="breve" unicode="&#x2d8;" horiz-adv-x="368" 
d="M253 671h63q-4 -59 -39.5 -93.5t-93.5 -34.5t-92.5 34t-38.5 94h63q9 -68 69 -68t69 68z" />
    <glyph glyph-name="breve" unicode="&#x306;" horiz-adv-x="368" 
d="M253 671h63q-4 -59 -39.5 -93.5t-93.5 -34.5t-92.5 34t-38.5 94h63q9 -68 69 -68t69 68z" />
    <glyph glyph-name="dotaccent" unicode="&#x2d9;" horiz-adv-x="368" 
d="M183 570q-24 0 -40 16.5t-16 40.5t16 40t40 16q25 0 41 -16t16 -40t-16 -40.5t-41 -16.5z" />
    <glyph glyph-name="dotaccent" unicode="&#x307;" horiz-adv-x="368" 
d="M183 570q-24 0 -40 16.5t-16 40.5t16 40t40 16q25 0 41 -16t16 -40t-16 -40.5t-41 -16.5z" />
    <glyph glyph-name="ring" unicode="&#x2da;" horiz-adv-x="368" 
d="M184 523q-48 0 -77.5 26.5t-29.5 69.5t29.5 69.5t77.5 26.5t77.5 -26.5t29.5 -69.5t-29.5 -69.5t-77.5 -26.5zM184 567q21 0 33.5 14t12.5 38t-12.5 38t-33.5 14t-34 -14t-13 -38t13 -38t34 -14z" />
    <glyph glyph-name="ring" unicode="&#x30a;" horiz-adv-x="368" 
d="M184 523q-48 0 -77.5 26.5t-29.5 69.5t29.5 69.5t77.5 26.5t77.5 -26.5t29.5 -69.5t-29.5 -69.5t-77.5 -26.5zM184 567q21 0 33.5 14t12.5 38t-12.5 38t-33.5 14t-34 -14t-13 -38t13 -38t34 -14z" />
    <glyph glyph-name="ogonek" unicode="&#x2db;" horiz-adv-x="368" 
d="M244 -149l11 -53q-33 -11 -67 -11q-45 0 -70 23t-25 58q0 33 19.5 63.5t38.5 46t49 35.5l74 -13q-105 -54 -105 -117q0 -39 37 -39q17 0 38 7z" />
    <glyph glyph-name="ogonek" unicode="&#x328;" horiz-adv-x="368" 
d="M244 -149l11 -53q-33 -11 -67 -11q-45 0 -70 23t-25 58q0 33 19.5 63.5t38.5 46t49 35.5l74 -13q-105 -54 -105 -117q0 -39 37 -39q17 0 38 7z" />
    <glyph glyph-name="tilde" unicode="&#x2dc;" horiz-adv-x="368" 
d="M39 552v27q0 37 21.5 58t53.5 21q30 0 72 -23.5t56 -23.5q25 0 25 41h61v-28q0 -36 -21 -57t-53 -21q-30 0 -72.5 23t-56.5 23q-25 0 -25 -40h-61z" />
    <glyph glyph-name="tilde" unicode="&#x303;" horiz-adv-x="368" 
d="M39 552v27q0 37 21.5 58t53.5 21q30 0 72 -23.5t56 -23.5q25 0 25 41h61v-28q0 -36 -21 -57t-53 -21q-30 0 -72.5 23t-56.5 23q-25 0 -25 -40h-61z" />
    <glyph glyph-name="hungarumlaut" unicode="&#x2dd;" horiz-adv-x="368" 
d="M78 531l58 147h101l-90 -147h-69zM243 531l58 147h100l-89 -147h-69z" />
    <glyph glyph-name="hungarumlaut" unicode="&#x30b;" horiz-adv-x="368" 
d="M78 531l58 147h101l-90 -147h-69zM243 531l58 147h100l-89 -147h-69z" />
    <glyph glyph-name="uni0315" unicode="&#x315;" horiz-adv-x="368" 
d="M157 509l-35 57q43 22 43 69q0 35 -22 73h79q23 -33 23 -76q0 -84 -88 -123z" />
    <glyph glyph-name="uni0326" unicode="&#x326;" horiz-adv-x="368" 
d="M131 -237l-23 56q72 18 72 67q0 27 -22 62h77q24 -32 24 -73q0 -89 -128 -112z" />
    <glyph glyph-name="uni0326" unicode="&#xf6c3;" horiz-adv-x="368" 
d="M131 -237l-23 56q72 18 72 67q0 27 -22 62h77q24 -32 24 -73q0 -89 -128 -112z" />
    <glyph glyph-name="uni03A9" unicode="&#x3a9;" horiz-adv-x="725" 
d="M47 0v73h66q48 0 81 -5l1 2q-68 48 -108 119.5t-40 159.5q0 83 34.5 153t108 116.5t173.5 46.5q147 0 231 -93.5t84 -222.5q0 -87 -40 -158.5t-107 -120.5v-2q33 5 81 5h66v-73h-258v60q164 110 164 285q0 103 -58 173.5t-163 70.5t-163.5 -70.5t-58.5 -173.5
q0 -175 164 -285v-60h-258z" />
    <glyph glyph-name="uni03A9" unicode="&#x2126;" horiz-adv-x="725" 
d="M47 0v73h66q48 0 81 -5l1 2q-68 48 -108 119.5t-40 159.5q0 83 34.5 153t108 116.5t173.5 46.5q147 0 231 -93.5t84 -222.5q0 -87 -40 -158.5t-107 -120.5v-2q33 5 81 5h66v-73h-258v60q164 110 164 285q0 103 -58 173.5t-163 70.5t-163.5 -70.5t-58.5 -173.5
q0 -175 164 -285v-60h-258z" />
    <glyph glyph-name="pi" unicode="&#x3c0;" horiz-adv-x="594" 
d="M109 0v402h-86v71h549l-24 -71h-86v-285q0 -44 34 -44q10 0 23 3l16 -71q-26 -11 -62 -11q-99 0 -99 102v306h-177v-402h-88z" />
    <glyph glyph-name="Wgrave" unicode="&#x1e80;" horiz-adv-x="914" 
d="M239 -4l-226 663h100l125 -391q26 -79 40 -135h3q21 74 43 134l95 279l-39 113h93l131 -390q39 -119 43 -136h2q15 63 38 134l121 392h93l-219 -663h-73l-103 300q-33 94 -43 132h-3q-10 -37 -43 -132l-105 -300h-73zM423 696l-89 147h100l58 -147h-69z" />
    <glyph glyph-name="wgrave" unicode="&#x1e81;" horiz-adv-x="708" 
d="M170 -3l-161 476h92l108 -359h2l106 359h77l110 -360h2l106 360h89l-163 -476h-72l-109 360h-2l-110 -360h-75zM336 531l-89 147h100l58 -147h-69z" />
    <glyph glyph-name="Wacute" unicode="&#x1e82;" horiz-adv-x="914" 
d="M239 -4l-226 663h100l125 -391q26 -79 40 -135h3q21 74 43 134l95 279l-39 113h93l131 -390q39 -119 43 -136h2q15 63 38 134l121 392h93l-219 -663h-73l-103 300q-33 94 -43 132h-3q-10 -37 -43 -132l-105 -300h-73zM413 696l58 147h100l-89 -147h-69z" />
    <glyph glyph-name="wacute" unicode="&#x1e83;" horiz-adv-x="708" 
d="M170 -3l-161 476h92l108 -359h2l106 359h77l110 -360h2l106 360h89l-163 -476h-72l-109 360h-2l-110 -360h-75zM307 531l58 147h100l-89 -147h-69z" />
    <glyph glyph-name="Wdieresis" unicode="&#x1e84;" horiz-adv-x="914" 
d="M239 -4l-226 663h100l125 -391q26 -79 40 -135h3q21 74 43 134l95 279l-39 113h93l131 -390q39 -119 43 -136h2q15 63 38 134l121 392h93l-219 -663h-73l-103 300q-33 94 -43 132h-3q-10 -37 -43 -132l-105 -300h-73zM371 704q-20 0 -34.5 14.5t-14.5 35.5
q0 20 14.5 34.5t34.5 14.5t34.5 -14.5t14.5 -34.5q0 -21 -14.5 -35.5t-34.5 -14.5zM553 704q-21 0 -35.5 14.5t-14.5 35.5q0 20 14.5 34.5t35.5 14.5q20 0 34.5 -14.5t14.5 -34.5q0 -21 -14.5 -35.5t-34.5 -14.5z" />
    <glyph glyph-name="wdieresis" unicode="&#x1e85;" horiz-adv-x="708" 
d="M170 -3l-161 476h92l108 -359h2l106 359h77l110 -360h2l106 360h89l-163 -476h-72l-109 360h-2l-110 -360h-75zM265 555q-20 0 -34.5 14.5t-14.5 35.5q0 20 14.5 34.5t34.5 14.5t34.5 -14.5t14.5 -34.5q0 -21 -14.5 -35.5t-34.5 -14.5zM447 555q-21 0 -35.5 14.5
t-14.5 35.5q0 20 14.5 34.5t35.5 14.5q20 0 34.5 -14.5t14.5 -34.5q0 -21 -14.5 -35.5t-34.5 -14.5z" />
    <glyph glyph-name="Ygrave" unicode="&#x1ef2;" horiz-adv-x="552" 
d="M233 0v263l-220 396h98l166 -313h2l163 313h97l-218 -398v-261h-88zM259 696l-89 147h100l58 -147h-69z" />
    <glyph glyph-name="ygrave" unicode="&#x1ef3;" horiz-adv-x="483" 
d="M-14 -219l21 71q32 -16 68 -16q46 0 81.5 38t62.5 125l-210 474h94l156 -368h2l123 368h90l-178 -503q-23 -65 -49.5 -108t-55.5 -63.5t-54.5 -28t-59.5 -7.5q-52 0 -91 18zM228 531l-89 147h100l58 -147h-69z" />
    <glyph glyph-name="endash" unicode="&#x2013;" horiz-adv-x="450" 
d="M0 219v68h450v-68h-450z" />
    <glyph glyph-name="emdash" unicode="&#x2014;" horiz-adv-x="800" 
d="M0 219v68h800v-68h-800z" />
    <glyph glyph-name="quoteleft" unicode="&#x2018;" horiz-adv-x="227" 
d="M97 447q-36 66 -36 132q0 64 37 138l52 -11q-12 -45 -12 -84q0 -62 36 -136z" />
    <glyph glyph-name="quoteright" unicode="&#x2019;" horiz-adv-x="227" 
d="M42 481q46 76 46 152q0 33 -6 66l85 16q7 -29 7 -63q0 -107 -85 -196z" />
    <glyph glyph-name="quotesinglbase" unicode="&#x201a;" horiz-adv-x="227" 
d="M32 -119q46 76 46 152q0 33 -6 66l85 16q7 -29 7 -63q0 -107 -85 -196z" />
    <glyph glyph-name="quotedblleft" unicode="&#x201c;" horiz-adv-x="395" 
d="M97 447q-36 66 -36 132q0 64 37 138l52 -11q-12 -45 -12 -84q0 -62 36 -136zM265 447q-36 66 -36 132q0 64 37 138l52 -11q-12 -45 -12 -84q0 -62 36 -136z" />
    <glyph glyph-name="quotedblright" unicode="&#x201d;" horiz-adv-x="395" 
d="M42 481q46 76 46 152q0 33 -6 66l85 16q7 -29 7 -63q0 -107 -85 -196zM211 481q45 76 45 152q0 33 -6 66l86 16q6 -31 6 -63q0 -106 -84 -196z" />
    <glyph glyph-name="quotedblbase" unicode="&#x201e;" horiz-adv-x="395" 
d="M32 -119q46 76 46 152q0 33 -6 66l85 16q7 -29 7 -63q0 -107 -85 -196zM201 -119q45 76 45 152q0 33 -6 66l86 16q6 -32 6 -63q0 -106 -84 -196z" />
    <glyph glyph-name="dagger" unicode="&#x2020;" horiz-adv-x="516" 
d="M216 -47v154q0 97 3.5 188.5t3.5 109.5q-17 0 -73.5 -6t-80.5 -6v88q25 0 82 -6t72 -7q1 22 -4.5 79.5t-5.5 80.5h89q0 -23 -5 -80.5t-4 -79.5q14 1 71.5 7t81.5 6v-88q-24 0 -80 6t-73 6q0 -18 3.5 -109.5t3.5 -188.5v-154h-84z" />
    <glyph glyph-name="daggerdbl" unicode="&#x2021;" horiz-adv-x="516" 
d="M213 -47q0 23 5.5 80.5t4.5 79.5q-15 -1 -72 -7t-82 -6v88q24 0 80.5 -6t73.5 -6q0 12 -2.5 47.5t-2.5 61.5q0 29 2.5 69t2.5 51q-17 0 -73.5 -6t-80.5 -6v88q25 0 82 -6t72 -7q1 22 -4.5 79.5t-5.5 80.5h89q0 -23 -5 -80.5t-4 -79.5q14 1 71.5 7t81.5 6v-88q-24 0 -80 6
t-73 6q0 -11 2 -50.5t2 -69.5q0 -26 -2 -62t-2 -47q17 0 73 6t80 6v-88q-24 0 -81.5 6t-71.5 7q-1 -22 4 -79.5t5 -80.5h-89z" />
    <glyph glyph-name="bullet" unicode="&#x2022;" horiz-adv-x="307" 
d="M153 207q-45 0 -76 32.5t-31 78.5q0 47 31 79.5t76 32.5q46 0 77 -32.5t31 -79.5q0 -46 -31 -78.5t-77 -32.5z" />
    <glyph glyph-name="ellipsis" unicode="&#x2026;" horiz-adv-x="896" 
d="M166 -8q-22 0 -37.5 16.5t-15.5 39.5t15.5 39t37.5 16t38 -16t16 -39t-16 -39.5t-38 -16.5zM448 -8q-22 0 -37.5 16.5t-15.5 39.5t15.5 39t37.5 16t38 -16t16 -39t-16 -39.5t-38 -16.5zM730 -8q-22 0 -38 16.5t-16 39.5t16 39t38 16t38 -16t16 -39t-16 -39.5t-38 -16.5z
" />
    <glyph glyph-name="perthousand" unicode="&#x2030;" horiz-adv-x="1204" 
d="M209 316q-67 0 -109.5 45t-42.5 129t42.5 129.5t109.5 45.5q66 0 109 -45.5t43 -129.5t-43 -129t-109 -45zM209 374q38 0 58.5 31.5t20.5 84.5t-20.5 84.5t-58.5 31.5t-58.5 -31.5t-20.5 -84.5t20.5 -84.5t58.5 -31.5zM638 -10q-66 0 -109 45.5t-43 128.5q0 84 43 129.5
t109 45.5t109 -45.5t43 -129.5q0 -83 -43 -128.5t-109 -45.5zM638 48q38 0 58.5 31.5t20.5 84.5q0 54 -20.5 85.5t-58.5 31.5t-58.5 -31.5t-20.5 -85.5q0 -53 20.5 -84.5t58.5 -31.5zM995 -10q-66 0 -109 45.5t-43 128.5q0 84 43 129.5t109 45.5q67 0 109.5 -45.5
t42.5 -129.5q0 -83 -42.5 -128.5t-109.5 -45.5zM995 48q38 0 58.5 31.5t20.5 84.5q0 54 -20.5 85.5t-58.5 31.5t-58.5 -31.5t-20.5 -85.5q0 -53 20.5 -84.5t58.5 -31.5zM179 0l412 659h76l-412 -659h-76z" />
    <glyph glyph-name="guilsinglleft" unicode="&#x2039;" horiz-adv-x="347" 
d="M211 13l-167 228l167 229l71 -40l-138 -189l138 -188z" />
    <glyph glyph-name="guilsinglright" unicode="&#x203a;" horiz-adv-x="347" 
d="M64 53l138 188l-138 189l70 40l167 -229l-167 -228z" />
    <glyph glyph-name="fraction" unicode="&#x2044;" horiz-adv-x="131" 
d="M-179 0l413 659h76l-413 -659h-76z" />
    <glyph glyph-name="fraction" unicode="&#x2215;" horiz-adv-x="131" 
d="M-179 0l413 659h76l-413 -659h-76z" />
    <glyph glyph-name="zerosuperior" unicode="&#x2070;" horiz-adv-x="374" 
d="M186 397q-65 0 -105 52t-40 147t40.5 147t106.5 52t106 -52.5t40 -148.5q0 -94 -40.5 -145.5t-107.5 -51.5zM188 457q36 0 53 38t17 98q0 66 -18.5 103.5t-53.5 37.5t-52 -38t-17 -97q0 -66 18.5 -104t52.5 -38z" />
    <glyph glyph-name="foursuperior" unicode="&#x2074;" horiz-adv-x="374" 
d="M32 490v46l192 257h66v-246h53v-57h-53v-86h-71v86h-187zM111 546q7 0 31.5 0.5t38.5 0.5h38v36q0 68 3 112z" />
    <glyph glyph-name="fivesuperior" unicode="&#x2075;" horiz-adv-x="340" 
d="M29 420l21 58q41 -21 85 -21q81 0 81 65q0 36 -33 51q-19 9 -67 9h-59v204h237l-16 -62h-149v-86h18q49 0 79 -12q67 -27 67 -103q0 -57 -40 -91.5t-116 -34.5q-65 0 -108 23z" />
    <glyph glyph-name="sixsuperior" unicode="&#x2076;" horiz-adv-x="354" 
d="M187 397q-63 0 -104.5 46t-41.5 137q0 92 49 153.5t130 61.5q45 0 84 -18l-19 -57q-28 14 -62 14q-39 0 -67.5 -27.5t-36.5 -77.5h2q39 21 79 21q54 0 88 -33t34 -90q0 -59 -38.5 -94.5t-96.5 -35.5zM189 456q27 0 43.5 17.5t16.5 49.5q0 31 -18 49t-47 18q-32 0 -66 -24
q-1 -49 18.5 -79.5t52.5 -30.5z" />
    <glyph glyph-name="sevensuperior" unicode="&#x2077;" horiz-adv-x="319" 
d="M57 404q42 181 148 320h-170l-16 62h281v-38q-120 -141 -162 -344h-81z" />
    <glyph glyph-name="eightsuperior" unicode="&#x2078;" horiz-adv-x="374" 
d="M183 397q-66 0 -104 28.5t-38 78.5q0 71 71 97v2q-58 28 -58 87q0 47 36 76t95 29q61 0 96.5 -29t35.5 -76q0 -61 -57 -85v-2q73 -25 73 -94q0 -51 -41.5 -81.5t-108.5 -30.5zM185 457q29 0 50 14t21 40q0 25 -21.5 40t-60.5 25q-58 -18 -58 -64q0 -26 20 -40.5t49 -14.5
zM194 628q49 20 49 60q0 20 -15.5 33.5t-41.5 13.5q-25 0 -41 -12.5t-16 -33.5q0 -42 65 -61z" />
    <glyph glyph-name="ninesuperior" unicode="&#x2079;" horiz-adv-x="354" 
d="M136 397q-54 0 -94 18l19 59q34 -17 73 -17q45 0 72.5 28t32.5 83h-2q-38 -27 -83 -27q-52 0 -87 30.5t-35 90.5q0 59 37.5 96t96.5 37q67 0 107 -48t40 -141q0 -97 -46.5 -153t-130.5 -56zM169 600q41 0 69 34q-1 48 -20.5 74.5t-51.5 26.5q-28 0 -44.5 -18.5
t-16.5 -48.5q0 -31 17 -49.5t47 -18.5z" />
    <glyph glyph-name="plussuperior" unicode="&#x207a;" horiz-adv-x="408" 
d="M172 434v132h-122v60h122v128h64v-128h123v-60h-123v-132h-64z" />
    <glyph glyph-name="minussuperior" unicode="&#x207b;" horiz-adv-x="408" 
d="M50 566v60h309v-60h-309z" />
    <glyph glyph-name="equalsuperior" unicode="&#x207c;" horiz-adv-x="408" 
d="M50 631v59h309v-59h-309zM50 502v59h309v-59h-309z" />
    <glyph glyph-name="parenleftsuperior" unicode="&#x207d;" horiz-adv-x="236" 
d="M154 357q-102 90 -102 239t102 239l45 -35q-76 -84 -76 -204q0 -122 76 -204z" />
    <glyph glyph-name="parenrightsuperior" unicode="&#x207e;" horiz-adv-x="236" 
d="M37 392q76 82 76 204q0 120 -76 204l45 35q102 -90 102 -239t-102 -239z" />
    <glyph glyph-name="n.superior" unicode="&#x207f;" horiz-adv-x="383" 
d="M50 270v332h60l6 -37q56 46 114 46q45 0 75 -30t30 -90v-221h-70v204q0 73 -53 73q-38 0 -92 -40v-237h-70z" />
    <glyph glyph-name="zeroinferior" unicode="&#x2080;" horiz-adv-x="374" 
d="M186 -187q-65 0 -105 52t-40 147t40.5 147t106.5 52t106 -52.5t40 -148.5q0 -94 -40.5 -145.5t-107.5 -51.5zM188 -127q36 0 53 38t17 98q0 66 -18.5 103.5t-53.5 37.5t-52 -38t-17 -97q0 -66 18.5 -104t52.5 -38z" />
    <glyph glyph-name="oneinferior" unicode="&#x2081;" horiz-adv-x="332" 
d="M176 -180v313l-118 -45l-26 56l158 65h58v-389h-72z" />
    <glyph glyph-name="twoinferior" unicode="&#x2082;" horiz-adv-x="334" 
d="M27 -180q2 52 22.5 93t48 65t54.5 43.5t45.5 39t18.5 41.5q0 21 -15.5 33.5t-41.5 12.5q-39 0 -97 -30l-22 56q69 37 131 37q58 0 90 -28.5t32 -74.5q0 -37 -24.5 -68t-55 -49.5t-60 -47t-36.5 -60.5h177v-63h-267z" />
    <glyph glyph-name="threeinferior" unicode="&#x2083;" horiz-adv-x="336" 
d="M19 -164l20 56q42 -19 87 -19q84 0 84 58q0 36 -37 48q-20 8 -60 8h-43v56h36q34 0 57 9q34 15 34 49q0 24 -16.5 36t-42.5 12q-38 0 -89 -22l-20 56q63 28 122 28q56 0 89.5 -28t33.5 -72q0 -65 -68 -90v-2q39 -7 60 -31t21 -62q0 -49 -40.5 -81t-117.5 -32
q-64 0 -110 23z" />
    <glyph glyph-name="fourinferior" unicode="&#x2084;" horiz-adv-x="374" 
d="M32 -94v46l192 257h66v-246h53v-57h-53v-86h-71v86h-187zM111 -38q7 0 31.5 0.5t38.5 0.5h38v36q0 68 3 112z" />
    <glyph glyph-name="fiveinferior" unicode="&#x2085;" horiz-adv-x="340" 
d="M29 -164l21 58q40 -21 85 -21q81 0 81 65q0 36 -33 51q-19 9 -67 9h-59v204h237l-16 -62h-149v-86h18q49 0 79 -12q67 -27 67 -103q0 -57 -40 -91.5t-116 -34.5q-65 0 -108 23z" />
    <glyph glyph-name="sixinferior" unicode="&#x2086;" horiz-adv-x="354" 
d="M187 -187q-63 0 -104.5 46t-41.5 137q0 92 49 153.5t130 61.5q45 0 84 -18l-19 -57q-28 14 -62 14q-39 0 -67.5 -27.5t-36.5 -77.5h2q39 21 79 21q54 0 88 -33t34 -90q0 -59 -38.5 -94.5t-96.5 -35.5zM189 -128q27 0 43.5 17.5t16.5 49.5q0 31 -18 49t-47 18
q-32 0 -66 -24q-1 -49 18.5 -79.5t52.5 -30.5z" />
    <glyph glyph-name="seveninferior" unicode="&#x2087;" horiz-adv-x="319" 
d="M57 -180q42 181 148 320h-170l-16 62h281v-38q-120 -141 -162 -344h-81z" />
    <glyph glyph-name="eightinferior" unicode="&#x2088;" horiz-adv-x="374" 
d="M183 -187q-66 0 -104 28.5t-38 78.5q0 71 71 97v2q-58 28 -58 87q0 47 36 76t95 29q61 0 96.5 -29t35.5 -76q0 -61 -57 -85v-2q73 -25 73 -94q0 -51 -41.5 -81.5t-108.5 -30.5zM185 -127q29 0 50 14t21 40q0 25 -21.5 40t-60.5 25q-58 -18 -58 -64q0 -26 20 -40.5
t49 -14.5zM194 44q49 20 49 60q0 20 -15.5 33.5t-41.5 13.5q-25 0 -41 -12.5t-16 -33.5q0 -42 65 -61z" />
    <glyph glyph-name="nineinferior" unicode="&#x2089;" horiz-adv-x="354" 
d="M136 -187q-54 0 -94 18l19 59q34 -17 73 -17q45 0 72.5 28t32.5 83h-2q-38 -27 -83 -27q-52 0 -87 30.5t-35 90.5q0 59 37.5 96t96.5 37q67 0 107 -48t40 -141q0 -97 -46.5 -153t-130.5 -56zM169 16q41 0 69 34q-1 48 -20.5 74.5t-51.5 26.5q-28 0 -44.5 -18.5
t-16.5 -48.5q0 -31 17 -49.5t47 -18.5z" />
    <glyph glyph-name="plusinferior" unicode="&#x208a;" horiz-adv-x="408" 
d="M172 -150v132h-122v60h122v128h64v-128h123v-60h-123v-132h-64z" />
    <glyph glyph-name="minusinferior" unicode="&#x208b;" horiz-adv-x="408" 
d="M50 -18v60h309v-60h-309z" />
    <glyph glyph-name="equalinferior" unicode="&#x208c;" horiz-adv-x="408" 
d="M50 47v59h309v-59h-309zM50 -82v59h309v-59h-309z" />
    <glyph glyph-name="parenleftinferior" unicode="&#x208d;" horiz-adv-x="236" 
d="M154 -227q-102 90 -102 239t102 239l45 -35q-76 -84 -76 -204q0 -122 76 -204z" />
    <glyph glyph-name="parenrightinferior" unicode="&#x208e;" horiz-adv-x="236" 
d="M37 -192q76 82 76 204q0 120 -76 204l45 35q102 -90 102 -239t-102 -239z" />
    <glyph glyph-name="Euro" unicode="&#x20ac;" horiz-adv-x="530" 
d="M476 104l34 -71q-69 -43 -160 -43q-107 0 -171.5 60t-85.5 163h-70v62h62q-2 30 -2 47q0 30 3 58h-63v61h74q27 102 93.5 163t163.5 61q77 0 134 -33v-85q-67 38 -125 38q-63 0 -106.5 -38t-62.5 -106h261l-22 -61h-253q-3 -30 -3 -54t3 -51h246l-22 -62h-212
q18 -67 59.5 -106.5t104.5 -39.5q61 0 120 37z" />
    <glyph glyph-name="afii61289" unicode="&#x2113;" horiz-adv-x="481" 
d="M24 140l-21 76q43 10 88 26v142q0 144 52 212.5t132 68.5q68 0 103.5 -40.5t35.5 -104.5q0 -93 -62 -178.5t-172 -142.5q7 -130 96 -130q56 0 112 43l36 -66q-74 -56 -160 -56q-71 0 -116 44.5t-53 127.5q-30 -12 -71 -22zM178 377v-91q73 45 110 107.5t37 128.5
q0 70 -52 70q-41 0 -68 -53.5t-27 -161.5z" />
    <glyph glyph-name="afii61352" unicode="&#x2116;" horiz-adv-x="1051" 
d="M77 0v659h86l243 -367q45 -69 83 -134h3q-4 48 -4 117v384h89v-659h-77l-254 383q-45 66 -82 129h-2q3 -53 3 -112v-400h-88zM665 137v58h315v-58h-315zM822 263q-72 0 -116.5 49.5t-44.5 124.5t45 124.5t117 49.5t117 -49.5t45 -124.5t-45 -124.5t-118 -49.5zM822 324
q41 0 65.5 31.5t24.5 81.5t-24 81.5t-65 31.5t-65 -31.5t-24 -81.5t24 -81.5t64 -31.5z" />
    <glyph glyph-name="uni2117" unicode="&#x2117;" horiz-adv-x="776" 
d="M388 -10q-144 0 -238 96.5t-94 240.5t94 240.5t238 96.5t238 -96.5t94 -240.5t-94 -240.5t-238 -96.5zM388 39q118 0 196 81.5t78 206.5q0 124 -77.5 205.5t-196.5 81.5t-196.5 -81.5t-77.5 -205.5q0 -125 78 -206.5t196 -81.5zM287 132v389h107q66 0 103 -34t37 -93
q0 -58 -37.5 -92.5t-106.5 -34.5h-44v-135h-59zM346 319h47q81 0 81 74q0 34 -18.5 55t-58.5 21h-51v-150z" />
    <glyph glyph-name="trademark" unicode="&#x2122;" horiz-adv-x="842" 
d="M133 264v336h-110v59h301l-15 -59h-105v-336h-71zM359 264v395h62l95 -140q27 -40 43 -70h2q16 33 41 69l94 141h66v-395h-71v207q0 59 3 80h-2q-17 -33 -36 -60l-78 -117h-36l-78 117q-19 27 -36 60h-2q4 -28 4 -80v-207h-71z" />
    <glyph glyph-name="estimated" unicode="&#x212e;" horiz-adv-x="754" 
d="M590 119h90q-103 -129 -304 -129q-146 0 -248.5 84.5t-102.5 226.5q0 143 103 226.5t252 83.5q86 0 154.5 -28t110.5 -74.5t63.5 -104t19.5 -119.5h-556v-160q32 -46 88 -71.5t121 -25.5q134 0 209 91zM172 324h414v152q-68 97 -206 97q-139 0 -208 -97v-152z" />
    <glyph glyph-name="partialdiff" unicode="&#x2202;" horiz-adv-x="516" 
d="M215 -10q-84 0 -134.5 53t-50.5 143q0 104 66 171.5t168 67.5q63 0 116 -27l1 1q-9 89 -52.5 141t-113.5 52q-65 0 -129 -33l-26 64q76 42 160 42q124 0 190 -86t66 -226q0 -165 -72.5 -264t-188.5 -99zM223 63q65 0 111.5 67.5t50.5 192.5q-51 29 -110 29
q-70 0 -112 -45t-42 -120q0 -59 28 -91.5t74 -32.5z" />
    <glyph glyph-name="Delta" unicode="&#x2206;" horiz-adv-x="607" 
d="M14 0l254 661h70l255 -661h-579zM131 74h344l-143 387q-19 51 -27 87h-2q-5 -22 -27 -86z" />
    <glyph glyph-name="product" unicode="&#x220f;" horiz-adv-x="652" 
d="M106 -180v766h-88v73h630l-25 -73h-88v-766h-88v766h-252v-766h-89z" />
    <glyph glyph-name="summation" unicode="&#x2211;" horiz-adv-x="585" 
d="M19 -180l269 429l-253 410h530l-24 -73h-353l205 -336l-221 -357h383v-73h-536z" />
    <glyph glyph-name="minus" unicode="&#x2212;" horiz-adv-x="532" 
d="M29 215v74h473v-74h-473z" />
    <glyph glyph-name="radical" unicode="&#x221a;" horiz-adv-x="669" 
d="M316 -122l-148 437l-91 -35l-25 69l174 67l99 -304q22 -72 36 -133h2q17 75 32 132l191 716h88l-262 -949h-96z" />
    <glyph glyph-name="infinity" unicode="&#x221e;" horiz-adv-x="768" 
d="M197 99q-76 0 -121.5 49t-45.5 120t45.5 120t121.5 49q55 0 98.5 -29.5t87.5 -81.5q42 52 86 81.5t102 29.5q76 0 121.5 -49t45.5 -120t-45.5 -120t-121.5 -49q-58 0 -102 29.5t-86 81.5q-46 -53 -88.5 -82t-97.5 -29zM205 178q37 0 67 23t65 67q-36 44 -65.5 67
t-66.5 23q-38 0 -62 -25t-24 -65t24 -65t62 -25zM563 178q38 0 62 25t24 65t-24 65t-62 25q-36 0 -66 -23t-68 -67q37 -44 67.5 -67t66.5 -23z" />
    <glyph glyph-name="integral" unicode="&#x222b;" horiz-adv-x="313" 
d="M-43 -220l18 72q33 -11 54 -11q66 0 66 79v630q0 81 41 119.5t103 38.5q46 0 81 -17l-18 -72q-33 11 -54 11q-65 0 -65 -79v-630q0 -81 -41 -119.5t-104 -38.5q-46 0 -81 17z" />
    <glyph glyph-name="approxequal" unicode="&#x2248;" horiz-adv-x="532" 
d="M72 292l-46 55q66 66 136 66q38 0 109.5 -30t100.5 -30q40 0 88 44l46 -55q-66 -66 -137 -66q-37 0 -109 30t-100 30q-25 0 -43.5 -10t-44.5 -34zM72 108l-46 55q66 66 136 66q38 0 109.5 -29.5t100.5 -29.5q41 0 88 43l46 -55q-66 -66 -137 -66q-37 0 -109 30t-100 30
q-25 0 -43.5 -10t-44.5 -34z" />
    <glyph glyph-name="notequal" unicode="&#x2260;" horiz-adv-x="532" 
d="M114 25l49 100h-134v75h170l51 105h-221v74h257l46 94h88l-46 -94h128v-74h-164l-51 -105h215v-75h-252l-48 -100h-88z" />
    <glyph glyph-name="lessequal" unicode="&#x2264;" horiz-adv-x="532" 
d="M52 274v79l421 152v-77l-332 -114v-2l332 -114v-76zM29 0v74h473v-74h-473z" />
    <glyph glyph-name="greaterequal" unicode="&#x2265;" horiz-adv-x="532" 
d="M60 122v76l331 114v2l-331 114v77l421 -152v-79zM30 0v74h473v-74h-473z" />
    <glyph glyph-name="lozenge" unicode="&#x25ca;" horiz-adv-x="474" 
d="M195 0l-139 289l139 289h84l139 -289l-139 -289h-84zM237 74h2l101 215l-102 215h-2l-102 -215z" />
    <glyph glyph-name="comma.inferior" unicode="&#xf6e1;" horiz-adv-x="189" 
d="M25 -265q39 67 39 130q0 27 -6 56l73 13q5 -22 5 -54q0 -92 -72 -165z" />
    <glyph glyph-name="comma.superior" unicode="&#xf6e2;" horiz-adv-x="189" 
d="M25 320q39 67 39 130q0 28 -6 56l73 13q5 -22 5 -54q0 -92 -72 -165z" />
    <glyph glyph-name="period.inferior" unicode="&#xf6e7;" horiz-adv-x="189" 
d="M94 -188q-19 0 -32.5 13.5t-13.5 33.5t13.5 33.5t32.5 13.5t32.5 -14t13.5 -33t-13.5 -33t-32.5 -14z" />
    <glyph glyph-name="period.superior" unicode="&#xf6e8;" horiz-adv-x="189" 
d="M94 397q-19 0 -32.5 13.5t-13.5 33.5t13.5 33.5t32.5 13.5t32.5 -14t13.5 -33t-13.5 -33t-32.5 -14z" />
    <glyph glyph-name="CR" horiz-adv-x="223" 
 />
    <glyph glyph-name="F_I.cap" horiz-adv-x="714" 
d="M84 0v659h334l-26 -73h-219v-212h214v-74h-214v-300h-89zM541 0v659h89v-659h-89z" />
    <glyph glyph-name="F_L.cap" horiz-adv-x="893" 
d="M84 0v659h334l-26 -73h-219v-212h214v-74h-214v-300h-89zM541 0v659h89v-586h241v-73h-330z" />
    <glyph glyph-name="S_S.cap" horiz-adv-x="991" 
d="M51 42l37 69q67 -45 144 -45q55 0 90.5 23.5t35.5 73.5q0 41 -29.5 71.5t-72 52.5l-85 46t-72 64t-29.5 95q0 74 54 123.5t146 49.5q85 0 149 -32v-81q-69 37 -146 37q-46 0 -78 -21.5t-32 -66.5q0 -38 30 -67.5t72.5 -51t84.5 -46.5t72 -67t30 -99q0 -83 -61 -131.5
t-158 -48.5q-105 0 -182 52zM539 42l37 69q67 -45 144 -45q55 0 90.5 23.5t35.5 73.5q0 41 -29.5 71.5t-72 52.5l-85 46t-72 64t-29.5 95q0 74 54 123.5t146 49.5q85 0 149 -32v-81q-69 37 -146 37q-46 0 -78 -21.5t-32 -66.5q0 -38 30 -67.5t72.5 -51t84.5 -46.5t72 -67
t30 -99q0 -83 -61 -131.5t-158 -48.5q-105 0 -182 52z" />
    <glyph glyph-name="A.small" horiz-adv-x="473" 
d="M9 0l196 489h59l199 -489h-90l-44 114h-186l-44 -114h-90zM167 181h137l-43 113q-19 53 -25 72h-2q0 -1 -25 -72z" />
    <glyph glyph-name="B.small" horiz-adv-x="457" 
d="M76 0v486h158q71 0 111.5 -37.5t40.5 -90.5q0 -71 -60 -102v-2q41 -8 65 -37.5t24 -73.5q0 -60 -44 -101.5t-137 -41.5h-158zM164 67h67q95 0 95 76q0 34 -22.5 52.5t-63.5 18.5h-76v-147zM164 278h60q36 0 55.5 20t19.5 52q0 29 -20.5 49t-57.5 20h-57v-141z" />
    <glyph glyph-name="C.small" horiz-adv-x="460" 
d="M410 95l26 -64q-71 -41 -158 -41q-106 0 -172.5 66.5t-66.5 178.5q0 116 71.5 187.5t180.5 71.5q75 0 125 -28v-74q-51 31 -116 31q-77 0 -124 -52t-47 -131q0 -82 44 -130.5t114 -48.5q68 0 123 34z" />
    <glyph glyph-name="D.small" horiz-adv-x="527" 
d="M76 0v486h142q130 0 199.5 -64t69.5 -176q0 -113 -72.5 -179.5t-199.5 -66.5h-139zM164 73h58q91 0 133.5 47t42.5 125q0 168 -180 168h-54v-340z" />
    <glyph glyph-name="E.small" horiz-adv-x="414" 
d="M76 0v486h290l-24 -70h-178v-135h175v-69h-175v-142h195v-70h-283z" />
    <glyph glyph-name="F.small" horiz-adv-x="406" 
d="M76 0v486h290l-24 -73h-178v-140h175v-69h-175v-204h-88z" />
    <glyph glyph-name="G.small" horiz-adv-x="520" 
d="M454 234v-212q-72 -32 -161 -32q-114 0 -184 66t-70 179q0 114 73 186.5t190 72.5q76 0 134 -27v-76q-57 32 -123 32q-90 0 -137 -52.5t-47 -128.5q0 -83 46 -132t120 -49q45 0 71 10v163h88z" />
    <glyph glyph-name="H.small" horiz-adv-x="565" 
d="M76 0v486h88v-203h237v203h88v-486h-88v210h-237v-210h-88z" />
    <glyph glyph-name="I.small" horiz-adv-x="240" 
d="M76 0v486h88v-486h-88z" />
    <glyph glyph-name="J.small" horiz-adv-x="248" 
d="M-34 -113l19 67q19 -6 39 -6q66 0 66 86v452h88v-467q0 -142 -146 -142q-35 0 -66 10z" />
    <glyph glyph-name="K.small" horiz-adv-x="456" 
d="M76 0v486h88v-218h2l170 218h96l-195 -245l214 -241h-105l-180 207h-2v-207h-88z" />
    <glyph glyph-name="L.small" horiz-adv-x="356" 
d="M76 0v486h88v-415h187v-71h-275z" />
    <glyph glyph-name="M.small" horiz-adv-x="647" 
d="M76 0v486h77l109 -164q46 -71 61 -96h2q18 31 62 96l109 164h75v-486h-88v253q0 50 2 90h-2q-12 -21 -48 -77l-90 -137h-44l-89 138q-34 49 -48 76h-2q2 -42 2 -96v-247h-88z" />
    <glyph glyph-name="N.small" horiz-adv-x="593" 
d="M76 0v486h81l202 -257q43 -56 71 -97h2q-3 46 -3 96v258h88v-486h-79l-205 263q-39 50 -70 95h-2q3 -45 3 -92v-266h-88z" />
    <glyph glyph-name="O.small" horiz-adv-x="552" 
d="M276 -10q-106 0 -171.5 70t-65.5 182q0 111 65.5 181.5t171.5 70.5t171.5 -70.5t65.5 -181.5q0 -112 -65.5 -182t-171.5 -70zM276 61q67 0 107 49.5t40 131.5t-40 131.5t-107 49.5t-107 -49.5t-40 -131.5t40 -131.5t107 -49.5z" />
    <glyph glyph-name="P.small" horiz-adv-x="424" 
d="M76 0v486h136q83 0 129 -42.5t46 -115.5t-47.5 -117t-135.5 -44h-40v-167h-88zM164 237h43q93 0 93 90q0 41 -22.5 65t-68.5 24h-45v-179z" />
    <glyph glyph-name="Q.small" horiz-adv-x="552" 
d="M200 1q-75 23 -118 87t-43 154q0 111 65.5 181.5t171.5 70.5t171.5 -70.5t65.5 -181.5q0 -103 -56.5 -171.5t-149.5 -78.5q33 -44 106 -44q26 0 51 9l20 -67q-30 -13 -78 -13q-132 0 -206 124zM276 61q67 0 107 49.5t40 131.5t-40 131.5t-107 49.5t-107 -49.5t-40 -131.5
t40 -131.5t107 -49.5z" />
    <glyph glyph-name="R.small" horiz-adv-x="456" 
d="M76 0v486h145q89 0 131 -41t42 -100q0 -45 -24 -78.5t-69 -48.5v-2q21 -14 58 -74l87 -142h-94l-77 125q-33 54 -53 61h-58v-186h-88zM164 255h59q39 0 61.5 22t22.5 59q0 36 -22 58t-65 22h-56v-161z" />
    <glyph glyph-name="S.small" horiz-adv-x="391" 
d="M38 27l29 66q56 -32 112 -32q36 0 62 17t26 50q0 30 -22 50.5t-53.5 34t-62.5 29t-53 46t-22 74.5q0 57 41.5 94.5t114.5 37.5q62 0 121 -23v-77q-57 30 -116 30q-30 0 -51.5 -14t-21.5 -43q0 -27 22 -46t53 -32t62.5 -29t53.5 -48t22 -78q0 -67 -49.5 -105.5
t-124.5 -38.5q-77 0 -143 37z" />
    <glyph glyph-name="T.small" horiz-adv-x="408" 
d="M160 0v415h-147v71h395l-20 -71h-140v-415h-88z" />
    <glyph glyph-name="U.small" horiz-adv-x="547" 
d="M476 486v-306q0 -96 -55.5 -143t-148.5 -47q-92 0 -146.5 47t-54.5 143v306h88v-300q0 -62 30.5 -92.5t84.5 -30.5t84.5 30.5t30.5 92.5v300h87z" />
    <glyph glyph-name="V.small" horiz-adv-x="486" 
d="M210 -2l-202 488h91l109 -278q15 -38 32 -93h2q4 10 10.5 29l12 34.5t11.5 29.5l110 278h92l-207 -488h-61z" />
    <glyph glyph-name="W.small" horiz-adv-x="682" 
d="M182 -2l-174 488h92l87 -263q24 -74 31 -101h2q9 35 33 101l55 156l-36 107h88l82 -261q28 -97 29 -103h2q11 44 31 103l84 261h86l-171 -488h-65l-64 187l-29 89h-2q-9 -29 -32 -92l-67 -184h-62z" />
    <glyph glyph-name="X.small" horiz-adv-x="473" 
d="M8 0l181 247l-171 239h96l126 -179l128 179h94l-173 -240l176 -246h-94l-134 187l-135 -187h-94z" />
    <glyph glyph-name="Y.small" horiz-adv-x="425" 
d="M166 0v194l-158 292h92l73 -141l38 -80h2q12 28 37 78l76 143h91l-163 -292v-194h-88z" />
    <glyph glyph-name="Z.small" horiz-adv-x="441" 
d="M33 0l244 415h-213l-23 71h371l-243 -415h241v-71h-377z" />
    <glyph glyph-name="Agrave.small" horiz-adv-x="473" 
d="M9 0l196 489h59l199 -489h-90l-44 114h-186l-44 -114h-90zM167 181h137l-43 113q-19 53 -25 72h-2q0 -1 -25 -72zM214 540l-89 147h100l58 -147h-69z" />
    <glyph glyph-name="Aacute.small" horiz-adv-x="473" 
d="M9 0l196 489h59l199 -489h-90l-44 114h-186l-44 -114h-90zM167 181h137l-43 113q-19 53 -25 72h-2q0 -1 -25 -72zM185 540l58 147h100l-89 -147h-69z" />
    <glyph glyph-name="Acircumflex.small" horiz-adv-x="473" 
d="M9 0l196 489h59l199 -489h-90l-44 114h-186l-44 -114h-90zM167 181h137l-43 113q-19 53 -25 72h-2q0 -1 -25 -72zM95 540l99 147h78l99 -147h-73l-65 93l-65 -93h-73z" />
    <glyph glyph-name="Atilde.small" horiz-adv-x="473" 
d="M9 0l196 489h59l199 -489h-90l-44 114h-186l-44 -114h-90zM167 181h137l-43 113q-19 53 -25 72h-2q0 -1 -25 -72zM89 561v27q0 36 21.5 57.5t53.5 21.5q30 0 72 -23.5t56 -23.5q25 0 25 41h61v-28q0 -36 -21 -57t-53 -21q-30 0 -72.5 23t-56.5 23q-25 0 -25 -40h-61z" />
    <glyph glyph-name="Adieresis.small" horiz-adv-x="473" 
d="M9 0l196 489h59l199 -489h-90l-44 114h-186l-44 -114h-90zM167 181h137l-43 113q-19 53 -25 72h-2q0 -1 -25 -72zM143 564q-20 0 -34.5 14.5t-14.5 35.5q0 20 14.5 34.5t34.5 14.5t34.5 -14.5t14.5 -34.5q0 -21 -14.5 -35.5t-34.5 -14.5zM325 564q-21 0 -35.5 14.5
t-14.5 35.5q0 20 14.5 34.5t35.5 14.5q20 0 34.5 -14.5t14.5 -34.5q0 -21 -14.5 -35.5t-34.5 -14.5z" />
    <glyph glyph-name="Amacron.small" horiz-adv-x="473" 
d="M9 0l196 489h59l199 -489h-90l-44 114h-186l-44 -114h-90zM167 181h137l-43 113q-19 53 -25 72h-2q0 -1 -25 -72zM104 581v70h260v-70h-260z" />
    <glyph glyph-name="Abreve.small" horiz-adv-x="473" 
d="M303 680h63q-4 -59 -39.5 -93.5t-93.5 -34.5t-92.5 34t-38.5 94h63q9 -68 69 -68t69 68zM9 0l196 489h59l199 -489h-90l-44 114h-186l-44 -114h-90zM167 181h137l-43 113q-19 53 -25 72h-2q0 -1 -25 -72z" />
    <glyph glyph-name="Aring.small" horiz-adv-x="473" 
d="M9 0l195 487q-35 7 -56 31.5t-21 60.5q0 44 30 70t77 26q48 0 78 -26t30 -70q0 -36 -21.5 -60.5t-56.5 -31.5l199 -487h-90l-44 114h-186l-44 -114h-90zM167 181h137l-43 113q-19 53 -25 72h-2q0 -1 -25 -72zM234 528q22 0 34.5 13.5t12.5 37.5t-12.5 38t-34.5 14
q-21 0 -33.5 -14t-12.5 -38t12.5 -37.5t33.5 -13.5z" />
    <glyph glyph-name="Aringacute.small" horiz-adv-x="473" 
d="M9 0l195 487q-35 7 -56 31.5t-21 60.5q0 40 25 65t66 30l49 124h100l-83 -133q58 -23 58 -86q0 -36 -21.5 -60.5t-56.5 -31.5l199 -487h-90l-44 114h-186l-44 -114h-90zM167 181h137l-43 113q-19 53 -25 72h-2q0 -1 -25 -72zM234 528q22 0 34.5 13.5t12.5 37.5t-12.5 38
t-34.5 14q-21 0 -33.5 -14t-12.5 -38t12.5 -37.5t33.5 -13.5z" />
    <glyph glyph-name="Aogonek.small" horiz-adv-x="473" 
d="M167 181h137l-43 113q-19 53 -25 72h-2q0 -1 -25 -72zM264 489l199 -489q-51 -21 -83 -52.5t-32 -64.5q0 -39 38 -39q17 0 38 7l11 -53q-33 -11 -68 -11q-44 0 -69 23t-25 58q0 74 98 138l-42 108h-186l-44 -114h-90l196 489h59z" />
    <glyph glyph-name="AE.small" horiz-adv-x="664" 
d="M9 0l267 486h341l-25 -70h-238l32 -135h204v-69h-188l33 -142h174v-70h-240l-26 114h-184l-60 -114h-90zM192 181h137l-24 110l-17 76h-2q-18 -43 -36 -75z" />
    <glyph glyph-name="AEacute.small" horiz-adv-x="664" 
d="M9 0l267 486h341l-25 -70h-238l32 -135h204v-69h-188l33 -142h174v-70h-240l-26 114h-184l-60 -114h-90zM192 181h137l-24 110l-17 76h-2q-18 -43 -36 -75zM342 540l58 147h100l-89 -147h-69z" />
    <glyph glyph-name="Cacute.small" horiz-adv-x="460" 
d="M410 95l26 -64q-71 -41 -158 -41q-106 0 -172.5 66.5t-66.5 178.5q0 116 71.5 187.5t180.5 71.5q75 0 125 -28v-74q-51 31 -116 31q-77 0 -124 -52t-47 -131q0 -82 44 -130.5t114 -48.5q68 0 123 34zM231 540l58 147h100l-89 -147h-69z" />
    <glyph glyph-name="Ccircumflex.small" horiz-adv-x="460" 
d="M410 95l26 -64q-71 -41 -158 -41q-106 0 -172.5 66.5t-66.5 178.5q0 116 71.5 187.5t180.5 71.5q75 0 125 -28v-74q-51 31 -116 31q-77 0 -124 -52t-47 -131q0 -82 44 -130.5t114 -48.5q68 0 123 34zM124 540l99 147h78l99 -147h-73l-65 93l-65 -93h-73z" />
    <glyph glyph-name="Ccaron.small" horiz-adv-x="460" 
d="M410 95l26 -64q-71 -41 -158 -41q-106 0 -172.5 66.5t-66.5 178.5q0 116 71.5 187.5t180.5 71.5q75 0 125 -28v-74q-51 31 -116 31q-77 0 -124 -52t-47 -131q0 -82 44 -130.5t114 -48.5q68 0 123 34zM227 541l-100 147h74l66 -93l64 93h72l-98 -147h-78z" />
    <glyph glyph-name="Cdotaccent.small" horiz-adv-x="460" 
d="M410 95l26 -64q-71 -41 -158 -41q-106 0 -172.5 66.5t-66.5 178.5q0 116 71.5 187.5t180.5 71.5q75 0 125 -28v-74q-51 31 -116 31q-77 0 -124 -52t-47 -131q0 -82 44 -130.5t114 -48.5q68 0 123 34zM265 579q-24 0 -40 16.5t-16 40.5t16 40t40 16q25 0 41 -16t16 -40
t-16 -40.5t-41 -16.5z" />
    <glyph glyph-name="Ccedilla.small" horiz-adv-x="460" 
d="M164 -201l15 48q23 -10 47 -10q23 0 38.5 9.5t15.5 27.5q0 23 -22 29.5t-63 6.5l27 86q-83 15 -133 78.5t-50 160.5q0 116 71.5 187.5t180.5 71.5q75 0 125 -28v-74q-51 31 -116 31q-77 0 -124 -52t-47 -131q0 -82 44 -130.5t114 -48.5q68 0 123 34l26 -64
q-63 -38 -148 -41l-13 -42q82 -9 82 -73q0 -40 -33 -63.5t-92 -23.5q-33 0 -68 11z" />
    <glyph glyph-name="Dcaron.small" horiz-adv-x="527" 
d="M76 0v486h142q130 0 199.5 -64t69.5 -176q0 -113 -72.5 -179.5t-199.5 -66.5h-139zM164 73h58q91 0 133.5 47t42.5 125q0 168 -180 168h-54v-340zM207 541l-100 147h74l66 -93l64 93h72l-98 -147h-78z" />
    <glyph glyph-name="Dcroat.small" horiz-adv-x="527" 
d="M83 0v214h-60v64h60v208h142q130 0 199.5 -64t69.5 -176q0 -113 -72.5 -179.5t-199.5 -66.5h-139zM171 73h58q91 0 133.5 47t42.5 125q0 168 -180 168h-54v-135h114v-64h-114v-141z" />
    <glyph glyph-name="Egrave.small" horiz-adv-x="414" 
d="M76 0v486h290l-24 -70h-178v-135h175v-69h-175v-142h195v-70h-283zM195 540l-89 147h100l58 -147h-69z" />
    <glyph glyph-name="Eacute.small" horiz-adv-x="414" 
d="M76 0v486h290l-24 -70h-178v-135h175v-69h-175v-142h195v-70h-283zM169 540l58 147h100l-89 -147h-69z" />
    <glyph glyph-name="Ecircumflex.small" horiz-adv-x="414" 
d="M76 0v486h290l-24 -70h-178v-135h175v-69h-175v-142h195v-70h-283zM77 540l99 147h78l99 -147h-73l-65 93l-65 -93h-73z" />
    <glyph glyph-name="Ecaron.small" horiz-adv-x="414" 
d="M76 0v486h290l-24 -70h-178v-135h175v-69h-175v-142h195v-70h-283zM177 541l-100 147h74l66 -93l64 93h72l-98 -147h-78z" />
    <glyph glyph-name="Edieresis.small" horiz-adv-x="414" 
d="M76 0v486h290l-24 -70h-178v-135h175v-69h-175v-142h195v-70h-283zM127 564q-20 0 -34.5 14.5t-14.5 35.5q0 20 14.5 34.5t34.5 14.5t34.5 -14.5t14.5 -34.5q0 -21 -14.5 -35.5t-34.5 -14.5zM309 564q-21 0 -35.5 14.5t-14.5 35.5q0 20 14.5 34.5t35.5 14.5
q20 0 34.5 -14.5t14.5 -34.5q0 -21 -14.5 -35.5t-34.5 -14.5z" />
    <glyph glyph-name="Emacron.small" horiz-adv-x="414" 
d="M76 0v486h290l-24 -70h-178v-135h175v-69h-175v-142h195v-70h-283zM87 581v70h260v-70h-260z" />
    <glyph glyph-name="Ebreve.small" horiz-adv-x="414" 
d="M76 0v486h290l-24 -70h-178v-135h175v-69h-175v-142h195v-70h-283zM286 680h63q-4 -59 -39.5 -93.5t-93.5 -34.5t-92.5 34t-38.5 94h63q4 -31 21.5 -49.5t47.5 -18.5t47.5 18.5t21.5 49.5z" />
    <glyph glyph-name="Edotaccent.small" horiz-adv-x="414" 
d="M76 0v486h290l-24 -70h-178v-135h175v-69h-175v-142h195v-70h-283zM216 579q-24 0 -40 16.5t-16 40.5t16 40t40 16q25 0 41 -16t16 -40t-16 -40.5t-41 -16.5z" />
    <glyph glyph-name="Eogonek.small" horiz-adv-x="414" 
d="M76 0v486h290l-24 -70h-178v-135h175v-69h-175v-142h195v-70h-21q-104 -55 -104 -117q0 -39 37 -39q18 0 38 7l12 -53q-33 -11 -68 -11q-44 0 -69 23t-25 58q0 72 89 132h-172z" />
    <glyph glyph-name="F_I.small" horiz-adv-x="646" 
d="M76 0v486h290l-24 -73h-178v-140h175v-69h-175v-204h-88zM482 0v486h88v-486h-88z" />
    <glyph glyph-name="F_L.small" horiz-adv-x="762" 
d="M76 0v486h290l-24 -73h-178v-140h175v-69h-175v-204h-88zM482 0v486h88v-415h187v-71h-275z" />
    <glyph glyph-name="Gcircumflex.small" horiz-adv-x="520" 
d="M454 234v-212q-72 -32 -161 -32q-114 0 -184 66t-70 179q0 114 73 186.5t190 72.5q76 0 134 -27v-76q-57 32 -123 32q-90 0 -137 -52.5t-47 -128.5q0 -83 46 -132t120 -49q45 0 71 10v163h88zM133 540l99 147h78l99 -147h-73l-65 93l-65 -93h-73z" />
    <glyph glyph-name="Gbreve.small" horiz-adv-x="520" 
d="M342 680h63q-4 -59 -39.5 -93.5t-93.5 -34.5t-92.5 34t-38.5 94h63q4 -31 21.5 -49.5t47.5 -18.5t47.5 18.5t21.5 49.5zM454 234v-212q-72 -32 -161 -32q-114 0 -184 66t-70 179q0 114 73 186.5t190 72.5q76 0 134 -27v-76q-57 32 -123 32q-90 0 -137 -52.5t-47 -128.5
q0 -83 46 -132t120 -49q45 0 71 10v163h88z" />
    <glyph glyph-name="Gdotaccent.small" horiz-adv-x="520" 
d="M454 234v-212q-72 -32 -161 -32q-114 0 -184 66t-70 179q0 114 73 186.5t190 72.5q76 0 134 -27v-76q-57 32 -123 32q-90 0 -137 -52.5t-47 -128.5q0 -83 46 -132t120 -49q45 0 71 10v163h88zM271 579q-24 0 -40 16.5t-16 40.5t16 40t40 16q25 0 41 -16t16 -40t-16 -40.5
t-41 -16.5z" />
    <glyph glyph-name="Gcommaaccent.small" horiz-adv-x="520" 
d="M454 234v-212q-72 -32 -161 -32q-114 0 -184 66t-70 179q0 114 73 186.5t190 72.5q76 0 134 -27v-76q-57 32 -123 32q-90 0 -137 -52.5t-47 -128.5q0 -83 46 -132t120 -49q45 0 71 10v163h88zM209 -237l-23 56q72 18 72 67q0 27 -22 62h77q24 -32 24 -73q0 -89 -128 -112
z" />
    <glyph glyph-name="Hcircumflex.small" horiz-adv-x="565" 
d="M76 0v486h88v-203h237v203h88v-486h-88v210h-237v-210h-88zM144 540l99 147h78l99 -147h-73l-65 93l-65 -93h-73z" />
    <glyph glyph-name="Hbar.small" horiz-adv-x="565" 
d="M76 0v352h-47v61h47v73h88v-73h237v73h88v-73h47v-61h-47v-352h-88v210h-237v-210h-88zM164 283h237v69h-237v-69z" />
    <glyph glyph-name="Igrave.small" horiz-adv-x="240" 
d="M76 0v486h88v-486h-88zM101 540l-89 147h100l58 -147h-69z" />
    <glyph glyph-name="Iacute.small" horiz-adv-x="240" 
d="M76 0v486h88v-486h-88zM70 540l58 147h100l-89 -147h-69z" />
    <glyph glyph-name="Icircumflex.small" horiz-adv-x="240" 
d="M76 0v486h88v-486h-88zM-18 540l99 147h78l99 -147h-73l-65 93l-65 -93h-73z" />
    <glyph glyph-name="Itilde.small" horiz-adv-x="240" 
d="M76 0v486h88v-486h-88zM-24 561v27q0 36 21 57.5t54 21.5q30 0 72 -23.5t56 -23.5q25 0 25 41h61v-28q0 -36 -21 -57t-53 -21q-30 0 -72.5 23t-56.5 23q-25 0 -25 -40h-61z" />
    <glyph glyph-name="Idieresis.small" horiz-adv-x="240" 
d="M76 0v486h88v-486h-88zM30 564q-20 0 -34.5 14.5t-14.5 35.5q0 20 14.5 34.5t34.5 14.5t34.5 -14.5t14.5 -34.5q0 -21 -14.5 -35.5t-34.5 -14.5zM212 564q-21 0 -35.5 14.5t-14.5 35.5q0 20 14.5 34.5t35.5 14.5q20 0 34.5 -14.5t14.5 -34.5q0 -21 -14.5 -35.5
t-34.5 -14.5z" />
    <glyph glyph-name="Imacron.small" horiz-adv-x="240" 
d="M76 0v486h88v-486h-88zM-9 581v70h260v-70h-260z" />
    <glyph glyph-name="Ibreve.small" horiz-adv-x="240" 
d="M76 0v486h88v-486h-88zM190 680h63q-4 -59 -39.5 -93.5t-93.5 -34.5t-92.5 34t-38.5 94h63q4 -31 21.5 -49.5t47.5 -18.5t47.5 18.5t21.5 49.5z" />
    <glyph glyph-name="Idotaccent.small" horiz-adv-x="240" 
d="M76 0v486h88v-486h-88zM121 579q-24 0 -40 16.5t-16 40.5t16 40t40 16q25 0 41 -16t16 -40t-16 -40.5t-41 -16.5z" />
    <glyph glyph-name="Iogonek.small" horiz-adv-x="240" 
d="M76 5v481h88v-486q-37 -22 -58 -52.5t-21 -60.5q0 -43 38 -43q17 0 37 7l11 -53q-36 -11 -66 -11q-46 0 -71 23.5t-25 64.5q0 70 67 130z" />
    <glyph glyph-name="dotlessi.small" horiz-adv-x="240" 
d="M76 0v486h88v-486h-88z" />
    <glyph glyph-name="IJ.small" horiz-adv-x="488" 
d="M76 0v486h88v-486h-88zM206 -113l19 67q19 -6 39 -6q66 0 66 86v452h88v-467q0 -142 -146 -142q-35 0 -66 10z" />
    <glyph glyph-name="Jcircumflex.small" horiz-adv-x="248" 
d="M-34 -113l19 67q19 -6 39 -6q66 0 66 86v452h88v-467q0 -142 -146 -142q-35 0 -66 10zM-9 540l99 147h78l99 -147h-73l-65 93l-65 -93h-73z" />
    <glyph glyph-name="Kcommaaccent.small" horiz-adv-x="456" 
d="M76 0v486h88v-218h2l170 218h96l-195 -245l214 -241h-105l-180 207h-2v-207h-88zM178 -237l-23 56q72 18 72 67q0 27 -22 62h77q24 -32 24 -73q0 -89 -128 -112z" />
    <glyph glyph-name="Lacute.small" horiz-adv-x="356" 
d="M76 0v486h88v-415h187v-71h-275zM78 540l58 147h100l-89 -147h-69z" />
    <glyph glyph-name="Lcaron.small" horiz-adv-x="362" 
d="M76 0v486h88v-415h187v-71h-275zM258 336l-35 57q43 21 43 69q0 35 -22 73h79q23 -33 23 -76q0 -84 -88 -123z" />
    <glyph glyph-name="Lcommaaccent.small" horiz-adv-x="356" 
d="M76 0v486h88v-415h187v-71h-275zM136 -237l-23 56q72 18 72 67q0 27 -22 62h77q24 -32 24 -73q0 -89 -128 -112z" />
    <glyph glyph-name="Lslash.small" horiz-adv-x="356" 
d="M27 149v81l49 29v227h88v-176l109 64v-81l-109 -64v-158h187v-71h-275v178z" />
    <glyph glyph-name="Ldot.small" horiz-adv-x="356" 
d="M76 0v486h88v-415h187v-71h-275zM296 207q-22 0 -38 16.5t-16 39.5t16 39t38 16t38 -16t16 -39t-16 -39.5t-38 -16.5z" />
    <glyph glyph-name="Nacute.small" horiz-adv-x="593" 
d="M76 0v486h81l202 -257q43 -56 71 -97h2q-3 46 -3 96v258h88v-486h-79l-205 263q-39 50 -70 95h-2q3 -45 3 -92v-266h-88zM250 540l58 147h100l-89 -147h-69z" />
    <glyph glyph-name="Ncaron.small" horiz-adv-x="593" 
d="M76 0v486h81l202 -257q43 -56 71 -97h2q-3 46 -3 96v258h88v-486h-79l-205 263q-39 50 -70 95h-2q3 -45 3 -92v-266h-88zM258 541l-100 147h74l66 -93l64 93h72l-98 -147h-78z" />
    <glyph glyph-name="Ntilde.small" horiz-adv-x="593" 
d="M76 0v486h81l202 -257q43 -56 71 -97h2q-3 46 -3 96v258h88v-486h-79l-205 263q-39 50 -70 95h-2q3 -45 3 -92v-266h-88zM154 561v27q0 36 21 57.5t54 21.5q30 0 72 -23.5t56 -23.5q25 0 25 41h61v-28q0 -36 -21 -57t-53 -21q-30 0 -72.5 23t-56.5 23q-25 0 -25 -40h-61z
" />
    <glyph glyph-name="Ncommaaccent.small" horiz-adv-x="593" 
d="M76 0v486h81l202 -257q43 -56 71 -97h2q-3 46 -3 96v258h88v-486h-79l-205 263q-39 50 -70 95h-2q3 -45 3 -92v-266h-88zM230 -237l-23 56q72 18 72 67q0 27 -22 62h77q24 -32 24 -73q0 -89 -128 -112z" />
    <glyph glyph-name="Ograve.small" horiz-adv-x="552" 
d="M276 -10q-106 0 -171.5 70t-65.5 182q0 111 65.5 181.5t171.5 70.5t171.5 -70.5t65.5 -181.5q0 -112 -65.5 -182t-171.5 -70zM276 61q67 0 107 49.5t40 131.5t-40 131.5t-107 49.5t-107 -49.5t-40 -131.5t40 -131.5t107 -49.5zM253 540l-89 147h100l58 -147h-69z" />
    <glyph glyph-name="Oacute.small" horiz-adv-x="552" 
d="M276 -10q-106 0 -171.5 70t-65.5 182q0 111 65.5 181.5t171.5 70.5t171.5 -70.5t65.5 -181.5q0 -112 -65.5 -182t-171.5 -70zM276 61q67 0 107 49.5t40 131.5t-40 131.5t-107 49.5t-107 -49.5t-40 -131.5t40 -131.5t107 -49.5zM239 540l58 147h100l-89 -147h-69z" />
    <glyph glyph-name="Ocircumflex.small" horiz-adv-x="552" 
d="M276 -10q-106 0 -171.5 70t-65.5 182q0 111 65.5 181.5t171.5 70.5t171.5 -70.5t65.5 -181.5q0 -112 -65.5 -182t-171.5 -70zM276 61q67 0 107 49.5t40 131.5t-40 131.5t-107 49.5t-107 -49.5t-40 -131.5t40 -131.5t107 -49.5zM138 540l99 147h78l99 -147h-73l-65 93
l-65 -93h-73z" />
    <glyph glyph-name="Otilde.small" horiz-adv-x="552" 
d="M276 -10q-106 0 -171.5 70t-65.5 182q0 111 65.5 181.5t171.5 70.5t171.5 -70.5t65.5 -181.5q0 -112 -65.5 -182t-171.5 -70zM276 61q67 0 107 49.5t40 131.5t-40 131.5t-107 49.5t-107 -49.5t-40 -131.5t40 -131.5t107 -49.5zM132 561v27q0 36 21 57.5t54 21.5
q30 0 72 -23.5t56 -23.5q25 0 25 41h61v-28q0 -36 -21 -57t-53 -21q-30 0 -72.5 23t-56.5 23q-25 0 -25 -40h-61z" />
    <glyph glyph-name="Odieresis.small" horiz-adv-x="552" 
d="M276 -10q-106 0 -171.5 70t-65.5 182q0 111 65.5 181.5t171.5 70.5t171.5 -70.5t65.5 -181.5q0 -112 -65.5 -182t-171.5 -70zM276 61q67 0 107 49.5t40 131.5t-40 131.5t-107 49.5t-107 -49.5t-40 -131.5t40 -131.5t107 -49.5zM187 564q-20 0 -34.5 14.5t-14.5 35.5
q0 20 14.5 34.5t34.5 14.5t34.5 -14.5t14.5 -34.5q0 -21 -14.5 -35.5t-34.5 -14.5zM369 564q-21 0 -35.5 14.5t-14.5 35.5q0 20 14.5 34.5t35.5 14.5q20 0 34.5 -14.5t14.5 -34.5q0 -21 -14.5 -35.5t-34.5 -14.5z" />
    <glyph glyph-name="Omacron.small" horiz-adv-x="552" 
d="M276 -10q-106 0 -171.5 70t-65.5 182q0 111 65.5 181.5t171.5 70.5t171.5 -70.5t65.5 -181.5q0 -112 -65.5 -182t-171.5 -70zM276 61q67 0 107 49.5t40 131.5t-40 131.5t-107 49.5t-107 -49.5t-40 -131.5t40 -131.5t107 -49.5zM148 581v70h260v-70h-260z" />
    <glyph glyph-name="Obreve.small" horiz-adv-x="552" 
d="M276 -10q-106 0 -171.5 70t-65.5 182q0 111 65.5 181.5t171.5 70.5t171.5 -70.5t65.5 -181.5q0 -112 -65.5 -182t-171.5 -70zM276 61q67 0 107 49.5t40 131.5t-40 131.5t-107 49.5t-107 -49.5t-40 -131.5t40 -131.5t107 -49.5zM346 680h63q-4 -59 -39.5 -93.5
t-93.5 -34.5t-92.5 34t-38.5 94h63q4 -31 21.5 -49.5t47.5 -18.5t47.5 18.5t21.5 49.5z" />
    <glyph glyph-name="Ohungarumlaut.small" horiz-adv-x="552" 
d="M276 -10q-106 0 -171.5 70t-65.5 182q0 111 65.5 181.5t171.5 70.5t171.5 -70.5t65.5 -181.5q0 -112 -65.5 -182t-171.5 -70zM276 61q67 0 107 49.5t40 131.5t-40 131.5t-107 49.5t-107 -49.5t-40 -131.5t40 -131.5t107 -49.5zM163 540l58 147h101l-90 -147h-69zM328 540
l58 147h100l-89 -147h-69z" />
    <glyph glyph-name="Oslash.small" horiz-adv-x="552" 
d="M107 -23l-46 34l42 53q-64 70 -64 178q0 111 65.5 181.5t171.5 70.5q69 0 125 -35l37 49l46 -34l-38 -50q67 -70 67 -182t-65.5 -182t-171.5 -70q-74 0 -130 39zM191 89q35 -29 85 -29q67 0 107.5 50t40.5 132q0 69 -29 115zM154 132l203 267q-34 25 -81 25
q-67 0 -107.5 -50t-40.5 -132q0 -66 26 -110z" />
    <glyph glyph-name="Oslashacute.small" horiz-adv-x="552" 
d="M107 -23l-46 34l42 53q-64 70 -64 178q0 111 65.5 181.5t171.5 70.5q69 0 125 -35l37 49l46 -34l-38 -50q67 -70 67 -182t-65.5 -182t-171.5 -70q-74 0 -130 39zM191 89q35 -29 85 -29q67 0 107.5 50t40.5 132q0 69 -29 115zM154 132l203 267q-34 25 -81 25
q-67 0 -107.5 -50t-40.5 -132q0 -66 26 -110zM240 540l58 147h100l-89 -147h-69z" />
    <glyph glyph-name="OE.small" horiz-adv-x="703" 
d="M648 0h-195q-37 0 -92 -3.5t-75 -3.5q-112 0 -179.5 70t-67.5 179t69 179.5t184 70.5q15 0 67 -3t83 -3h213l-25 -70h-177v-135h175v-69h-175v-142h195v-70zM365 70v344q-37 9 -70 9q-77 0 -121.5 -50.5t-44.5 -130.5q0 -79 43 -129.5t118 -50.5q25 0 75 8z" />
    <glyph glyph-name="Racute.small" horiz-adv-x="456" 
d="M76 0v486h145q89 0 131 -41t42 -100q0 -45 -24 -78.5t-69 -48.5v-2q21 -14 58 -74l87 -142h-94l-77 125q-33 54 -53 61h-58v-186h-88zM164 255h59q39 0 61.5 22t22.5 59q0 36 -22 58t-65 22h-56v-161zM171 540l58 147h100l-89 -147h-69z" />
    <glyph glyph-name="Rcaron.small" horiz-adv-x="456" 
d="M76 0v486h145q89 0 131 -41t42 -100q0 -45 -24 -78.5t-69 -48.5v-2q21 -14 58 -74l87 -142h-94l-77 125q-33 54 -53 61h-58v-186h-88zM164 255h59q39 0 61.5 22t22.5 59q0 36 -22 58t-65 22h-56v-161zM180 541l-100 147h74l66 -93l64 93h72l-98 -147h-78z" />
    <glyph glyph-name="Rcommaaccent.small" horiz-adv-x="456" 
d="M76 0v486h145q89 0 131 -41t42 -100q0 -45 -24 -78.5t-69 -48.5v-2q21 -14 58 -74l87 -142h-94l-77 125q-33 54 -53 61h-58v-186h-88zM164 255h59q39 0 61.5 22t22.5 59q0 36 -22 58t-65 22h-56v-161zM176 -237l-23 56q72 18 72 67q0 27 -22 62h77q24 -32 24 -73
q0 -89 -128 -112z" />
    <glyph glyph-name="Sacute.small" horiz-adv-x="391" 
d="M38 27l29 66q56 -32 112 -32q36 0 62 17t26 50q0 30 -22 50.5t-53.5 34t-62.5 29t-53 46t-22 74.5q0 57 41.5 94.5t114.5 37.5q62 0 121 -23v-77q-57 30 -116 30q-30 0 -51.5 -14t-21.5 -43q0 -27 22 -46t53 -32t62.5 -29t53.5 -48t22 -78q0 -67 -49.5 -105.5
t-124.5 -38.5q-77 0 -143 37zM157 540l58 147h100l-89 -147h-69z" />
    <glyph glyph-name="Scircumflex.small" horiz-adv-x="391" 
d="M38 27l29 66q56 -32 112 -32q36 0 62 17t26 50q0 30 -22 50.5t-53.5 34t-62.5 29t-53 46t-22 74.5q0 57 41.5 94.5t114.5 37.5q62 0 121 -23v-77q-57 30 -116 30q-30 0 -51.5 -14t-21.5 -43q0 -27 22 -46t53 -32t62.5 -29t53.5 -48t22 -78q0 -67 -49.5 -105.5
t-124.5 -38.5q-77 0 -143 37zM59 540l99 147h78l99 -147h-73l-65 93l-65 -93h-73z" />
    <glyph glyph-name="Scaron.small" horiz-adv-x="391" 
d="M38 27l29 66q56 -32 112 -32q36 0 62 17t26 50q0 30 -22 50.5t-53.5 34t-62.5 29t-53 46t-22 74.5q0 57 41.5 94.5t114.5 37.5q62 0 121 -23v-77q-57 30 -116 30q-30 0 -51.5 -14t-21.5 -43q0 -27 22 -46t53 -32t62.5 -29t53.5 -48t22 -78q0 -67 -49.5 -105.5
t-124.5 -38.5q-77 0 -143 37zM162 541l-100 147h74l66 -93l64 93h72l-98 -147h-78z" />
    <glyph glyph-name="Scedilla.small" horiz-adv-x="391" 
d="M88 -201l15 48q24 -10 48 -10q23 0 38 9.5t15 27.5q0 16 -14 24.5t-29.5 10t-41.5 1.5l25 82q-56 7 -106 35l29 66q56 -32 112 -32q36 0 62 17t26 50q0 30 -22 50.5t-53.5 34t-62.5 29t-53 46t-22 74.5q0 57 41.5 94.5t114.5 37.5q62 0 121 -23v-77q-57 30 -116 30
q-30 0 -51.5 -14t-21.5 -43q0 -27 22 -46t53 -32t62.5 -29t53.5 -48t22 -78q0 -60 -39.5 -97t-102.5 -44l-14 -45q82 -9 82 -73q0 -40 -33 -63.5t-92 -23.5q-33 0 -68 11z" />
    <glyph glyph-name="Scommaaccent.small" horiz-adv-x="391" 
d="M38 27l29 66q56 -32 112 -32q36 0 62 17t26 50q0 30 -22 50.5t-53.5 34t-62.5 29t-53 46t-22 74.5q0 57 41.5 94.5t114.5 37.5q62 0 121 -23v-77q-57 30 -116 30q-30 0 -51.5 -14t-21.5 -43q0 -27 22 -46t53 -32t62.5 -29t53.5 -48t22 -78q0 -67 -49.5 -105.5
t-124.5 -38.5q-77 0 -143 37zM127 -237l-23 56q72 18 72 67q0 27 -22 62h77q24 -32 24 -73q0 -89 -128 -112z" />
    <glyph glyph-name="S_S.small" horiz-adv-x="778" 
d="M38 27l29 66q56 -32 112 -32q36 0 62 17t26 50q0 30 -22 50.5t-53.5 34t-62.5 29t-53 46t-22 74.5q0 57 41.5 94.5t114.5 37.5q62 0 121 -23v-77q-57 30 -116 30q-30 0 -51.5 -14t-21.5 -43q0 -27 22 -46t53 -32t62.5 -29t53.5 -48t22 -78q0 -67 -49.5 -105.5
t-124.5 -38.5q-77 0 -143 37zM425 27l29 66q56 -32 112 -32q36 0 62 17t26 50q0 30 -22 50.5t-53 34t-62.5 29t-53.5 46t-22 74.5q0 57 41.5 94.5t114.5 37.5q62 0 121 -23v-77q-57 30 -116 30q-30 0 -51.5 -14t-21.5 -43q0 -27 22 -46t53.5 -32t62.5 -29t53 -48t22 -78
q0 -67 -49.5 -105.5t-124.5 -38.5q-77 0 -143 37z" />
    <glyph glyph-name="Tcaron.small" horiz-adv-x="408" 
d="M160 0v415h-147v71h395l-20 -71h-140v-415h-88zM166 541l-100 147h74l66 -93l64 93h72l-98 -147h-78z" />
    <glyph glyph-name="Tcommaaccent.small" horiz-adv-x="408" 
d="M160 0v415h-147v71h395l-20 -71h-140v-415h-88zM137 -237l-23 56q72 18 72 67q0 27 -22 62h77q24 -32 24 -73q0 -89 -128 -112z" />
    <glyph glyph-name="Tbar.small" horiz-adv-x="408" 
d="M160 0v198h-87v64h87v153h-147v71h395l-20 -71h-140v-153h86v-64h-86v-198h-88z" />
    <glyph glyph-name="Ugrave.small" horiz-adv-x="547" 
d="M476 486v-306q0 -96 -55.5 -143t-148.5 -47q-92 0 -146.5 47t-54.5 143v306h88v-300q0 -62 30.5 -92.5t84.5 -30.5t84.5 30.5t30.5 92.5v300h87zM251 540l-89 147h100l58 -147h-69z" />
    <glyph glyph-name="Uacute.small" horiz-adv-x="547" 
d="M476 486v-306q0 -96 -55.5 -143t-148.5 -47q-92 0 -146.5 47t-54.5 143v306h88v-300q0 -62 30.5 -92.5t84.5 -30.5t84.5 30.5t30.5 92.5v300h87zM230 540l58 147h100l-89 -147h-69z" />
    <glyph glyph-name="Ucircumflex.small" horiz-adv-x="547" 
d="M476 486v-306q0 -96 -55.5 -143t-148.5 -47q-92 0 -146.5 47t-54.5 143v306h88v-300q0 -62 30.5 -92.5t84.5 -30.5t84.5 30.5t30.5 92.5v300h87zM136 540l99 147h78l99 -147h-73l-65 93l-65 -93h-73z" />
    <glyph glyph-name="Utilde.small" horiz-adv-x="547" 
d="M476 486v-306q0 -96 -55.5 -143t-148.5 -47q-92 0 -146.5 47t-54.5 143v306h88v-300q0 -62 30.5 -92.5t84.5 -30.5t84.5 30.5t30.5 92.5v300h87zM131 561v27q0 36 21.5 57.5t53.5 21.5q30 0 72 -23.5t56 -23.5q25 0 25 41h61v-28q0 -36 -21 -57t-53 -21q-30 0 -72.5 23
t-56.5 23q-25 0 -25 -40h-61z" />
    <glyph glyph-name="Udieresis.small" horiz-adv-x="547" 
d="M476 486v-306q0 -96 -55.5 -143t-148.5 -47q-92 0 -146.5 47t-54.5 143v306h88v-300q0 -62 30.5 -92.5t84.5 -30.5t84.5 30.5t30.5 92.5v300h87zM185 564q-20 0 -34.5 14.5t-14.5 35.5q0 20 14.5 34.5t34.5 14.5t34.5 -14.5t14.5 -34.5q0 -21 -14.5 -35.5t-34.5 -14.5z
M367 564q-21 0 -35.5 14.5t-14.5 35.5q0 20 14.5 34.5t35.5 14.5q20 0 34.5 -14.5t14.5 -34.5q0 -21 -14.5 -35.5t-34.5 -14.5z" />
    <glyph glyph-name="Umacron.small" horiz-adv-x="547" 
d="M476 486v-306q0 -96 -55.5 -143t-148.5 -47q-92 0 -146.5 47t-54.5 143v306h88v-300q0 -62 30.5 -92.5t84.5 -30.5t84.5 30.5t30.5 92.5v300h87zM145 581v70h260v-70h-260z" />
    <glyph glyph-name="Ubreve.small" horiz-adv-x="547" 
d="M476 486v-306q0 -96 -55.5 -143t-148.5 -47q-92 0 -146.5 47t-54.5 143v306h88v-300q0 -62 30.5 -92.5t84.5 -30.5t84.5 30.5t30.5 92.5v300h87zM344 680h63q-4 -59 -39.5 -93.5t-93.5 -34.5t-92.5 34t-38.5 94h63q4 -31 21.5 -49.5t47.5 -18.5t47.5 18.5t21.5 49.5z" />
    <glyph glyph-name="Uring.small" horiz-adv-x="547" 
d="M476 486v-306q0 -96 -55.5 -143t-148.5 -47q-92 0 -146.5 47t-54.5 143v306h88v-300q0 -62 30.5 -92.5t84.5 -30.5t84.5 30.5t30.5 92.5v300h87zM274 532q-48 0 -77.5 26.5t-29.5 69.5t29.5 69.5t77.5 26.5t77.5 -26.5t29.5 -69.5t-29.5 -69.5t-77.5 -26.5zM274 576
q21 0 33.5 14t12.5 38t-12.5 38t-33.5 14t-34 -14t-13 -38t13 -38t34 -14z" />
    <glyph glyph-name="Uhungarumlaut.small" horiz-adv-x="547" 
d="M476 486v-306q0 -96 -55.5 -143t-148.5 -47q-92 0 -146.5 47t-54.5 143v306h88v-300q0 -62 30.5 -92.5t84.5 -30.5t84.5 30.5t30.5 92.5v300h87zM152 540l58 147h101l-90 -147h-69zM317 540l58 147h100l-89 -147h-69z" />
    <glyph glyph-name="Uogonek.small" horiz-adv-x="547" 
d="M272 -12v2q-92 0 -146.5 47t-54.5 143v306h88v-300q0 -62 30.5 -92.5t84.5 -30.5t84.5 30.5t30.5 92.5v300h87v-306q0 -90 -52 -139q-9 -9 -52 -37t-70.5 -58t-27.5 -63q0 -39 37 -39q17 0 38 7l11 -53q-33 -11 -67 -11q-45 0 -70 23t-25 58q0 68 74 120z" />
    <glyph glyph-name="Wgrave.small" horiz-adv-x="682" 
d="M182 -2l-174 488h92l87 -263q24 -74 31 -101h2q9 35 33 101l55 156l-36 107h88l82 -261q28 -97 29 -103h2q11 44 31 103l84 261h86l-171 -488h-65l-64 187l-29 89h-2q-9 -29 -32 -92l-67 -184h-62zM324 540l-89 147h100l58 -147h-69z" />
    <glyph glyph-name="Wacute.small" horiz-adv-x="682" 
d="M182 -2l-174 488h92l87 -263q24 -74 31 -101h2q9 35 33 101l55 156l-36 107h88l82 -261q28 -97 29 -103h2q11 44 31 103l84 261h86l-171 -488h-65l-64 187l-29 89h-2q-9 -29 -32 -92l-67 -184h-62zM297 540l58 147h100l-89 -147h-69z" />
    <glyph glyph-name="Wcircumflex.small" horiz-adv-x="682" 
d="M182 -2l-174 488h92l87 -263q24 -74 31 -101h2q9 35 33 101l55 156l-36 107h88l82 -261q28 -97 29 -103h2q11 44 31 103l84 261h86l-171 -488h-65l-64 187l-29 89h-2q-9 -29 -32 -92l-67 -184h-62zM207 540l99 147h78l99 -147h-73l-65 93l-65 -93h-73z" />
    <glyph glyph-name="Wdieresis.small" horiz-adv-x="682" 
d="M182 -2l-174 488h92l87 -263q24 -74 31 -101h2q9 35 33 101l55 156l-36 107h88l82 -261q28 -97 29 -103h2q11 44 31 103l84 261h86l-171 -488h-65l-64 187l-29 89h-2q-9 -29 -32 -92l-67 -184h-62zM255 564q-20 0 -34.5 14.5t-14.5 35.5q0 20 14.5 34.5t34.5 14.5
t34.5 -14.5t14.5 -34.5q0 -21 -14.5 -35.5t-34.5 -14.5zM437 564q-21 0 -35.5 14.5t-14.5 35.5q0 20 14.5 34.5t35.5 14.5q20 0 34.5 -14.5t14.5 -34.5q0 -21 -14.5 -35.5t-34.5 -14.5z" />
    <glyph glyph-name="Ygrave.small" horiz-adv-x="425" 
d="M166 0v194l-158 292h92l73 -141l38 -80h2q12 28 37 78l76 143h91l-163 -292v-194h-88zM193 540l-89 147h100l58 -147h-69z" />
    <glyph glyph-name="Yacute.small" horiz-adv-x="425" 
d="M166 0v194l-158 292h92l73 -141l38 -80h2q12 28 37 78l76 143h91l-163 -292v-194h-88zM164 540l58 147h100l-89 -147h-69z" />
    <glyph glyph-name="Ycircumflex.small" horiz-adv-x="425" 
d="M166 0v194l-158 292h92l73 -141l38 -80h2q12 28 37 78l76 143h91l-163 -292v-194h-88zM74 540l99 147h78l99 -147h-73l-65 93l-65 -93h-73z" />
    <glyph glyph-name="Ydieresis.small" horiz-adv-x="425" 
d="M166 0v194l-158 292h92l73 -141l38 -80h2q12 28 37 78l76 143h91l-163 -292v-194h-88zM122 564q-20 0 -34.5 14.5t-14.5 35.5q0 20 14.5 34.5t34.5 14.5t34.5 -14.5t14.5 -34.5q0 -21 -14.5 -35.5t-34.5 -14.5zM304 564q-21 0 -35.5 14.5t-14.5 35.5q0 20 14.5 34.5
t35.5 14.5q20 0 34.5 -14.5t14.5 -34.5q0 -21 -14.5 -35.5t-34.5 -14.5z" />
    <glyph glyph-name="Zacute.small" horiz-adv-x="441" 
d="M33 0l244 415h-213l-23 71h371l-243 -415h241v-71h-377zM181 540l58 147h100l-89 -147h-69z" />
    <glyph glyph-name="Zcaron.small" horiz-adv-x="441" 
d="M33 0l244 415h-213l-23 71h371l-243 -415h241v-71h-377zM187 541l-100 147h74l66 -93l64 93h72l-98 -147h-78z" />
    <glyph glyph-name="Zdotaccent.small" horiz-adv-x="441" 
d="M33 0l244 415h-213l-23 71h371l-243 -415h241v-71h-377zM225 579q-24 0 -40 16.5t-16 40.5t16 40t40 16q25 0 41 -16t16 -40t-16 -40.5t-41 -16.5z" />
    <glyph glyph-name="Eng.small" horiz-adv-x="593" 
d="M76 0v486h81l199 -254q48 -60 73 -98h2q-2 64 -2 96v256h88v-532q0 -76 -40 -112.5t-107 -36.5q-42 0 -77 14l20 69q23 -10 47 -10q69 0 69 91v44l-196 250q-39 50 -70 95h-2q3 -45 3 -92v-266h-88z" />
    <glyph glyph-name="Eth.small" horiz-adv-x="527" 
d="M76 0v214h-60v64h60v208h142q130 0 199.5 -64t69.5 -176q0 -113 -72.5 -179.5t-199.5 -66.5h-139zM164 73h58q91 0 133.5 47t42.5 125q0 168 -180 168h-54v-135h114v-64h-114v-141z" />
    <glyph glyph-name="Thorn.small" horiz-adv-x="424" 
d="M76 0v486h88v-77h48q83 0 129 -42.5t46 -115.5t-47.5 -117t-135.5 -44h-40v-90h-88zM164 159h43q47 0 70 24.5t23 66.5q0 41 -22.5 65t-68.5 24h-45v-180z" />
    <glyph glyph-name="a.superior" horiz-adv-x="357" 
d="M250 270l-10 32q-45 -39 -98 -39q-48 0 -79 28.5t-31 77.5q0 52 38 79.5t110 29.5l53 2v13q0 29 -18.5 43.5t-48.5 14.5q-45 0 -90 -24l-27 48q55 36 125 36q129 0 129 -122v-113q0 -73 10 -106h-63zM233 357v69l-51 -2q-77 -2 -77 -51q0 -22 14 -36t38 -14q39 0 76 34z
" />
    <glyph glyph-name="b.superior" horiz-adv-x="371" 
d="M50 287v476h70v-164q33 12 66 12q68 0 112.5 -43.5t44.5 -120.5q0 -85 -53 -134.5t-135 -49.5q-61 0 -105 24zM120 331q17 -7 41 -7q50 0 80 32t30 87q0 48 -24.5 77.5t-69.5 29.5q-26 0 -57 -13v-206z" />
    <glyph glyph-name="c.superior" horiz-adv-x="323" 
d="M284 348l21 -54q-48 -31 -110 -31q-78 0 -122.5 48t-44.5 120q0 77 47.5 128.5t121.5 51.5q49 0 93 -22l-1 -64q-39 25 -83 25q-47 0 -76 -31.5t-29 -81.5q0 -53 27.5 -83t74.5 -30q39 0 81 24z" />
    <glyph glyph-name="d.superior" horiz-adv-x="374" 
d="M324 763v-475q-50 -25 -116 -25q-79 0 -129.5 45t-50.5 126q0 79 50 128t125 49q29 0 51 -6v158h70zM254 331v212q-20 7 -44 7q-47 0 -78 -31.5t-31 -83.5q0 -51 29 -81t81 -30q22 0 43 7z" />
    <glyph glyph-name="e.superior" horiz-adv-x="345" 
d="M284 347l22 -54q-54 -30 -114 -30q-80 0 -122 51t-42 127q0 74 40.5 122t105.5 48t102.5 -47t37.5 -127v-19h-214q2 -42 28.5 -68t69.5 -26q42 0 86 23zM99 474h143q-2 33 -19.5 56t-49.5 23t-52 -23t-22 -56z" />
    <glyph glyph-name="f.superior" horiz-adv-x="232" 
d="M65 270v274h-45v58h45v47q0 59 30.5 86.5t73.5 27.5q34 0 63 -15l-15 -57q-23 9 -41 9q-40 0 -40 -47v-51h87l-21 -58h-66v-274h-71z" />
    <glyph glyph-name="g.superior" horiz-adv-x="349" 
d="M172 164q41 0 67 12.5t26 33.5q0 20 -25 29.5t-67.5 15.5t-57.5 11q-35 -22 -35 -48t25 -40t67 -14zM171 423q29 0 47.5 17t18.5 47q0 28 -18.5 46t-47.5 18q-30 0 -48 -18t-18 -46q0 -29 18 -46.5t48 -17.5zM70 290q-18 16 -18 40q0 34 33 60q-49 33 -49 97q0 53 36 88
t96 35q40 0 66 -14q26 29 78 29q16 0 25 -3l-16 -56q-9 3 -22 3q-14 0 -23 -3q30 -31 30 -81q0 -55 -37.5 -88t-95.5 -33q-23 0 -45 6q-12 -16 -12 -27q0 -17 34 -26t75 -13.5t75 -26t34 -60.5q0 -48 -45 -78t-122 -30q-73 0 -113.5 28t-40.5 71q0 54 57 82z" />
    <glyph glyph-name="h.superior" horiz-adv-x="383" 
d="M50 270v493h70v-195q55 43 110 43q45 0 75 -30t30 -90v-221h-70v204q0 73 -53 73q-38 0 -92 -40v-237h-70z" />
    <glyph glyph-name="i.superior" horiz-adv-x="178" 
d="M53 270v332h71v-332h-71zM89 656q-19 0 -31.5 13t-12.5 31t12.5 31t31.5 13q18 0 31 -12.5t13 -31.5q0 -18 -13 -31t-31 -13z" />
    <glyph glyph-name="j.superior" horiz-adv-x="189" 
d="M-35 121l17 59q17 -8 37 -8q23 0 33 13t10 42v375h70v-381q0 -56 -30 -84t-76 -28q-33 0 -61 12zM97 656q-19 0 -31.5 13t-12.5 31t12.5 31t31.5 13q18 0 31 -12.5t13 -31.5q0 -18 -13 -31t-31 -13z" />
    <glyph glyph-name="k.superior" horiz-adv-x="341" 
d="M50 270v493h70v-278l112 117h86l-135 -146l145 -186h-85l-123 160v-160h-70z" />
    <glyph glyph-name="l.superior" horiz-adv-x="204" 
d="M165 334l14 -56q-24 -12 -56 -12q-35 0 -54 19t-19 53v425h70v-407q0 -28 21 -28q13 0 24 6z" />
    <glyph glyph-name="m.superior" horiz-adv-x="590" 
d="M50 270v332h60l6 -37q56 46 113 46q61 0 87 -53q61 53 123 53q44 0 73.5 -30t29.5 -90v-221h-71v204q0 73 -51 73q-40 0 -90 -40q1 -5 1 -19v-218h-70v204q0 73 -52 73q-39 0 -89 -40v-237h-70z" />
    <glyph glyph-name="o.superior" horiz-adv-x="380" 
d="M190 263q-72 0 -117 49.5t-45 124.5t45 124.5t117 49.5t117 -49.5t45 -124.5t-45 -124.5t-117 -49.5zM190 324q41 0 65.5 31.5t24.5 81.5t-24.5 81.5t-65.5 31.5t-65 -31.5t-24 -81.5t24 -81.5t65 -31.5z" />
    <glyph glyph-name="p.superior" horiz-adv-x="374" 
d="M50 109v481q60 21 118 21q86 0 132 -45.5t46 -127.5q0 -79 -48 -127t-125 -48q-28 0 -53 9v-163h-70zM120 335q22 -11 49 -11q49 0 76.5 31t27.5 84q0 55 -29 83t-76 28q-24 0 -48 -7v-208z" />
    <glyph glyph-name="q.superior" horiz-adv-x="375" 
d="M255 109v173q-35 -19 -79 -19q-61 0 -104.5 44t-43.5 122q0 85 52.5 133.5t134.5 48.5q60 0 110 -21v-481h-70zM255 346v197q-21 7 -45 7q-50 0 -80 -32.5t-30 -85.5q0 -49 24.5 -78.5t63.5 -29.5q37 0 67 22z" />
    <glyph glyph-name="r.superior" horiz-adv-x="253" 
d="M50 270v332h60l6 -34q43 43 86 43q28 0 48 -14l-26 -61q-18 9 -32 9q-31 0 -72 -39v-236h-70z" />
    <glyph glyph-name="s.superior" horiz-adv-x="299" 
d="M25 294l24 55q44 -27 87 -27q62 0 62 41q0 15 -16 26.5t-38.5 20.5t-45 20t-38.5 32.5t-16 51.5q0 42 31.5 69.5t86.5 27.5q49 0 93 -17v-63q-47 21 -90 21q-51 0 -51 -35q0 -16 16 -27t39 -19.5t45.5 -20t38.5 -33.5t16 -53q0 -49 -37 -75t-93 -26q-65 0 -114 31z" />
    <glyph glyph-name="t.superior" horiz-adv-x="268" 
d="M226 345l22 -54q-42 -28 -91 -28q-42 0 -64.5 21.5t-22.5 60.5v199h-57v58h57v73l70 21v-94h102l-21 -58h-81v-184q0 -34 31 -34q27 0 55 19z" />
    <glyph glyph-name="u.superior" horiz-adv-x="379" 
d="M333 270h-64l-9 33q-53 -40 -103 -40q-46 0 -77.5 30t-31.5 91v218h70v-204q0 -72 55 -72q47 0 81 36v240h70v-227q0 -72 9 -105z" />
    <glyph glyph-name="v.superior" horiz-adv-x="329" 
d="M133 268l-130 334h74l86 -243h2l86 243h74l-129 -334h-63z" />
    <glyph glyph-name="w.superior" horiz-adv-x="506" 
d="M119 268l-115 334h74l71 -238h2l68 238h68l67 -238h2l72 238h74l-115 -334h-63l-70 239h-2l-71 -239h-62z" />
    <glyph glyph-name="x.superior" horiz-adv-x="330" 
d="M7 270l119 166l-117 166h75l80 -116l82 116h75l-117 -166l119 -166h-77l-82 117l-80 -117h-77z" />
    <glyph glyph-name="y.superior" horiz-adv-x="345" 
d="M-14 124l19 60q26 -12 49 -12q32 0 55.5 23t41.5 80l-144 327h75l100 -240h2l84 240h74l-128 -349q-31 -86 -69 -115t-88 -29q-38 0 -71 15z" />
    <glyph glyph-name="z.superior" horiz-adv-x="299" 
d="M13 270l160 274h-133l-16 58h258l-159 -274h156v-58h-266z" />
    <glyph glyph-name="ampersand.small" horiz-adv-x="541" 
d="M355 51q-79 -59 -163 -59q-72 0 -113.5 40t-41.5 99q0 94 101 143q-30 34 -42.5 57t-12.5 52q0 47 36.5 79t97.5 32q62 0 99 -31t37 -80q0 -76 -101 -128q75 -84 105 -112q42 47 66 111l68 -19q-28 -79 -82 -136q45 -37 80 -37q13 0 20 3l17 -62q-24 -8 -49 -8
q-54 0 -122 56zM202 59q52 0 99 36q-68 64 -121 129q-61 -29 -61 -85q0 -36 22.5 -58t60.5 -22zM208 304q63 31 63 77q0 22 -15 36t-38 14q-27 0 -40 -14.5t-13 -34.5q0 -32 43 -78z" />
    <glyph glyph-name="grave.cap" horiz-adv-x="368" 
d="M164 696l-89 147h100l58 -147h-69z" />
    <glyph glyph-name="acute.cap" horiz-adv-x="368" 
d="M135 696l58 147h100l-89 -147h-69z" />
    <glyph glyph-name="circumflex.cap" horiz-adv-x="368" 
d="M45 696l99 147h78l99 -147h-73l-65 93l-65 -93h-73z" />
    <glyph glyph-name="caron.cap" horiz-adv-x="368" 
d="M145 696l-100 147h74l66 -93l64 93h72l-98 -147h-78z" />
    <glyph glyph-name="tilde.cap" horiz-adv-x="368" 
d="M39 724v28q0 36 21.5 57t53.5 21q30 0 72 -23t56 -23q25 0 25 40h61v-27q0 -37 -21 -58t-53 -21q-30 0 -72.5 23.5t-56.5 23.5q-25 0 -25 -41h-61z" />
    <glyph glyph-name="dieresis.cap" horiz-adv-x="368" 
d="M93 704q-20 0 -34.5 14.5t-14.5 35.5q0 20 14.5 34.5t34.5 14.5t34.5 -14.5t14.5 -34.5q0 -21 -14.5 -35.5t-34.5 -14.5zM275 704q-21 0 -35.5 14.5t-14.5 35.5q0 20 14.5 34.5t35.5 14.5q20 0 34.5 -14.5t14.5 -34.5q0 -21 -14.5 -35.5t-34.5 -14.5z" />
    <glyph glyph-name="macron.cap" horiz-adv-x="368" 
d="M54 713v69h260v-69h-260z" />
    <glyph glyph-name="breve.cap" horiz-adv-x="368" 
d="M253 828h63q-4 -59 -39.5 -93.5t-93.5 -34.5t-92.5 34t-38.5 94h63q9 -68 69 -68t69 68z" />
    <glyph glyph-name="ring.cap" horiz-adv-x="368" 
d="M184 653q-48 0 -77.5 26t-29.5 70q0 43 29.5 69.5t77.5 26.5t77.5 -26.5t29.5 -69.5q0 -44 -29.5 -70t-77.5 -26zM184 697q21 0 33.5 14t12.5 38t-12.5 37.5t-33.5 13.5t-34 -13.5t-13 -37.5t13 -38t34 -14z" />
    <glyph glyph-name="hungarumlaut.cap" horiz-adv-x="368" 
d="M78 696l58 147h101l-90 -147h-69zM243 696l58 147h100l-89 -147h-69z" />
    <glyph glyph-name="dotaccent.cap" horiz-adv-x="368" 
d="M183 704q-24 0 -40 16.5t-16 40.5t16 40t40 16q25 0 41 -16t16 -40t-16 -40.5t-41 -16.5z" />
    <glyph glyph-name="hyphen.cap" horiz-adv-x="359" 
d="M53 297v76h254v-76h-254z" />
    <glyph glyph-name="exclamdown.cap" horiz-adv-x="267" 
d="M134 553q-22 0 -38 16.5t-16 39.5t15.5 39t38.5 16q22 0 37.5 -16t15.5 -39t-15.5 -39.5t-37.5 -16.5zM90 -1v50q0 196 3 268.5t17 158.5h48q13 -86 16 -159t3 -269v-49h-87z" />
    <glyph glyph-name="exclam.small" horiz-adv-x="239" 
d="M96 153q-9 50 -13 100t-4.5 81t-0.5 114v38h84v-38q0 -191 -18 -295h-48zM120 -8q-21 0 -35.5 15t-14.5 36q0 22 14.5 37t35.5 15q20 0 34.5 -15t14.5 -37q0 -21 -14.5 -36t-34.5 -15z" />
    <glyph glyph-name="exclamdown.small" horiz-adv-x="239" 
d="M120 391q-21 0 -35.5 15t-14.5 37q0 21 14.5 36t35.5 15q20 0 34.5 -15t14.5 -36q0 -22 -14.5 -37t-34.5 -15zM77 0v38q0 76 0.5 111.5t5 84t13.5 98.5h48q18 -104 18 -294v-38h-85z" />
    <glyph glyph-name="questiondown.cap" horiz-adv-x="459" 
d="M266 552q-23 0 -38.5 16t-15.5 39t16 39.5t38 16.5t37.5 -16.5t15.5 -39.5t-15.5 -39t-37.5 -16zM363 123l41 -58q-81 -75 -184 -75q-78 0 -122 39.5t-44 101.5q0 48 31.5 88t69 62.5t69 51t31.5 56.5q0 27 -20 50l72 35q36 -39 36 -87q0 -33 -20 -62t-48.5 -49.5
l-56.5 -40t-48 -44t-20 -52.5q0 -35 22.5 -54t59.5 -19q68 0 131 57z" />
    <glyph glyph-name="question.small" horiz-adv-x="358" 
d="M122 148q-28 28 -28 60q0 25 14.5 45t35.5 33.5t42 25.5t35.5 28t14.5 34q0 23 -16.5 37.5t-43.5 14.5q-47 0 -99 -41l-38 52q62 57 147 57q61 0 98 -30.5t37 -80.5q0 -36 -23 -65t-50.5 -43.5t-50.5 -32t-23 -33.5t14 -28zM157 -8q-21 0 -35.5 15t-14.5 36q0 22 14.5 37
t35.5 15t35 -15t14 -37q0 -21 -14 -36t-35 -15z" />
    <glyph glyph-name="questiondown.small" horiz-adv-x="358" 
d="M199 391q-21 0 -35 15t-14 37q0 21 14 36t35 15t35 -15t14 -36q0 -22 -14 -37t-35 -15zM278 99l39 -52q-63 -57 -147 -57q-61 0 -98.5 30.5t-37.5 80.5q0 36 23 65t51 43.5t51 32t23 33.5t-14 28l65 33q28 -26 28 -60q0 -30 -22 -54.5t-48.5 -37.5t-48.5 -32.5t-22 -41.5
q0 -23 16.5 -37.5t42.5 -14.5q48 0 99 41z" />
    <glyph glyph-name="quoteleft.small" horiz-adv-x="227" 
d="M97 274q-36 66 -36 132q0 64 37 138l52 -11q-12 -45 -12 -84q0 -62 36 -136z" />
    <glyph glyph-name="quoteright.small" horiz-adv-x="227" 
d="M42 308q46 76 46 152q0 33 -6 66l85 16q7 -29 7 -63q0 -107 -85 -196z" />
    <glyph glyph-name="quotedblleft.small" horiz-adv-x="395" 
d="M97 274q-36 66 -36 132q0 64 37 138l52 -11q-12 -45 -12 -84q0 -62 36 -136zM265 274q-36 66 -36 132q0 64 37 138l52 -11q-12 -45 -12 -84q0 -62 36 -136z" />
    <glyph glyph-name="quotedblright.small" horiz-adv-x="395" 
d="M42 308q46 76 46 152q0 33 -6 66l85 16q7 -29 7 -63q0 -107 -85 -196zM211 308q45 76 45 152q0 33 -6 66l86 16q6 -32 6 -63q0 -106 -84 -196z" />
    <glyph glyph-name="guilsinglleft.cap" horiz-adv-x="347" 
d="M211 100l-167 228l167 229l71 -40l-138 -189l138 -188z" />
    <glyph glyph-name="guilsinglright.cap" horiz-adv-x="347" 
d="M64 140l138 188l-138 189l70 40l167 -229l-167 -228z" />
    <glyph glyph-name="guillemotleft.cap" horiz-adv-x="569" 
d="M211 100l-167 228l167 229l71 -40l-138 -189l138 -188zM433 100l-167 228l167 229l70 -40l-138 -189l138 -188z" />
    <glyph glyph-name="guillemotright.cap" horiz-adv-x="569" 
d="M64 140l138 188l-138 189l70 40l168 -229l-168 -228zM286 140l138 188l-138 189l70 40l167 -229l-167 -228z" />
    <glyph glyph-name="endash.cap" horiz-adv-x="450" 
d="M0 306v68h450v-68h-450z" />
    <glyph glyph-name="emdash.cap" horiz-adv-x="800" 
d="M0 306v68h800v-68h-800z" />
    <glyph glyph-name="periodcentered.cap" horiz-adv-x="223" 
d="M110 261q-22 0 -38 16.5t-16 39.5t16 39t38 16t38 -16t16 -39t-16 -39.5t-38 -16.5z" />
    <glyph glyph-name="parenleft.cap" horiz-adv-x="324" 
d="M239 -182q-91 104 -127 228.5t-36 275.5t36 275.5t127 229.5l60 -43q-71 -97 -101 -198t-30 -264t29.5 -264t100.5 -196z" />
    <glyph glyph-name="parenright.cap" horiz-adv-x="324" 
d="M26 -138q71 95 100.5 196t29.5 264t-29.5 264t-100.5 198l59 43q91 -104 127 -229t36 -276t-36 -275.5t-126 -228.5z" />
    <glyph glyph-name="parenleft.small" horiz-adv-x="286" 
d="M207 -152q-76 88 -105.5 183t-29.5 211t29.5 211t105.5 183l53 -44q-57 -74 -81 -150.5t-24 -199.5t24 -199.5t81 -150.5z" />
    <glyph glyph-name="parenright.small" horiz-adv-x="286" 
d="M25 -108q58 74 81.5 150.5t23.5 199.5t-23.5 199.5t-81.5 150.5l54 44q76 -88 105.5 -183t29.5 -211t-29.5 -211t-105.5 -183z" />
    <glyph glyph-name="bracketleft.cap" horiz-adv-x="285" 
d="M80 -179v1005h180v-69h-97v-868h97v-68h-180z" />
    <glyph glyph-name="bracketright.cap" horiz-adv-x="285" 
d="M26 -179v68h98v868h-98v69h181v-1005h-181z" />
    <glyph glyph-name="bracketleft.small" horiz-adv-x="259" 
d="M76 -147v778h162v-64h-86v-650h86v-64h-162z" />
    <glyph glyph-name="bracketright.small" horiz-adv-x="259" 
d="M184 -147h-162v64h85v650h-85v64h162v-778z" />
    <glyph glyph-name="braceleft.cap" horiz-adv-x="328" 
d="M278 -170q-89 11 -125 54.5t-36 119.5v217q0 70 -67 73v66q67 3 67 73v217q0 76 36 119.5t125 54.5l17 -80q-50 -7 -71.5 -32t-21.5 -73v-191q0 -108 -70 -120v-2q70 -12 70 -120v-191q0 -48 21.5 -73t71.5 -32z" />
    <glyph glyph-name="braceright.cap" horiz-adv-x="328" 
d="M35 -90q49 7 70.5 32t21.5 73v191q0 108 71 120v2q-71 12 -71 120v191q0 48 -21.5 73t-70.5 32l16 80q90 -11 126 -54.5t36 -119.5v-217q0 -70 67 -73v-66q-67 -3 -67 -73v-217q0 -76 -36 -119.5t-126 -54.5z" />
    <glyph glyph-name="braceleft.small" horiz-adv-x="269" 
d="M233 -159q-77 9 -108 45.5t-31 100.5v166q0 53 -55 56v60q55 3 55 56v165q0 64 31 100.5t108 45.5l15 -71q-76 -11 -76 -85v-142q0 -82 -55 -98v-2q55 -16 55 -98v-143q0 -74 76 -85z" />
    <glyph glyph-name="braceright.small" horiz-adv-x="269" 
d="M21 -88q76 11 76 85v143q0 82 55 98v2q-55 16 -55 98v142q0 74 -76 85l16 71q77 -9 107.5 -45.5t30.5 -100.5v-165q0 -53 56 -56v-60q-56 -3 -56 -56v-166q0 -64 -30.5 -100.5t-107.5 -45.5z" />
    <glyph glyph-name="at.cap" horiz-adv-x="771" 
d="M479 53l18 -55q-69 -27 -153 -27q-135 0 -221.5 90.5t-86.5 239.5q0 171 105.5 275.5t257.5 104.5q147 0 241 -87t94 -229q0 -109 -47 -167t-121 -58q-40 0 -66 22t-32 62h-2q-15 -32 -52.5 -57t-84.5 -25q-52 0 -90 37.5t-38 118.5q0 98 59 160.5t148 62.5q75 0 141 -40
l-21 -161q-4 -38 -4 -52q0 -68 50 -68q42 0 68 43.5t26 117.5q0 110 -70.5 186t-200.5 76q-125 0 -209.5 -86.5t-84.5 -230.5q0 -131 70.5 -204t178.5 -73q74 0 127 24zM462 364l10 79q-29 19 -65 19q-55 0 -92 -45t-37 -117q0 -97 67 -97q41 0 74 37.5t43 123.5z" />
    <glyph glyph-name="at.small" horiz-adv-x="646" 
d="M405 16l18 -51q-59 -25 -133 -25q-116 0 -190.5 77.5t-74.5 204.5q0 146 89 235t218 89q125 0 206 -74.5t81 -195.5q0 -93 -41.5 -144t-104.5 -51q-34 0 -57 18.5t-29 51.5h-2q-39 -69 -111 -69q-48 0 -76.5 33.5t-28.5 99.5q0 87 50 143t122 56q65 0 124 -35l-25 -141
q-4 -26 -4 -44q0 -56 41 -56q34 0 56.5 38t22.5 97q0 93 -57.5 155.5t-165.5 62.5q-105 0 -175 -72.5t-70 -193.5q0 -108 58 -169t149 -61q62 0 110 21zM381 277l12 68q-26 14 -52 14q-45 0 -74.5 -39.5t-29.5 -101.5q0 -37 14 -58.5t37 -21.5q69 0 93 139z" />
    <glyph glyph-name="copyright.small" horiz-adv-x="656" 
d="M328 -43q-122 0 -202.5 82.5t-80.5 204.5t80.5 204.5t202.5 82.5t202 -82.5t80 -204.5t-80 -204.5t-202 -82.5zM328 4q98 0 163.5 68.5t65.5 171.5t-65.5 171.5t-163.5 68.5t-163.5 -68.5t-65.5 -171.5t65.5 -171.5t163.5 -68.5zM410 161l18 -44q-44 -29 -97 -29
q-65 0 -104 43t-39 109q0 65 41 111.5t107 46.5q46 0 80 -19v-54q-38 23 -77 23q-43 0 -69 -29.5t-26 -74.5q0 -49 24.5 -77.5t67.5 -28.5q34 0 74 23z" />
    <glyph glyph-name="uni2117.small" horiz-adv-x="656" 
d="M328 -43q-122 0 -202.5 82.5t-80.5 204.5t80.5 204.5t202.5 82.5t202 -82.5t80 -204.5t-80 -204.5t-202 -82.5zM328 4q98 0 163.5 68.5t65.5 171.5t-65.5 171.5t-163.5 68.5t-163.5 -68.5t-65.5 -171.5t65.5 -171.5t163.5 -68.5zM241 92v302h93q55 0 85.5 -26t30.5 -72
t-31.5 -74.5t-89.5 -28.5h-33v-101h-55zM296 241h34q64 0 64 54q0 51 -62 51h-36v-105z" />
    <glyph glyph-name="Euro.LT" horiz-adv-x="530" 
d="M476 104l34 -71q-69 -43 -160 -43q-107 0 -171.5 60t-85.5 163h-70v62h62q-2 30 -2 47q0 30 3 58h-63v61h74q27 102 93.5 163t163.5 61q77 0 134 -33v-85q-67 38 -125 38q-63 0 -106.5 -38t-62.5 -106h261l-22 -61h-253q-3 -30 -3 -54t3 -51h246l-22 -62h-212
q18 -67 59.5 -106.5t104.5 -39.5q61 0 120 37z" />
    <glyph glyph-name="dollar.LT" horiz-adv-x="530" 
d="M217 -82v100q-79 5 -146 48l35 66q65 -42 135 -42q47 0 80.5 20t33.5 65q0 37 -28 66.5t-67.5 51l-79 45t-67.5 62t-28 89.5q0 58 40 102.5t110 53.5v96h68v-94q67 -6 114 -30v-76q-68 35 -139 35q-46 0 -73.5 -20.5t-27.5 -60.5q0 -30 20 -54.5t50 -41t64.5 -37.5
t64.5 -42.5t50 -57t20 -79.5q0 -65 -43 -108.5t-117 -55.5v-101h-69z" />
    <glyph glyph-name="sterling.LT" horiz-adv-x="530" 
d="M66 0v60q91 39 91 240h-76v73h76v79q0 63 20 108t52.5 66t63 30t63.5 9q59 0 117 -22l-19 -72q-41 18 -87 18q-54 0 -88.5 -34.5t-34.5 -111.5v-70h190l-24 -73h-166q0 -166 -65 -231v-2q48 6 106 6h186v-73h-405z" />
    <glyph glyph-name="yen.LT" horiz-adv-x="530" 
d="M221 0v119h-156v62h156v81h-156v61h128l-161 336h95l137 -312h2l137 312h94l-160 -336h127v-61h-155v-81h155v-62h-155v-119h-88z" />
    <glyph glyph-name="zero.LT" horiz-adv-x="530" 
d="M263 -10q-103 0 -164 88.5t-61 249.5q0 162 61.5 249.5t165.5 87.5q103 0 165 -89t62 -251q0 -160 -62.5 -247.5t-166.5 -87.5zM266 66q68 0 100 69t32 187q0 129 -34.5 198t-100.5 69q-68 0 -100 -69t-32 -187q0 -129 34.5 -198t100.5 -69z" />
    <glyph glyph-name="one.LT" horiz-adv-x="530" 
d="M287 0v570l-183 -86l-31 70l231 110h70v-664h-87z" />
    <glyph glyph-name="two.LT" horiz-adv-x="530" 
d="M48 0q6 70 27 127t50.5 94t63 67.5t66.5 53.5t59.5 44.5t43 48t16.5 57.5q0 49 -32 73t-81 24q-78 0 -164 -45l-26 69q96 52 199 52q96 0 146.5 -46t50.5 -120q0 -46 -20 -84.5t-51 -64l-68.5 -55l-71 -57t-60.5 -70.5t-36 -95h308v-73h-420z" />
    <glyph glyph-name="three.LT" horiz-adv-x="530" 
d="M44 24l25 72q64 -30 143 -30q75 0 120 30.5t45 91.5q0 80 -86 101q-31 7 -84 7h-77v73h64q165 0 165 116q0 48 -29 76t-86 28q-76 0 -158 -45l-25 69q91 52 192 52q96 0 147 -49.5t51 -123.5q0 -106 -104 -149v-2q58 -11 90.5 -50.5t32.5 -100.5q0 -88 -65 -144t-191 -56
q-94 0 -170 34z" />
    <glyph glyph-name="four.LT" horiz-adv-x="530" 
d="M44 171v62l306 431h64v-420h91v-73h-91v-171h-87v171h-283zM138 243q9 0 38.5 0.5t42.5 0.5h108v138q0 82 6 142z" />
    <glyph glyph-name="five.LT" horiz-adv-x="530" 
d="M57 20l25 72q55 -26 124 -26q72 0 118 34.5t46 99.5q0 81 -75 110q-38 14 -117 14h-75v335h361l-19 -73h-255v-190h26q77 0 121 -16q126 -46 126 -177q0 -94 -64.5 -153.5t-192.5 -59.5q-87 0 -149 30z" />
    <glyph glyph-name="six.LT" horiz-adv-x="530" 
d="M281 -10q-103 0 -169.5 79t-66.5 233t78 258.5t208 104.5q67 0 129 -28l-24 -71q-49 25 -101 25q-78 0 -132 -59.5t-66 -168.5q76 50 161 50q86 0 142 -54t56 -149q0 -101 -60 -160.5t-155 -59.5zM281 64q58 0 90 35t32 101q0 65 -34 102t-89 37q-77 0 -141 -51
q0 -102 39.5 -163t102.5 -61z" />
    <glyph glyph-name="seven.LT" horiz-adv-x="530" 
d="M133 0q62 326 253 586h-292l-21 73h431v-35q-213 -270 -278 -624h-93z" />
    <glyph glyph-name="eight.LT" horiz-adv-x="530" 
d="M269 -10q-105 0 -164 48.5t-59 131.5q0 61 35 105t90 64v2q-105 50 -105 149q0 77 57 126t152 49q94 0 148 -49.5t54 -119.5q0 -103 -105 -153v-2q128 -47 128 -164q0 -82 -62 -134.5t-169 -52.5zM273 62q56 0 95 29t39 80q0 30 -12.5 52.5t-39 38t-48 23.5t-59.5 20
q-45 -15 -76.5 -47t-31.5 -78q0 -58 38 -88t95 -30zM293 374q91 38 91 116q0 44 -30.5 73.5t-81.5 29.5q-49 0 -81 -26.5t-32 -70.5q0 -50 36 -77.5t98 -44.5z" />
    <glyph glyph-name="nine.LT" horiz-adv-x="530" 
d="M207 -10q-76 0 -143 29l23 72q59 -27 120 -27q86 0 135 59.5t57 173.5h-1q-68 -56 -154 -56q-81 0 -139.5 51t-58.5 153q0 97 60 158.5t153 61.5q107 0 169.5 -79t62.5 -233q0 -171 -73 -267t-211 -96zM263 315q39 0 76.5 19.5t59.5 48.5q-1 94 -39.5 151t-102.5 57
q-54 0 -86.5 -39t-32.5 -100q0 -64 32.5 -100.5t92.5 -36.5z" />
    <glyph glyph-name="Euro.OP" 
d="M447 92l27 -64q-62 -38 -139 -38q-83 0 -139.5 44t-77.5 125h-61v57h51q-1 12 -1 35q0 27 2 42h-52v57h63q24 81 82.5 125t136.5 44q69 0 121 -27v-75q-56 31 -115 31q-97 0 -134 -98h214l-21 -57h-207q-3 -21 -3 -40q0 -22 2 -37h206l-22 -57h-171q16 -48 50.5 -73
t80.5 -25q58 0 107 31z" />
    <glyph glyph-name="dollar.OP" 
d="M222 -64v79q-72 4 -131 36l28 64q55 -32 124 -32q42 0 71 15.5t29 49.5q0 28 -24.5 48t-59 33t-69 28.5t-59 45t-24.5 72.5q0 49 33.5 82.5t94.5 41.5v74h66v-72q49 -3 104 -21v-76q-61 29 -124 29q-36 0 -62 -12.5t-26 -41.5q0 -26 24.5 -44t59.5 -30.5t69.5 -28.5
t59 -46.5t24.5 -75.5q0 -58 -38.5 -93.5t-103.5 -44.5v-80h-66z" />
    <glyph glyph-name="sterling.OP" 
d="M88 0v55q65 29 68 173h-59v64h59v60q0 74 47.5 120.5t130.5 46.5q59 0 109 -20l-17 -70q-41 18 -84 18q-42 0 -70.5 -25t-28.5 -80v-50h167l-23 -64h-144q-3 -110 -42 -162l1 -2q30 3 73 3h165v-67h-352z" />
    <glyph glyph-name="yen.OP" 
d="M219 0v86h-120v60h120v61h-120v61h88l-128 242h90l113 -224h1l113 224h89l-128 -242h88v-61h-120v-61h120v-60h-120v-86h-86z" />
    <glyph glyph-name="zero.OP" horiz-adv-x="524" 
d="M262 -10q-97 0 -154.5 70t-57.5 183q0 112 57.5 181.5t154.5 69.5t154.5 -69.5t57.5 -181.5q0 -113 -57.5 -183t-154.5 -70zM262 63q62 0 91.5 48.5t29.5 131.5q0 82 -29.5 130t-91.5 48t-91.5 -48t-29.5 -130q0 -83 29.5 -131.5t91.5 -48.5z" />
    <glyph glyph-name="one.OP" horiz-adv-x="416" 
d="M210 0v398l-136 -65l-28 67l180 86h71v-486h-87z" />
    <glyph glyph-name="two.OP" horiz-adv-x="488" 
d="M51 0q7 67 37 117.5t68.5 79t75.5 52t62.5 49.5t25.5 58q0 30 -24 48t-65 18q-70 0 -142 -46l-30 64q84 54 187 54q77 0 121 -36.5t44 -99.5q0 -39 -21.5 -70.5t-53.5 -54.5l-65.5 -45t-63 -52t-39.5 -65h253v-71h-370z" />
    <glyph glyph-name="three.OP" horiz-adv-x="508" 
d="M32 -177l19 71q51 -17 115 -17q78 0 129.5 34.5t51.5 102.5q0 106 -157 106h-87v69h23q54 0 94 10q112 28 112 123q0 48 -30.5 74t-74.5 26q-65 0 -150 -46l-30 63q90 55 190 55q85 0 135.5 -46t50.5 -117q0 -59 -31.5 -99.5t-76.5 -58.5v-2q59 -10 91 -52t32 -101
q0 -37 -12.5 -71.5t-41 -68t-85 -53.5t-134.5 -20q-81 0 -133 18z" />
    <glyph glyph-name="four.OP" 
d="M33 0v54l300 432h69v-415h93v-71h-93v-168l-87 -27v195h-282zM124 68q13 0 42 1t43 1h106v137q0 83 5 145z" />
    <glyph glyph-name="five.OP" horiz-adv-x="475" 
d="M19 -175l20 71q49 -19 108 -19q85 0 134.5 41.5t49.5 109.5q0 65 -45 94q-43 27 -138 27h-67l31 337h338l-18 -71h-239l-18 -198h20q87 0 144 -30q83 -47 83 -153q0 -41 -14 -79t-43.5 -73t-85.5 -56t-131 -21q-78 0 -129 20z" />
    <glyph glyph-name="six.OP" horiz-adv-x="543" 
d="M275 -10q-96 0 -158 69.5t-62 203.5q0 157 95 269.5t256 147.5l17 -70q-102 -24 -174 -87t-91 -160l1 -1q69 53 148 53q80 0 134.5 -52.5t54.5 -149.5q0 -101 -62 -162t-159 -61zM280 63q57 0 91 39t34 105q0 61 -31.5 97.5t-86.5 36.5q-74 0 -139 -59q-2 -8 -2 -28
q0 -92 38.5 -141.5t95.5 -49.5z" />
    <glyph glyph-name="seven.OP" horiz-adv-x="463" 
d="M83 -197q33 175 99 334t147 278h-293l-19 71h428v-34q-192 -261 -264 -616z" />
    <glyph glyph-name="eight.OP" horiz-adv-x="551" 
d="M271 -10q-105 0 -163.5 48.5t-58.5 131.5q0 61 34.5 105t89.5 64v2q-105 50 -105 149q0 77 57.5 126t152.5 49q94 0 147.5 -49.5t53.5 -119.5q0 -103 -105 -153v-2q128 -47 128 -164q0 -82 -62 -134.5t-169 -52.5zM275 62q56 0 95 29t39 80q0 30 -12.5 52.5t-39 38
t-48 23.5t-59.5 20q-45 -15 -76.5 -47t-31.5 -78q0 -58 38 -88t95 -30zM295 374q91 38 91 116q0 44 -30.5 73.5t-81.5 29.5q-49 0 -81 -26.5t-32 -70.5q0 -50 36 -77.5t98 -44.5z" />
    <glyph glyph-name="nine.OP" horiz-adv-x="543" 
d="M128 -131q83 30 156 92.5t95 151.5l-2 1q-63 -45 -136 -45q-81 0 -137 53t-56 149q0 101 61.5 162t157.5 61q97 0 159 -69t62 -193q0 -150 -86.5 -263t-246.5 -167zM262 141q67 0 131 52q4 15 4 44q0 87 -38 135.5t-93 48.5q-58 0 -92.5 -39t-34.5 -105q0 -63 33 -99.5
t90 -36.5z" />
    <glyph glyph-name="Euro.OT" 
d="M447 92l27 -64q-62 -38 -139 -38q-83 0 -139.5 44t-77.5 125h-61v57h51q-1 12 -1 35q0 27 2 42h-52v57h63q24 81 82.5 125t136.5 44q69 0 121 -27v-75q-56 31 -115 31q-97 0 -134 -98h214l-21 -57h-207q-3 -21 -3 -40q0 -22 2 -37h206l-22 -57h-171q16 -48 50.5 -73
t80.5 -25q58 0 107 31z" />
    <glyph glyph-name="dollar.OT" 
d="M222 -64v79q-72 4 -131 36l28 64q55 -32 124 -32q42 0 71 15.5t29 49.5q0 28 -24.5 48t-59 33t-69 28.5t-59 45t-24.5 72.5q0 49 33.5 82.5t94.5 41.5v74h66v-72q49 -3 104 -21v-76q-61 29 -124 29q-36 0 -62 -12.5t-26 -41.5q0 -26 24.5 -44t59.5 -30.5t69.5 -28.5
t59 -46.5t24.5 -75.5q0 -58 -38.5 -93.5t-103.5 -44.5v-80h-66z" />
    <glyph glyph-name="sterling.OT" 
d="M88 0v55q65 29 68 173h-59v64h59v60q0 74 47.5 120.5t130.5 46.5q59 0 109 -20l-17 -70q-41 18 -84 18q-42 0 -70.5 -25t-28.5 -80v-50h167l-23 -64h-144q-3 -110 -42 -162l1 -2q30 3 73 3h165v-67h-352z" />
    <glyph glyph-name="yen.OT" 
d="M219 0v86h-120v60h120v61h-120v61h88l-128 242h90l113 -224h1l113 224h89l-128 -242h88v-61h-120v-61h120v-60h-120v-86h-86z" />
    <glyph glyph-name="zero.OT" 
d="M262 -10q-97 0 -155.5 70.5t-58.5 182.5q0 111 58.5 181t155.5 70t155.5 -70t58.5 -181q0 -112 -58.5 -182.5t-155.5 -70.5zM262 63q62 0 92.5 49t30.5 131q0 81 -30.5 129.5t-92.5 48.5t-92.5 -48.5t-30.5 -129.5q0 -82 30.5 -131t92.5 -49z" />
    <glyph glyph-name="one.OT" 
d="M286 0v398l-166 -74l-28 66l210 96h71v-486h-87z" />
    <glyph glyph-name="two.OT" 
d="M71 0q7 67 37 117.5t68.5 79t75.5 52t62.5 49.5t25.5 58q0 30 -23.5 48t-64.5 18q-71 0 -143 -46l-30 64q84 54 188 54q76 0 120 -36.5t44 -99.5q0 -39 -21.5 -70.5t-53.5 -54.5l-65.5 -45t-63 -52t-39.5 -65h254v-71h-371z" />
    <glyph glyph-name="three.OT" 
d="M45 -177l20 71q50 -17 114 -17q78 0 130 34t52 103q0 106 -158 106h-87v69h24q54 0 93 10q113 29 113 123q0 48 -30.5 74t-74.5 26q-67 0 -150 -46l-31 63q90 55 191 55q85 0 135.5 -46t50.5 -117q0 -59 -31.5 -99.5t-77.5 -58.5v-2q60 -10 92 -52t32 -101
q0 -37 -12.5 -71.5t-41 -68t-85.5 -53.5t-135 -20q-79 0 -133 18z" />
    <glyph glyph-name="four.OT" 
d="M33 0v54l300 432h69v-415h93v-71h-93v-168l-87 -27v195h-282zM124 68q13 0 42 1t43 1h106v137q0 83 5 145z" />
    <glyph glyph-name="five.OT" 
d="M38 -175l20 71q51 -19 108 -19q85 0 134.5 41.5t49.5 109.5q0 66 -45 94q-42 27 -138 27h-67l31 337h338l-17 -71h-240l-18 -198h20q89 0 144 -30q83 -47 83 -153q0 -41 -14 -79t-43.5 -73t-85.5 -56t-131 -21q-78 0 -129 20z" />
    <glyph glyph-name="six.OT" 
d="M266 -10q-96 0 -158 69.5t-62 203.5q0 157 95 269.5t256 147.5l17 -70q-102 -24 -173.5 -87t-91.5 -160l1 -1q69 53 148 53q80 0 134.5 -52.5t54.5 -149.5q0 -101 -62 -162t-159 -61zM271 63q57 0 91 39t34 105q0 61 -31.5 97.5t-86.5 36.5q-74 0 -139 -59q-1 -4 -1 -28
q0 -92 38.5 -141.5t94.5 -49.5z" />
    <glyph glyph-name="seven.OT" 
d="M120 -197q33 172 102 330t152 282h-298l-19 71h433v-34q-202 -277 -271 -616z" />
    <glyph glyph-name="eight.OT" 
d="M260 -10q-104 0 -163 48.5t-59 131.5q0 61 35 105t90 64v2q-105 50 -105 149q0 77 57 126t152 49q94 0 148 -49.5t54 -119.5q0 -104 -106 -153v-2q129 -47 129 -164q0 -82 -62.5 -134.5t-169.5 -52.5zM265 62q56 0 95 29t39 80q0 30 -12.5 52.5t-39.5 38t-48 23.5t-59 20
q-45 -15 -77 -47t-32 -78q0 -58 38.5 -88t95.5 -30zM285 374q90 38 90 116q0 44 -30 73.5t-82 29.5q-49 0 -80.5 -26.5t-31.5 -70.5q0 -50 36 -77.5t98 -44.5z" />
    <glyph glyph-name="nine.OT" 
d="M118 -131q83 30 156 92.5t95 151.5l-2 1q-63 -45 -137 -45q-80 0 -136.5 53t-56.5 149q0 101 62 162t158 61q97 0 159 -69t62 -193q0 -150 -86.5 -263t-246.5 -167zM251 141q68 0 132 52q4 15 4 44q0 87 -38 135.5t-93 48.5q-58 0 -93 -39.5t-35 -104.5q0 -63 33 -99.5
t90 -36.5z" />
    <glyph glyph-name="zero.dnom" horiz-adv-x="374" 
d="M186 -7q-65 0 -105 52t-40 147t40.5 147t106.5 52t106 -52.5t40 -148.5q0 -94 -40.5 -145.5t-107.5 -51.5zM188 53q36 0 53 38t17 98q0 66 -18.5 103.5t-53.5 37.5t-52 -38t-17 -97q0 -66 18.5 -104t52.5 -38z" />
    <glyph glyph-name="one.dnom" horiz-adv-x="332" 
d="M176 0v313l-118 -45l-26 56l158 65h58v-389h-72z" />
    <glyph glyph-name="two.dnom" horiz-adv-x="334" 
d="M27 0q2 52 22.5 93t48 65t54.5 43.5t45.5 39t18.5 41.5q0 21 -15.5 33.5t-41.5 12.5q-39 0 -97 -30l-22 56q69 37 131 37q58 0 90 -28.5t32 -74.5q0 -37 -24.5 -68t-55 -49.5t-60 -47t-36.5 -60.5h177v-63h-267z" />
    <glyph glyph-name="three.dnom" horiz-adv-x="336" 
d="M19 16l20 56q42 -19 87 -19q84 0 84 58q0 36 -37 48q-20 8 -60 8h-43v56h36q34 0 57 9q34 15 34 49q0 24 -16.5 36t-42.5 12q-38 0 -89 -22l-20 56q63 28 122 28q56 0 89.5 -28t33.5 -72q0 -65 -68 -90v-2q39 -7 60 -31t21 -62q0 -49 -40.5 -81t-117.5 -32q-64 0 -110 23
z" />
    <glyph glyph-name="four.dnom" horiz-adv-x="374" 
d="M32 86v46l192 257h66v-246h53v-57h-53v-86h-71v86h-187zM111 142q7 0 31.5 0.5t38.5 0.5h38v36q0 68 3 112z" />
    <glyph glyph-name="five.dnom" horiz-adv-x="340" 
d="M29 16l21 58q40 -21 85 -21q81 0 81 65q0 36 -33 51q-19 9 -67 9h-59v204h237l-16 -62h-149v-86h18q49 0 79 -12q67 -27 67 -103q0 -57 -40 -91.5t-116 -34.5q-65 0 -108 23z" />
    <glyph glyph-name="six.dnom" horiz-adv-x="354" 
d="M187 -7q-63 0 -104.5 46t-41.5 137q0 92 49 153.5t130 61.5q45 0 84 -18l-19 -57q-28 14 -62 14q-39 0 -67.5 -27.5t-36.5 -77.5h2q39 21 79 21q54 0 88 -33t34 -90q0 -59 -38.5 -94.5t-96.5 -35.5zM189 52q27 0 43.5 17.5t16.5 49.5q0 31 -18 49t-47 18q-32 0 -66 -24
q-1 -49 18.5 -79.5t52.5 -30.5z" />
    <glyph glyph-name="seven.dnom" horiz-adv-x="319" 
d="M57 0q42 181 148 320h-170l-16 62h281v-38q-120 -141 -162 -344h-81z" />
    <glyph glyph-name="eight.dnom" horiz-adv-x="374" 
d="M183 -7q-66 0 -104 28.5t-38 78.5q0 71 71 97v2q-58 28 -58 87q0 47 36 76t95 29q61 0 96.5 -29t35.5 -76q0 -61 -57 -85v-2q73 -25 73 -94q0 -51 -41.5 -81.5t-108.5 -30.5zM185 53q29 0 50 14t21 40q0 25 -21.5 40t-60.5 25q-58 -18 -58 -64q0 -26 20 -40.5t49 -14.5z
M194 224q49 20 49 60q0 20 -15.5 33.5t-41.5 13.5q-25 0 -41 -12.5t-16 -33.5q0 -42 65 -61z" />
    <glyph glyph-name="nine.dnom" horiz-adv-x="354" 
d="M136 -7q-54 0 -94 18l19 59q34 -17 73 -17q45 0 72.5 28t32.5 83h-2q-38 -27 -83 -27q-52 0 -87 30.5t-35 90.5q0 59 37.5 96t96.5 37q67 0 107 -48t40 -141q0 -97 -46.5 -153t-130.5 -56zM169 196q41 0 69 34q-1 48 -20.5 74.5t-51.5 26.5q-28 0 -44.5 -18.5
t-16.5 -48.5q0 -31 17 -49.5t47 -18.5z" />
    <glyph glyph-name="period.dnom" horiz-adv-x="189" 
d="M94 -8q-19 0 -32.5 13.5t-13.5 33.5t13.5 33.5t32.5 13.5t32.5 -14t13.5 -33t-13.5 -33t-32.5 -14z" />
    <glyph glyph-name="comma.dnom" horiz-adv-x="189" 
d="M25 -85q39 67 39 130q0 27 -6 56l73 13q5 -23 5 -54q0 -92 -72 -165z" />
    <glyph glyph-name="plus.dnom" horiz-adv-x="408" 
d="M172 30v132h-122v60h122v128h64v-128h123v-60h-123v-132h-64z" />
    <glyph glyph-name="minus.dnom" horiz-adv-x="408" 
d="M50 162v60h309v-60h-309z" />
    <glyph glyph-name="equal.dnom" horiz-adv-x="408" 
d="M50 227v59h309v-59h-309zM50 98v59h309v-59h-309z" />
    <glyph glyph-name="parenleft.dnom" horiz-adv-x="236" 
d="M154 -47q-102 90 -102 239t102 239l45 -35q-76 -84 -76 -204q0 -122 76 -204z" />
    <glyph glyph-name="parenright.dnom" horiz-adv-x="236" 
d="M37 -12q76 82 76 204q0 120 -76 204l45 35q102 -90 102 -239t-102 -239z" />
    <glyph glyph-name="zero.numr" horiz-adv-x="374" 
d="M186 260q-65 0 -105 52t-40 147t40.5 147t106.5 52t106 -52.5t40 -148.5q0 -94 -40.5 -145.5t-107.5 -51.5zM188 320q36 0 53 38t17 98q0 66 -18.5 103.5t-53.5 37.5t-52 -38t-17 -97q0 -66 18.5 -104t52.5 -38z" />
    <glyph glyph-name="one.numr" horiz-adv-x="332" 
d="M176 267v313l-118 -45l-26 56l158 65h58v-389h-72z" />
    <glyph glyph-name="two.numr" horiz-adv-x="334" 
d="M27 267q2 52 22.5 93t48 65t54.5 43.5t45.5 39t18.5 41.5q0 21 -15.5 33.5t-41.5 12.5q-39 0 -97 -30l-22 56q69 37 131 37q58 0 90 -28.5t32 -74.5q0 -37 -24.5 -68t-55 -49.5t-60 -47t-36.5 -60.5h177v-63h-267z" />
    <glyph glyph-name="three.numr" horiz-adv-x="336" 
d="M19 283l20 56q42 -19 87 -19q84 0 84 58q0 36 -37 48q-20 8 -60 8h-43v56h36q34 0 57 9q34 15 34 49q0 24 -16.5 36t-42.5 12q-38 0 -89 -22l-20 56q63 28 122 28q56 0 89.5 -28t33.5 -72q0 -65 -68 -90v-2q39 -7 60 -31t21 -62q0 -49 -40.5 -81t-117.5 -32
q-64 0 -110 23z" />
    <glyph glyph-name="four.numr" horiz-adv-x="374" 
d="M32 353v46l192 257h66v-246h53v-57h-53v-86h-71v86h-187zM111 409q7 0 31.5 0.5t38.5 0.5h38v36q0 68 3 112z" />
    <glyph glyph-name="five.numr" horiz-adv-x="340" 
d="M29 283l21 58q41 -21 85 -21q81 0 81 65q0 36 -33 51q-19 9 -67 9h-59v204h237l-16 -62h-149v-86h18q49 0 79 -12q67 -27 67 -103q0 -57 -40 -91.5t-116 -34.5q-65 0 -108 23z" />
    <glyph glyph-name="six.numr" horiz-adv-x="354" 
d="M187 260q-63 0 -104.5 46t-41.5 137q0 92 49 153.5t130 61.5q45 0 84 -18l-19 -57q-28 14 -62 14q-39 0 -67.5 -27.5t-36.5 -77.5h2q39 21 79 21q54 0 88 -33t34 -90q0 -59 -38.5 -94.5t-96.5 -35.5zM189 319q27 0 43.5 17.5t16.5 49.5q0 31 -18 49t-47 18q-32 0 -66 -24
q-1 -49 18.5 -79.5t52.5 -30.5z" />
    <glyph glyph-name="seven.numr" horiz-adv-x="319" 
d="M57 267q42 181 148 320h-170l-16 62h281v-38q-120 -141 -162 -344h-81z" />
    <glyph glyph-name="eight.numr" horiz-adv-x="374" 
d="M183 260q-66 0 -104 28.5t-38 78.5q0 71 71 97v2q-58 28 -58 87q0 47 36 76t95 29q61 0 96.5 -29t35.5 -76q0 -61 -57 -85v-2q73 -25 73 -94q0 -51 -41.5 -81.5t-108.5 -30.5zM185 320q29 0 50 14t21 40q0 25 -21.5 40t-60.5 25q-58 -18 -58 -64q0 -26 20 -40.5t49 -14.5
zM194 491q49 20 49 60q0 20 -15.5 33.5t-41.5 13.5q-25 0 -41 -12.5t-16 -33.5q0 -42 65 -61z" />
    <glyph glyph-name="nine.numr" horiz-adv-x="354" 
d="M136 260q-54 0 -94 18l19 59q34 -17 73 -17q45 0 72.5 28t32.5 83h-2q-38 -27 -83 -27q-52 0 -87 30.5t-35 90.5q0 59 37.5 96t96.5 37q67 0 107 -48t40 -141q0 -97 -46.5 -153t-130.5 -56zM169 463q41 0 69 34q-1 48 -20.5 74.5t-51.5 26.5q-28 0 -44.5 -18.5
t-16.5 -48.5q0 -31 17 -49.5t47 -18.5z" />
    <glyph glyph-name="period.numr" horiz-adv-x="189" 
d="M94 263q-19 0 -32.5 13.5t-13.5 33.5t13.5 33.5t32.5 13.5t32.5 -14t13.5 -33t-13.5 -33t-32.5 -14z" />
    <glyph glyph-name="comma.numr" horiz-adv-x="189" 
d="M25 186q39 67 39 130q0 28 -6 56l73 13q5 -23 5 -54q0 -92 -72 -165z" />
    <glyph glyph-name="plus.numr" horiz-adv-x="408" 
d="M172 304v132h-122v60h122v128h64v-128h123v-60h-123v-132h-64z" />
    <glyph glyph-name="minus.numr" horiz-adv-x="408" 
d="M50 436v60h309v-60h-309z" />
    <glyph glyph-name="equal.numr" horiz-adv-x="408" 
d="M50 501v59h309v-59h-309zM50 372v59h309v-59h-309z" />
    <glyph glyph-name="parenleft.numr" horiz-adv-x="236" 
d="M154 227q-102 90 -102 239t102 239l45 -35q-76 -84 -76 -204q0 -122 76 -204z" />
    <glyph glyph-name="parenright.numr" horiz-adv-x="236" 
d="M37 262q76 82 76 204q0 120 -76 204l45 35q102 -90 102 -239t-102 -239z" />
    </font>
</defs>
</svg>
