<?xml version="1.0" standalone="no"?>
<!DOCTYPE svg PUBLIC "-//W3C//DTD SVG 1.1//EN" "http://www.w3.org/Graphics/SVG/1.1/DTD/svg11.dtd" >
<svg>
<metadata>
Created by FontForge 20090622 at Thu Oct  1 10:36:00 2015
 By deploy user
Copyright 1994-2014 Luc(as) de Groot, published by LucasFonts, www.lucasfonts.com  All rights reserved.
</metadata>
<defs>
<font id="TheSansB-W6SemiBold" horiz-adv-x="550" >
  <font-face 
    font-family="TheSansB W6 SemiBold"
    font-weight="520"
    font-stretch="normal"
    units-per-em="1000"
    panose-1="2 11 6 2 5 3 2 2 2 3"
    ascent="740"
    descent="-260"
    x-height="497"
    cap-height="675"
    bbox="-60 -316.683 1772 980"
    underline-thickness="86"
    underline-position="-119"
    unicode-range="U+000D-U+FB04"
  />
<missing-glyph 
d="M300 150h-150v250h50v-200h100v-50zM500 50h-450v450h450v-450zM350 350h-100v50h150v-250h-50v100h-100v50h100v50zM100 100h350v350h-350v-350z" />
    <glyph glyph-name="ij" unicode="ij" horiz-adv-x="531" 
d="M200 652q0 -28 -20 -47.5t-48 -19.5q-29 0 -49 19.5t-20 47.5t20 47.5t49 19.5q28 0 48 -19.5t20 -47.5zM185 0h-107v497h107v-497zM468 652q0 -28 -20 -47.5t-48 -19.5q-29 0 -49 19.5t-20 47.5t20 47.5t49 19.5q28 0 48 -19.5t20 -47.5zM453 -47q0 -105 -41 -154.5
t-140 -49.5q-39 0 -69 9l7 92q30 -11 62 -11q43 0 59 22t16 82v554h106v-544z" />
    <glyph glyph-name="ellipsis" unicode="&#x2e;&#x2e;&#x2e;" horiz-adv-x="691" 
d="M633 58q0 -28 -20 -48t-48 -20t-48.5 20t-20.5 48t20 48.5t49 20.5q28 0 48 -20.5t20 -48.5zM410 58q0 -28 -20.5 -48t-48.5 -20t-48 20t-20 48t20 48.5t48 20.5q29 0 49 -20.5t20 -48.5zM187 58q0 -28 -20.5 -48t-48.5 -20t-48 20t-20 48t20 48.5t48 20.5t48.5 -20.5
t20.5 -48.5z" />
    <glyph glyph-name="ff" unicode="ff" horiz-adv-x="654" 
d="M680 728l-8 -88q-31 10 -68 10q-48 0 -70 -27t-22 -86v-40h128v-83h-128v-414h-107v414h-196v-414h-106v414h-95v83h95v24q0 94 53.5 150.5t171.5 56.5q81 0 147 -24q46 33 124 33q42 0 81 -9zM422 623q-44 18 -99 18q-114 0 -114 -112v-32h196v38q0 52 17 88z" />
    <glyph glyph-name="ffi" unicode="ffi" horiz-adv-x="893" 
d="M817 0h-107v414h-198v-414h-107v414h-196v-414h-106v414h-95v83h95v24q0 95 54 151t172 56q87 0 156 -29q59 39 160 39q71 0 149 -19l-20 -89q-67 20 -124 20q-138 0 -138 -124v-29h305v-497zM427 621q-47 20 -104 20q-114 0 -114 -112v-32h196v20q0 64 22 104z" />
    <glyph glyph-name="ffl" unicode="ffl" horiz-adv-x="893" 
d="M817 0h-107v644q-38 7 -79 7q-61 0 -90 -26t-29 -82v-46h123v-83h-123v-414h-107v414h-196v-414h-106v414h-95v83h95v24q0 95 54 151t172 56q82 0 153 -28q56 38 159 38q68 0 176 -16v-722zM421 624q-42 17 -98 17q-114 0 -114 -112v-32h196v53q0 43 16 74z" />
    <glyph glyph-name="f_b" unicode="fb" horiz-adv-x="888" 
d="M849 273q0 -130 -70 -205.5t-192 -75.5q-97 0 -179 21v631q-38 7 -79 7q-61 0 -90.5 -26t-29.5 -82v-46h124v-83h-124v-414h-106v414h-95v83h95v53q0 88 58 138t178 50q68 0 175 -16v-221q0 -53 -8 -95h2q20 47 62 74t96 27q88 0 135.5 -60.5t47.5 -173.5zM736 263
q0 155 -98 155q-57 0 -90.5 -54t-33.5 -123v-154q33 -10 79 -10q143 0 143 186z" />
    <glyph glyph-name="f_h" unicode="fh" horiz-adv-x="902" 
d="M825 0h-106v320q0 49 -16.5 73.5t-57.5 24.5q-56 0 -93.5 -52t-37.5 -127v-239h-106v644q-38 7 -79 7q-61 0 -90.5 -26t-29.5 -82v-46h124v-83h-124v-414h-106v414h-95v83h95v53q0 88 58 138t178 50q68 0 175 -16v-217q0 -64 -8 -100l2 -1q22 48 66 75.5t103 27.5
q148 0 148 -159v-348z" />
    <glyph glyph-name="f_i" unicode="fi" horiz-adv-x="592" 
d="M514 0h-106v414h-199v-414h-106v414h-95v83h95v20q0 220 237 220q73 0 147 -19l-19 -89q-63 20 -122 20q-137 0 -137 -123v-29h305v-497z" />
    <glyph glyph-name="f_j" unicode="fj" horiz-adv-x="591" 
d="M514 -47q0 -105 -41 -154.5t-140 -49.5q-39 0 -69 9l8 92q28 -11 61 -11q43 0 59 22t16 82v471h-199v-414h-106v414h-95v83h95v20q0 221 237 221q73 0 147 -19l-19 -89q-63 20 -122 20q-137 0 -137 -124v-29h305v-544z" />
    <glyph glyph-name="f_k" unicode="fk" horiz-adv-x="836" 
d="M408 644q-38 7 -79 7q-61 0 -90.5 -26t-29.5 -82v-46h124v-83h-124v-414h-106v414h-95v83h95v53q0 88 58 138t178 50q68 0 175 -16v-438l162 213h131l-184 -227l198 -270h-136l-171 252v-252h-106v644z" />
    <glyph glyph-name="f_l" unicode="fl" horiz-adv-x="592" 
d="M514 0h-106v643q-38 7 -79 7q-61 0 -90.5 -25.5t-29.5 -81.5v-46h124v-83h-124v-414h-106v414h-95v83h95v53q0 88 58 137.5t178 49.5q79 0 175 -16v-721z" />
    <glyph glyph-name=".notdef" 
d="M300 150h-150v250h50v-200h100v-50zM500 50h-450v450h450v-450zM350 350h-100v50h150v-250h-50v100h-100v50h100v50zM100 100h350v350h-350v-350z" />
    <glyph glyph-name=".null" horiz-adv-x="0" 
 />
    <glyph glyph-name=".null" horiz-adv-x="0" 
 />
    <glyph glyph-name="nonmarkingreturn" horiz-adv-x="333" 
 />
    <glyph glyph-name="CR" unicode="&#xd;" horiz-adv-x="500" 
 />
    <glyph glyph-name="space" unicode=" " horiz-adv-x="218" 
 />
    <glyph glyph-name="exclam" unicode="!" horiz-adv-x="320" 
d="M232 705l-17 -528h-91l-18 528h126zM237 57q0 -28 -19.5 -47.5t-48.5 -19.5t-49 19.5t-20 47.5t20 47t49 19t48.5 -19t19.5 -47z" />
    <glyph glyph-name="quotedbl" unicode="&#x22;" horiz-adv-x="383" 
d="M335 701l-16 -241h-79l-15 241h110zM158 701l-15 -241h-79l-16 241h110z" />
    <glyph glyph-name="numbersign" unicode="#" 
d="M521 405h-90l-15 -154h81v-74h-89l-19 -177h-79l19 177h-138l-18 -177h-80l19 177h-83v74h91l15 154h-82v73h90l18 172h80l-19 -172h138l18 172h79l-18 -172h82v-73zM352 405h-137l-16 -154h138z" />
    <glyph glyph-name="dollar" unicode="$" 
d="M466 204q0 -67 -45 -117.5t-122 -65.5v-106h-78v101q-61 0 -123 13l9 97q61 -21 127 -21q54 0 87 22t33 65q0 33 -28.5 54.5t-69 36t-81 32.5t-69 55t-28.5 92q0 65 43.5 112.5t115.5 59.5v96h78v-91q59 -2 105 -12l-10 -92q-54 17 -111 17q-58 0 -85 -22.5t-27 -55.5
q0 -26 20.5 -46t51.5 -31.5t67.5 -27.5t67.5 -34t51.5 -52t20.5 -79z" />
    <glyph glyph-name="percent" unicode="%" horiz-adv-x="755" 
d="M713 153q0 -72 -43 -117.5t-110 -45.5q-71 0 -107.5 40.5t-36.5 113.5q0 71 43 116t110 45q70 0 107 -39t37 -113zM659 646l-498 -667l-69 48l499 668zM338 534q0 -73 -42.5 -118.5t-110.5 -45.5q-71 0 -107 40.5t-36 114.5q0 71 42.5 116t109.5 45q70 0 107 -38.5
t37 -113.5zM629 147q0 47 -15.5 68t-49.5 21q-28 0 -46 -23.5t-18 -63.5q0 -90 66 -90q27 0 45 24t18 64zM255 528q0 89 -65 89q-28 0 -46 -24t-18 -63q0 -91 66 -91q28 0 45.5 24t17.5 65z" />
    <glyph glyph-name="ampersand" unicode="&#x26;" horiz-adv-x="796" 
d="M746 61l-70 -82q-84 59 -139 103q-113 -92 -262 -92q-108 0 -165.5 55.5t-57.5 140.5q0 63 34 112.5t100 100.5q-50 59 -70 98.5t-20 81.5q0 67 50 112.5t137 45.5q80 0 124 -38.5t44 -102.5q0 -99 -122 -195q109 -109 204 -183v-1q70 102 64 235h106q5 -168 -91 -293
q72 -57 134 -98zM346 587q0 30 -18 49.5t-53 19.5q-32 0 -52.5 -20t-20.5 -51q0 -48 66 -123q40 34 59 62.5t19 62.5zM460 141q-115 92 -212 195q-86 -70 -86 -136q0 -50 36 -84.5t95 -34.5q94 0 167 60z" />
    <glyph glyph-name="quotesingle" unicode="'" horiz-adv-x="206" 
d="M158 701l-15 -241h-79l-16 241h110z" />
    <glyph glyph-name="parenleft" unicode="(" horiz-adv-x="304" 
d="M290 -174l-81 -37q-147 231 -147 495q0 267 148 500l77 -37q-120 -209 -120 -458q0 -256 123 -463z" />
    <glyph glyph-name="parenright" unicode=")" horiz-adv-x="304" 
d="M246 288q0 -266 -148 -499l-77 36q121 210 121 458q0 254 -122 463l80 38q146 -231 146 -496z" />
    <glyph glyph-name="asterisk" unicode="*" horiz-adv-x="378" 
d="M339 534l-39 -68l-88 67l14 -110h-78l13 110l-88 -67l-38 67l102 43l-102 43l39 67l88 -66l-14 110h78l-13 -110l88 66l38 -66l-102 -43z" />
    <glyph glyph-name="plus" unicode="+" 
d="M509 253h-184v-195h-101v195h-183v89h183v194h101v-194h184v-89z" />
    <glyph glyph-name="comma" unicode="," horiz-adv-x="241" 
d="M119 129q46 0 64 -46q25 -66 -32 -155q-30 -47 -80 -91l-45 40q87 94 43 148q-26 30 -9.5 67t59.5 37z" />
    <glyph glyph-name="hyphen" unicode="-" horiz-adv-x="332" 
d="M286 240h-240v86h240v-86z" />
    <glyph glyph-name="period" unicode="." horiz-adv-x="241" 
d="M192 61q0 -29 -21 -50t-50 -21t-50 21t-21 50t21 50t50 21t50 -21t21 -50z" />
    <glyph glyph-name="slash" unicode="/" horiz-adv-x="449" 
d="M451 757l-350 -918h-105l351 918h104z" />
    <glyph glyph-name="zero" unicode="0" 
d="M507 331q0 -172 -68 -256.5t-170 -84.5q-113 0 -170 77t-57 261q0 165 65 248.5t174 83.5q110 0 168 -75.5t58 -253.5zM392 326q0 137 -28 190.5t-90 53.5q-117 0 -117 -237q0 -138 26.5 -195t90.5 -57q118 0 118 245z" />
    <glyph glyph-name="one" unicode="1" 
d="M499 0h-428v96h169v444l-153 -60l-18 101l198 69h84v-554h148v-96z" />
    <glyph glyph-name="two" unicode="2" 
d="M488 0h-433v87l123 120q104 100 136.5 149.5t32.5 95.5q0 49 -32 80t-88 31q-80 0 -143 -48l-24 94q88 51 188 51q105 0 160.5 -54.5t55.5 -134.5q0 -68 -33.5 -127t-127.5 -146l-102 -96v-2q66 3 196 3h91v-103z" />
    <glyph glyph-name="three" unicode="3" 
d="M478 202q0 -98 -76 -155t-204 -57q-75 0 -126 16l11 93q59 -19 124 -19q76 0 116 30t40 80q0 49 -39 77t-115 28q-42 0 -99 -5v84h25q215 0 215 110q0 41 -31 64.5t-85 23.5q-72 0 -142 -35l-10 91q81 32 172 32q101 0 154.5 -43.5t53.5 -113.5q0 -115 -119 -150l-1 -2
q59 -6 97.5 -48.5t38.5 -100.5z" />
    <glyph glyph-name="four" unicode="4" 
d="M529 146h-100v-146h-106v146h-293l-9 88l263 416h145v-408h100v-96zM325 242v301h-1l-195 -303q53 2 196 2z" />
    <glyph glyph-name="five" unicode="5" 
d="M481 215q0 -102 -76 -163.5t-201 -61.5q-66 0 -122 13v98q60 -19 130 -19q73 0 112.5 32.5t39.5 88.5q0 54 -42.5 82.5t-116.5 28.5q-68 0 -111 -8v344h361v-101h-260v-151q14 1 47 1q114 0 176.5 -51t62.5 -133z" />
    <glyph glyph-name="six" unicode="6" 
d="M509 221q0 -105 -63 -168t-167 -63q-109 0 -170.5 71.5t-61.5 206.5q0 196 90 293.5t246 97.5q39 0 66 -3v-93q-34 6 -73 6q-174 0 -215 -188q-4 -17 -8 -45h1q50 75 153 75q95 0 148.5 -54t53.5 -136zM401 204q0 55 -30.5 87t-88.5 32q-54 0 -87 -35t-33 -77
q0 -58 32.5 -96t91.5 -38q54 0 84.5 35t30.5 92z" />
    <glyph glyph-name="seven" unicode="7" 
d="M497 558q-143 -269 -238 -558h-123q107 308 237 548q-78 -3 -233 -3h-87v105h444v-92z" />
    <glyph glyph-name="eight" unicode="8" 
d="M502 172q0 -84 -66.5 -133t-166.5 -49q-101 0 -161 45t-60 121q0 55 34.5 95t95.5 75q-56 31 -85 68t-29 90q0 77 60.5 126.5t156.5 49.5q95 0 150 -44.5t55 -115.5q0 -50 -31 -87t-86 -71q63 -33 98 -71t35 -99zM377 491q0 39 -27.5 62t-76.5 23q-46 0 -73 -24t-27 -59
q0 -36 24.5 -59.5t82.5 -51.5q47 27 72 51.5t25 57.5zM390 162q0 43 -31 69.5t-93 54.5q-53 -31 -80 -57.5t-27 -64.5q0 -39 31.5 -63.5t87.5 -24.5q49 0 80.5 23t31.5 63z" />
    <glyph glyph-name="nine" unicode="9" 
d="M500 382q0 -198 -90 -294.5t-246 -96.5q-52 0 -85 7v95q41 -11 94 -11q173 0 208 177l5 23t4 21h-1q-50 -66 -148 -66q-95 0 -148 54.5t-53 140.5q0 104 64 166t166 62q109 0 169.5 -69t60.5 -209zM384 440q0 59 -32 96t-90 37q-53 0 -83.5 -35.5t-30.5 -89.5
q0 -57 30.5 -89.5t84.5 -32.5q56 0 88.5 33t32.5 81z" />
    <glyph glyph-name="colon" unicode=":" horiz-adv-x="292" 
d="M230 349q0 -29 -21 -50t-50 -21t-50 21t-21 50t21 50t50 21t50 -21t21 -50zM230 61q0 -29 -21 -50t-50 -21t-50 21t-21 50t21 50t50 21t50 -21t21 -50z" />
    <glyph glyph-name="semicolon" unicode=";" horiz-adv-x="292" 
d="M230 349q0 -29 -21 -50t-50 -21t-50 21t-21 50t21 50t50 21t50 -21t21 -50zM159 129q45 0 63 -46q25 -66 -32 -155q-29 -47 -79 -91l-45 40q87 94 42 148q-25 30 -8.5 67t59.5 37z" />
    <glyph glyph-name="less" unicode="&#x3c;" 
d="M455 86l-69 -73l-318 289l317 288l69 -70l-249 -217z" />
    <glyph glyph-name="equal" unicode="=" 
d="M495 343h-440v87h440v-87zM495 164h-440v87h440v-87z" />
    <glyph glyph-name="greater" unicode="&#x3e;" 
d="M482 302l-317 -289l-69 70l249 218l-250 216l69 73z" />
    <glyph glyph-name="question" unicode="?" horiz-adv-x="448" 
d="M394 515q0 -34 -11 -62.5t-28 -47.5l-36.5 -39t-37.5 -36t-30.5 -39.5t-15 -49t7.5 -64.5h-104q-17 61 -10 98t30.5 68.5t49.5 52.5t46.5 49t20.5 58q0 48 -54 78.5t-146 34.5l14 97q144 -4 224 -61t80 -137zM260 57q0 -29 -19.5 -48t-48.5 -19t-48.5 19.5t-19.5 47.5
t19.5 47t48.5 19t48.5 -19t19.5 -47z" />
    <glyph glyph-name="at" unicode="@" horiz-adv-x="975" 
d="M882 409q0 -133 -65 -206.5t-168 -73.5q-56 0 -82.5 30t-22.5 74h-3q-16 -37 -57.5 -70.5t-88.5 -33.5q-99 0 -99 139q0 117 59 192.5t170 75.5q64 0 123 -17l-37 -207q-18 -97 52 -97q54 0 88.5 48.5t34.5 140.5q0 103 -66 174t-203 71q-142 0 -239 -100t-97 -256
q0 -136 76 -212.5t222 -76.5q82 0 171 27l16 -84q-93 -31 -200 -31q-182 0 -282.5 98t-100.5 267q0 129 59.5 233.5t160 162.5t221.5 58q172 0 265 -93t93 -233zM553 456q-20 7 -52 7q-56 0 -87.5 -57t-31.5 -120q0 -71 38 -71q36 0 71 50t53 143z" />
    <glyph glyph-name="A" unicode="A" horiz-adv-x="620" 
d="M614 0h-121l-51 149h-274l-52 -149h-110l240 675h125zM414 236l-81 229q-20 60 -28 92h-2q-11 -46 -27 -91l-81 -230h219z" />
    <glyph glyph-name="B" unicode="B" horiz-adv-x="574" 
d="M528 204q0 -84 -65 -145.5t-202 -61.5q-25 0 -89 1.5t-94 1.5v675q159 3 210 3q107 0 163.5 -42.5t56.5 -121.5q0 -52 -29 -93.5t-81 -60.5v-2q59 -10 94.5 -52t35.5 -102zM393 497q0 95 -124 95q-34 0 -82 -2v-201q18 -1 58 -1q148 0 148 109zM412 200q0 107 -165 107
q-45 0 -60 -1v-216q43 -5 80 -5q71 0 108 31.5t37 83.5z" />
    <glyph glyph-name="C" unicode="C" horiz-adv-x="576" 
d="M533 26q-83 -34 -181 -34q-160 0 -234.5 90t-74.5 237q0 164 84.5 263t248.5 99q81 0 150 -21l-16 -100q-70 25 -143 25q-101 0 -153 -68.5t-52 -179.5q0 -247 214 -247q78 0 139 32z" />
    <glyph glyph-name="D" unicode="D" horiz-adv-x="673" 
d="M631 347q0 -169 -102 -260t-272 -91q-41 0 -105.5 2t-73.5 2v674q16 0 56.5 1.5t79 2t73.5 0.5q344 0 344 -331zM515 339q0 249 -236 249q-44 0 -92 -2v-492q37 -5 81 -5q114 0 180.5 62.5t66.5 187.5z" />
    <glyph glyph-name="E" unicode="E" horiz-adv-x="498" 
d="M434 0h-356v675h356v-91h-247v-192h235v-89h-235v-210h247v-93z" />
    <glyph glyph-name="F" unicode="F" horiz-adv-x="467" 
d="M430 583h-243v-198h230v-89h-230v-296h-109v675h352v-92z" />
    <glyph glyph-name="G" unicode="G" horiz-adv-x="679" 
d="M604 31q-106 -41 -226 -41q-161 0 -249.5 87.5t-88.5 241.5q0 166 96 265.5t272 99.5q97 0 189 -28l-23 -100q-83 33 -174 33q-122 0 -182.5 -72t-60.5 -183q0 -117 61 -182t173 -65q54 0 104 16v245h109v-317z" />
    <glyph glyph-name="H" unicode="H" horiz-adv-x="693" 
d="M614 0h-108v303h-319v-303h-109v675h109v-279h319v279h108v-675z" />
    <glyph glyph-name="I" unicode="I" horiz-adv-x="266" 
d="M187 0h-109v675h109v-675z" />
    <glyph glyph-name="J" unicode="J" horiz-adv-x="332" 
d="M254 182q0 -190 -175 -190q-36 0 -78 8v94q34 -10 65 -10q41 0 60.5 22t19.5 81v488h108v-493z" />
    <glyph glyph-name="K" unicode="K" horiz-adv-x="590" 
d="M577 0h-145l-245 330v-330h-109v675h109v-313l246 313h134l-268 -326z" />
    <glyph glyph-name="L" unicode="L" horiz-adv-x="427" 
d="M419 0h-341v675h109v-580h232v-95z" />
    <glyph glyph-name="M" unicode="M" horiz-adv-x="886" 
d="M845 0h-113l-54 362l-21 170h-2q-16 -74 -36 -139l-129 -393h-110l-122 367q-29 91 -44 165h-1q-8 -94 -19 -180l-43 -352h-110l101 675h130l130 -392q18 -52 38 -138h1q25 96 38 134l132 396h131z" />
    <glyph glyph-name="N" unicode="N" horiz-adv-x="704" 
d="M625 0h-144l-239 406q-40 70 -66 132q7 -115 7 -352v-186h-105v675h144l235 -397q42 -74 70 -137q-7 135 -7 363v171h105v-675z" />
    <glyph glyph-name="O" unicode="O" horiz-adv-x="704" 
d="M666 347q0 -164 -93 -260.5t-231 -96.5q-150 0 -227 90t-77 248q0 164 93 260.5t231 96.5q150 0 227 -90t77 -248zM550 332q0 119 -50 188t-147 69q-86 0 -142.5 -66t-56.5 -180q0 -119 50 -187.5t147 -68.5q86 0 142.5 65.5t56.5 179.5z" />
    <glyph glyph-name="P" unicode="P" horiz-adv-x="527" 
d="M499 476q0 -99 -72.5 -164t-189.5 -65q-33 0 -50 2v-249h-109v675q104 4 173 4q119 0 183.5 -54t64.5 -149zM386 467q0 123 -143 123q-38 0 -56 -2v-247q30 -4 48 -4q69 1 110 36t41 94z" />
    <glyph glyph-name="Q" unicode="Q" horiz-adv-x="703" 
d="M703 -67q-57 -9 -104.5 -1t-74.5 21t-68.5 25t-86.5 12h-27q-150 0 -227 90t-77 248q0 164 93 260.5t231 96.5q150 0 227 -90t77 -248q0 -105 -40 -182.5t-113 -111.5q22 0 80.5 -15.5t109.5 -9.5v-95zM550 332q0 119 -50 188t-147 69q-86 0 -142.5 -66t-56.5 -180
q0 -119 50 -187.5t147 -68.5q86 0 142.5 66t56.5 179z" />
    <glyph glyph-name="R" unicode="R" horiz-adv-x="559" 
d="M539 0h-136l-204 292h-12v-292h-109v675q65 4 181 4q236 0 236 -183q0 -78 -52.5 -129t-131.5 -60q49 -62 56 -72zM381 484q0 106 -137 106q-25 0 -57 -2v-214q20 -2 53 -2q65 0 103 30.5t38 81.5z" />
    <glyph glyph-name="S" unicode="S" horiz-adv-x="503" 
d="M460 202q0 -93 -70 -152.5t-184 -59.5q-84 0 -152 19l12 104q72 -28 144 -28q58 0 95 25.5t37 77.5q0 39 -30.5 64t-74 41t-87 35.5t-74 59.5t-30.5 100q0 89 64.5 143t179.5 54q62 0 122 -13l-11 -96q-57 19 -116 19q-62 0 -93 -25t-31 -69q0 -37 31 -62t74.5 -41.5
t87.5 -36.5t75 -60t31 -99z" />
    <glyph glyph-name="T" unicode="T" horiz-adv-x="514" 
d="M497 583h-186v-583h-109v583h-185v92h480v-92z" />
    <glyph glyph-name="U" unicode="U" horiz-adv-x="687" 
d="M609 260q0 -134 -70 -202t-204 -68q-76 0 -129 19.5t-79.5 55t-37.5 75t-11 90.5v445h109v-437q0 -75 34 -116.5t121 -41.5q84 0 122 39.5t38 132.5v423h107v-415z" />
    <glyph glyph-name="V" unicode="V" horiz-adv-x="622" 
d="M614 675l-243 -675h-124l-240 675h120l142 -416q22 -60 42 -135h1q18 67 45 142l145 409h112z" />
    <glyph glyph-name="W" unicode="W" horiz-adv-x="952" 
d="M922 675l-175 -675h-134l-115 417q-14 50 -26 127h-1q-7 -61 -24 -125l-114 -419h-128l-175 675h116l104 -410q18 -74 26 -133h1q12 78 27 128l115 415h119l118 -416q16 -59 27 -124h1q9 56 24 118l105 422h109z" />
    <glyph glyph-name="X" unicode="X" horiz-adv-x="612" 
d="M598 0h-137l-160 265l-159 -265h-128l219 347l-206 328h126l150 -247l148 247h123l-202 -326z" />
    <glyph glyph-name="Y" unicode="Y" horiz-adv-x="548" 
d="M541 675l-215 -434v-241h-109v241l-211 434h119l100 -213q27 -60 48 -114h2q18 49 56 126l95 201h115z" />
    <glyph glyph-name="Z" unicode="Z" horiz-adv-x="538" 
d="M494 0h-449v83l266 423q32 49 50 73q-29 -1 -137 -1h-169v97h435v-86l-280 -437q-14 -24 -36 -54q19 2 159 2h161v-100z" />
    <glyph glyph-name="bracketleft" unicode="[" horiz-adv-x="324" 
d="M287 -201h-208v975h208v-84h-108v-806h108v-85z" />
    <glyph glyph-name="backslash" unicode="\" horiz-adv-x="459" 
d="M464 -161h-105l-350 918h104z" />
    <glyph glyph-name="bracketright" unicode="]" horiz-adv-x="324" 
d="M245 -201h-208v85h108v806h-108v84h208v-975z" />
    <glyph glyph-name="asciicircum" unicode="^" 
d="M481 380l-78 -40l-139 257l-132 -257l-72 38l165 297h84z" />
    <glyph glyph-name="underscore" unicode="_" 
d="M550 -248h-550v86h550v-86z" />
    <glyph glyph-name="grave" unicode="`" horiz-adv-x="371" 
d="M282 623l-43 -57l-164 111l54 71z" />
    <glyph glyph-name="a" unicode="a" horiz-adv-x="523" 
d="M446 0h-103q0 58 5 92l-1 1q-19 -46 -63 -74.5t-102 -28.5q-63 0 -101 38.5t-38 99.5q0 83 77.5 127.5t215.5 44.5v21q0 54 -22 78.5t-76 24.5q-73 0 -150 -35l-19 83q88 35 184 35q104 0 147 -44t43 -130v-197q0 -73 3 -136zM336 215v13q-189 0 -189 -87q0 -29 18.5 -48
t49.5 -19q52 0 86.5 42.5t34.5 98.5z" />
    <glyph glyph-name="b" unicode="b" horiz-adv-x="558" 
d="M519 273q0 -130 -70.5 -205.5t-193.5 -75.5q-96 0 -177 21v717h107v-229q0 -56 -9 -95h2q20 47 62 74t96 27q88 0 135.5 -60.5t47.5 -173.5zM406 263q0 155 -98 155q-56 0 -89.5 -54t-33.5 -123v-154q31 -10 78 -10q143 0 143 186z" />
    <glyph glyph-name="c" unicode="c" horiz-adv-x="431" 
d="M403 17q-60 -25 -144 -25q-221 0 -221 240q0 123 63.5 198t183.5 75q68 0 116 -19l-18 -91q-52 21 -104 21q-62 0 -95.5 -47t-33.5 -125q0 -160 130 -160q62 0 107 22z" />
    <glyph glyph-name="d" unicode="d" horiz-adv-x="557" 
d="M479 0h-101q0 54 7 93h-2q-21 -47 -63.5 -75t-98.5 -28q-90 0 -136.5 62t-46.5 172q0 129 70 205t190 76q21 0 75 -4v229h106v-730zM373 257v154q-41 9 -79 9q-143 0 -143 -186q0 -156 99 -156q56 0 89.5 55t33.5 124z" />
    <glyph glyph-name="e" unicode="e" horiz-adv-x="511" 
d="M468 300q0 -33 -4 -61h-316q-2 -84 34 -123.5t113 -39.5q74 0 143 29l14 -83q-83 -32 -176 -32q-238 0 -238 255q0 115 61.5 188.5t167.5 73.5q101 0 151 -58t50 -149zM361 313q1 52 -26 83t-74 31q-45 0 -74.5 -31t-36.5 -83h211z" />
    <glyph glyph-name="f" unicode="f" horiz-adv-x="352" 
d="M378 728l-8 -88q-31 10 -68 10q-48 0 -70.5 -27.5t-22.5 -85.5v-40h129v-83h-129v-414h-106v414h-95v83h95v38q0 202 194 202q42 0 81 -9z" />
    <glyph glyph-name="g" unicode="g" horiz-adv-x="543" 
d="M515 -60q0 -82 -74.5 -138t-192.5 -56q-99 0 -155 38.5t-56 110.5q0 39 23.5 74t57.5 54q-49 21 -49 75q0 27 15.5 50.5t41.5 35.5q-74 42 -74 136q0 79 57 133t158 54q32 0 75 -10h169v-84h-76q33 -28 33 -79q0 -81 -54.5 -130.5t-156.5 -49.5q-23 0 -47 6
q-29 -14 -29 -37q0 -19 18.5 -26.5t63.5 -9.5l84 -3q168 -6 168 -144zM365 328q0 46 -27 73t-76 27t-77.5 -28t-28.5 -72q0 -47 27 -73t77 -26q49 0 77 26.5t28 72.5zM409 -75q0 70 -92 74l-91 3h-27q-56 -40 -56 -88q0 -39 33.5 -62t88.5 -23q68 0 106 27t38 69z" />
    <glyph glyph-name="h" unicode="h" horiz-adv-x="573" 
d="M495 0h-106v319q0 49 -16.5 74t-57.5 25q-56 0 -93 -51.5t-37 -127.5v-239h-107v730h107v-226q0 -64 -9 -100l2 -1q22 48 66 76t103 28q148 0 148 -159v-348z" />
    <glyph glyph-name="i" unicode="i" horiz-adv-x="263" 
d="M200 652q0 -28 -20 -47.5t-48 -19.5q-29 0 -49 19.5t-20 47.5t20 47.5t49 19.5q28 0 48 -19.5t20 -47.5zM185 0h-107v497h107v-497z" />
    <glyph glyph-name="j" unicode="j" horiz-adv-x="268" 
d="M205 652q0 -28 -20 -47.5t-48 -19.5q-29 0 -49 19.5t-20 47.5t20 47.5t49 19.5q28 0 48 -19.5t20 -47.5zM190 -47q0 -105 -41 -154.5t-140 -49.5q-39 0 -69 9l7 92q30 -11 62 -11q43 0 59 22t16 82v554h106v-544z" />
    <glyph glyph-name="k" unicode="k" horiz-adv-x="506" 
d="M491 0h-136l-170 252v-252h-107v730h107v-446l161 213h131l-184 -227z" />
    <glyph glyph-name="l" unicode="l" horiz-adv-x="263" 
d="M185 0h-107v730h107v-730z" />
    <glyph glyph-name="m" unicode="m" horiz-adv-x="873" 
d="M795 0h-106v317q0 50 -16 75.5t-56 25.5q-50 0 -89 -51t-39 -130v-237h-105v317q0 49 -15 75t-57 26q-52 0 -89.5 -52t-37.5 -129v-237h-107v497h102q0 -56 -7 -98l2 -1q22 50 66.5 79.5t101.5 29.5q66 0 98 -32.5t40 -74.5q19 42 62 74.5t104 32.5q148 0 148 -164v-343z
" />
    <glyph glyph-name="n" unicode="n" horiz-adv-x="573" 
d="M495 0h-106v319q0 49 -16.5 74t-57.5 25q-56 0 -93 -51.5t-37 -127.5v-239h-107v497h102q0 -59 -7 -98h1q23 50 67.5 79t105.5 29q148 0 148 -159v-348z" />
    <glyph glyph-name="o" unicode="o" horiz-adv-x="549" 
d="M511 258q0 -116 -69 -192t-178 -76q-107 0 -167.5 62.5t-60.5 189.5q0 115 68.5 190t179.5 75q105 0 166 -61.5t61 -187.5zM401 251q0 166 -126 166q-53 0 -90.5 -42t-37.5 -122q0 -171 127 -171q55 0 91 43.5t36 125.5z" />
    <glyph glyph-name="p" unicode="p" horiz-adv-x="558" 
d="M519 273q0 -132 -67.5 -206t-191.5 -74q-44 0 -75 6v-243h-107v741h101q0 -53 -6 -93h2q21 48 63 75.5t98 27.5q88 0 135.5 -60.5t47.5 -173.5zM406 263q0 156 -98 156q-56 0 -89.5 -54.5t-33.5 -124.5v-153q33 -10 78 -10q143 0 143 186z" />
    <glyph glyph-name="q" unicode="q" horiz-adv-x="558" 
d="M480 -244h-106v243q0 56 7 92l-2 1q-20 -47 -61.5 -74.5t-93.5 -27.5q-89 0 -136.5 59t-47.5 174q0 130 70 206t196 76q93 0 174 -14v-735zM374 259v153q-39 9 -79 9q-143 0 -143 -187q0 -156 98 -156q57 0 90.5 55t33.5 126z" />
    <glyph glyph-name="r" unicode="r" horiz-adv-x="355" 
d="M337 506l-5 -105q-74 14 -110.5 -36t-36.5 -163v-202h-107v497h102q0 -56 -10 -110h2q19 57 59.5 91.5t105.5 27.5z" />
    <glyph glyph-name="s" unicode="s" horiz-adv-x="421" 
d="M376 152q0 -72 -58 -117t-156 -45q-62 0 -110 14l8 91q49 -19 109 -19q42 0 68.5 17.5t26.5 47.5q0 28 -22.5 44t-54.5 25.5t-64 22t-54.5 42.5t-22.5 78q0 68 52 111t151 43q46 0 94 -10l-6 -86q-45 14 -94 14q-87 0 -87 -62q0 -27 22.5 -43t55 -26t65 -23t55 -43
t22.5 -76z" />
    <glyph glyph-name="t" unicode="t" horiz-adv-x="373" 
d="M341 3q-51 -12 -104 -12q-78 0 -108 34t-30 118v271h-95v83h95v158l107 29v-187h130v-83h-130v-238q0 -55 13.5 -74.5t51.5 -19.5q29 0 61 7z" />
    <glyph glyph-name="u" unicode="u" horiz-adv-x="573" 
d="M495 0h-102q0 59 7 98h-1q-23 -50 -67.5 -79t-105.5 -29q-148 0 -148 159v348h106v-319q0 -49 16.5 -74t57.5 -25q56 0 93 51.5t37 127.5v239h107v-497z" />
    <glyph glyph-name="v" unicode="v" horiz-adv-x="495" 
d="M489 497l-188 -497h-109l-186 497h118l93 -263q27 -82 32 -102h1q8 30 29 98l95 267h115z" />
    <glyph glyph-name="w" unicode="w" horiz-adv-x="794" 
d="M781 497l-159 -497h-118l-86 260q-14 43 -29 105h-1q-7 -29 -34 -125l-75 -240h-113l-153 497h117l66 -231q31 -112 37 -139h1q8 39 35 136l74 234h108l75 -230q29 -96 39 -140h1q10 45 35 135l69 235h111z" />
    <glyph glyph-name="x" unicode="x" horiz-adv-x="523" 
d="M506 0h-136l-112 180l-113 -180h-129l178 250l-168 247h129l111 -177l113 177h119l-164 -245z" />
    <glyph glyph-name="y" unicode="y" horiz-adv-x="490" 
d="M484 497l-201 -532q-46 -122 -100 -169.5t-141 -47.5q-29 0 -63 6l12 93q27 -8 61 -8q82 0 124 112l18 49l-186 497h119l82 -227q23 -69 39 -130h1q14 55 49 155l71 202h115z" />
    <glyph glyph-name="z" unicode="z" horiz-adv-x="449" 
d="M399 0h-352v76l221 327q-50 -2 -120 -2h-96v96h343v-75l-218 -326q50 2 125 2h97v-98z" />
    <glyph glyph-name="braceleft" unicode="{" horiz-adv-x="350" 
d="M318 -201h-19q-90 0 -129 50t-39 157v157q0 60 -23.5 84t-79.5 27v82q57 3 80 25.5t23 82.5v104q0 101 39 153.5t129 52.5h19v-84q-51 0 -69.5 -24.5t-18.5 -95.5v-103q0 -134 -92 -151v-1q92 -14 92 -155v-156q0 -71 18.5 -95.5t69.5 -24.5v-85z" />
    <glyph glyph-name="bar" unicode="|" horiz-adv-x="286" 
d="M184 -244h-85v1000h85v-1000z" />
    <glyph glyph-name="braceright" unicode="}" horiz-adv-x="348" 
d="M327 274q-55 -3 -79 -27.5t-24 -83.5v-157q0 -107 -39 -157t-129 -50h-19v85q51 0 69.5 24.5t18.5 95.5v156q0 141 92 155v1q-92 12 -92 148v106q0 71 -18.5 95.5t-69.5 24.5v84h19q90 0 129 -52.5t39 -153.5v-101q0 -63 22.5 -85.5t80.5 -25.5v-82z" />
    <glyph glyph-name="asciitilde" unicode="~" 
d="M502 565q0 -69 -38 -111t-103 -42q-38 0 -66 17t-41 37t-31.5 37t-39.5 17q-53 0 -55 -85h-79v13q0 69 38 111t103 42q38 0 66 -17t41 -37t31.5 -37t39.5 -17q53 0 55 86h79v-14z" />
    <glyph glyph-name="uni00A0" unicode="&#xa0;" horiz-adv-x="218" 
 />
    <glyph glyph-name="exclamdown" unicode="&#xa1;" horiz-adv-x="320" 
d="M220 440q0 -28 -19.5 -47t-48.5 -19t-48.5 19t-19.5 47q0 29 19.5 48t48.5 19t48.5 -19.5t19.5 -47.5zM214 -208h-126l17 528h91z" />
    <glyph glyph-name="cent" unicode="&#xa2;" 
d="M472 132q-58 -27 -117 -31v-101h-82v101q-95 7 -145.5 66.5t-50.5 160.5q0 94 51.5 155t144.5 79v88h82v-85q56 -3 109 -22l-21 -88q-53 24 -109 24q-68 0 -107 -38t-39 -109q0 -66 36.5 -104t108.5 -38q63 0 113 28z" />
    <glyph glyph-name="sterling" unicode="&#xa3;" 
d="M485 0h-414v73q87 73 87 146q0 31 -6 62h-101v83h90q-10 68 -10 99q0 197 208 197q60 0 121 -16l-23 -90q-57 19 -105 19q-93 0 -93 -100q0 -30 11 -109h155v-83h-145q5 -24 5 -58q0 -41 -16 -71.5t-51 -61.5q44 2 77 2h210v-92z" />
    <glyph glyph-name="currency" unicode="&#xa4;" 
d="M507 113l-80 -59l-79 106q-37 -20 -82 -20q-34 0 -62 11l-70 -96l-81 58l70 88q-37 47 -37 127q0 74 42 124l-75 94l80 58l73 -100q33 16 77 16t72 -14l73 98l79 -59l-74 -93q31 -44 31 -116q0 -71 -39 -121zM369 334q0 107 -96 107q-39 0 -65.5 -29.5t-26.5 -80.5
t23 -82t72 -31q38 0 65.5 31t27.5 85z" />
    <glyph glyph-name="yen" unicode="&#xa5;" 
d="M523 650l-169 -343h134v-70h-160v-66h160v-70h-160v-101h-108v101h-160v70h160v66h-160v70h134l-167 343h119l85 -186q19 -39 43 -108h2q20 53 48 113l84 181h115z" />
    <glyph glyph-name="brokenbar" unicode="&#xa6;" horiz-adv-x="286" 
d="M184 388h-85v368h85v-368zM184 -244h-85v378h85v-378z" />
    <glyph glyph-name="section" unicode="&#xa7;" horiz-adv-x="524" 
d="M444 240q0 -85 -77 -143q38 -50 38 -104q0 -66 -52 -112.5t-154 -46.5q-37 0 -80 10l7 90q44 -12 76 -12q43 0 66 19.5t23 50.5q0 27 -23 56t-56 57.5t-66 60.5t-56 75.5t-23 91.5q0 85 77 143q-38 49 -38 104q0 69 48 113t145 44q41 0 79 -8l-7 -90q-34 11 -70 11
q-81 0 -81 -65q0 -26 23 -56t56 -59t66 -61.5t56 -77t23 -91.5zM346 226q0 25 -14.5 52.5t-28 42.5t-50 50.5l-49.5 48.5q-38 -28 -38 -73q0 -11 2 -21.5t7.5 -21.5t9 -19.5t14.5 -21t16 -19t20.5 -22t21.5 -21l25.5 -23.5t25.5 -24q38 27 38 72z" />
    <glyph glyph-name="dieresis" unicode="&#xa8;" horiz-adv-x="546" 
d="M423 652q0 -25 -17.5 -43t-42.5 -18t-43 17.5t-18 43.5q0 25 18 42.5t43 17.5t42.5 -17.5t17.5 -42.5zM227 652q0 -26 -17.5 -43.5t-43.5 -17.5q-25 0 -42.5 17.5t-17.5 43.5q0 25 17.5 42.5t42.5 17.5t43 -17.5t18 -42.5z" />
    <glyph glyph-name="copyright" unicode="&#xa9;" horiz-adv-x="758" 
d="M716 335q0 -140 -99 -239t-239 -99q-143 0 -241 98t-98 239q0 140 99 239t240 99t239.5 -98.5t98.5 -238.5zM634 334q0 106 -75 182t-181 76t-181 -75t-75 -182t75 -182.5t181 -75.5t181 75t75 182zM477 176q-47 -19 -100 -19q-78 0 -118.5 47t-40.5 126t43.5 131
t130.5 52q42 0 81 -14l-11 -74q-31 17 -68 17q-86 0 -86 -109q0 -101 82 -101q40 0 74 15z" />
    <glyph glyph-name="ordfeminine" unicode="&#xaa;" horiz-adv-x="395" 
d="M329 335h-84q0 31 5 51l-2 1q-10 -25 -39 -42.5t-62 -17.5q-51 0 -76.5 24.5t-25.5 66.5q0 60 53.5 93t143.5 32v17q0 54 -62 54q-55 0 -107 -27l-8 75q55 22 129 22q134 0 134 -114v-149q0 -66 1 -86zM352 195h-298v84h298v-84zM242 477v9q-114 0 -114 -55
q0 -16 10.5 -25.5t29.5 -9.5q35 0 54.5 27t19.5 54z" />
    <glyph glyph-name="guillemotleft" unicode="&#xab;" horiz-adv-x="520" 
d="M455 151l-83 -41l-120 183l122 185l80 -40l-97 -145zM244 147l-85 -40l-110 186l112 188l81 -39l-89 -149z" />
    <glyph glyph-name="logicalnot" unicode="&#xac;" 
d="M485 100h-94v153h-350v89h444v-242z" />
    <glyph glyph-name="uni00AD" unicode="&#xad;" horiz-adv-x="332" 
d="M286 240h-240v86h240v-86z" />
    <glyph glyph-name="registered" unicode="&#xae;" horiz-adv-x="563" 
d="M508 529q0 -92 -67 -158t-160 -66q-95 0 -160.5 65t-65.5 159t66 159.5t160 65.5q95 0 161 -65t66 -160zM440 528q0 66 -46.5 114t-112.5 48q-65 0 -111.5 -47t-46.5 -112q0 -66 46.5 -114t111.5 -48q66 0 112.5 47t46.5 112zM375 418h-65l-47 90h-5v-90h-54v225h85
q79 0 79 -61q0 -52 -50 -64q8 -8 18 -28zM309 576q0 26 -32 26h-19v-58h12q20 0 29.5 9.5t9.5 22.5z" />
    <glyph glyph-name="macron" unicode="&#xaf;" horiz-adv-x="395" 
d="M327 609h-259v78h259v-78z" />
    <glyph glyph-name="macron" unicode="&#x2c9;" horiz-adv-x="395" 
d="M327 609h-259v78h259v-78z" />
    <glyph glyph-name="degree" unicode="&#xb0;" horiz-adv-x="381" 
d="M328 608q0 -61 -43 -97.5t-101 -36.5q-63 0 -99.5 35t-36.5 96t43 97.5t99 36.5q69 0 103.5 -37t34.5 -94zM247 607q0 26 -14 45t-44 19q-26 0 -42.5 -18t-16.5 -46q0 -30 15.5 -47.5t42.5 -17.5q26 0 42.5 18.5t16.5 46.5z" />
    <glyph glyph-name="plusminus" unicode="&#xb1;" 
d="M509 340h-183v-190h-102v190h-183v89h183v189h102v-189h183v-89zM507 0h-464v89h464v-89z" />
    <glyph glyph-name="twosuperior" unicode="&#xb2;" horiz-adv-x="319" 
d="M271 355h-227v60l67 58q55 46 55 78q0 18 -11.5 28.5t-32.5 10.5q-30 0 -56 -18l-19 65q51 22 98 22q59 0 88 -26t29 -65q0 -54 -65 -108l-41 -35h115v-70z" />
    <glyph glyph-name="threesuperior" unicode="&#xb3;" horiz-adv-x="308" 
d="M259 443q0 -47 -38 -72t-108 -25q-39 0 -69 8l10 59q28 -8 52 -8q58 0 58 37q0 24 -22 32.5t-76 2.5v52h18q74 0 74 40q0 32 -44 32q-29 0 -53 -12l-14 54q39 16 90 16q57 0 84 -22.5t27 -56.5q0 -49 -46 -71q27 -3 42 -22t15 -44z" />
    <glyph glyph-name="acute" unicode="&#xb4;" horiz-adv-x="391" 
d="M314 677l-164 -111l-42 57l152 125z" />
    <glyph glyph-name="mu" unicode="&#xb5;" horiz-adv-x="585" 
d="M553 -4q-21 -4 -44 -4q-58 0 -82 27t-23 77l-1 1q-20 -49 -59.5 -77t-94.5 -28q-51 0 -74 30l12 -266h-109v741h107v-325q0 -93 74 -93q57 0 93.5 50.5t36.5 130.5v237h106v-322q0 -58 11.5 -76.5t46.5 -18.5v-84z" />
    <glyph glyph-name="mu" unicode="&#x3bc;" horiz-adv-x="585" 
d="M553 -4q-21 -4 -44 -4q-58 0 -82 27t-23 77l-1 1q-20 -49 -59.5 -77t-94.5 -28q-51 0 -74 30l12 -266h-109v741h107v-325q0 -93 74 -93q57 0 93.5 50.5t36.5 130.5v237h106v-322q0 -58 11.5 -76.5t46.5 -18.5v-84z" />
    <glyph glyph-name="paragraph" unicode="&#xb6;" horiz-adv-x="585" 
d="M528 591h-68v-687h-165v84h72v687h161v-84zM290 240q-113 -1 -171 61t-58 158t63.5 156t165.5 60v-435z" />
    <glyph glyph-name="periodcentered" unicode="&#xb7;" horiz-adv-x="250" 
d="M197 297q0 -30 -21 -51t-51 -21t-51.5 21t-21.5 51q0 31 21.5 52t51.5 21t51 -21t21 -52z" />
    <glyph glyph-name="periodcentered" unicode="&#x2219;" horiz-adv-x="250" 
d="M197 297q0 -30 -21 -51t-51 -21t-51.5 21t-21.5 51q0 31 21.5 52t51.5 21t51 -21t21 -52z" />
    <glyph glyph-name="cedilla" unicode="&#xb8;" horiz-adv-x="400" 
d="M257 -40q71 -95 -21 -195h-83q40 49 44 83.5t-30 80.5z" />
    <glyph glyph-name="onesuperior" unicode="&#xb9;" horiz-adv-x="312" 
d="M216 355h-88v224l-68 -31l-18 64l93 38h81v-295z" />
    <glyph glyph-name="ordmasculine" unicode="&#xba;" horiz-adv-x="422" 
d="M375 511q0 -82 -48.5 -132.5t-125.5 -50.5q-73 0 -115.5 42.5t-42.5 134.5q0 81 48.5 130.5t123.5 49.5q71 0 115.5 -41t44.5 -133zM361 195h-303v84h303v-84zM285 510q0 98 -75 98q-32 0 -54 -24.5t-22 -76.5q0 -102 73 -102q35 0 56.5 25.5t21.5 79.5z" />
    <glyph glyph-name="guillemotright" unicode="&#xbb;" horiz-adv-x="520" 
d="M472 295l-113 -188l-82 39l90 149l-90 146l85 40zM268 295l-123 -185l-79 40l97 145l-97 142l82 41z" />
    <glyph glyph-name="onequarter" unicode="&#xbc;" horiz-adv-x="707" 
d="M620 648l-493 -670l-68 49l493 670zM663 60h-47v-60h-86v60h-153l-5 56l121 208h123v-197h47v-67zM210 351h-90v243l-60 -25l-14 73l88 33h76v-324zM529 126v138l-81 -139q22 1 81 1z" />
    <glyph glyph-name="onehalf" unicode="&#xbd;" horiz-adv-x="725" 
d="M664 0h-228v68l65 59q56 49 56 86q0 43 -44 43q-34 0 -63 -17l-10 71q47 20 100 20q57 0 85 -26t28 -70q0 -59 -64 -120l-43 -41q33 2 118 2v-75zM620 648l-493 -670l-68 49l493 670zM210 351h-90v243l-60 -25l-14 73l88 33h76v-324z" />
    <glyph glyph-name="threequarters" unicode="&#xbe;" horiz-adv-x="723" 
d="M636 648l-492 -670l-69 49l493 670zM680 60h-48v-60h-86v60h-153l-4 56l120 208h123v-197h48v-67zM269 451q0 -49 -37.5 -78t-105.5 -29q-38 0 -70 6l9 63q31 -9 56 -9q24 0 40 12.5t16 32.5q0 22 -24.5 33.5t-80.5 3.5v56q102 0 102 48q0 32 -42 32q-33 0 -63 -15l-9 60
q42 15 95 15t80.5 -22t27.5 -60q0 -54 -55 -76q27 -4 44 -25.5t17 -47.5zM545 126v138l-81 -139q23 1 81 1z" />
    <glyph glyph-name="questiondown" unicode="&#xbf;" horiz-adv-x="448" 
d="M324 440q0 -28 -19.5 -47t-48.5 -19t-49 19t-20 47t20 47.5t49 19.5t48.5 -19.5t19.5 -47.5zM372 -119l-14 -97q-144 4 -224 61t-80 137q0 34 11 62.5t28 47.5l36.5 39t37.5 36t30.5 39.5t15 49t-7.5 64.5h104q17 -61 10 -98t-31 -68.5t-50 -52.5t-46.5 -49t-20.5 -58
q0 -48 54.5 -78.5t146.5 -34.5z" />
    <glyph glyph-name="Agrave" unicode="&#xc0;" horiz-adv-x="620" 
d="M614 0h-121l-51 149h-274l-52 -149h-110l240 675h125zM414 236l-81 229q-20 60 -28 92h-2q-11 -46 -27 -91l-81 -230h219zM381 781l-19 -60l-201 55l27 79z" />
    <glyph glyph-name="Aacute" unicode="&#xc1;" horiz-adv-x="620" 
d="M614 0h-121l-51 149h-274l-52 -149h-110l240 675h125zM414 236l-81 229q-20 60 -28 92h-2q-11 -46 -27 -91l-81 -230h219zM449 776l-201 -55l-19 60l193 74z" />
    <glyph glyph-name="Acircumflex" unicode="&#xc2;" horiz-adv-x="620" 
d="M614 0h-121l-51 149h-274l-52 -149h-110l240 675h125zM414 236l-81 229q-20 60 -28 92h-2q-11 -46 -27 -91l-81 -230h219zM470 780l-29 -60l-137 58l-132 -58l-26 56l161 85z" />
    <glyph glyph-name="Atilde" unicode="&#xc3;" horiz-adv-x="620" 
d="M614 0h-121l-51 149h-274l-52 -149h-110l240 675h125zM414 236l-81 229q-20 60 -28 92h-2q-11 -46 -27 -91l-81 -230h219zM492 809q-45 -77 -118 -77q-37 0 -75 25t-56 25q-34 0 -60 -44l-54 37q44 78 118 78q37 0 75 -25t56 -25q33 0 60 44z" />
    <glyph glyph-name="Adieresis" unicode="&#xc4;" horiz-adv-x="620" 
d="M614 0h-121l-51 149h-274l-52 -149h-110l240 675h125zM414 236l-81 229q-20 60 -28 92h-2q-11 -46 -27 -91l-81 -230h219zM474 782q0 -25 -17 -41.5t-42 -16.5t-42 16.5t-17 41.5t17 42t42 17t42 -17t17 -42zM259 782q0 -25 -17 -41.5t-42 -16.5t-42 16.5t-17 41.5t17 42
t42 17t42 -17t17 -42z" />
    <glyph glyph-name="Aring" unicode="&#xc5;" horiz-adv-x="620" 
d="M614 0h-121l-51 149h-274l-52 -149h-110l240 675h125zM414 236l-81 229q-20 60 -28 92h-2q-11 -46 -27 -91l-81 -230h219zM423 820q0 -44 -33 -76t-79 -32t-78 30t-32 76q0 45 33 76t78 31q47 0 79 -30t32 -75zM361 819q0 20 -14.5 35t-34.5 15q-21 0 -35 -14.5
t-14 -35.5t14 -35.5t35 -14.5q20 0 34.5 15t14.5 35z" />
    <glyph glyph-name="AE" unicode="&#xc6;" horiz-adv-x="783" 
d="M719 0h-356v157h-212l-79 -157h-113l348 675h404v-91h-242v-192h233v-89h-233v-210h250v-93zM363 243v340h-2q-36 -82 -65 -138l-107 -202h174z" />
    <glyph glyph-name="Ccedilla" unicode="&#xc7;" horiz-adv-x="576" 
d="M533 26q-83 -34 -181 -34q-160 0 -234.5 90t-74.5 237q0 164 84.5 263t248.5 99q81 0 150 -21l-16 -100q-70 25 -143 25q-101 0 -153 -68.5t-52 -179.5q0 -247 214 -247q78 0 139 32zM360 -40q71 -95 -21 -195h-83q40 49 44 83.5t-30 80.5z" />
    <glyph glyph-name="Egrave" unicode="&#xc8;" horiz-adv-x="498" 
d="M434 0h-356v675h356v-91h-247v-192h235v-89h-235v-210h247v-93zM329 781l-19 -60l-201 55l27 79z" />
    <glyph glyph-name="Eacute" unicode="&#xc9;" horiz-adv-x="498" 
d="M434 0h-356v675h356v-91h-247v-192h235v-89h-235v-210h247v-93zM397 776l-201 -55l-19 60l193 74z" />
    <glyph glyph-name="Ecircumflex" unicode="&#xca;" horiz-adv-x="498" 
d="M434 0h-356v675h356v-91h-247v-192h235v-89h-235v-210h247v-93zM418 780l-29 -60l-137 58l-132 -58l-26 56l161 85z" />
    <glyph glyph-name="Edieresis" unicode="&#xcb;" horiz-adv-x="498" 
d="M434 0h-356v675h356v-91h-247v-192h235v-89h-235v-210h247v-93zM418 782q0 -25 -17 -41.5t-42 -16.5t-42 16.5t-17 41.5t17 42t42 17t42 -17t17 -42zM203 782q0 -25 -17 -41.5t-42 -16.5t-42 16.5t-17 41.5t17 42t42 17t42 -17t17 -42z" />
    <glyph glyph-name="Igrave" unicode="&#xcc;" horiz-adv-x="266" 
d="M187 0h-109v675h109v-675zM205 781l-19 -60l-201 55l27 79z" />
    <glyph glyph-name="Iacute" unicode="&#xcd;" horiz-adv-x="266" 
d="M187 0h-109v675h109v-675zM282 776l-201 -55l-19 60l193 74z" />
    <glyph glyph-name="Icircumflex" unicode="&#xce;" horiz-adv-x="266" 
d="M187 0h-109v675h109v-675zM296 780l-29 -60l-137 58l-132 -58l-26 56l161 85z" />
    <glyph glyph-name="Idieresis" unicode="&#xcf;" horiz-adv-x="266" 
d="M187 0h-109v675h109v-675zM299 782q0 -25 -17 -41.5t-42 -16.5t-42 16.5t-17 41.5t17 42t42 17t42 -17t17 -42zM84 782q0 -25 -17 -41.5t-42 -16.5t-42 16.5t-17 41.5t17 42t42 17t42 -17t17 -42z" />
    <glyph glyph-name="Eth" unicode="&#xd0;" horiz-adv-x="682" 
d="M640 347q0 -167 -101 -258.5t-273 -92.5q-41 0 -105.5 2t-73.5 2v304h-83v82h83v288q16 0 56.5 1.5t79 2t73.5 0.5q344 0 344 -331zM524 339q0 249 -237 249q-44 0 -92 -2v-200h134v-82h-134v-210q37 -5 81 -5q114 0 181 62.5t67 187.5z" />
    <glyph glyph-name="Ntilde" unicode="&#xd1;" horiz-adv-x="704" 
d="M625 0h-144l-239 406q-40 70 -66 132q7 -115 7 -352v-186h-105v675h144l235 -397q42 -74 70 -137q-7 135 -7 363v171h105v-675zM534 809q-45 -77 -118 -77q-37 0 -75 25t-56 25q-34 0 -60 -44l-54 37q44 78 118 78q37 0 75 -25t56 -25q33 0 60 44z" />
    <glyph glyph-name="Ograve" unicode="&#xd2;" horiz-adv-x="704" 
d="M666 347q0 -164 -93 -260.5t-231 -96.5q-150 0 -227 90t-77 248q0 164 93 260.5t231 96.5q150 0 227 -90t77 -248zM550 332q0 119 -50 188t-147 69q-86 0 -142.5 -66t-56.5 -180q0 -119 50 -187.5t147 -68.5q86 0 142.5 65.5t56.5 179.5zM422 781l-19 -60l-201 55l27 79z
" />
    <glyph glyph-name="Oacute" unicode="&#xd3;" horiz-adv-x="704" 
d="M666 347q0 -164 -93 -260.5t-231 -96.5q-150 0 -227 90t-77 248q0 164 93 260.5t231 96.5q150 0 227 -90t77 -248zM550 332q0 119 -50 188t-147 69q-86 0 -142.5 -66t-56.5 -180q0 -119 50 -187.5t147 -68.5q86 0 142.5 65.5t56.5 179.5zM510 776l-201 -55l-19 60l193 74
z" />
    <glyph glyph-name="Ocircumflex" unicode="&#xd4;" horiz-adv-x="704" 
d="M666 347q0 -164 -93 -260.5t-231 -96.5q-150 0 -227 90t-77 248q0 164 93 260.5t231 96.5q150 0 227 -90t77 -248zM550 332q0 119 -50 188t-147 69q-86 0 -142.5 -66t-56.5 -180q0 -119 50 -187.5t147 -68.5q86 0 142.5 65.5t56.5 179.5zM521 780l-29 -60l-137 58
l-132 -58l-26 56l161 85z" />
    <glyph glyph-name="Otilde" unicode="&#xd5;" horiz-adv-x="704" 
d="M666 347q0 -164 -93 -260.5t-231 -96.5q-150 0 -227 90t-77 248q0 164 93 260.5t231 96.5q150 0 227 -90t77 -248zM550 332q0 119 -50 188t-147 69q-86 0 -142.5 -66t-56.5 -180q0 -119 50 -187.5t147 -68.5q86 0 142.5 65.5t56.5 179.5zM534 809q-45 -77 -118 -77
q-37 0 -75 25t-56 25q-34 0 -60 -44l-54 37q44 78 118 78q37 0 75 -25t56 -25q33 0 60 44z" />
    <glyph glyph-name="Odieresis" unicode="&#xd6;" horiz-adv-x="704" 
d="M666 347q0 -164 -93 -260.5t-231 -96.5q-150 0 -227 90t-77 248q0 164 93 260.5t231 96.5q150 0 227 -90t77 -248zM550 332q0 119 -50 188t-147 69q-86 0 -142.5 -66t-56.5 -180q0 -119 50 -187.5t147 -68.5q86 0 142.5 65.5t56.5 179.5zM523 782q0 -25 -17 -41.5
t-42 -16.5t-42 16.5t-17 41.5t17 42t42 17t42 -17t17 -42zM308 782q0 -25 -17 -41.5t-42 -16.5t-42 16.5t-17 41.5t17 42t42 17t42 -17t17 -42z" />
    <glyph glyph-name="multiply" unicode="&#xd7;" 
d="M499 139l-66 -66l-161 162l-162 -162l-59 59l162 162l-162 161l66 66l161 -162l162 162l59 -59l-162 -162z" />
    <glyph glyph-name="Oslash" unicode="&#xd8;" horiz-adv-x="704" 
d="M666 344q0 -164 -92 -259t-235 -95q-51 0 -90 10l-43 -102l-78 33l44 102q-134 78 -134 297q0 163 93 259t231 96q43 0 85 -8l42 99l78 -33l-41 -97q140 -76 140 -302zM553 334q0 155 -74 214l-188 -456q29 -8 56 -8q88 0 147 64t59 186zM406 585h-1q-21 7 -53 7
q-84 0 -142.5 -66t-58.5 -183q0 -149 69 -208z" />
    <glyph glyph-name="Ugrave" unicode="&#xd9;" horiz-adv-x="687" 
d="M609 260q0 -134 -70 -202t-204 -68q-76 0 -129 19.5t-79.5 55t-37.5 75t-11 90.5v445h109v-437q0 -75 34 -116.5t121 -41.5q84 0 122 39.5t38 132.5v423h107v-415zM397 781l-19 -60l-201 55l27 79z" />
    <glyph glyph-name="Uacute" unicode="&#xda;" horiz-adv-x="687" 
d="M609 260q0 -134 -70 -202t-204 -68q-76 0 -129 19.5t-79.5 55t-37.5 75t-11 90.5v445h109v-437q0 -75 34 -116.5t121 -41.5q84 0 122 39.5t38 132.5v423h107v-415zM526 776l-201 -55l-19 60l193 74z" />
    <glyph glyph-name="Ucircumflex" unicode="&#xdb;" horiz-adv-x="687" 
d="M609 260q0 -134 -70 -202t-204 -68q-76 0 -129 19.5t-79.5 55t-37.5 75t-11 90.5v445h109v-437q0 -75 34 -116.5t121 -41.5q84 0 122 39.5t38 132.5v423h107v-415zM508 780l-29 -60l-137 58l-132 -58l-26 56l161 85z" />
    <glyph glyph-name="Udieresis" unicode="&#xdc;" horiz-adv-x="687" 
d="M609 260q0 -134 -70 -202t-204 -68q-76 0 -129 19.5t-79.5 55t-37.5 75t-11 90.5v445h109v-437q0 -75 34 -116.5t121 -41.5q84 0 122 39.5t38 132.5v423h107v-415zM510 782q0 -25 -17 -41.5t-42 -16.5t-42 16.5t-17 41.5t17 42t42 17t42 -17t17 -42zM295 782
q0 -25 -17 -41.5t-42 -16.5t-42 16.5t-17 41.5t17 42t42 17t42 -17t17 -42z" />
    <glyph glyph-name="Yacute" unicode="&#xdd;" horiz-adv-x="548" 
d="M541 675l-215 -434v-241h-109v241l-211 434h119l100 -213q27 -60 48 -114h2q18 49 56 126l95 201h115zM450 776l-201 -55l-19 60l193 74z" />
    <glyph glyph-name="Thorn" unicode="&#xde;" horiz-adv-x="537" 
d="M519 366q0 -105 -76.5 -170.5t-199.5 -65.5q-38 0 -56 2v-132h-109v675h109v-99q38 3 79 3q119 0 186 -54.5t67 -158.5zM407 359q0 61 -39 96t-120 35q-26 0 -61 -5v-262q25 -4 64 -4q73 0 114.5 36t41.5 104z" />
    <glyph glyph-name="germandbls" unicode="&#xdf;" horiz-adv-x="599" 
d="M563 153q0 -73 -55.5 -118t-147.5 -45q-59 0 -102 12l7 91q43 -19 91 -19q49 0 73 19t24 48q0 27 -19.5 47t-47.5 35t-55.5 32.5t-47 49t-19.5 74.5q0 33 13 58t31 41t36.5 30.5t31.5 34.5t13 44q0 32 -23 49t-63 17q-118 0 -118 -150v-503h-107v497q0 124 63.5 181.5
t166.5 57.5q89 0 140.5 -38.5t51.5 -102.5q0 -37 -13 -63.5t-32 -42t-37.5 -28.5t-31.5 -30t-13 -40q0 -26 19.5 -46t47.5 -35.5t56 -33.5t47.5 -49.5t19.5 -73.5z" />
    <glyph glyph-name="agrave" unicode="&#xe0;" horiz-adv-x="523" 
d="M446 0h-103q0 58 5 92l-1 1q-19 -46 -63 -74.5t-102 -28.5q-63 0 -101 38.5t-38 99.5q0 83 77.5 127.5t215.5 44.5v21q0 54 -22 78.5t-76 24.5q-73 0 -150 -35l-19 83q88 35 184 35q104 0 147 -44t43 -130v-197q0 -73 3 -136zM336 215v13q-189 0 -189 -87q0 -29 18.5 -48
t49.5 -19q52 0 86.5 42.5t34.5 98.5zM327 623l-43 -57l-164 111l54 71z" />
    <glyph glyph-name="aacute" unicode="&#xe1;" horiz-adv-x="523" 
d="M446 0h-103q0 58 5 92l-1 1q-19 -46 -63 -74.5t-102 -28.5q-63 0 -101 38.5t-38 99.5q0 83 77.5 127.5t215.5 44.5v21q0 54 -22 78.5t-76 24.5q-73 0 -150 -35l-19 83q88 35 184 35q104 0 147 -44t43 -130v-197q0 -73 3 -136zM336 215v13q-189 0 -189 -87q0 -29 18.5 -48
t49.5 -19q52 0 86.5 42.5t34.5 98.5zM405 677l-164 -111l-42 57l152 125z" />
    <glyph glyph-name="acircumflex" unicode="&#xe2;" horiz-adv-x="523" 
d="M446 0h-103q0 58 5 92l-1 1q-19 -46 -63 -74.5t-102 -28.5q-63 0 -101 38.5t-38 99.5q0 83 77.5 127.5t215.5 44.5v21q0 54 -22 78.5t-76 24.5q-73 0 -150 -35l-19 83q88 35 184 35q104 0 147 -44t43 -130v-197q0 -73 3 -136zM336 215v13q-189 0 -189 -87q0 -29 18.5 -48
t49.5 -19q52 0 86.5 42.5t34.5 98.5zM407 616l-45 -50l-101 83l-102 -83l-43 49l146 133z" />
    <glyph glyph-name="atilde" unicode="&#xe3;" horiz-adv-x="523" 
d="M446 0h-103q0 58 5 92l-1 1q-19 -46 -63 -74.5t-102 -28.5q-63 0 -101 38.5t-38 99.5q0 83 77.5 127.5t215.5 44.5v21q0 54 -22 78.5t-76 24.5q-73 0 -150 -35l-19 83q88 35 184 35q104 0 147 -44t43 -130v-197q0 -73 3 -136zM336 215v13q-189 0 -189 -87q0 -29 18.5 -48
t49.5 -19q52 0 86.5 42.5t34.5 98.5zM434 669q-44 -83 -115 -83q-36 0 -72 26.5t-53 26.5q-32 0 -58 -46l-52 40q42 83 115 83q36 0 72 -26.5t53 -26.5q32 0 58 46z" />
    <glyph glyph-name="adieresis" unicode="&#xe4;" horiz-adv-x="523" 
d="M446 0h-103q0 58 5 92l-1 1q-19 -46 -63 -74.5t-102 -28.5q-63 0 -101 38.5t-38 99.5q0 83 77.5 127.5t215.5 44.5v21q0 54 -22 78.5t-76 24.5q-73 0 -150 -35l-19 83q88 35 184 35q104 0 147 -44t43 -130v-197q0 -73 3 -136zM336 215v13q-189 0 -189 -87q0 -29 18.5 -48
t49.5 -19q52 0 86.5 42.5t34.5 98.5zM418 652q0 -25 -17.5 -43t-42.5 -18q-26 0 -43.5 17.5t-17.5 43.5q0 25 18 42.5t43 17.5t42.5 -17.5t17.5 -42.5zM222 652q0 -26 -18 -43.5t-43 -17.5t-42.5 17.5t-17.5 43.5q0 25 17.5 42.5t42.5 17.5t43 -17.5t18 -42.5z" />
    <glyph glyph-name="aring" unicode="&#xe5;" horiz-adv-x="523" 
d="M446 0h-103q0 58 5 92l-1 1q-19 -46 -63 -74.5t-102 -28.5q-63 0 -101 38.5t-38 99.5q0 83 77.5 127.5t215.5 44.5v21q0 54 -22 78.5t-76 24.5q-73 0 -150 -35l-19 83q88 35 184 35q104 0 147 -44t43 -130v-197q0 -73 3 -136zM336 215v13q-189 0 -189 -87q0 -29 18.5 -48
t49.5 -19q52 0 86.5 42.5t34.5 98.5zM384 667q0 -48 -35.5 -82.5t-85.5 -34.5t-85 32t-35 82q0 49 36 82.5t85 33.5q51 0 85.5 -32.5t34.5 -80.5zM317 665q0 23 -15.5 39t-37.5 16q-23 0 -38.5 -16t-15.5 -39t15.5 -39t38.5 -16q22 0 37.5 16t15.5 39z" />
    <glyph glyph-name="ae" unicode="&#xe6;" horiz-adv-x="804" 
d="M761 292q0 -20 -3 -52h-317q-4 -164 147 -164q77 0 143 30l14 -84q-79 -32 -176 -32q-78 0 -128.5 29.5t-70.5 79.5h-1q-23 -48 -71.5 -78.5t-113.5 -30.5q-64 0 -102.5 38t-38.5 100q0 83 77.5 128t215.5 45v29q0 48 -23.5 71t-80.5 23q-73 0 -142 -36l-21 86
q87 33 181 33q116 0 155 -71h1q23 32 63 51.5t89 19.5q102 0 152.5 -60t50.5 -155zM654 313q1 53 -26 83.5t-74 30.5q-44 0 -74 -31t-37 -83h211zM336 215v14q-190 0 -190 -88q0 -29 18.5 -48t49.5 -19q53 0 87.5 42.5t34.5 98.5z" />
    <glyph glyph-name="ccedilla" unicode="&#xe7;" horiz-adv-x="431" 
d="M403 17q-60 -25 -144 -25q-221 0 -221 240q0 123 63.5 198t183.5 75q68 0 116 -19l-18 -91q-52 21 -104 21q-62 0 -95.5 -47t-33.5 -125q0 -160 130 -160q62 0 107 22zM276 -40q71 -95 -21 -195h-83q40 49 44 83.5t-30 80.5z" />
    <glyph glyph-name="egrave" unicode="&#xe8;" horiz-adv-x="511" 
d="M468 300q0 -33 -4 -61h-316q-2 -84 34 -123.5t113 -39.5q74 0 143 29l14 -83q-83 -32 -176 -32q-238 0 -238 255q0 115 61.5 188.5t167.5 73.5q101 0 151 -58t50 -149zM361 313q1 52 -26 83t-74 31q-45 0 -74.5 -31t-36.5 -83h211zM329 623l-43 -57l-164 111l54 71z" />
    <glyph glyph-name="eacute" unicode="&#xe9;" horiz-adv-x="511" 
d="M468 300q0 -33 -4 -61h-316q-2 -84 34 -123.5t113 -39.5q74 0 143 29l14 -83q-83 -32 -176 -32q-238 0 -238 255q0 115 61.5 188.5t167.5 73.5q101 0 151 -58t50 -149zM361 313q1 52 -26 83t-74 31q-45 0 -74.5 -31t-36.5 -83h211zM404 677l-164 -111l-42 57l152 125z
" />
    <glyph glyph-name="ecircumflex" unicode="&#xea;" horiz-adv-x="511" 
d="M468 300q0 -33 -4 -61h-316q-2 -84 34 -123.5t113 -39.5q74 0 143 29l14 -83q-83 -32 -176 -32q-238 0 -238 255q0 115 61.5 188.5t167.5 73.5q101 0 151 -58t50 -149zM361 313q1 52 -26 83t-74 31q-45 0 -74.5 -31t-36.5 -83h211zM410 616l-45 -50l-101 83l-102 -83
l-43 49l146 133z" />
    <glyph glyph-name="edieresis" unicode="&#xeb;" horiz-adv-x="511" 
d="M468 300q0 -33 -4 -61h-316q-2 -84 34 -123.5t113 -39.5q74 0 143 29l14 -83q-83 -32 -176 -32q-238 0 -238 255q0 115 61.5 188.5t167.5 73.5q101 0 151 -58t50 -149zM361 313q1 52 -26 83t-74 31q-45 0 -74.5 -31t-36.5 -83h211zM423 652q0 -25 -17.5 -43t-42.5 -18
t-43 17.5t-18 43.5q0 25 18 42.5t43 17.5t42.5 -17.5t17.5 -42.5zM227 652q0 -26 -17.5 -43.5t-43.5 -17.5q-25 0 -42.5 17.5t-17.5 43.5q0 25 17.5 42.5t42.5 17.5t43 -17.5t18 -42.5z" />
    <glyph glyph-name="igrave" unicode="&#xec;" horiz-adv-x="263" 
d="M185 0h-107v497h107v-497zM213 623l-43 -57l-164 111l54 71z" />
    <glyph glyph-name="iacute" unicode="&#xed;" horiz-adv-x="263" 
d="M185 0h-107v497h107v-497zM254 677l-164 -111l-42 57l152 125z" />
    <glyph glyph-name="icircumflex" unicode="&#xee;" horiz-adv-x="263" 
d="M185 0h-107v497h107v-497zM277 616l-45 -50l-101 83l-102 -83l-43 49l146 133z" />
    <glyph glyph-name="idieresis" unicode="&#xef;" horiz-adv-x="263" 
d="M185 0h-107v497h107v-497zM290 652q0 -25 -17.5 -43t-42.5 -18q-26 0 -43.5 17.5t-17.5 43.5q0 25 18 42.5t43 17.5t42.5 -17.5t17.5 -42.5zM94 652q0 -26 -18 -43.5t-43 -17.5t-42.5 17.5t-17.5 43.5q0 25 17.5 42.5t42.5 17.5t43 -17.5t18 -42.5z" />
    <glyph glyph-name="eth" unicode="&#xf0;" 
d="M510 275q0 -139 -68 -212t-175 -73q-106 0 -168 63.5t-62 188.5q0 115 66 189t171 74q69 0 94 -39q-1 3 -28 47q-24 42 -59 78l-98 -43l-44 52l90 40q-30 26 -79 62l106 45q40 -32 72 -64l95 41l44 -53l-92 -40q135 -162 135 -356zM399 261q0 73 -31.5 114.5t-93.5 41.5
q-54 0 -90.5 -42.5t-36.5 -123.5t35 -125t96 -44q54 0 87.5 44t33.5 135z" />
    <glyph glyph-name="ntilde" unicode="&#xf1;" horiz-adv-x="573" 
d="M495 0h-106v319q0 49 -16.5 74t-57.5 25q-56 0 -93 -51.5t-37 -127.5v-239h-107v497h102q0 -59 -7 -98h1q23 50 67.5 79t105.5 29q148 0 148 -159v-348zM464 669q-44 -83 -115 -83q-36 0 -72 26.5t-53 26.5q-32 0 -58 -46l-52 40q42 83 115 83q36 0 72 -26.5t53 -26.5
q32 0 58 46z" />
    <glyph glyph-name="ograve" unicode="&#xf2;" horiz-adv-x="549" 
d="M511 258q0 -116 -69 -192t-178 -76q-107 0 -167.5 62.5t-60.5 189.5q0 115 68.5 190t179.5 75q105 0 166 -61.5t61 -187.5zM401 251q0 166 -126 166q-53 0 -90.5 -42t-37.5 -122q0 -171 127 -171q55 0 91 43.5t36 125.5zM344 623l-43 -57l-164 111l54 71z" />
    <glyph glyph-name="oacute" unicode="&#xf3;" horiz-adv-x="549" 
d="M511 258q0 -116 -69 -192t-178 -76q-107 0 -167.5 62.5t-60.5 189.5q0 115 68.5 190t179.5 75q105 0 166 -61.5t61 -187.5zM401 251q0 166 -126 166q-53 0 -90.5 -42t-37.5 -122q0 -171 127 -171q55 0 91 43.5t36 125.5zM417 677l-164 -111l-42 57l152 125z" />
    <glyph glyph-name="ocircumflex" unicode="&#xf4;" horiz-adv-x="549" 
d="M511 258q0 -116 -69 -192t-178 -76q-107 0 -167.5 62.5t-60.5 189.5q0 115 68.5 190t179.5 75q105 0 166 -61.5t61 -187.5zM401 251q0 166 -126 166q-53 0 -90.5 -42t-37.5 -122q0 -171 127 -171q55 0 91 43.5t36 125.5zM424 616l-45 -50l-101 83l-102 -83l-43 49
l146 133z" />
    <glyph glyph-name="otilde" unicode="&#xf5;" horiz-adv-x="549" 
d="M511 258q0 -116 -69 -192t-178 -76q-107 0 -167.5 62.5t-60.5 189.5q0 115 68.5 190t179.5 75q105 0 166 -61.5t61 -187.5zM401 251q0 166 -126 166q-53 0 -90.5 -42t-37.5 -122q0 -171 127 -171q55 0 91 43.5t36 125.5zM456 669q-44 -83 -115 -83q-36 0 -72 26.5
t-53 26.5q-32 0 -58 -46l-52 40q42 83 115 83q36 0 72 -26.5t53 -26.5q32 0 58 46z" />
    <glyph glyph-name="odieresis" unicode="&#xf6;" horiz-adv-x="549" 
d="M511 258q0 -116 -69 -192t-178 -76q-107 0 -167.5 62.5t-60.5 189.5q0 115 68.5 190t179.5 75q105 0 166 -61.5t61 -187.5zM401 251q0 166 -126 166q-53 0 -90.5 -42t-37.5 -122q0 -171 127 -171q55 0 91 43.5t36 125.5zM436 652q0 -25 -17.5 -43t-42.5 -18
q-26 0 -43.5 17.5t-17.5 43.5q0 25 18 42.5t43 17.5t42.5 -17.5t17.5 -42.5zM240 652q0 -26 -18 -43.5t-43 -17.5t-42.5 17.5t-17.5 43.5q0 25 17.5 42.5t42.5 17.5t43 -17.5t18 -42.5z" />
    <glyph glyph-name="divide" unicode="&#xf7;" 
d="M342 498q0 -28 -20 -48t-48 -20t-48 20t-20 48t20 48t48 20t48 -20t20 -48zM509 253h-468v89h468v-89zM342 96q0 -28 -20 -48t-48 -20t-48 20t-20 48q0 29 20 49t48 20t48 -20t20 -49z" />
    <glyph glyph-name="oslash" unicode="&#xf8;" 
d="M513 258q0 -116 -68.5 -192t-178.5 -76q-41 0 -79 11l-47 -100l-63 27l48 101q-89 61 -89 213q0 115 68 190t181 75q28 0 63 -7l43 90l62 -27l-42 -89q102 -60 102 -216zM410 251q0 94 -49 130l-130 -298q18 -7 45 -7q59 0 96.5 45t37.5 130zM305 420q-14 3 -30 3
q-56 0 -96 -42t-40 -128q0 -83 40 -125z" />
    <glyph glyph-name="ugrave" unicode="&#xf9;" horiz-adv-x="573" 
d="M495 0h-102q0 59 7 98h-1q-23 -50 -67.5 -79t-105.5 -29q-148 0 -148 159v348h106v-319q0 -49 16.5 -74t57.5 -25q56 0 93 51.5t37 127.5v239h107v-497zM347 623l-43 -57l-164 111l54 71z" />
    <glyph glyph-name="uacute" unicode="&#xfa;" horiz-adv-x="573" 
d="M495 0h-102q0 59 7 98h-1q-23 -50 -67.5 -79t-105.5 -29q-148 0 -148 159v348h106v-319q0 -49 16.5 -74t57.5 -25q56 0 93 51.5t37 127.5v239h107v-497zM435 677l-164 -111l-42 57l152 125z" />
    <glyph glyph-name="ucircumflex" unicode="&#xfb;" horiz-adv-x="573" 
d="M495 0h-102q0 59 7 98h-1q-23 -50 -67.5 -79t-105.5 -29q-148 0 -148 159v348h106v-319q0 -49 16.5 -74t57.5 -25q56 0 93 51.5t37 127.5v239h107v-497zM432 616l-45 -50l-101 83l-102 -83l-43 49l146 133z" />
    <glyph glyph-name="udieresis" unicode="&#xfc;" horiz-adv-x="573" 
d="M495 0h-102q0 59 7 98h-1q-23 -50 -67.5 -79t-105.5 -29q-148 0 -148 159v348h106v-319q0 -49 16.5 -74t57.5 -25q56 0 93 51.5t37 127.5v239h107v-497zM445 652q0 -25 -17.5 -43t-42.5 -18t-43 17.5t-18 43.5q0 25 18 42.5t43 17.5t42.5 -17.5t17.5 -42.5zM249 652
q0 -26 -17.5 -43.5t-43.5 -17.5q-25 0 -42.5 17.5t-17.5 43.5q0 25 17.5 42.5t42.5 17.5t43 -17.5t18 -42.5z" />
    <glyph glyph-name="yacute" unicode="&#xfd;" horiz-adv-x="490" 
d="M484 497l-201 -532q-46 -122 -100 -169.5t-141 -47.5q-29 0 -63 6l12 93q27 -8 61 -8q82 0 124 112l18 49l-186 497h119l82 -227q23 -69 39 -130h1q14 55 49 155l71 202h115zM397 677l-164 -111l-42 57l152 125z" />
    <glyph glyph-name="thorn" unicode="&#xfe;" horiz-adv-x="558" 
d="M519 273q0 -132 -67.5 -206t-191.5 -74q-44 0 -75 6v-243h-107v974h107v-212q0 -65 -6 -107h2q20 44 60 70t95 26q88 0 135.5 -60.5t47.5 -173.5zM406 263q0 156 -98 156q-56 0 -89.5 -54.5t-33.5 -124.5v-153q33 -10 78 -10q143 0 143 186z" />
    <glyph glyph-name="ydieresis" unicode="&#xff;" horiz-adv-x="490" 
d="M484 497l-201 -532q-46 -122 -100 -169.5t-141 -47.5q-29 0 -63 6l12 93q27 -8 61 -8q82 0 124 112l18 49l-186 497h119l82 -227q23 -69 39 -130h1q14 55 49 155l71 202h115zM407 652q0 -25 -17.5 -43t-42.5 -18t-43 17.5t-18 43.5q0 25 18 42.5t43 17.5t42.5 -17.5
t17.5 -42.5zM211 652q0 -26 -17.5 -43.5t-43.5 -17.5q-25 0 -42.5 17.5t-17.5 43.5q0 25 17.5 42.5t42.5 17.5t43 -17.5t18 -42.5z" />
    <glyph glyph-name="Amacron" unicode="&#x100;" horiz-adv-x="620" 
d="M614 0h-121l-51 149h-274l-52 -149h-110l240 675h125zM414 236l-81 229q-20 60 -28 92h-2q-11 -46 -27 -91l-81 -230h219zM449 745h-283v70h283v-70z" />
    <glyph glyph-name="amacron" unicode="&#x101;" horiz-adv-x="523" 
d="M446 0h-103q0 58 5 92l-1 1q-19 -46 -63 -74.5t-102 -28.5q-63 0 -101 38.5t-38 99.5q0 83 77.5 127.5t215.5 44.5v21q0 54 -22 78.5t-76 24.5q-73 0 -150 -35l-19 83q88 35 184 35q104 0 147 -44t43 -130v-197q0 -73 3 -136zM336 215v13q-189 0 -189 -87q0 -29 18.5 -48
t49.5 -19q52 0 86.5 42.5t34.5 98.5zM391 609h-259v78h259v-78z" />
    <glyph glyph-name="Abreve" unicode="&#x102;" horiz-adv-x="620" 
d="M614 0h-121l-51 149h-274l-52 -149h-110l240 675h125zM414 236l-81 229q-20 60 -28 92h-2q-11 -46 -27 -91l-81 -230h219zM442 855q0 -55 -36.5 -91.5t-100.5 -36.5q-63 0 -98 36.5t-35 91.5h65q0 -25 19.5 -42t49.5 -17q31 0 50 17t19 42h67z" />
    <glyph glyph-name="abreve" unicode="&#x103;" horiz-adv-x="523" 
d="M446 0h-103q0 58 5 92l-1 1q-19 -46 -63 -74.5t-102 -28.5q-63 0 -101 38.5t-38 99.5q0 83 77.5 127.5t215.5 44.5v21q0 54 -22 78.5t-76 24.5q-73 0 -150 -35l-19 83q88 35 184 35q104 0 147 -44t43 -130v-197q0 -73 3 -136zM336 215v13q-189 0 -189 -87q0 -29 18.5 -48
t49.5 -19q52 0 86.5 42.5t34.5 98.5zM394 719q0 -61 -33.5 -102t-98.5 -41t-97 41t-32 102h71q0 -29 15.5 -47t43.5 -18q27 0 43 17t16 48h72z" />
    <glyph glyph-name="Aogonek" unicode="&#x104;" horiz-adv-x="620" 
d="M644 -151q-49 -67 -129 -67q-50 0 -76.5 23t-26.5 62q0 72 81 133l-51 149h-274l-52 -149h-110l240 675h125l243 -675q-98 -45 -98 -102q0 -32 34 -32q28 0 50 31zM414 236l-81 229q-20 60 -28 92h-2q-11 -46 -27 -91l-81 -230h219z" />
    <glyph glyph-name="aogonek" unicode="&#x105;" horiz-adv-x="523" 
d="M497 -146q-50 -72 -133 -72q-44 0 -70 21.5t-26 63.5q0 76 88 141q-8 42 -8 81l-1 1q-21 -44 -64.5 -72t-100.5 -28q-63 0 -101 38.5t-38 99.5q0 83 77.5 128t215.5 45v29q0 48 -22.5 71t-75.5 23q-71 0 -150 -34l-19 83q85 34 184 34q105 0 147.5 -42.5t42.5 -122.5
v-171q0 -98 16 -171q-90 -50 -90 -100q0 -31 34 -31q29 0 50 32zM336 215v14q-190 0 -190 -88q0 -29 18.5 -48t49.5 -19q53 0 87.5 42.5t34.5 98.5z" />
    <glyph glyph-name="Cacute" unicode="&#x106;" horiz-adv-x="576" 
d="M533 26q-83 -34 -181 -34q-160 0 -234.5 90t-74.5 237q0 164 84.5 263t248.5 99q81 0 150 -21l-16 -100q-70 25 -143 25q-101 0 -153 -68.5t-52 -179.5q0 -247 214 -247q78 0 139 32zM498 776l-201 -55l-19 60l193 74z" />
    <glyph glyph-name="cacute" unicode="&#x107;" horiz-adv-x="431" 
d="M403 17q-60 -25 -144 -25q-221 0 -221 240q0 123 63.5 198t183.5 75q68 0 116 -19l-18 -91q-52 21 -104 21q-62 0 -95.5 -47t-33.5 -125q0 -160 130 -160q62 0 107 22zM396 677l-164 -111l-42 57l152 125z" />
    <glyph glyph-name="Ccircumflex" unicode="&#x108;" horiz-adv-x="576" 
d="M533 26q-83 -34 -181 -34q-160 0 -234.5 90t-74.5 237q0 164 84.5 263t248.5 99q81 0 150 -21l-16 -100q-70 25 -143 25q-101 0 -153 -68.5t-52 -179.5q0 -247 214 -247q78 0 139 32zM508 780l-29 -60l-137 58l-132 -58l-26 56l161 85z" />
    <glyph glyph-name="ccircumflex" unicode="&#x109;" horiz-adv-x="431" 
d="M403 17q-60 -25 -144 -25q-221 0 -221 240q0 123 63.5 198t183.5 75q68 0 116 -19l-18 -91q-52 21 -104 21q-62 0 -95.5 -47t-33.5 -125q0 -160 130 -160q62 0 107 22zM400 616l-45 -50l-101 83l-102 -83l-43 49l146 133z" />
    <glyph glyph-name="Cdotaccent" unicode="&#x10a;" horiz-adv-x="576" 
d="M533 26q-83 -34 -181 -34q-160 0 -234.5 90t-74.5 237q0 164 84.5 263t248.5 99q81 0 150 -21l-16 -100q-70 25 -143 25q-101 0 -153 -68.5t-52 -179.5q0 -247 214 -247q78 0 139 32zM412 783q0 -25 -18 -42.5t-44 -17.5t-44 17.5t-18 42.5t18 43t44 18t44 -18t18 -43z
" />
    <glyph glyph-name="cdotaccent" unicode="&#x10b;" horiz-adv-x="431" 
d="M403 17q-60 -25 -144 -25q-221 0 -221 240q0 123 63.5 198t183.5 75q68 0 116 -19l-18 -91q-52 21 -104 21q-62 0 -95.5 -47t-33.5 -125q0 -160 130 -160q62 0 107 22zM328 652q0 -28 -20 -47.5t-49 -19.5t-48.5 19.5t-19.5 47.5t20 47.5t48 19.5q29 0 49 -19.5t20 -47.5
z" />
    <glyph glyph-name="Ccaron" unicode="&#x10c;" horiz-adv-x="576" 
d="M533 26q-83 -34 -181 -34q-160 0 -234.5 90t-74.5 237q0 164 84.5 263t248.5 99q81 0 150 -21l-16 -100q-70 25 -143 25q-101 0 -153 -68.5t-52 -179.5q0 -247 214 -247q78 0 139 32zM506 805l-161 -85l-162 81l28 60l138 -59l131 58z" />
    <glyph glyph-name="ccaron" unicode="&#x10d;" horiz-adv-x="431" 
d="M403 17q-60 -25 -144 -25q-221 0 -221 240q0 123 63.5 198t183.5 75q68 0 116 -19l-18 -91q-52 21 -104 21q-62 0 -95.5 -47t-33.5 -125q0 -160 130 -160q62 0 107 22zM405 699l-146 -133l-145 132l45 50l101 -83l101 83z" />
    <glyph glyph-name="Dcaron" unicode="&#x10e;" horiz-adv-x="673" 
d="M631 347q0 -169 -102 -260t-272 -91q-41 0 -105.5 2t-73.5 2v674q16 0 56.5 1.5t79 2t73.5 0.5q344 0 344 -331zM515 339q0 249 -236 249q-44 0 -92 -2v-492q37 -5 81 -5q114 0 180.5 62.5t66.5 187.5zM458 805l-161 -85l-162 81l28 60l138 -59l131 58z" />
    <glyph glyph-name="dcaron" unicode="&#x10f;" horiz-adv-x="598" 
d="M479 0h-101q0 54 7 93h-2q-21 -47 -63.5 -75t-98.5 -28q-90 0 -136.5 62t-46.5 172q0 129 70 205t190 76q21 0 75 -4v229h106v-730zM373 257v154q-41 9 -79 9q-143 0 -143 -186q0 -156 99 -156q56 0 89.5 55t33.5 124zM662 747l-70 -188l-70 18l53 191z" />
    <glyph glyph-name="Dcroat" unicode="&#x110;" horiz-adv-x="682" 
d="M640 347q0 -167 -101 -258.5t-273 -92.5q-41 0 -105.5 2t-73.5 2v304h-83v82h83v288q16 0 56.5 1.5t79 2t73.5 0.5q344 0 344 -331zM524 339q0 249 -237 249q-44 0 -92 -2v-200h134v-82h-134v-210q37 -5 81 -5q114 0 181 62.5t67 187.5z" />
    <glyph glyph-name="dcroat" unicode="&#x111;" horiz-adv-x="557" 
d="M546 587h-67v-587h-101q0 54 7 93h-2q-21 -47 -63.5 -75t-98.5 -28q-90 0 -136.5 62t-46.5 172q0 129 70 205t190 76q21 0 75 -4v86h-112v70h112v73h106v-73h67v-70zM373 257v154q-41 9 -79 9q-143 0 -143 -186q0 -156 99 -156q56 0 89.5 55t33.5 124z" />
    <glyph glyph-name="Emacron" unicode="&#x112;" horiz-adv-x="498" 
d="M434 0h-356v675h356v-91h-247v-192h235v-89h-235v-210h247v-93zM396 745h-283v70h283v-70z" />
    <glyph glyph-name="emacron" unicode="&#x113;" horiz-adv-x="511" 
d="M468 300q0 -33 -4 -61h-316q-2 -84 34 -123.5t113 -39.5q74 0 143 29l14 -83q-83 -32 -176 -32q-238 0 -238 255q0 115 61.5 188.5t167.5 73.5q101 0 151 -58t50 -149zM361 313q1 52 -26 83t-74 31q-45 0 -74.5 -31t-36.5 -83h211zM389 609h-259v78h259v-78z" />
    <glyph glyph-name="Ebreve" unicode="&#x114;" horiz-adv-x="498" 
d="M434 0h-356v675h356v-91h-247v-192h235v-89h-235v-210h247v-93zM396 855q0 -55 -36.5 -91.5t-100.5 -36.5q-63 0 -98 36.5t-35 91.5h65q0 -25 19.5 -42t49.5 -17q31 0 50 17t19 42h67z" />
    <glyph glyph-name="ebreve" unicode="&#x115;" horiz-adv-x="511" 
d="M468 300q0 -33 -4 -61h-316q-2 -84 34 -123.5t113 -39.5q74 0 143 29l14 -83q-83 -32 -176 -32q-238 0 -238 255q0 115 61.5 188.5t167.5 73.5q101 0 151 -58t50 -149zM361 313q1 52 -26 83t-74 31q-45 0 -74.5 -31t-36.5 -83h211zM389 719q0 -61 -33.5 -102t-98.5 -41
t-97 41t-32 102h71q0 -29 15.5 -47t43.5 -18q27 0 43 17t16 48h72z" />
    <glyph glyph-name="Edotaccent" unicode="&#x116;" horiz-adv-x="498" 
d="M434 0h-356v675h356v-91h-247v-192h235v-89h-235v-210h247v-93zM320 783q0 -25 -18 -42.5t-44 -17.5t-44 17.5t-18 42.5t18 43t44 18t44 -18t18 -43z" />
    <glyph glyph-name="edotaccent" unicode="&#x117;" horiz-adv-x="511" 
d="M468 300q0 -33 -4 -61h-316q-2 -84 34 -123.5t113 -39.5q74 0 143 29l14 -83q-83 -32 -176 -32q-238 0 -238 255q0 115 61.5 188.5t167.5 73.5q101 0 151 -58t50 -149zM361 313q1 52 -26 83t-74 31q-45 0 -74.5 -31t-36.5 -83h211zM332 652q0 -28 -20 -47.5t-49 -19.5
t-48.5 19.5t-19.5 47.5t20 47.5t48 19.5q29 0 49 -19.5t20 -47.5z" />
    <glyph glyph-name="Eogonek" unicode="&#x118;" horiz-adv-x="498" 
d="M469 -151q-49 -67 -129 -67q-50 0 -78 23t-28 62q0 34 21 70t57 63h-234v675h354v-91h-245v-192h233v-89h-233v-210h251v-90q-44 -13 -70.5 -44t-26.5 -61q0 -32 34 -32q28 0 50 31z" />
    <glyph glyph-name="eogonek" unicode="&#x119;" horiz-adv-x="511" 
d="M452 22q-63 -19 -97.5 -55t-34.5 -69q0 -32 32 -32q34 0 60 29l35 -56q-48 -57 -129 -57q-50 0 -76 23t-26 62q0 30 18.5 64.5t54.5 62.5q-8 -2 -28 -2q-99 0 -161 60t-62 193q0 115 61.5 188.5t167.5 73.5q101 0 151 -58t50 -149q0 -33 -4 -61h-316q-2 -84 34 -123.5
t113 -39.5q74 0 143 29zM361 313q1 52 -26 83t-74 31q-45 0 -74.5 -31t-36.5 -83h211z" />
    <glyph glyph-name="Ecaron" unicode="&#x11a;" horiz-adv-x="498" 
d="M434 0h-356v675h356v-91h-247v-192h235v-89h-235v-210h247v-93zM415 805l-161 -85l-162 81l28 60l138 -59l131 58z" />
    <glyph glyph-name="ecaron" unicode="&#x11b;" horiz-adv-x="511" 
d="M468 300q0 -33 -4 -61h-316q-2 -84 34 -123.5t113 -39.5q74 0 143 29l14 -83q-83 -32 -176 -32q-238 0 -238 255q0 115 61.5 188.5t167.5 73.5q101 0 151 -58t50 -149zM361 313q1 52 -26 83t-74 31q-45 0 -74.5 -31t-36.5 -83h211zM408 699l-146 -133l-145 132l45 50
l101 -83l101 83z" />
    <glyph glyph-name="Gcircumflex" unicode="&#x11c;" horiz-adv-x="679" 
d="M604 31q-106 -41 -226 -41q-161 0 -249.5 87.5t-88.5 241.5q0 166 96 265.5t272 99.5q97 0 189 -28l-23 -100q-83 33 -174 33q-122 0 -182.5 -72t-60.5 -183q0 -117 61 -182t173 -65q54 0 104 16v245h109v-317zM542 780l-29 -60l-137 58l-132 -58l-26 56l161 85z" />
    <glyph glyph-name="gcircumflex" unicode="&#x11d;" horiz-adv-x="543" 
d="M515 -60q0 -82 -74.5 -138t-192.5 -56q-99 0 -155 38.5t-56 110.5q0 39 23.5 74t57.5 54q-49 21 -49 75q0 27 15.5 50.5t41.5 35.5q-74 42 -74 136q0 79 57 133t158 54q32 0 75 -10h169v-84h-76q33 -28 33 -79q0 -81 -54.5 -130.5t-156.5 -49.5q-23 0 -47 6
q-29 -14 -29 -37q0 -19 18.5 -26.5t63.5 -9.5l84 -3q168 -6 168 -144zM365 328q0 46 -27 73t-76 27t-77.5 -28t-28.5 -72q0 -47 27 -73t77 -26q49 0 77 26.5t28 72.5zM409 -75q0 70 -92 74l-91 3h-27q-56 -40 -56 -88q0 -39 33.5 -62t88.5 -23q68 0 106 27t38 69zM405 616
l-45 -50l-101 83l-102 -83l-43 49l146 133z" />
    <glyph glyph-name="Gbreve" unicode="&#x11e;" horiz-adv-x="679" 
d="M604 31q-106 -41 -226 -41q-161 0 -249.5 87.5t-88.5 241.5q0 166 96 265.5t272 99.5q97 0 189 -28l-23 -100q-83 33 -174 33q-122 0 -182.5 -72t-60.5 -183q0 -117 61 -182t173 -65q54 0 104 16v245h109v-317zM523 855q0 -55 -36.5 -91.5t-100.5 -36.5q-63 0 -98 36.5
t-35 91.5h65q0 -25 19.5 -42t49.5 -17q31 0 50 17t19 42h67z" />
    <glyph glyph-name="gbreve" unicode="&#x11f;" horiz-adv-x="543" 
d="M515 -60q0 -82 -74.5 -138t-192.5 -56q-99 0 -155 38.5t-56 110.5q0 39 23.5 74t57.5 54q-49 21 -49 75q0 27 15.5 50.5t41.5 35.5q-74 42 -74 136q0 79 57 133t158 54q32 0 75 -10h169v-84h-76q33 -28 33 -79q0 -81 -54.5 -130.5t-156.5 -49.5q-23 0 -47 6
q-29 -14 -29 -37q0 -19 18.5 -26.5t63.5 -9.5l84 -3q168 -6 168 -144zM365 328q0 46 -27 73t-76 27t-77.5 -28t-28.5 -72q0 -47 27 -73t77 -26q49 0 77 26.5t28 72.5zM409 -75q0 70 -92 74l-91 3h-27q-56 -40 -56 -88q0 -39 33.5 -62t88.5 -23q68 0 106 27t38 69zM397 719
q0 -61 -33.5 -102t-98.5 -41t-97 41t-32 102h71q0 -29 15.5 -47t43.5 -18q27 0 43 17t16 48h72z" />
    <glyph glyph-name="Gdotaccent" unicode="&#x120;" horiz-adv-x="679" 
d="M604 31q-106 -41 -226 -41q-161 0 -249.5 87.5t-88.5 241.5q0 166 96 265.5t272 99.5q97 0 189 -28l-23 -100q-83 33 -174 33q-122 0 -182.5 -72t-60.5 -183q0 -117 61 -182t173 -65q54 0 104 16v245h109v-317zM449 783q0 -25 -18 -42.5t-44 -17.5t-44 17.5t-18 42.5
t18 43t44 18t44 -18t18 -43z" />
    <glyph glyph-name="gdotaccent" unicode="&#x121;" horiz-adv-x="543" 
d="M515 -60q0 -82 -74.5 -138t-192.5 -56q-99 0 -155 38.5t-56 110.5q0 39 23.5 74t57.5 54q-49 21 -49 75q0 27 15.5 50.5t41.5 35.5q-74 42 -74 136q0 79 57 133t158 54q32 0 75 -10h169v-84h-76q33 -28 33 -79q0 -81 -54.5 -130.5t-156.5 -49.5q-23 0 -47 6
q-29 -14 -29 -37q0 -19 18.5 -26.5t63.5 -9.5l84 -3q168 -6 168 -144zM365 328q0 46 -27 73t-76 27t-77.5 -28t-28.5 -72q0 -47 27 -73t77 -26q49 0 77 26.5t28 72.5zM409 -75q0 70 -92 74l-91 3h-27q-56 -40 -56 -88q0 -39 33.5 -62t88.5 -23q68 0 106 27t38 69zM327 652
q0 -28 -20 -47.5t-49 -19.5t-48.5 19.5t-19.5 47.5t20 47.5t48 19.5q29 0 49 -19.5t20 -47.5z" />
    <glyph glyph-name="Gcommaaccent" unicode="&#x122;" horiz-adv-x="679" 
d="M604 31q-106 -41 -226 -41q-161 0 -249.5 87.5t-88.5 241.5q0 166 96 265.5t272 99.5q97 0 189 -28l-23 -100q-83 33 -174 33q-122 0 -182.5 -72t-60.5 -183q0 -117 61 -182t173 -65q54 0 104 16v245h109v-317zM376 -48q25 0 40 -17.5t15 -43.5q0 -36 -29.5 -71.5
t-93.5 -60.5l-22 39q48 30 48 62q0 10 -5.5 21t-5.5 20q0 21 14.5 36t38.5 15z" />
    <glyph glyph-name="gcommaaccent" unicode="&#x123;" horiz-adv-x="543" 
d="M515 -60q0 -82 -74.5 -138t-192.5 -56q-99 0 -155 38.5t-56 110.5q0 39 23.5 74t57.5 54q-49 21 -49 75q0 27 15.5 50.5t41.5 35.5q-74 42 -74 136q0 79 57 133t158 54q32 0 75 -10h169v-84h-76q33 -28 33 -79q0 -81 -54.5 -130.5t-156.5 -49.5q-23 0 -47 6
q-29 -14 -29 -37q0 -19 18.5 -26.5t63.5 -9.5l84 -3q168 -6 168 -144zM365 328q0 46 -27 73t-76 27t-77.5 -28t-28.5 -72q0 -47 27 -73t77 -26q49 0 77 26.5t28 72.5zM409 -75q0 70 -92 74l-91 3h-27q-56 -40 -56 -88q0 -39 33.5 -62t88.5 -23q68 0 106 27t38 69zM254 564
q-24 0 -39.5 17.5t-15.5 44.5q0 35 29.5 71t93.5 60l22 -40q-48 -29 -48 -61q0 -10 5.5 -21.5t5.5 -20.5q0 -22 -15 -36t-38 -14z" />
    <glyph glyph-name="Hcircumflex" unicode="&#x124;" horiz-adv-x="693" 
d="M614 0h-108v303h-319v-303h-109v675h109v-279h319v279h108v-675zM509 780l-29 -60l-137 58l-132 -58l-26 56l161 85z" />
    <glyph glyph-name="hcircumflex" unicode="&#x125;" horiz-adv-x="573" 
d="M495 0h-106v319q0 49 -16.5 74t-57.5 25q-56 0 -93 -51.5t-37 -127.5v-239h-107v730h107v-226q0 -64 -9 -100l2 -1q22 48 66 76t103 28q148 0 148 -159v-348zM445 814l-29 -60l-137 58l-132 -58l-26 56l161 85z" />
    <glyph glyph-name="Hbar" unicode="&#x126;" horiz-adv-x="713" 
d="M624 577h71v-89h-71v-488h-108v292h-319v-292h-109v488h-71v89h71v98h109v-98h319v98h108v-98zM516 488h-319v-108h319v108z" />
    <glyph glyph-name="hbar" unicode="&#x127;" horiz-adv-x="578" 
d="M500 0h-107v317q0 49 -16.5 74t-57.5 25q-56 0 -93 -52t-37 -127v-237h-107v572h-82v83h82v75h107v-75h128v-83h-128v-77q0 -57 -9 -93l2 -1q22 48 66 76t103 28q149 0 149 -159v-346z" />
    <glyph glyph-name="Itilde" unicode="&#x128;" horiz-adv-x="266" 
d="M187 0h-109v675h109v-675zM315 809q-45 -77 -118 -77q-37 0 -75 25t-56 25q-34 0 -60 -44l-54 37q44 78 118 78q37 0 75 -25t56 -25q33 0 60 44z" />
    <glyph glyph-name="itilde" unicode="&#x129;" horiz-adv-x="263" 
d="M185 0h-107v497h107v-497zM307 669q-44 -83 -115 -83q-36 0 -72 26.5t-53 26.5q-32 0 -58 -46l-52 40q41 83 115 83q36 0 72 -26.5t53 -26.5q32 0 58 46z" />
    <glyph glyph-name="Imacron" unicode="&#x12a;" horiz-adv-x="266" 
d="M187 0h-109v675h109v-675zM275 745h-283v70h283v-70z" />
    <glyph glyph-name="imacron" unicode="&#x12b;" horiz-adv-x="263" 
d="M185 0h-107v497h107v-497zM261 609h-259v78h259v-78z" />
    <glyph glyph-name="Ibreve" unicode="&#x12c;" horiz-adv-x="266" 
d="M187 0h-109v675h109v-675zM268 855q0 -55 -36.5 -91.5t-100.5 -36.5q-63 0 -98 36.5t-35 91.5h65q0 -25 19.5 -42t49.5 -17q31 0 50 17t19 42h67z" />
    <glyph glyph-name="ibreve" unicode="&#x12d;" horiz-adv-x="263" 
d="M185 0h-107v497h107v-497zM263 719q0 -61 -33.5 -102t-98.5 -41t-97 41t-32 102h71q0 -29 15.5 -47t43.5 -18q27 0 43 17t16 48h72z" />
    <glyph glyph-name="Iogonek" unicode="&#x12e;" horiz-adv-x="266" 
d="M225 -147q-48 -71 -133 -71q-44 0 -70 21.5t-26 63.5q0 39 24 75.5t58 61.5v671h109v-675q-90 -48 -90 -101q0 -31 34 -31q28 0 49 32z" />
    <glyph glyph-name="iogonek" unicode="&#x12f;" horiz-adv-x="263" 
d="M200 652q0 -28 -20 -47.5t-48 -19.5q-29 0 -49 19.5t-20 47.5t20 47.5t49 19.5q28 0 48 -19.5t20 -47.5zM223 -147q-48 -71 -133 -71q-44 0 -70 21.5t-26 63.5q0 78 84 137v493h107v-497q-90 -47 -90 -101q0 -31 34 -31q28 0 50 32z" />
    <glyph glyph-name="Idotaccent" unicode="&#x130;" horiz-adv-x="266" 
d="M187 0h-109v675h109v-675zM196 783q0 -25 -18 -42.5t-44 -17.5t-44 17.5t-18 42.5t18 43t44 18t44 -18t18 -43z" />
    <glyph glyph-name="dotlessi" unicode="&#x131;" horiz-adv-x="263" 
d="M185 0h-107v497h107v-497z" />
    <glyph glyph-name="IJ" unicode="&#x132;" horiz-adv-x="598" 
d="M187 0h-109v675h109v-675zM520 182q0 -190 -175 -190q-36 0 -78 8v94q34 -10 65 -10q41 0 60.5 22t19.5 81v488h108v-493z" />
    <glyph glyph-name="Jcircumflex" unicode="&#x134;" horiz-adv-x="332" 
d="M254 182q0 -190 -175 -190q-36 0 -78 8v94q34 -10 65 -10q41 0 60.5 22t19.5 81v488h108v-493zM359 780l-29 -60l-137 58l-132 -58l-26 56l161 85z" />
    <glyph glyph-name="jcircumflex" unicode="&#x135;" horiz-adv-x="268" 
d="M190 -47q0 -105 -41 -154.5t-140 -49.5q-39 0 -69 9l7 92q30 -11 62 -11q43 0 59 22t16 82v554h106v-544zM283 616l-45 -50l-101 83l-102 -83l-43 49l146 133z" />
    <glyph glyph-name="Kcommaaccent" unicode="&#x136;" horiz-adv-x="590" 
d="M577 0h-145l-245 330v-330h-109v675h109v-313l246 313h134l-268 -326zM300 -48q25 0 40 -17.5t15 -43.5q0 -36 -29.5 -71.5t-93.5 -60.5l-22 39q48 30 48 62q0 10 -5.5 21t-5.5 20q0 21 14.5 36t38.5 15z" />
    <glyph glyph-name="kcommaaccent" unicode="&#x137;" horiz-adv-x="506" 
d="M491 0h-136l-170 252v-252h-107v730h107v-446l161 213h131l-184 -227zM261 -48q25 0 40 -17.5t15 -43.5q0 -36 -29.5 -71.5t-93.5 -60.5l-22 39q48 30 48 62q0 10 -5.5 21t-5.5 20q0 21 14.5 36t38.5 15z" />
    <glyph glyph-name="kgreenlandic" unicode="&#x138;" horiz-adv-x="506" 
d="M491 0h-136l-170 252v-252h-107v497h107v-213l161 213h131l-184 -227z" />
    <glyph glyph-name="Lacute" unicode="&#x139;" horiz-adv-x="427" 
d="M419 0h-341v675h109v-580h232v-95zM340 776l-201 -55l-19 60l193 74z" />
    <glyph glyph-name="lacute" unicode="&#x13a;" horiz-adv-x="263" 
d="M185 0h-107v730h107v-730zM295 811l-201 -55l-19 60l193 74z" />
    <glyph glyph-name="Lcommaaccent" unicode="&#x13b;" horiz-adv-x="427" 
d="M419 0h-341v675h109v-580h232v-95zM254 -48q25 0 40 -17.5t15 -43.5q0 -36 -29.5 -71.5t-93.5 -60.5l-22 39q48 30 48 62q0 10 -5.5 21t-5.5 20q0 21 14.5 36t38.5 15z" />
    <glyph glyph-name="lcommaaccent" unicode="&#x13c;" horiz-adv-x="263" 
d="M185 0h-107v730h107v-730zM134 -48q25 0 40 -17.5t15 -43.5q0 -36 -29.5 -71.5t-93.5 -60.5l-22 39q48 30 48 62q0 10 -5.5 21t-5.5 20q0 21 14.5 36t38.5 15z" />
    <glyph glyph-name="Lcaron" unicode="&#x13d;" horiz-adv-x="431" 
d="M419 0h-341v675h109v-580h232v-95zM429 759l-120 -161l-62 36l104 168z" />
    <glyph glyph-name="lcaron" unicode="&#x13e;" horiz-adv-x="303" 
d="M185 0h-107v730h107v-730zM368 747l-70 -188l-70 18l53 191z" />
    <glyph glyph-name="Ldot" unicode="&#x13f;" horiz-adv-x="618" 
d="M419 0h-341v675h109v-580h232v-95zM565 297q0 -30 -21 -51t-51 -21t-51.5 21t-21.5 51q0 31 21.5 52t51.5 21t51 -21t21 -52z" />
    <glyph glyph-name="ldot" unicode="&#x140;" horiz-adv-x="501" 
d="M185 0h-107v730h107v-730zM448 297q0 -30 -21 -51t-51 -21t-51.5 21t-21.5 51q0 31 21.5 52t51.5 21t51 -21t21 -52z" />
    <glyph glyph-name="Lslash" unicode="&#x141;" horiz-adv-x="436" 
d="M428 0h-341v334l-72 -34l-22 83l94 44v248h109v-198l105 48l22 -83l-127 -57v-290h232v-95z" />
    <glyph glyph-name="lslash" unicode="&#x142;" horiz-adv-x="295" 
d="M288 451l-85 -48v-403h-107v346l-57 -32l-24 78l81 45v293h107v-236l61 35z" />
    <glyph glyph-name="Nacute" unicode="&#x143;" horiz-adv-x="704" 
d="M625 0h-144l-239 406q-40 70 -66 132q7 -115 7 -352v-186h-105v675h144l235 -397q42 -74 70 -137q-7 135 -7 363v171h105v-675zM528 776l-201 -55l-19 60l193 74z" />
    <glyph glyph-name="nacute" unicode="&#x144;" horiz-adv-x="573" 
d="M495 0h-106v319q0 49 -16.5 74t-57.5 25q-56 0 -93 -51.5t-37 -127.5v-239h-107v497h102q0 -59 -7 -98h1q23 50 67.5 79t105.5 29q148 0 148 -159v-348zM438 677l-164 -111l-42 57l152 125z" />
    <glyph glyph-name="Ncommaaccent" unicode="&#x145;" horiz-adv-x="704" 
d="M625 0h-144l-239 406q-40 70 -66 132q7 -115 7 -352v-186h-105v675h144l235 -397q42 -74 70 -137q-7 135 -7 363v171h105v-675zM349 -48q25 0 40 -17.5t15 -43.5q0 -36 -29.5 -71.5t-93.5 -60.5l-22 39q48 30 48 62q0 10 -5.5 21t-5.5 20q0 21 14.5 36t38.5 15z" />
    <glyph glyph-name="ncommaaccent" unicode="&#x146;" horiz-adv-x="573" 
d="M495 0h-106v319q0 49 -16.5 74t-57.5 25q-56 0 -93 -51.5t-37 -127.5v-239h-107v497h102q0 -59 -7 -98h1q23 50 67.5 79t105.5 29q148 0 148 -159v-348zM291 -48q25 0 40 -17.5t15 -43.5q0 -36 -29.5 -71.5t-93.5 -60.5l-22 39q48 30 48 62q0 10 -5.5 21t-5.5 20
q0 21 14.5 36t38.5 15z" />
    <glyph glyph-name="Ncaron" unicode="&#x147;" horiz-adv-x="704" 
d="M625 0h-144l-239 406q-40 70 -66 132q7 -115 7 -352v-186h-105v675h144l235 -397q42 -74 70 -137q-7 135 -7 363v171h105v-675zM515 805l-161 -85l-162 81l28 60l138 -59l131 58z" />
    <glyph glyph-name="ncaron" unicode="&#x148;" horiz-adv-x="573" 
d="M495 0h-106v319q0 49 -16.5 74t-57.5 25q-56 0 -93 -51.5t-37 -127.5v-239h-107v497h102q0 -59 -7 -98h1q23 50 67.5 79t105.5 29q148 0 148 -159v-348zM433 699l-146 -133l-145 132l45 50l101 -83l101 83z" />
    <glyph glyph-name="napostrophe" unicode="&#x149;" horiz-adv-x="670" 
d="M103 745q44 0 60 -45q23 -64 -35 -149q-27 -39 -69 -77l-42 37q81 87 39 137q-23 28 -8 62.5t55 34.5zM591 0h-106v319q0 49 -16.5 74t-57.5 25q-56 0 -93 -51.5t-37 -127.5v-239h-107v497h102q0 -59 -7 -98h1q23 50 67.5 79t105.5 29q148 0 148 -159v-348z" />
    <glyph glyph-name="Eng" unicode="&#x14a;" horiz-adv-x="704" 
d="M625 675v-673q0 -123 -48.5 -180t-150.5 -76l-24 86q60 10 88.5 43.5t28.5 108.5l-272 420q-44 68 -71 124q7 -92 7 -342v-186h-105v675h127l255 -390q33 -49 67 -116q-7 135 -7 335v171h105z" />
    <glyph glyph-name="eng" unicode="&#x14b;" horiz-adv-x="573" 
d="M500 191q0 -165 -15.5 -233t-54.5 -107q-41 -41 -127 -62l-24 83q49 13 72 36q25 25 34 72t9 182v21q0 97 -10 148.5t-27.5 69t-50.5 17.5q-49 0 -85 -50t-36 -117v-251h-107v497h102q0 -60 -7 -97h1q22 49 65.5 78t97.5 29q89 0 126 -65.5t37 -230.5v-20z" />
    <glyph glyph-name="Omacron" unicode="&#x14c;" horiz-adv-x="704" 
d="M666 347q0 -164 -93 -260.5t-231 -96.5q-150 0 -227 90t-77 248q0 164 93 260.5t231 96.5q150 0 227 -90t77 -248zM550 332q0 119 -50 188t-147 69q-86 0 -142.5 -66t-56.5 -180q0 -119 50 -187.5t147 -68.5q86 0 142.5 65.5t56.5 179.5zM495 745h-283v70h283v-70z" />
    <glyph glyph-name="omacron" unicode="&#x14d;" horiz-adv-x="549" 
d="M511 258q0 -116 -69 -192t-178 -76q-107 0 -167.5 62.5t-60.5 189.5q0 115 68.5 190t179.5 75q105 0 166 -61.5t61 -187.5zM401 251q0 166 -126 166q-53 0 -90.5 -42t-37.5 -122q0 -171 127 -171q55 0 91 43.5t36 125.5zM409 609h-259v78h259v-78z" />
    <glyph glyph-name="Obreve" unicode="&#x14e;" horiz-adv-x="704" 
d="M666 347q0 -164 -93 -260.5t-231 -96.5q-150 0 -227 90t-77 248q0 164 93 260.5t231 96.5q150 0 227 -90t77 -248zM550 332q0 119 -50 188t-147 69q-86 0 -142.5 -66t-56.5 -180q0 -119 50 -187.5t147 -68.5q86 0 142.5 65.5t56.5 179.5zM487 855q0 -55 -36.5 -91.5
t-100.5 -36.5q-63 0 -98 36.5t-35 91.5h65q0 -25 19.5 -42t49.5 -17q31 0 50 17t19 42h67z" />
    <glyph glyph-name="obreve" unicode="&#x14f;" horiz-adv-x="549" 
d="M511 258q0 -116 -69 -192t-178 -76q-107 0 -167.5 62.5t-60.5 189.5q0 115 68.5 190t179.5 75q105 0 166 -61.5t61 -187.5zM401 251q0 166 -126 166q-53 0 -90.5 -42t-37.5 -122q0 -171 127 -171q55 0 91 43.5t36 125.5zM405 719q0 -61 -33.5 -102t-98.5 -41t-97 41
t-32 102h71q0 -29 15.5 -47t43.5 -18q27 0 43 17t16 48h72z" />
    <glyph glyph-name="Ohungarumlaut" unicode="&#x150;" horiz-adv-x="704" 
d="M666 347q0 -164 -93 -260.5t-231 -96.5q-150 0 -227 90t-77 248q0 164 93 260.5t231 96.5q150 0 227 -90t77 -248zM550 332q0 119 -50 188t-147 69q-86 0 -142.5 -66t-56.5 -180q0 -119 50 -187.5t147 -68.5q86 0 142.5 65.5t56.5 179.5zM626 802l-167 -82l-33 51l158 98
zM413 813l-155 -94l-36 49l145 108z" />
    <glyph glyph-name="ohungarumlaut" unicode="&#x151;" horiz-adv-x="549" 
d="M511 258q0 -116 -69 -192t-178 -76q-107 0 -167.5 62.5t-60.5 189.5q0 115 68.5 190t179.5 75q105 0 166 -61.5t61 -187.5zM401 251q0 166 -126 166q-53 0 -90.5 -42t-37.5 -122q0 -171 127 -171q55 0 91 43.5t36 125.5zM528 693l-146 -127l-49 44l135 140zM337 703
l-136 -137l-51 44l123 147z" />
    <glyph glyph-name="OE" unicode="&#x152;" horiz-adv-x="862" 
d="M799 0h-348q-58 -10 -109 -10q-150 0 -227 90.5t-77 249.5q0 163 92.5 259t228.5 96q57 0 103 -10h337v-91h-248v-192h235v-89h-235v-210h248v-93zM443 102v473q-44 14 -90 14q-84 0 -141.5 -65t-57.5 -181q0 -119 49.5 -187.5t146.5 -68.5q45 0 93 15z" />
    <glyph glyph-name="oe" unicode="&#x153;" horiz-adv-x="867" 
d="M824 292q0 -20 -3 -52h-317q-4 -164 147 -164q75 0 143 30l14 -84q-79 -32 -176 -32q-133 0 -188 93q-62 -93 -180 -93q-108 0 -168 62t-60 190q0 115 68 190t180 75q53 0 99 -21.5t73 -63.5q58 85 165 85q101 0 152 -60t51 -155zM717 313q1 53 -26 83.5t-74 30.5
q-44 0 -74 -31t-37 -83h211zM401 251q0 166 -126 166q-53 0 -90.5 -42t-37.5 -122q0 -171 127 -171q55 0 91 43.5t36 125.5z" />
    <glyph glyph-name="Racute" unicode="&#x154;" horiz-adv-x="559" 
d="M539 0h-136l-204 292h-12v-292h-109v675q65 4 181 4q236 0 236 -183q0 -78 -52.5 -129t-131.5 -60q49 -62 56 -72zM381 484q0 106 -137 106q-25 0 -57 -2v-214q20 -2 53 -2q65 0 103 30.5t38 81.5zM422 776l-201 -55l-19 60l193 74z" />
    <glyph glyph-name="racute" unicode="&#x155;" horiz-adv-x="355" 
d="M337 506l-5 -105q-74 14 -110.5 -36t-36.5 -163v-202h-107v497h102q0 -56 -10 -110h2q19 57 59.5 91.5t105.5 27.5zM354 677l-164 -111l-42 57l152 125z" />
    <glyph glyph-name="Rcommaaccent" unicode="&#x156;" horiz-adv-x="559" 
d="M539 0h-136l-204 292h-12v-292h-109v675q65 4 181 4q236 0 236 -183q0 -78 -52.5 -129t-131.5 -60q49 -62 56 -72zM381 484q0 106 -137 106q-25 0 -57 -2v-214q20 -2 53 -2q65 0 103 30.5t38 81.5zM288 -48q25 0 40 -17.5t15 -43.5q0 -36 -29.5 -71.5t-93.5 -60.5l-22 39
q48 30 48 62q0 10 -5.5 21t-5.5 20q0 21 14.5 36t38.5 15z" />
    <glyph glyph-name="rcommaaccent" unicode="&#x157;" horiz-adv-x="355" 
d="M337 506l-5 -105q-74 14 -110.5 -36t-36.5 -163v-202h-107v497h102q0 -56 -10 -110h2q19 57 59.5 91.5t105.5 27.5zM143 -48q25 0 40 -17.5t15 -43.5q0 -36 -29.5 -71.5t-93.5 -60.5l-22 39q48 30 48 62q0 10 -5.5 21t-5.5 20q0 21 14.5 36t38.5 15z" />
    <glyph glyph-name="Rcaron" unicode="&#x158;" horiz-adv-x="559" 
d="M539 0h-136l-204 292h-12v-292h-109v675q65 4 181 4q236 0 236 -183q0 -78 -52.5 -129t-131.5 -60q49 -62 56 -72zM381 484q0 106 -137 106q-25 0 -57 -2v-214q20 -2 53 -2q65 0 103 30.5t38 81.5zM425 805l-161 -85l-162 81l28 60l138 -59l131 58z" />
    <glyph glyph-name="rcaron" unicode="&#x159;" horiz-adv-x="355" 
d="M337 506l-5 -105q-74 14 -110.5 -36t-36.5 -163v-202h-107v497h102q0 -56 -10 -110h2q19 57 59.5 91.5t105.5 27.5zM353 699l-146 -133l-145 132l45 50l101 -83l101 83z" />
    <glyph glyph-name="Sacute" unicode="&#x15a;" horiz-adv-x="503" 
d="M460 202q0 -93 -70 -152.5t-184 -59.5q-84 0 -152 19l12 104q72 -28 144 -28q58 0 95 25.5t37 77.5q0 39 -30.5 64t-74 41t-87 35.5t-74 59.5t-30.5 100q0 89 64.5 143t179.5 54q62 0 122 -13l-11 -96q-57 19 -116 19q-62 0 -93 -25t-31 -69q0 -37 31 -62t74.5 -41.5
t87.5 -36.5t75 -60t31 -99zM418 776l-201 -55l-19 60l193 74z" />
    <glyph glyph-name="sacute" unicode="&#x15b;" horiz-adv-x="421" 
d="M376 152q0 -72 -58 -117t-156 -45q-62 0 -110 14l8 91q49 -19 109 -19q42 0 68.5 17.5t26.5 47.5q0 28 -22.5 44t-54.5 25.5t-64 22t-54.5 42.5t-22.5 78q0 68 52 111t151 43q46 0 94 -10l-6 -86q-45 14 -94 14q-87 0 -87 -62q0 -27 22.5 -43t55 -26t65 -23t55 -43
t22.5 -76zM359 677l-164 -111l-42 57l152 125z" />
    <glyph glyph-name="Scircumflex" unicode="&#x15c;" horiz-adv-x="503" 
d="M460 202q0 -93 -70 -152.5t-184 -59.5q-84 0 -152 19l12 104q72 -28 144 -28q58 0 95 25.5t37 77.5q0 39 -30.5 64t-74 41t-87 35.5t-74 59.5t-30.5 100q0 89 64.5 143t179.5 54q62 0 122 -13l-11 -96q-57 19 -116 19q-62 0 -93 -25t-31 -69q0 -37 31 -62t74.5 -41.5
t87.5 -36.5t75 -60t31 -99zM423 780l-29 -60l-137 58l-132 -58l-26 56l161 85z" />
    <glyph glyph-name="scircumflex" unicode="&#x15d;" horiz-adv-x="421" 
d="M376 152q0 -72 -58 -117t-156 -45q-62 0 -110 14l8 91q49 -19 109 -19q42 0 68.5 17.5t26.5 47.5q0 28 -22.5 44t-54.5 25.5t-64 22t-54.5 42.5t-22.5 78q0 68 52 111t151 43q46 0 94 -10l-6 -86q-45 14 -94 14q-87 0 -87 -62q0 -27 22.5 -43t55 -26t65 -23t55 -43
t22.5 -76zM354 616l-45 -50l-101 83l-102 -83l-43 49l146 133z" />
    <glyph glyph-name="Scedilla" unicode="&#x15e;" horiz-adv-x="503" 
d="M460 202q0 -93 -70 -152.5t-184 -59.5q-84 0 -152 19l12 104q72 -28 144 -28q58 0 95 25.5t37 77.5q0 39 -30.5 64t-74 41t-87 35.5t-74 59.5t-30.5 100q0 89 64.5 143t179.5 54q62 0 122 -13l-11 -96q-57 19 -116 19q-62 0 -93 -25t-31 -69q0 -37 31 -62t74.5 -41.5
t87.5 -36.5t75 -60t31 -99zM277 -40q71 -95 -21 -195h-83q40 49 44 83.5t-30 80.5z" />
    <glyph glyph-name="scedilla" unicode="&#x15f;" horiz-adv-x="421" 
d="M376 152q0 -72 -58 -117t-156 -45q-62 0 -110 14l8 91q49 -19 109 -19q42 0 68.5 17.5t26.5 47.5q0 28 -22.5 44t-54.5 25.5t-64 22t-54.5 42.5t-22.5 78q0 68 52 111t151 43q46 0 94 -10l-6 -86q-45 14 -94 14q-87 0 -87 -62q0 -27 22.5 -43t55 -26t65 -23t55 -43
t22.5 -76zM241 -40q71 -95 -21 -195h-83q40 49 44 83.5t-30 80.5z" />
    <glyph glyph-name="Scaron" unicode="&#x160;" horiz-adv-x="503" 
d="M460 202q0 -93 -70 -152.5t-184 -59.5q-84 0 -152 19l12 104q72 -28 144 -28q58 0 95 25.5t37 77.5q0 39 -30.5 64t-74 41t-87 35.5t-74 59.5t-30.5 100q0 89 64.5 143t179.5 54q62 0 122 -13l-11 -96q-57 19 -116 19q-62 0 -93 -25t-31 -69q0 -37 31 -62t74.5 -41.5
t87.5 -36.5t75 -60t31 -99zM415 805l-161 -85l-162 81l28 60l138 -59l131 58z" />
    <glyph glyph-name="scaron" unicode="&#x161;" horiz-adv-x="421" 
d="M376 152q0 -72 -58 -117t-156 -45q-62 0 -110 14l8 91q49 -19 109 -19q42 0 68.5 17.5t26.5 47.5q0 28 -22.5 44t-54.5 25.5t-64 22t-54.5 42.5t-22.5 78q0 68 52 111t151 43q46 0 94 -10l-6 -86q-45 14 -94 14q-87 0 -87 -62q0 -27 22.5 -43t55 -26t65 -23t55 -43
t22.5 -76zM358 699l-146 -133l-145 132l45 50l101 -83l101 83z" />
    <glyph glyph-name="uni0162" unicode="&#x162;" horiz-adv-x="514" 
d="M497 583h-186v-583h-109v583h-185v92h480v-92zM294 -40q71 -95 -21 -195h-83q40 49 44 83.5t-30 80.5z" />
    <glyph glyph-name="uni0163" unicode="&#x163;" horiz-adv-x="373" 
d="M341 3q-51 -12 -104 -12q-78 0 -108 34t-30 118v271h-95v83h95v158l107 29v-187h130v-83h-130v-238q0 -55 13.5 -74.5t51.5 -19.5q29 0 61 7zM252 -40q71 -95 -21 -195h-83q40 49 44 83.5t-30 80.5z" />
    <glyph glyph-name="Tcaron" unicode="&#x164;" horiz-adv-x="514" 
d="M497 583h-186v-583h-109v583h-185v92h480v-92zM417 805l-161 -85l-162 81l28 60l138 -59l131 58z" />
    <glyph glyph-name="tcaron" unicode="&#x165;" horiz-adv-x="377" 
d="M341 3q-51 -12 -104 -12q-78 0 -108 34t-30 118v271h-95v83h95v158l107 29v-187h130v-83h-130v-238q0 -55 13.5 -74.5t51.5 -19.5q29 0 61 7zM396 747l-70 -188l-70 18l53 191z" />
    <glyph glyph-name="Tbar" unicode="&#x166;" horiz-adv-x="514" 
d="M202 392v191h-185v92h480v-92h-186v-191h111v-89h-111v-303h-109v303h-110v89h110z" />
    <glyph glyph-name="tbar" unicode="&#x167;" horiz-adv-x="399" 
d="M215 311h130v-78h-130v-61q0 -52 13.5 -71t51.5 -19q30 0 61 7l8 -86q-51 -12 -103 -12q-78 0 -108 34t-30 118v90h-95v78h95v107h-95v79h95v158l107 29v-187h130v-79h-130v-107z" />
    <glyph glyph-name="Utilde" unicode="&#x168;" horiz-adv-x="687" 
d="M609 260q0 -134 -70 -202t-204 -68q-76 0 -129 19.5t-79.5 55t-37.5 75t-11 90.5v445h109v-437q0 -75 34 -116.5t121 -41.5q84 0 122 39.5t38 132.5v423h107v-415zM525 809q-45 -77 -118 -77q-37 0 -75 25t-56 25q-34 0 -60 -44l-54 37q44 78 118 78q37 0 75 -25t56 -25
q33 0 60 44z" />
    <glyph glyph-name="utilde" unicode="&#x169;" horiz-adv-x="573" 
d="M495 0h-102q0 59 7 98h-1q-23 -50 -67.5 -79t-105.5 -29q-148 0 -148 159v348h106v-319q0 -49 16.5 -74t57.5 -25q56 0 93 51.5t37 127.5v239h107v-497zM461 669q-44 -83 -115 -83q-36 0 -72 26.5t-53 26.5q-32 0 -58 -46l-52 40q41 83 115 83q36 0 72 -26.5t53 -26.5
q32 0 58 46z" />
    <glyph glyph-name="Umacron" unicode="&#x16a;" horiz-adv-x="687" 
d="M609 260q0 -134 -70 -202t-204 -68q-76 0 -129 19.5t-79.5 55t-37.5 75t-11 90.5v445h109v-437q0 -75 34 -116.5t121 -41.5q84 0 122 39.5t38 132.5v423h107v-415zM486 745h-283v70h283v-70z" />
    <glyph glyph-name="umacron" unicode="&#x16b;" horiz-adv-x="573" 
d="M495 0h-102q0 59 7 98h-1q-23 -50 -67.5 -79t-105.5 -29q-148 0 -148 159v348h106v-319q0 -49 16.5 -74t57.5 -25q56 0 93 51.5t37 127.5v239h107v-497zM416 609h-259v78h259v-78z" />
    <glyph glyph-name="Ubreve" unicode="&#x16c;" horiz-adv-x="687" 
d="M609 260q0 -134 -70 -202t-204 -68q-76 0 -129 19.5t-79.5 55t-37.5 75t-11 90.5v445h109v-437q0 -75 34 -116.5t121 -41.5q84 0 122 39.5t38 132.5v423h107v-415zM480 855q0 -55 -36.5 -91.5t-100.5 -36.5q-63 0 -98 36.5t-35 91.5h65q0 -25 19.5 -42t49.5 -17
q31 0 50 17t19 42h67z" />
    <glyph glyph-name="ubreve" unicode="&#x16d;" horiz-adv-x="573" 
d="M495 0h-102q0 59 7 98h-1q-23 -50 -67.5 -79t-105.5 -29q-148 0 -148 159v348h106v-319q0 -49 16.5 -74t57.5 -25q56 0 93 51.5t37 127.5v239h107v-497zM417 719q0 -61 -33.5 -102t-98.5 -41t-97 41t-32 102h71q0 -29 15.5 -47t43.5 -18q27 0 43 17t16 48h72z" />
    <glyph glyph-name="Uring" unicode="&#x16e;" horiz-adv-x="687" 
d="M609 260q0 -134 -70 -202t-204 -68q-76 0 -129 19.5t-79.5 55t-37.5 75t-11 90.5v445h109v-437q0 -75 34 -116.5t121 -41.5q84 0 122 39.5t38 132.5v423h107v-415zM455 774q0 -44 -33 -76t-79 -32t-78 30t-32 76q0 45 33 76t78 31q47 0 79 -30t32 -75zM393 773
q0 20 -14.5 35t-34.5 15q-21 0 -35 -14.5t-14 -35.5t14 -35.5t35 -14.5q20 0 34.5 15t14.5 35z" />
    <glyph glyph-name="uring" unicode="&#x16f;" horiz-adv-x="573" 
d="M495 0h-102q0 59 7 98h-1q-23 -50 -67.5 -79t-105.5 -29q-148 0 -148 159v348h106v-319q0 -49 16.5 -74t57.5 -25q56 0 93 51.5t37 127.5v239h107v-497zM406 659q0 -48 -35.5 -82.5t-85.5 -34.5t-85 32t-35 82q0 49 36 82.5t85 33.5q51 0 85.5 -32.5t34.5 -80.5zM339 657
q0 23 -15.5 39t-37.5 16q-23 0 -38.5 -16t-15.5 -39t15.5 -39t38.5 -16q22 0 37.5 16t15.5 39z" />
    <glyph glyph-name="Uhungarumlaut" unicode="&#x170;" horiz-adv-x="687" 
d="M609 260q0 -134 -70 -202t-204 -68q-76 0 -129 19.5t-79.5 55t-37.5 75t-11 90.5v445h109v-437q0 -75 34 -116.5t121 -41.5q84 0 122 39.5t38 132.5v423h107v-415zM603 802l-167 -82l-33 51l158 98zM390 813l-155 -94l-36 49l145 108z" />
    <glyph glyph-name="uhungarumlaut" unicode="&#x171;" horiz-adv-x="573" 
d="M495 0h-102q0 59 7 98h-1q-23 -50 -67.5 -79t-105.5 -29q-148 0 -148 159v348h106v-319q0 -49 16.5 -74t57.5 -25q56 0 93 51.5t37 127.5v239h107v-497zM532 693l-146 -127l-49 44l135 140zM341 703l-136 -137l-51 44l123 147z" />
    <glyph glyph-name="Uogonek" unicode="&#x172;" horiz-adv-x="687" 
d="M609 260q0 -177 -122 -239q-48 -24 -77 -59t-29 -64q0 -32 35 -32q27 0 50 31l44 -48q-50 -67 -130 -67q-50 0 -76.5 23t-26.5 62q0 67 73 125q-4 0 -13 -0.5t-14 -0.5q-245 0 -245 239v445h109v-437q0 -75 34 -116.5t121 -41.5q84 0 122 39.5t38 132.5v423h107v-415z
" />
    <glyph glyph-name="uogonek" unicode="&#x173;" horiz-adv-x="573" 
d="M549 -146q-50 -72 -133 -72q-44 0 -70 21.5t-26 63.5q0 78 88 141q-9 49 -8 85h-1q-53 -103 -173 -103q-148 0 -148 159v348h106v-319q0 -49 16.5 -74t57.5 -25q56 0 93 51.5t37 127.5v239h107v-326q0 -98 16 -171q-90 -50 -90 -100q0 -31 34 -31q29 0 50 32z" />
    <glyph glyph-name="Wcircumflex" unicode="&#x174;" horiz-adv-x="952" 
d="M922 675l-175 -675h-134l-115 417q-14 50 -26 127h-1q-7 -61 -24 -125l-114 -419h-128l-175 675h116l104 -410q18 -74 26 -133h1q12 78 27 128l115 415h119l118 -416q16 -59 27 -124h1q9 56 24 118l105 422h109zM638 780l-29 -60l-137 58l-132 -58l-26 56l161 85z" />
    <glyph glyph-name="wcircumflex" unicode="&#x175;" horiz-adv-x="794" 
d="M781 497l-159 -497h-118l-86 260q-14 43 -29 105h-1q-7 -29 -34 -125l-75 -240h-113l-153 497h117l66 -231q31 -112 37 -139h1q8 39 35 136l74 234h108l75 -230q29 -96 39 -140h1q10 45 35 135l69 235h111zM542 616l-45 -50l-101 83l-102 -83l-43 49l146 133z" />
    <glyph glyph-name="Ycircumflex" unicode="&#x176;" horiz-adv-x="548" 
d="M541 675l-215 -434v-241h-109v241l-211 434h119l100 -213q27 -60 48 -114h2q18 49 56 126l95 201h115zM435 780l-29 -60l-137 58l-132 -58l-26 56l161 85z" />
    <glyph glyph-name="ycircumflex" unicode="&#x177;" horiz-adv-x="490" 
d="M484 497l-201 -532q-46 -122 -100 -169.5t-141 -47.5q-29 0 -63 6l12 93q27 -8 61 -8q82 0 124 112l18 49l-186 497h119l82 -227q23 -69 39 -130h1q14 55 49 155l71 202h115zM392 616l-45 -50l-101 83l-102 -83l-43 49l146 133z" />
    <glyph glyph-name="Ydieresis" unicode="&#x178;" horiz-adv-x="548" 
d="M541 675l-215 -434v-241h-109v241l-211 434h119l100 -213q27 -60 48 -114h2q18 49 56 126l95 201h115zM443 782q0 -25 -17 -41.5t-42 -16.5t-42 16.5t-17 41.5t17 42t42 17t42 -17t17 -42zM228 782q0 -25 -17 -41.5t-42 -16.5t-42 16.5t-17 41.5t17 42t42 17t42 -17
t17 -42z" />
    <glyph glyph-name="Zacute" unicode="&#x179;" horiz-adv-x="538" 
d="M494 0h-449v83l266 423q32 49 50 73q-29 -1 -137 -1h-169v97h435v-86l-280 -437q-14 -24 -36 -54q19 2 159 2h161v-100zM435 776l-201 -55l-19 60l193 74z" />
    <glyph glyph-name="zacute" unicode="&#x17a;" horiz-adv-x="449" 
d="M399 0h-352v76l221 327q-50 -2 -120 -2h-96v96h343v-75l-218 -326q50 2 125 2h97v-98zM369 677l-164 -111l-42 57l152 125z" />
    <glyph glyph-name="Zdotaccent" unicode="&#x17b;" horiz-adv-x="538" 
d="M494 0h-449v83l266 423q32 49 50 73q-29 -1 -137 -1h-169v97h435v-86l-280 -437q-14 -24 -36 -54q19 2 159 2h161v-100zM332 783q0 -25 -18 -42.5t-44 -17.5t-44 17.5t-18 42.5t18 43t44 18t44 -18t18 -43z" />
    <glyph glyph-name="zdotaccent" unicode="&#x17c;" horiz-adv-x="449" 
d="M399 0h-352v76l221 327q-50 -2 -120 -2h-96v96h343v-75l-218 -326q50 2 125 2h97v-98zM290 652q0 -28 -20 -47.5t-49 -19.5t-48.5 19.5t-19.5 47.5t20 47.5t48 19.5q29 0 49 -19.5t20 -47.5z" />
    <glyph glyph-name="Zcaron" unicode="&#x17d;" horiz-adv-x="538" 
d="M494 0h-449v83l266 423q32 49 50 73q-29 -1 -137 -1h-169v97h435v-86l-280 -437q-14 -24 -36 -54q19 2 159 2h161v-100zM433 805l-161 -85l-162 81l28 60l138 -59l131 58z" />
    <glyph glyph-name="zcaron" unicode="&#x17e;" horiz-adv-x="449" 
d="M399 0h-352v76l221 327q-50 -2 -120 -2h-96v96h343v-75l-218 -326q50 2 125 2h97v-98zM370 699l-146 -133l-145 132l45 50l101 -83l101 83z" />
    <glyph glyph-name="longs" unicode="&#x17f;" horiz-adv-x="259" 
d="M318 733l-10 -87q-17 4 -41 4q-45 0 -64.5 -29t-19.5 -92v-529h-107v523q0 214 189 214q23 0 53 -4z" />
    <glyph glyph-name="florin.captab" unicode="&#x191;" 
d="M499 714l-13 -84q-37 10 -72 10q-83 0 -93 -117l-8 -107h163v-79h-168l-24 -305q-9 -129 -56 -180.5t-139 -51.5q-39 0 -74 9l13 85q26 -9 63 -9q80 0 90 127l25 325h-144v79h150l7 97q8 111 56 161t140 50q41 0 84 -10z" />
    <glyph glyph-name="florin" unicode="&#x192;" 
d="M517 690l-13 -91q-48 16 -87 16q-46 0 -68.5 -26.5t-28.5 -86.5l-13 -138h146v-83h-154l-22 -232q-10 -108 -63.5 -158.5t-150.5 -50.5q-47 0 -92 12l14 90q53 -15 89 -15q44 0 67 26.5t29 85.5l22 242h-114v83h122l13 129q10 108 63.5 158.5t150.5 50.5q42 0 90 -12z
" />
    <glyph glyph-name="Gcaron" unicode="&#x1e6;" horiz-adv-x="679" 
d="M604 31q-106 -41 -226 -41q-161 0 -249.5 87.5t-88.5 241.5q0 166 96 265.5t272 99.5q97 0 189 -28l-23 -100q-83 33 -174 33q-122 0 -182.5 -72t-60.5 -183q0 -117 61 -182t173 -65q54 0 104 16v245h109v-317zM535 805l-161 -85l-162 81l28 60l138 -59l131 58z" />
    <glyph glyph-name="gcaron" unicode="&#x1e7;" horiz-adv-x="543" 
d="M515 -60q0 -82 -74.5 -138t-192.5 -56q-99 0 -155 38.5t-56 110.5q0 39 23.5 74t57.5 54q-49 21 -49 75q0 27 15.5 50.5t41.5 35.5q-74 42 -74 136q0 79 57 133t158 54q32 0 75 -10h169v-84h-76q33 -28 33 -79q0 -81 -54.5 -130.5t-156.5 -49.5q-23 0 -47 6
q-29 -14 -29 -37q0 -19 18.5 -26.5t63.5 -9.5l84 -3q168 -6 168 -144zM365 328q0 46 -27 73t-76 27t-77.5 -28t-28.5 -72q0 -47 27 -73t77 -26q49 0 77 26.5t28 72.5zM409 -75q0 70 -92 74l-91 3h-27q-56 -40 -56 -88q0 -39 33.5 -62t88.5 -23q68 0 106 27t38 69zM417 699
l-146 -133l-145 132l45 50l101 -83l101 83z" />
    <glyph glyph-name="Aringacute" unicode="&#x1fa;" horiz-adv-x="620" 
d="M614 0h-121l-51 149h-274l-52 -149h-110l240 675h125zM414 236l-81 229q-20 60 -28 92h-2q-11 -46 -27 -91l-81 -230h219zM412 779q0 -36 -30.5 -61.5t-73.5 -25.5t-72.5 24t-29.5 61q0 36 30.5 61.5t73.5 25.5t72.5 -24t29.5 -61zM354 778q0 18 -13 30.5t-32 12.5
t-32 -13t-13 -30q0 -18 13 -30t32 -12t32 12.5t13 29.5zM451 921l-189 -43l-16 42l181 60z" />
    <glyph glyph-name="aringacute" unicode="&#x1fb;" horiz-adv-x="523" 
d="M446 0h-103q0 58 5 92l-1 1q-19 -46 -63 -74.5t-102 -28.5q-63 0 -101 38.5t-38 99.5q0 83 77.5 127.5t215.5 44.5v21q0 54 -22 78.5t-76 24.5q-73 0 -150 -35l-19 83q88 35 184 35q104 0 147 -44t43 -130v-197q0 -73 3 -136zM336 215v13q-189 0 -189 -87q0 -29 18.5 -48
t49.5 -19q52 0 86.5 42.5t34.5 98.5zM361 648q0 -43 -32 -74t-77 -31t-76 29t-31 73t32 74.5t77 30.5t76 -29t31 -73zM303 646q0 21 -14.5 36t-35.5 15t-35.5 -15t-14.5 -36t14.5 -36t35.5 -15t35.5 15t14.5 36zM401 830l-197 -50l-18 51l188 68z" />
    <glyph glyph-name="AEacute" unicode="&#x1fc;" horiz-adv-x="783" 
d="M719 0h-356v157h-212l-79 -157h-113l348 675h404v-91h-242v-192h233v-89h-233v-210h250v-93zM363 243v340h-2q-36 -82 -65 -138l-107 -202h174zM632 776l-201 -55l-19 60l193 74z" />
    <glyph glyph-name="aeacute" unicode="&#x1fd;" horiz-adv-x="804" 
d="M761 292q0 -20 -3 -52h-317q-4 -164 147 -164q77 0 143 30l14 -84q-79 -32 -176 -32q-78 0 -128.5 29.5t-70.5 79.5h-1q-23 -48 -71.5 -78.5t-113.5 -30.5q-64 0 -102.5 38t-38.5 100q0 83 77.5 128t215.5 45v29q0 48 -23.5 71t-80.5 23q-73 0 -142 -36l-21 86
q87 33 181 33q116 0 155 -71h1q23 32 63 51.5t89 19.5q102 0 152.5 -60t50.5 -155zM654 313q1 53 -26 83.5t-74 30.5q-44 0 -74 -31t-37 -83h211zM336 215v14q-190 0 -190 -88q0 -29 18.5 -48t49.5 -19q53 0 87.5 42.5t34.5 98.5zM572 677l-164 -111l-42 57l152 125z" />
    <glyph glyph-name="Oslashacute" unicode="&#x1fe;" horiz-adv-x="704" 
d="M666 344q0 -164 -92 -259t-235 -95q-51 0 -90 10l-43 -102l-78 33l44 102q-134 78 -134 297q0 163 93 259t231 96q43 0 85 -8l42 99l78 -33l-41 -97q140 -76 140 -302zM553 334q0 155 -74 214l-188 -456q29 -8 56 -8q88 0 147 64t59 186zM406 585h-1q-21 7 -53 7
q-84 0 -142.5 -66t-58.5 -183q0 -149 69 -208zM483 828l-201 -55l-19 60l193 74z" />
    <glyph glyph-name="oslashacute" unicode="&#x1ff;" 
d="M513 258q0 -116 -68.5 -192t-178.5 -76q-41 0 -79 11l-47 -100l-63 27l48 101q-89 61 -89 213q0 115 68 190t181 75q28 0 63 -7l43 90l62 -27l-42 -89q102 -60 102 -216zM410 251q0 94 -49 130l-130 -298q18 -7 45 -7q59 0 96.5 45t37.5 130zM305 420q-14 3 -30 3
q-56 0 -96 -42t-40 -128q0 -83 40 -125zM401 677l-164 -111l-42 57l152 125z" />
    <glyph glyph-name="Scommaaccent" unicode="&#x218;" horiz-adv-x="503" 
d="M460 202q0 -93 -70 -152.5t-184 -59.5q-84 0 -152 19l12 104q72 -28 144 -28q58 0 95 25.5t37 77.5q0 39 -30.5 64t-74 41t-87 35.5t-74 59.5t-30.5 100q0 89 64.5 143t179.5 54q62 0 122 -13l-11 -96q-57 19 -116 19q-62 0 -93 -25t-31 -69q0 -37 31 -62t74.5 -41.5
t87.5 -36.5t75 -60t31 -99zM249 -48q25 0 40 -17.5t15 -43.5q0 -36 -29.5 -71.5t-93.5 -60.5l-22 39q48 30 48 62q0 10 -5.5 21t-5.5 20q0 21 14.5 36t38.5 15z" />
    <glyph glyph-name="scommaaccent" unicode="&#x219;" horiz-adv-x="421" 
d="M376 152q0 -72 -58 -117t-156 -45q-62 0 -110 14l8 91q49 -19 109 -19q42 0 68.5 17.5t26.5 47.5q0 28 -22.5 44t-54.5 25.5t-64 22t-54.5 42.5t-22.5 78q0 68 52 111t151 43q46 0 94 -10l-6 -86q-45 14 -94 14q-87 0 -87 -62q0 -27 22.5 -43t55 -26t65 -23t55 -43
t22.5 -76zM215 -48q25 0 40 -17.5t15 -43.5q0 -36 -29.5 -71.5t-93.5 -60.5l-22 39q48 30 48 62q0 10 -5.5 21t-5.5 20q0 21 14.5 36t38.5 15z" />
    <glyph glyph-name="Tcommaaccent" unicode="&#x21a;" horiz-adv-x="514" 
d="M497 583h-186v-583h-109v583h-185v92h480v-92zM261 -48q25 0 40 -17.5t15 -43.5q0 -36 -29.5 -71.5t-93.5 -60.5l-22 39q48 30 48 62q0 10 -5.5 21t-5.5 20q0 21 14.5 36t38.5 15z" />
    <glyph glyph-name="tcommaaccent" unicode="&#x21b;" horiz-adv-x="373" 
d="M341 3q-51 -12 -104 -12q-78 0 -108 34t-30 118v271h-95v83h95v158l107 29v-187h130v-83h-130v-238q0 -55 13.5 -74.5t51.5 -19.5q29 0 61 7zM220 -48q25 0 40 -17.5t15 -43.5q0 -36 -29.5 -71.5t-93.5 -60.5l-22 39q48 30 48 62q0 10 -5.5 21t-5.5 20q0 21 14.5 36
t38.5 15z" />
    <glyph glyph-name="dotlessj" unicode="&#x237;" horiz-adv-x="268" 
d="M190 -47q0 -105 -41 -154.5t-140 -49.5q-39 0 -69 9l7 92q30 -11 62 -11q43 0 59 22t16 82v554h106v-544z" />
    <glyph glyph-name="circumflex" unicode="&#x2c6;" horiz-adv-x="430" 
d="M359 616l-45 -50l-101 83l-102 -83l-43 49l146 133z" />
    <glyph glyph-name="caron" unicode="&#x2c7;" horiz-adv-x="430" 
d="M357 699l-146 -133l-145 132l45 50l101 -83l101 83z" />
    <glyph glyph-name="breve" unicode="&#x2d8;" horiz-adv-x="388" 
d="M324 719q0 -61 -33.5 -102t-98.5 -41t-97 41t-32 102h71q0 -29 15.5 -47t43.5 -18q27 0 43 17t16 48h72z" />
    <glyph glyph-name="dotaccent" unicode="&#x2d9;" horiz-adv-x="285" 
d="M208 652q0 -28 -20 -47.5t-49 -19.5t-48.5 19.5t-19.5 47.5t20 47.5t48 19.5q29 0 49 -19.5t20 -47.5z" />
    <glyph glyph-name="ring" unicode="&#x2da;" horiz-adv-x="375" 
d="M308 659q0 -48 -35.5 -82.5t-85.5 -34.5t-85 32t-35 82q0 49 36 82.5t85 33.5q51 0 85.5 -32.5t34.5 -80.5zM241 657q0 23 -15.5 39t-37.5 16q-23 0 -38.5 -16t-15.5 -39t15.5 -39t38.5 -16q22 0 37.5 16t15.5 39z" />
    <glyph glyph-name="ogonek" unicode="&#x2db;" horiz-adv-x="454" 
d="M84 9l101 -9q-90 -47 -90 -101q0 -31 34 -31q28 0 50 32l44 -47q-48 -71 -133 -71q-44 0 -70 21.5t-26 63.5q0 38 24 75.5t66 66.5z" />
    <glyph glyph-name="tilde" unicode="&#x2dc;" horiz-adv-x="483" 
d="M415 669q-44 -83 -115 -83q-36 0 -72 26.5t-53 26.5q-32 0 -58 -46l-52 40q41 83 115 83q36 0 72 -26.5t53 -26.5q32 0 58 46z" />
    <glyph glyph-name="hungarumlaut" unicode="&#x2dd;" horiz-adv-x="498" 
d="M448 693l-146 -127l-49 44l135 140zM257 703l-136 -137l-51 44l123 147z" />
    <glyph glyph-name="commaaccentaboverev" unicode="&#x312;" horiz-adv-x="463" 
d="M161 564q-24 0 -39.5 17.5t-15.5 44.5q0 35 29.5 71t93.5 60l22 -40q-48 -29 -48 -61q0 -10 5.5 -21.5t5.5 -20.5q0 -22 -15 -36t-38 -14z" />
    <glyph glyph-name="caroncomma" unicode="&#x315;" horiz-adv-x="360" 
d="M244 747l-70 -188l-70 18l53 191z" />
    <glyph glyph-name="commaaccent" unicode="&#x326;" horiz-adv-x="283" 
d="M141 -48q25 0 40 -17.5t15 -43.5q0 -36 -29.5 -71.5t-93.5 -60.5l-22 39q48 30 48 62q0 10 -5.5 21t-5.5 20q0 21 14.5 36t38.5 15z" />
    <glyph glyph-name="Delta" unicode="&#x394;" horiz-adv-x="611" 
d="M583 0h-555v81l209 594h133l213 -594v-81zM459 97l-136 390q-14 42 -23 87h-1q-12 -51 -24 -90l-134 -387h318z" />
    <glyph glyph-name="Omega" unicode="&#x3a9;" horiz-adv-x="717" 
d="M676 0h-252v87q65 50 96.5 110t31.5 149q0 111 -50 177t-145 66q-84 0 -138.5 -65t-54.5 -174q0 -91 29 -150t100 -112v-88h-252v89h133q-126 89 -126 260q0 152 90 244t230 92q133 0 216.5 -82.5t83.5 -241.5q0 -89 -36 -158t-94 -114h138v-89z" />
    <glyph glyph-name="pi" unicode="&#x3c0;" horiz-adv-x="632" 
d="M599 409h-114q0 -170 16 -253q8 -42 20 -58.5t31 -16.5q18 0 38 5l10 -86q-27 -8 -69 -8q-61 0 -91.5 30t-44.5 106q-18 92 -18 281h-148q3 -228 -59 -418l-116 18q75 211 72 400h-114v88h587v-88z" />
    <glyph glyph-name="Wgrave" unicode="&#x1e80;" horiz-adv-x="952" 
d="M922 675l-175 -675h-134l-115 417q-14 50 -26 127h-1q-7 -61 -24 -125l-114 -419h-128l-175 675h116l104 -410q18 -74 26 -133h1q12 78 27 128l115 415h119l118 -416q16 -59 27 -124h1q9 56 24 118l105 422h109zM551 781l-19 -60l-201 55l27 79z" />
    <glyph glyph-name="wgrave" unicode="&#x1e81;" horiz-adv-x="794" 
d="M781 497l-159 -497h-118l-86 260q-14 43 -29 105h-1q-7 -29 -34 -125l-75 -240h-113l-153 497h117l66 -231q31 -112 37 -139h1q8 39 35 136l74 234h108l75 -230q29 -96 39 -140h1q10 45 35 135l69 235h111zM468 623l-43 -57l-164 111l54 71z" />
    <glyph glyph-name="Wacute" unicode="&#x1e82;" horiz-adv-x="952" 
d="M922 675l-175 -675h-134l-115 417q-14 50 -26 127h-1q-7 -61 -24 -125l-114 -419h-128l-175 675h116l104 -410q18 -74 26 -133h1q12 78 27 128l115 415h119l118 -416q16 -59 27 -124h1q9 56 24 118l105 422h109zM623 776l-201 -55l-19 60l193 74z" />
    <glyph glyph-name="wacute" unicode="&#x1e83;" horiz-adv-x="794" 
d="M781 497l-159 -497h-118l-86 260q-14 43 -29 105h-1q-7 -29 -34 -125l-75 -240h-113l-153 497h117l66 -231q31 -112 37 -139h1q8 39 35 136l74 234h108l75 -230q29 -96 39 -140h1q10 45 35 135l69 235h111zM517 677l-164 -111l-42 57l152 125z" />
    <glyph glyph-name="Wdieresis" unicode="&#x1e84;" horiz-adv-x="952" 
d="M922 675l-175 -675h-134l-115 417q-14 50 -26 127h-1q-7 -61 -24 -125l-114 -419h-128l-175 675h116l104 -410q18 -74 26 -133h1q12 78 27 128l115 415h119l118 -416q16 -59 27 -124h1q9 56 24 118l105 422h109zM645 782q0 -25 -17 -41.5t-42 -16.5t-42 16.5t-17 41.5
t17 42t42 17t42 -17t17 -42zM430 782q0 -25 -17 -41.5t-42 -16.5t-42 16.5t-17 41.5t17 42t42 17t42 -17t17 -42z" />
    <glyph glyph-name="wdieresis" unicode="&#x1e85;" horiz-adv-x="794" 
d="M781 497l-159 -497h-118l-86 260q-14 43 -29 105h-1q-7 -29 -34 -125l-75 -240h-113l-153 497h117l66 -231q31 -112 37 -139h1q8 39 35 136l74 234h108l75 -230q29 -96 39 -140h1q10 45 35 135l69 235h111zM555 652q0 -25 -17.5 -43t-42.5 -18t-43 17.5t-18 43.5
q0 25 18 42.5t43 17.5t42.5 -17.5t17.5 -42.5zM359 652q0 -26 -17.5 -43.5t-43.5 -17.5q-25 0 -42.5 17.5t-17.5 43.5q0 25 17.5 42.5t42.5 17.5t43 -17.5t18 -42.5z" />
    <glyph glyph-name="Ygrave" unicode="&#x1ef2;" horiz-adv-x="548" 
d="M541 675l-215 -434v-241h-109v241l-211 434h119l100 -213q27 -60 48 -114h2q18 49 56 126l95 201h115zM288 781l-19 -60l-201 55l27 79z" />
    <glyph glyph-name="ygrave" unicode="&#x1ef3;" horiz-adv-x="490" 
d="M484 497l-201 -532q-46 -122 -100 -169.5t-141 -47.5q-29 0 -63 6l12 93q27 -8 61 -8q82 0 124 112l18 49l-186 497h119l82 -227q23 -69 39 -130h1q14 55 49 155l71 202h115zM282 623l-43 -57l-164 111l54 71z" />
    <glyph glyph-name="endash" unicode="&#x2013;" 
d="M550 251h-550v93h550v-93z" />
    <glyph glyph-name="emdash" unicode="&#x2014;" horiz-adv-x="1000" 
d="M885 251h-770v93h770v-93z" />
    <glyph glyph-name="quoteleft" unicode="&#x2018;" horiz-adv-x="254" 
d="M215 712q-87 -93 -42 -148q25 -29 8.5 -66t-58.5 -37q-46 0 -64 46q-25 66 32 155q30 46 79 90z" />
    <glyph glyph-name="quoteright" unicode="&#x2019;" horiz-adv-x="254" 
d="M130 745q46 0 64 -47q25 -66 -33 -156q-30 -46 -78 -89l-45 40q85 93 42 148q-26 29 -9.5 66.5t59.5 37.5z" />
    <glyph glyph-name="quotesinglbase" unicode="&#x201a;" horiz-adv-x="254" 
d="M130 129q46 0 64 -47q25 -66 -33 -156q-30 -46 -78 -89l-45 40q86 94 42 148q-26 30 -9.5 67t59.5 37z" />
    <glyph glyph-name="quotedblleft" unicode="&#x201c;" horiz-adv-x="456" 
d="M418 712q-87 -93 -42 -148q25 -29 8 -66t-59 -37q-46 0 -64 46q-25 66 33 155q30 46 79 90zM215 712q-87 -93 -42 -148q25 -29 8.5 -66t-58.5 -37q-46 0 -64 46q-25 66 32 155q30 46 79 90z" />
    <glyph glyph-name="quotedblright" unicode="&#x201d;" horiz-adv-x="456" 
d="M333 745q46 0 64 -46q25 -66 -32 -155q-30 -47 -80 -91l-45 40q87 93 42 148q-25 29 -8 66.5t59 37.5zM130 745q46 0 64 -47q25 -66 -33 -156q-30 -46 -78 -89l-45 40q85 93 42 148q-26 29 -9.5 66.5t59.5 37.5z" />
    <glyph glyph-name="quotedblbase" unicode="&#x201e;" horiz-adv-x="456" 
d="M333 129q46 0 64 -46q25 -66 -32 -155q-30 -47 -80 -91l-45 40q87 94 42 148q-25 30 -8.5 67t59.5 37zM130 129q46 0 64 -47q25 -66 -33 -156q-30 -46 -78 -89l-45 40q86 94 42 148q-26 30 -9.5 67t59.5 37z" />
    <glyph glyph-name="dagger" unicode="&#x2020;" horiz-adv-x="452" 
d="M407 546h-138l19 -93l-21 -253h-82l-21 253l19 93h-138v83h138l-19 137h124l-19 -137h138v-83z" />
    <glyph glyph-name="daggerdbl" unicode="&#x2021;" horiz-adv-x="452" 
d="M407 292h-137l19 -127h-125l18 127h-137v82h137l-18 91l18 92h-137v82h137l-18 127h124l-18 -127h137v-82h-137l18 -92l-18 -91h137v-82z" />
    <glyph glyph-name="bullet" unicode="&#x2022;" horiz-adv-x="421" 
d="M344 297q0 -55 -39 -94t-94 -39t-94 39t-39 94t39 94t94 39t94 -39t39 -94z" />
    <glyph glyph-name="perthousand" unicode="&#x2030;" horiz-adv-x="1037" 
d="M324 538q0 -74 -42 -118t-102 -44q-63 0 -99.5 37.5t-36.5 111.5q0 73 42 116.5t102 43.5q62 0 99 -36t37 -111zM244 531q0 45 -14 65t-44 20q-28 0 -44.5 -23t-16.5 -63q0 -85 59 -85q27 0 43.5 23t16.5 63zM647 642l-524 -660l-65 50l524 660zM662 152q0 -74 -42 -118
t-102 -44q-63 0 -99.5 37.5t-36.5 111.5q0 73 42 116.5t102 43.5q62 0 99 -36t37 -111zM582 145q0 85 -58 85q-28 0 -44.5 -23t-16.5 -63q0 -85 59 -85q27 0 43.5 23t16.5 63zM985 152q0 -74 -42 -118t-103 -44q-63 0 -99 37.5t-36 111.5q0 73 42 116.5t102 43.5
q62 0 99 -36t37 -111zM905 145q0 85 -59 85q-27 0 -43.5 -23t-16.5 -63q0 -85 58 -85q27 0 44 23t17 63z" />
    <glyph glyph-name="guilsinglleft" unicode="&#x2039;" horiz-adv-x="313" 
d="M247 150l-83 -42l-116 185l118 187l80 -41l-94 -146z" />
    <glyph glyph-name="guilsinglright" unicode="&#x203a;" horiz-adv-x="313" 
d="M265 295l-118 -187l-80 41l94 146l-94 143l83 42z" />
    <glyph glyph-name="fraction" unicode="&#x2044;" horiz-adv-x="426" 
d="M505 645l-485 -675l-76 55l484 675z" />
    <glyph glyph-name="fraction" unicode="&#x2215;" horiz-adv-x="426" 
d="M505 645l-485 -675l-76 55l484 675z" />
    <glyph glyph-name="Euro" unicode="&#x20ac;" 
d="M517 23q-75 -33 -166 -33q-110 0 -174 54.5t-81 172.5h-85v68h79q-1 9 -1 30q0 17 2 53h-80v68h90q21 104 88 164t183 60q72 0 138 -26l-26 -85q-55 26 -123 26q-117 0 -150 -139h179v-68h-190q-1 -14 -1 -43v-40h191v-68h-181q13 -72 51.5 -106t108.5 -34q60 0 123 28z
" />
    <glyph glyph-name="uni2113" unicode="&#x2113;" horiz-adv-x="505" 
d="M473 193q-32 -203 -194 -203q-82 0 -123.5 39.5t-41.5 126.5v62l-67 -70l-36 86l103 103v204q0 95 46 145.5t131 50.5q75 0 112.5 -35.5t37.5 -99.5q0 -66 -48.5 -130.5t-172.5 -174.5v-116q0 -55 16.5 -77.5t51.5 -22.5t55.5 29t32.5 101zM331 585q0 66 -50 66
q-61 0 -61 -99v-137q58 59 84.5 98t26.5 72z" />
    <glyph glyph-name="trademark" unicode="&#x2122;" horiz-adv-x="694" 
d="M650 394h-81l-20 136l-6 51l-10 -46l-40 -141h-76l-39 144l-10 43l-3 -37l-21 -150h-74l44 281h97l39 -140l10 -44l8 40l41 144h96zM257 610h-70v-216h-78v216h-72v65h220v-65z" />
    <glyph glyph-name="ohm" unicode="&#x2126;" horiz-adv-x="717" 
d="M676 0h-252v87q65 50 96.5 110t31.5 149q0 111 -50 177t-145 66q-84 0 -138.5 -65t-54.5 -174q0 -91 29 -150t100 -112v-88h-252v89h133q-126 89 -126 260q0 152 90 244t230 92q133 0 216.5 -82.5t83.5 -241.5q0 -89 -36 -158t-94 -114h138v-89z" />
    <glyph glyph-name="partialdiff" unicode="&#x2202;" horiz-adv-x="636" 
d="M568 404q0 -207 -97 -322q-77 -90 -195 -90q-100 0 -153.5 56.5t-53.5 153.5q0 105 67.5 173.5t175.5 68.5q104 0 145 -81l-2.5 43.5t-1.5 32.5q-8 101 -66 155t-147 53l13 89q144 -2 229.5 -90.5t85.5 -241.5zM428 238q0 52 -31 84t-90 32q-58 0 -95 -41t-37 -102
t31 -93.5t84 -32.5q59 0 98.5 43.5t39.5 109.5z" />
    <glyph glyph-name="increment" unicode="&#x2206;" horiz-adv-x="621" 
d="M614 0h-608l239 675h126zM461 97l-134 383q-17 52 -22 79h-2q-11 -47 -24 -84l-132 -378h314z" />
    <glyph glyph-name="product" unicode="&#x220f;" horiz-adv-x="784" 
d="M740 639h-101v-883h-101v883h-291v-883h-102v883h-102v91h697v-91z" />
    <glyph glyph-name="summation" unicode="&#x2211;" horiz-adv-x="608" 
d="M555 -244h-519v83l301 413l-283 395v83h486v-91h-353l274 -383l-298 -406h392v-94z" />
    <glyph glyph-name="minus" unicode="&#x2212;" 
d="M509 251h-468v93h468v-93z" />
    <glyph glyph-name="radical" unicode="&#x221a;" horiz-adv-x="612" 
d="M591 758l-233 -758h-124l-143 416h-89v81h177l88 -275q22 -70 31 -106h2q10 52 24 99l150 543h117z" />
    <glyph glyph-name="infinity" unicode="&#x221e;" horiz-adv-x="979" 
d="M928 304q0 -77 -52 -128.5t-143 -51.5q-100 0 -247 111q-69 -52 -129 -81.5t-121 -29.5q-89 0 -137 48.5t-48 121.5q0 78 53 129t138 51q101 0 251 -112q149 112 248 112q88 0 137.5 -48t49.5 -122zM824 299q0 36 -23.5 59t-64.5 23q-55 0 -164 -81q112 -83 167 -83
q40 0 62.5 23.5t22.5 58.5zM406 297q-111 84 -165 84q-40 0 -62.5 -23.5t-22.5 -58.5q0 -36 23 -59t64 -23q55 0 163 80z" />
    <glyph glyph-name="integral" unicode="&#x222b;" horiz-adv-x="341" 
d="M321 638q-23 7 -48 7q-37 0 -51.5 -29.5t-14.5 -118.5q0 -74 6 -227t6 -261q0 -140 -39 -201.5t-121 -61.5q-22 0 -54 6v93q20 -6 46 -6q37 0 52.5 29t15.5 118q0 69 -6 223.5t-6 264.5q0 140 40.5 201.5t121.5 61.5q24 0 52 -7v-92z" />
    <glyph glyph-name="approxequal" unicode="&#x2248;" 
d="M507 374q-59 -61 -133 -61q-46 0 -103 29.5t-96 29.5q-48 0 -98 -42l-35 73q65 59 137 59q48 0 107 -30t90 -30q46 0 96 45zM508 185q-63 -56 -135 -56q-49 0 -106 29.5t-92 29.5q-46 0 -97 -43l-36 73q66 60 132 60q47 0 106 -30t98 -30q51 0 95 40z" />
    <glyph glyph-name="notequal" unicode="&#x2260;" 
d="M500 164h-231l-52 -131h-95l52 131h-124v87h158l37 92h-195v87h229l53 133h96l-53 -133h125v-87h-160l-37 -92h197v-87z" />
    <glyph glyph-name="lessequal" unicode="&#x2264;" 
d="M469 211l-64 -76l-349 252l348 252l65 -73l-266 -178zM481 0h-412v89h412v-89z" />
    <glyph glyph-name="greaterequal" unicode="&#x2265;" 
d="M494 388l-348 -253l-65 73l266 179l-266 176l64 76zM481 0h-412v89h412v-89z" />
    <glyph glyph-name="lozenge" unicode="&#x25ca;" horiz-adv-x="622" 
d="M594 335l-247 -344h-67l-252 349l249 344h65zM477 331l-171 236l-160 -224l170 -235z" />
    <glyph glyph-name="apple" unicode="&#xf8ff;" horiz-adv-x="1042" 
d="M157 312l-138 -12q-3 37 0 74l138 -12q-2 -26 0 -50zM285 609q-13 -9 -36 -35l-104 89q30 33 52 51zM558 824l-11 -133q-17 2 -51 0l-11 133q30 4 73 0zM897 661l-102 -86q-20 22 -36 35l87 103q36 -32 51 -52zM1024 301l-136 11q2 25 0 50l135 11q3 -33 1 -72zM770 337
q0 -101 -67 -170v-78l-16 -5l32 -75l-31 -8l31 -72l-32 -8l10 -25l-30 -69h-54q-3 -20 -29 -33t-62 -13q-38 0 -64 13t-28 33h-54l-52 125l31 9l-32 75l35 9l-19 45v78q-66 71 -66 169q0 103 72.5 175.5t176.5 72.5q102 0 175 -72.5t73 -175.5zM648 -46l-15 34l-238 -61
l24 -59h205l13 30l-6 12l-72 -19l-13 37zM647 34l-15 37l-238 -61l15 -36zM645 117v28h-248v-51l15 -36zM563 333q-16 2 -41 2q-27 0 -43 -2l14 -141h56zM712 337q0 79 -56 135t-134 56q-79 0 -135 -56t-56 -135q0 -89 67 -145h54l-15 134q-8 -2 -15 -4.5l-13.5 -5
t-9.5 -3.5q-9 -3 -13.5 9.5t-2.5 27t8 16.5q71 20 131 20q64 0 131 -20q6 -1 7.5 -15.5t-3 -27t-13.5 -9.5q-14 6 -39 12l-14 -134h55q66 60 66 145zM531 355q2 0 2 5t-2 5q3 -5 0 -10zM530 361v1q-3 0 -1.5 -2t-0.5 -2v-1q3 1 2 4zM526 357v3q0 5 -4 1q2 0 3 -1q-2 0 -3 -2
h3v-1h1zM522 355q-3 5 0 10q-2 0 -2 -5t2 -5zM518 357v1q-1 0 -1 1t1 2v1q-2 1 -2 -2q0 -2 2 -3zM514 359v3h-1v-3h-1v3h-1v-3q1 -2 3 0zM510 357v1h-2v6h-1v-7h3z" />
    <glyph glyph-name="fi" unicode="&#xfb01;" horiz-adv-x="592" 
d="M514 0h-106v414h-199v-414h-106v414h-95v83h95v20q0 220 237 220q73 0 147 -19l-19 -89q-63 20 -122 20q-137 0 -137 -123v-29h305v-497z" />
    <glyph glyph-name="fl" unicode="&#xfb02;" horiz-adv-x="592" 
d="M514 0h-106v643q-38 7 -79 7q-61 0 -90.5 -25.5t-29.5 -81.5v-46h124v-83h-124v-414h-106v414h-95v83h95v53q0 88 58 137.5t178 49.5q79 0 175 -16v-721z" />
    <glyph glyph-name="f_ij" horiz-adv-x="924" 
d="M429 150v264h-220v-414h-106v414h-95v83h95v38q0 202 188 202q43 0 78 -8l-8 -88q-28 9 -65 9q-87 0 -87 -113v-40h220h107v-318q0 -49 16.5 -73.5t57.5 -24.5q55 0 92.5 51.5t37.5 126.5v238h107v-514q0 -119 -68 -177t-185 -58q-81 0 -147 17l11 100q69 -25 147 -25
q71 0 104 33t33 104v32q0 51 8 90h-1q-23 -49 -66.5 -78t-104.5 -29q-149 0 -149 158zM563 652q0 -28 -20 -47.5t-48 -19.5q-29 0 -49 19.5t-20 47.5t20 47.5t49 19.5q28 0 48 -19.5t20 -47.5zM855 652q0 -28 -20 -47.5t-49 -19.5t-49 19.5t-20 47.5t20 47.5t49 19.5
t49 -19.5t20 -47.5z" />
    <glyph glyph-name="Aring.alt" horiz-adv-x="620" 
d="M614 0h-121l-51 149h-274l-52 -149h-110l232 656q-48 28 -48 89q0 49 35 82t85 33t84.5 -33t34.5 -82q0 -60 -50 -90zM363 745q0 23 -15.5 39t-37.5 16q-23 0 -38.5 -16t-15.5 -39t15.5 -39t38.5 -16q22 0 37.5 16t15.5 39zM414 236l-81 229q-20 60 -28 92h-2
q-11 -46 -27 -91l-81 -230h219z" />
    <glyph glyph-name="grave.cap" horiz-adv-x="371" 
d="M288 781l-19 -60l-201 55l27 79z" />
    <glyph glyph-name="acute.cap" horiz-adv-x="391" 
d="M307 776l-201 -55l-19 60l193 74z" />
    <glyph glyph-name="circumflex.cap" horiz-adv-x="430" 
d="M375 780l-29 -60l-137 58l-132 -58l-26 56l161 85z" />
    <glyph glyph-name="caron.cap" horiz-adv-x="430" 
d="M373 805l-161 -85l-162 81l28 60l138 -59l131 58z" />
    <glyph glyph-name="caroncomma.cap" horiz-adv-x="340" 
d="M261 759l-120 -161l-62 36l104 168z" />
    <glyph glyph-name="tilde.cap" horiz-adv-x="483" 
d="M431 809q-45 -77 -118 -77q-37 0 -75 25t-56 25q-34 0 -60 -44l-54 37q44 78 118 78q37 0 75 -25t56 -25q33 0 60 44z" />
    <glyph glyph-name="dieresis.narrow" horiz-adv-x="318" 
d="M312 652q0 -25 -17.5 -43t-42.5 -18q-26 0 -43.5 17.5t-17.5 43.5q0 25 18 42.5t43 17.5t42.5 -17.5t17.5 -42.5zM126 652q0 -25 -17.5 -43t-42.5 -18q-26 0 -43.5 17.5t-17.5 43.5q0 25 18 42.5t43 17.5t42.5 -17.5t17.5 -42.5z" />
    <glyph glyph-name="dieresis.cap" horiz-adv-x="546" 
d="M429 782q0 -25 -17 -41.5t-42 -16.5t-42 16.5t-17 41.5t17 42t42 17t42 -17t17 -42zM214 782q0 -25 -17 -41.5t-42 -16.5t-42 16.5t-17 41.5t17 42t42 17t42 -17t17 -42z" />
    <glyph glyph-name="macron.cap" horiz-adv-x="418" 
d="M351 745h-283v70h283v-70z" />
    <glyph glyph-name="breve.cap" horiz-adv-x="388" 
d="M329 855q0 -55 -36.5 -91.5t-100.5 -36.5q-63 0 -98 36.5t-35 91.5h65q0 -25 19.5 -42t49.5 -17q31 0 50 17t19 42h67z" />
    <glyph glyph-name="ring.cap" horiz-adv-x="375" 
d="M299 774q0 -44 -33 -76t-79 -32t-78 30t-32 76q0 45 33 76t78 31q47 0 79 -30t32 -75zM237 773q0 20 -14.5 35t-34.5 15q-21 0 -35 -14.5t-14 -35.5t14 -35.5t35 -14.5q20 0 34.5 15t14.5 35z" />
    <glyph glyph-name="ringacute" horiz-adv-x="400" 
d="M308 648q0 -43 -32 -74t-77 -31t-76 29t-31 73t32 74.5t77 30.5t76 -29t31 -73zM250 646q0 21 -14.5 36t-35.5 15t-35.5 -15t-14.5 -36t14.5 -36t35.5 -15t35.5 15t14.5 36zM348 830l-197 -50l-18 51l188 68z" />
    <glyph glyph-name="ringacute.cap" horiz-adv-x="400" 
d="M303 779q0 -36 -30.5 -61.5t-73.5 -25.5t-72.5 24t-29.5 61q0 36 30.5 61.5t73.5 25.5t72.5 -24t29.5 -61zM245 778q0 18 -13 30.5t-32 12.5t-32 -13t-13 -30q0 -18 13 -30t32 -12t32 12.5t13 29.5zM342 921l-189 -43l-16 42l181 60z" />
    <glyph glyph-name="hungarumlaut.cap" horiz-adv-x="498" 
d="M489 802l-167 -82l-33 51l158 98zM276 813l-155 -94l-36 49l145 108z" />
    <glyph glyph-name="dotaccent.cap" horiz-adv-x="285" 
d="M235 783q0 -25 -18 -42.5t-44 -17.5t-44 17.5t-18 42.5t18 43t44 18t44 -18t18 -43z" />
    <glyph glyph-name="section.alt1" horiz-adv-x="538" 
d="M487 185q0 -57 -27.5 -123.5t-70.5 -113.5q-77 -85 -190 -85q-47 0 -75 5l5 91q38 -12 82 -12q88 0 88 70q0 31 -26 65t-63 68t-74 73.5t-63 94.5t-26 117q0 58 27.5 125.5t70.5 114.5q78 85 183 85q46 0 79 -6l-4 -88q-41 11 -81 11q-47 0 -67.5 -19t-20.5 -58
q0 -24 18.5 -51.5t47 -51.5t61 -57t61 -67t47 -83.5t18.5 -104.5zM390 166q0 51 -21.5 94.5t-53.5 76l-64.5 62.5t-59 67.5t-33.5 77.5q-14 -42 -14 -85q0 -49 21 -91.5t52 -74.5l63 -63t59 -70t35 -82q16 44 16 88z" />
    <glyph glyph-name="TABLINLOW" horiz-adv-x="1790" 
d="M211 -168h-170v375h69v-318h101v-57zM336 -168h-69v375h69v-375zM689 -168h-95l-92 229q-13 30 -24 72h-1q3 -66 3 -175v-126h-62v375h99l89 -212q13 -35 23 -72h1q-3 75 -3 184v100h62v-375zM941 -168h-170v375h69v-318h101v-57zM1276 23q0 -89 -40 -142.5t-118 -53.5
q-148 0 -148 189q0 89 40.5 142.5t118.5 53.5q147 0 147 -189zM1204 19q0 138 -81 138q-80 0 -80 -136q0 -139 80 -139q81 0 81 137zM1772 207l-75 -375h-99l-47 236q-5 31 -10 73q-2 -21 -10 -73l-47 -236h-98l-74 375h72l44 -235q8 -39 11 -75h1q7 53 10 70l47 240h95
l47 -240q3 -17 10 -70h1q6 50 11 75l44 235h67zM247 631h-80v-320h-70v320h-80v55h230v-55zM531 311h-73l-22 80h-119l-21 -80h-69l102 375h101zM423 443l-34 134q-7 21 -12 56h-1q-3 -19 -11 -55l-36 -135h94zM821 425q0 -50 -35 -83t-105 -33q-31 0 -99 3v374q60 2 108 2
q119 0 119 -96q0 -60 -52 -82v-1q31 -8 47.5 -30.5t16.5 -53.5zM737 584q0 53 -53 53q-21 0 -32 -1v-108h27q58 0 58 56zM746 421q0 58 -68 58h-26v-115q10 -3 34 -3q29 0 44.5 16t15.5 44z" />
    <glyph glyph-name="TABLIN" horiz-adv-x="847" 
d="M247 631h-80v-320h-70v320h-80v55h230v-55zM531 311h-73l-22 80h-119l-21 -80h-69l102 375h101zM423 443l-34 134q-7 21 -12 56h-1q-3 -19 -11 -55l-36 -135h94zM821 425q0 -50 -35 -83t-105 -33q-31 0 -99 3v374q60 2 108 2q119 0 119 -96q0 -60 -52 -82v-1
q31 -8 47.5 -30.5t16.5 -53.5zM737 584q0 53 -53 53q-21 0 -32 -1v-108h27q58 0 58 56zM746 421q0 58 -68 58h-26v-115q10 -3 34 -3q29 0 44.5 16t15.5 44zM211 -168h-170v375h69v-318h101v-57zM336 -168h-69v375h69v-375zM689 -168h-95l-92 229q-13 30 -24 72h-1
q3 -66 3 -175v-126h-62v375h99l89 -212q13 -35 23 -72h1q-3 75 -3 184v100h62v-375z" />
    <glyph glyph-name="zero.expert" 
d="M507 343q0 -176 -68.5 -265t-169.5 -89q-113 0 -170 81.5t-57 269.5q0 169 65 257t174 88t167.5 -80t58.5 -262zM392 338q0 141 -28 199t-90 58q-117 0 -117 -250q0 -142 26.5 -203t90.5 -61q118 0 118 257z" />
    <glyph glyph-name="one.expert" 
d="M502 0h-437v96h174v469l-154 -60l-17 101l200 69h81v-579h153v-96z" />
    <glyph glyph-name="two.expert" 
d="M488 0h-433v86l122 128q103 105 137 157t34 105q0 49 -32 80.5t-89 31.5q-78 0 -145 -49l-21 95q81 51 189 51q103 0 159 -54.5t56 -137.5q0 -70 -34.5 -132t-127.5 -156l-103 -103l-3 -3q68 4 291 4v-103z" />
    <glyph glyph-name="three.expert" 
d="M478 211q0 -100 -79 -160t-210 -60q-64 0 -117 15l10 96q50 -19 120 -19q76 0 118.5 33t42.5 84q0 50 -39.5 79t-114.5 29q-48 0 -99 -6v86h25q102 0 158.5 29t56.5 86q0 42 -31 66.5t-85 24.5q-75 0 -142 -35l-10 93q83 33 172 33q102 0 155 -44t53 -119q0 -58 -31 -98
t-88 -57l-1 -1q59 -7 97.5 -51.5t38.5 -103.5z" />
    <glyph glyph-name="four.expert" 
d="M529 159h-100v-159h-106v159h-293l-9 87l263 429h145v-420h100v-96zM325 255v313h-1l-195 -315q52 2 196 2z" />
    <glyph glyph-name="five.expert" 
d="M480 226q0 -103 -79.5 -169.5t-210.5 -66.5q-52 0 -108 13v98q57 -18 117 -18q79 0 121.5 36.5t42.5 93.5t-43 87.5t-121 30.5q-57 0 -105 -8v352h362v-102l-261 1v-159q28 2 45 2q114 0 177 -53.5t63 -137.5z" />
    <glyph glyph-name="six.expert" 
d="M507 231q0 -109 -64 -175t-168 -66q-109 0 -170.5 75t-61.5 214q0 201 92 302.5t244 101.5q41 0 66 -3v-95q-35 6 -73 6q-173 0 -213 -193q-4 -12 -9 -46h1q49 77 147 77t153.5 -56t55.5 -142zM399 215q0 57 -31.5 91t-89.5 34q-53 0 -86.5 -37.5t-33.5 -81.5
q0 -60 33 -100t91 -40q54 0 85.5 37t31.5 97z" />
    <glyph glyph-name="seven.expert" 
d="M497 583q-148 -279 -243 -583h-121q101 316 240 573q-49 -3 -320 -3v105h444v-92z" />
    <glyph glyph-name="eight.expert" 
d="M502 179q0 -88 -67 -139t-170 -51q-104 0 -160.5 47.5t-56.5 125.5q0 98 127 178q-59 35 -85 73.5t-26 89.5q0 83 60.5 134t157.5 51q93 0 147.5 -44.5t54.5 -115.5q0 -49 -28 -89t-93 -82q74 -39 106.5 -82t32.5 -96zM375 520q0 38 -27.5 59.5t-74.5 21.5t-75 -25
t-28 -61q0 -33 24.5 -59.5t81.5 -56.5q54 34 76.5 62t22.5 59zM391 166q0 40 -30 69t-98 61q-103 -60 -103 -124q0 -43 30 -68.5t86 -25.5q51 0 83 24t32 64z" />
    <glyph glyph-name="nine.expert" 
d="M501 400q0 -205 -89 -307t-255 -102q-43 0 -82 7v97q41 -12 95 -12q86 0 138.5 46.5t67.5 135.5q4 23 7 43h-1q-46 -67 -147 -67q-92 0 -143.5 56.5t-51.5 151.5q0 106 64 171.5t167 65.5q106 0 168 -71t62 -215zM381 455q0 63 -31 101t-86 38q-52 0 -84.5 -37.5
t-32.5 -93.5q0 -58 30.5 -92.5t83.5 -34.5q55 0 87.5 35.5t32.5 83.5z" />
    <glyph glyph-name="Euro.captab" 
d="M389 226h-182q13 -74 50.5 -110t105.5 -36q61 0 120 22l19 -84q-73 -28 -161 -28q-218 0 -250 236h-76v66h70v27q0 20 2 58h-72v66h82q45 242 271 242q66 0 126 -15l-19 -91q-59 17 -112 17q-127 0 -154 -153h180v-66h-191q0 -6 -0.5 -20t-0.5 -22q0 -15 2 -43h190v-66z
" />
    <glyph glyph-name="dollar.captab" 
d="M497 198q0 -79 -53.5 -131.5t-143.5 -66.5l-4 -128h-73l4 125q-85 0 -161 27l18 100q70 -35 147 -38l5 212q-89 25 -133.5 66t-44.5 117q0 74 50.5 124t138.5 60l3 101h74l-4 -98q64 -3 121 -20l-16 -86q-46 20 -108 23l-4 -204q90 -26 137 -68t47 -115zM245 582
q-41 -5 -64.5 -29t-23.5 -61q0 -34 20.5 -54.5t63.5 -36.5zM393 183q0 35 -20.5 57.5t-64.5 38.5l-5 -192q90 17 90 96z" />
    <glyph glyph-name="cent.captab" 
d="M479 120q-58 -25 -115 -28v-97h-74v94q-105 5 -164.5 67.5t-59.5 182.5q0 109 62.5 181t161.5 83v75h74v-74q59 -3 111 -24l-17 -85q-42 20 -94 23v-339q54 3 99 25zM290 515q-51 -9 -85.5 -53t-34.5 -113q0 -149 120 -169v335z" />
    <glyph glyph-name="sterling.captab" 
d="M482 0h-405v77q60 40 88.5 80.5t28.5 94.5q0 24 -6 74h-111v79h102q-11 102 -11 115q0 94 51.5 140.5t144.5 46.5q52 0 96 -9l-10 -84q-38 9 -82 9q-45 0 -71.5 -25.5t-26.5 -71.5q0 -13 2 -32l5 -45.5t4 -43.5h160v-79h-152q4 -50 4 -65q0 -57 -20 -96.5t-67 -77.5
q57 3 70 3h206v-90z" />
    <glyph glyph-name="yen.captab" 
d="M529 675l-179 -366h129v-68h-153v-77h153v-69h-153v-95h-103v95h-152v69h152v77h-152v68h129l-176 366h112l102 -223q17 -38 39 -98h1q14 39 42 102l99 219h110z" />
    <glyph glyph-name="TABHANG" horiz-adv-x="1364" 
d="M309 -168h-69v163h-130v-163h-69v375h69v-155h130v155h69v-375zM664 -168h-74l-21 80h-120l-21 -80h-68l102 375h100zM557 -36l-36 134q-6 22 -11 56h-1q-3 -19 -11 -55l-37 -135h96zM987 -168h-95l-93 229q-13 33 -23 72h-1q3 -132 3 -175v-126h-63v375h100l88 -212
q13 -31 24 -72h1q-3 75 -3 184v100h62v-375zM1325 194l-20 -56q-47 18 -84 18q-93 0 -93 -137q0 -136 89 -136q20 0 38 6v136h69v-176q-50 -22 -114 -22q-155 0 -155 186q0 92 41.5 145.5t129.5 53.5q54 0 99 -18zM247 631h-80v-320h-70v320h-80v55h230v-55zM531 311h-73
l-22 80h-119l-21 -80h-69l102 375h101zM423 443l-34 134q-7 21 -12 56h-1q-3 -19 -11 -55l-36 -135h94zM821 425q0 -50 -35 -83t-105 -33q-31 0 -99 3v374q60 2 108 2q119 0 119 -96q0 -60 -52 -82v-1q31 -8 47.5 -30.5t16.5 -53.5zM737 584q0 53 -53 53q-21 0 -32 -1v-108
h27q58 0 58 56zM746 421q0 58 -68 58h-26v-115q10 -3 34 -3q29 0 44.5 16t15.5 44z" />
    <glyph glyph-name="zero.mono" 
d="M513 304q0 -146 -70.5 -230.5t-174.5 -84.5q-105 0 -168.5 74t-63.5 236q0 144 71 228t175 84q102 0 166.5 -72.5t64.5 -234.5zM404 297q0 227 -130 227q-56 0 -92.5 -55.5t-36.5 -164.5q0 -228 130 -228q57 0 93 55t36 166z" />
    <glyph glyph-name="one.mono" 
d="M498 0h-409v92h165v398l-153 -108l-37 83l208 135h87v-508h139v-92z" />
    <glyph glyph-name="two.mono" 
d="M473 0h-403v82l115 115q92 86 122.5 129.5t30.5 90.5t-27.5 74.5t-79.5 27.5q-66 0 -127 -47l-27 87q76 52 176 52q95 0 146 -50t51 -127q0 -64 -34 -120.5t-109 -126.5l-95 -92l-3 -3q63 4 264 4v-96z" />
    <glyph glyph-name="three.mono" 
d="M465 133q0 -99 -77.5 -163t-198.5 -64q-64 0 -114 16l16 93q52 -20 109 -20q70 0 111 35t41 89q0 53 -37 84.5t-106 31.5q-7 0 -79 -3v82h21q188 0 188 117q0 45 -30 69.5t-79 24.5q-64 0 -124 -35l-18 86q75 35 162 35q94 0 145.5 -44.5t51.5 -118.5q0 -56 -31 -96.5
t-80 -58.5l-1 -1q56 -8 93 -53.5t37 -105.5z" />
    <glyph glyph-name="four.mono" 
d="M515 84h-99v-167h-101v167h-275l-9 83l244 433h141v-424h99v-92zM317 176v321h-1l-183 -323q47 2 184 2z" />
    <glyph glyph-name="five.mono" 
d="M471 151q0 -105 -78.5 -175t-202.5 -70q-53 0 -104 12l10 93q46 -15 103 -15q75 0 117.5 39.5t42.5 100.5q0 59 -41.5 91.5t-115.5 32.5q-50 0 -94 -6v346h334v-97h-239v-160q13 2 38 2q108 0 169 -55t61 -139z" />
    <glyph glyph-name="six.mono" 
d="M493 231q0 -109 -61 -175t-158 -66q-102 0 -158.5 75t-56.5 214q0 201 86.5 302.5t227.5 101.5q39 0 61 -3l-1 -90q-32 5 -65 5q-159 0 -198 -196q-2 -6 -5 -24l-4 -24h1q46 76 138 76q90 0 141.5 -55.5t51.5 -140.5zM389 215q0 58 -29 92.5t-81 34.5q-49 0 -80 -38.5
t-31 -84.5q0 -61 29 -102t83 -41q51 0 80 38.5t29 100.5z" />
    <glyph glyph-name="seven.mono" 
d="M483 512q-156 -317 -216 -595h-114q68 291 214 586q-68 -2 -297 -2v99h413v-88z" />
    <glyph glyph-name="eight.mono" 
d="M491 175q0 -88 -64.5 -138.5t-160.5 -50.5t-151 47.5t-55 124.5q0 101 125 182q-108 64 -108 167q0 81 56.5 131.5t147.5 50.5q88 0 139.5 -44t51.5 -115q0 -49 -27 -90.5t-88 -83.5q134 -70 134 -181zM368 523q0 38 -24 62.5t-71 24.5q-44 0 -70 -26.5t-26 -65.5
q0 -64 99 -119q92 61 92 124zM385 162q0 43 -29 74t-91 62q-99 -63 -99 -133q0 -43 30 -70t80 -27q47 0 78 26t31 68z" />
    <glyph glyph-name="nine.mono" 
d="M489 325q0 -208 -90.5 -312.5t-238.5 -104.5q-51 0 -87 8l10 93q43 -12 87 -12q80 0 133 52t69 146q6 39 8 47h-1q-46 -72 -139 -72q-87 0 -137.5 56.5t-50.5 146.5q0 105 62 171.5t159 66.5q100 0 158 -73t58 -213zM375 382q0 63 -29 102.5t-81 39.5q-50 0 -80 -38
t-30 -98q0 -59 28.5 -94t79.5 -35q49 0 80.5 37.5t31.5 85.5z" />
    <glyph glyph-name="FoFa" horiz-adv-x="960" 
d="M880 571q0 -4 -2 -4q-5 1 -42 -2q-67 -3 -90 -7q-6 -5 -7 -17t-3 -16q0 -3 2 -8.5t2 -6.5q4 -5 14 -7q17 2 23 13q0 7 -7 12q-3 2 -10 2.5t-10 4.5q2 3 5 4t9 0t8 -1q10 -3 15 -16q-1 -15 -18 -27q-4 -1 -11 -2.5t-10 -2.5q-35 9 -45 24q-4 1 -1 22l4 22q-1 3 -3.5 3.5
t-5.5 0t-6 0.5l-33 -1q0 1 -1 2t-1 2q2 2 8 3h6h38q5 4 5 17q1 3 3 14.5t6 15.5q4 1 5.5 0.5t4.5 -3.5l4 -4q4 -5 3.5 -17t1.5 -19q0 -5 10.5 -4.5t11.5 0.5q4 0 43.5 1t69.5 5q3 -2 4 -3zM651 504l-3 -2q-35 0 -51 -5q-11 5 -13 8q6 37 1 56q-2 2 -14 -4q-39 -24 -41 -48
q-10 -10 -19 -5q-4 3 -3 15t0 16l-1 31q-2 2 -8 1.5t-10 0.5q-1 1 -4 1t-5 0.5t-2 3.5q7 0 26 1.5t26 -0.5q4 -3 3 -14.5t6 -12.5q8 4 25 14t27 14q2 -1 12 -1t12 -8t2 -23.5v-19.5q1 -1 1.5 -5.5t2.5 -6.5q9 -2 13 0q2 0 7.5 -1t9.5 -1q3 -3 0 -5zM447 559q3 -19 -7 -31
q-4 -3 -12.5 -10t-15 -11t-14.5 -5q-4 1 -6.5 -3.5t-6.5 -1.5q-1 3 -12 2t-13 -1q-14 0 -21 3q-24 21 -18 36q7 21 24 30q32 16 47 13q45 -2 55 -21zM452 664q-12 -13 -29 -8q-13 18 -14 24q-6 9 -16 16t-18 9l-23 5.5t-21 5.5l-31 2q-2 -2 -6.5 -1.5t-6.5 -0.5
q-33 -10 -55 -21q-1 -2 -13.5 -11.5t-13.5 -18.5q-9 -22 -11 -70q0 -3 10.5 -2.5t11.5 0.5q19 2 86 2q1 -1 1.5 -3.5t-0.5 -3.5q-5 -5 -15.5 -0.5t-15.5 2.5q-6 0 -20.5 -1t-20.5 0q-4 -1 -12 -1.5t-14 -1.5t-10 -4l-3 -4q-2 -25 1 -63v-14t4 -14q19 -1 38 1t31 2q2 2 13 -1
q1 -1 1 -2v-2l-4 -2q-12 4 -39 0.5t-46 -2.5q-37 -3 -46 -2q-45 -2 -64 3l-2 3q3 3 9 5q4 -2 39 -7q24 3 26 4q-1 19 4.5 49.5t6.5 43.5q-1 2 -3 4q-6 0 -18.5 -0.5t-21 0.5t-16.5 5q-2 5 3 5q18 -5 56 -3l2 3q6 47 15 66v3q47 55 119 62q31 4 70 -13q2 -1 9.5 -1.5
t10.5 -2.5q43 -9 62 -35q2 -2 0 -9zM771 -58l-4 -4q-13 1 -47.5 -2.5t-49.5 -1.5q-31 1 -104 -3.5t-113 -0.5q-24 -4 -96 3q-13 1 -121 1q-68 0 -100 -8q-12 -2 -15 4q0 4 -1 19.5t0 26t4 19.5q1 10 1 37.5t2 42.5q-3 15 -1 44.5t0 44.5q0 25 3 71.5t4 59.5q2 26 1 71.5
t0 71.5q2 5 7 6t9.5 0t9.5 1q2 -4 18.5 -2.5t18.5 1.5q12 12 13 1q1 -1 0.5 -6t2.5 -6q-1 -37 -1 -54.5t3.5 -74l4.5 -72.5q22 7 59 28t57 28q3 1 9.5 5.5t11.5 6.5q8 4 10 3q3 -1 4 -3.5t0 -7.5t-1 -6q-10 -29 -5 -61q1 -2 3 -2.5t3.5 0t4 1t3.5 0.5q6 5 17.5 12l16.5 10
q25 15 41 21q36 25 48 29l20 16q1 4 6 7q3 0 11 -6q0 -9 3 -28t3 -29q1 -2 3.5 -2.5t2.5 -1.5q3 -4 -2 -20l2 -2q23 5 61 32t60 32q3 3 10.5 6t11.5 7q3 0 16 9.5t22 2.5q6 0 7 -4q-1 -3 4 -12q-1 -4 0 -14t-2 -13q0 -5 -0.5 -16t0.5 -18.5t5 -13.5q-1 -4 2.5 -12.5
t-0.5 -10.5q2 -25 4 -27q2 -14 -1 -18q1 -5 2.5 -21t4.5 -25q-1 -2 -1 -5t0.5 -6t0.5 -5q0 -26 6 -74.5t6 -72.5l1 -4q1 -4 0 -5zM425 539q-7 31 -26 34q-1 -3 -3.5 -3.5t-6 0t-4.5 0.5q-15 7 -26 -6q-2 -3 -3.5 -6.5t-1.5 -7t-0.5 -6t1 -6.5t2 -6t3.5 -6.5t3.5 -6t3.5 -6
t4 -5.5q1 -2 3 -2.5t4 0t5 -0.5h9t8 3l8 4q2 2 7 5.5t6.5 5.5t4 7t-0.5 9zM739 -10q-11 24 -18 32q-2 4 -8 12.5t-9.5 15.5t-4.5 15q-7 14 -6 17q5 6 17 13.5t16 12.5l-9 17q-7 -1 -18 -5.5t-13 -4.5q-1 -1 -4 -3t-5 -3.5t-5 -1t-5 2.5q2 53 1 78l-2 3q-6 0 -27 7
q-5 -35 -3 -48q-2 -5 -0.5 -19.5t-1.5 -19.5q1 -18 -1 -51.5t0 -51.5l-1 -7h24q1 0 6 -1.5t6 1.5q0 18 -1 28q0 3 -1 8t-1.5 8.5t1 7t6.5 4.5q4 -2 6 -7.5t3 -7.5q-1 -5 4 -12.5t6 -10.5q7 -4 15 -16.5t14 -16.5q2 0 6 -1.5t7 -0.5q6 0 6 6zM608 179q-4 11 -12 15
q-7 7 -10 0q-13 -18 -4 -30q3 -11 19 -4q9 6 7 19zM610 15q0 13 -1 38.5t-1 37.5v26q-2 5 -13.5 2.5t-14.5 -2.5q-5 0 -5 -24v-26l-3 -26q1 -3 1 -19.5t5 -24.5q15 0 30 5q2 4 2 13zM560 123q-24 -2 -30 -13q-2 -2 -3 -5.5t-2 -6t-3.5 -4.5t-6.5 -1q-2 7 -2 29q-3 2 -8 0
t-7 0q-7 -4 -11 -13q0 -73 4 -111l3 -4q3 -3 11.5 -1.5t11.5 0.5q-2 7 -0.5 21t-1.5 20q6 31 16 44q4 3 13 6t13 7q0 4 1.5 11t2 10.5t-0.5 10.5zM458 30q3 5 4.5 10t1.5 10.5t0.5 9.5t-0.5 11t-1.5 10t-2.5 11.5t-2 10.5q1 4 -4.5 7.5t-12.5 7t-8 4.5q-6 6 -8 -1
q-11 1 -19 -4q-4 -2 -8 -8t-6 -7q-5 -3 -9 3q5 24 -3 74l-2 7h-8q-4 -1 -6 -4.5t-2 -6.5v-7.5t-1 -6.5q-2 -11 -2 -34t-2 -34q1 -11 0 -32.5t0 -31.5q0 -5 -1.5 -17t-0.5 -19q9 -5 31 5q8 2 10.5 0.5t6.5 -7t7 -7.5q8 0 13 1q12 7 24 20.5t11 24.5zM333 34q-4 12 -3 44
t-7 41q-11 7 -23 12l-8 5h-14t-19 -5q-6 -3 -8 -26q8 -3 15.5 -1t16.5 0.5t13 -8.5q0 -2 2 -6t-1 -6q-3 -6 1 -8q5 -7 -3 -9q-5 -2 -14.5 -2t-13.5 -1q-19 -7 -25 -37q-2 -3 -0.5 -10.5t-1.5 -10.5q0 -11 15 -17q5 5 8 2q5 -1 9.5 1.5t10.5 7.5t9 7q6 1 7 -2.5t-0.5 -9
t2.5 -8.5q2 -2 8 0t8 2l15 6zM248 181q-12 2 -52 0q-18 -2 -27 -8q-1 -12 -3.5 -35.5t-3.5 -29.5q2 -19 1.5 -54.5t0.5 -55.5q1 0 7 1t7 0q3 1 11.5 -0.5t11.5 0.5q1 10 1 31t1 32q2 5 16 12q2 1 8 0.5t7 2.5l-1 28q-3 4 -21 4q-4 -4 -7 -4q-3 1 -5 3.5t-2 5.5t-0.5 7
t-1.5 6q-2 4 4 10q13 4 39 8l6 4q-1 7 1 17.5t2 14.5zM430 77q14 -30 -9 -55q-1 -1 -12 -7q-6 1 -9.5 5t-4.5 7.5t-2 11t-2 9.5q1 2 2.5 14.5t5.5 17.5q3 2 9 10t12 8l3 -3q-2 -5 2.5 -10.5t4.5 -7.5zM295 42q0 -11 -14 -23l-7 -3q-6 -3 -10 -1q-4 1 -5 3.5t1 8.5l2 6
q0 6 9 10q6 0 10 4q13 -3 14 -5z" />
    <glyph glyph-name="designer" horiz-adv-x="1316" 
d="M947 -34q-7 -9 -26 -11.5t-25 -6.5q-45 -4 -54 -28q-3 -9 -12.5 -25t-14 -29.5t-1.5 -27.5q3 -12 26 -6q2 0 6 4t8 2q2 -3 1.5 -4t-3 -4t-3.5 -5q-21 -13 -38 -5q-18 18 -13 36q4 21 35 74q-10 5 -31.5 0.5t-31.5 -0.5q5 7 27 14q5 1 17 1.5t20.5 2.5t12.5 10q5 0 5 22
v24q-5 1 -5 12q-3 5 -7 9.5t-7.5 7.5t-9.5 5t-9.5 3t-11.5 2t-10.5 1t-11.5 0.5t-10 0.5q-22 -1 -41.5 -16.5t-28.5 -35.5q-12 -28 3 -65q-2 -13 12 -42.5t5 -49.5q-9 -7 -26 -1q-8 4 -12 12t-6 20.5t-4 17.5q6 4 7 17.5t5 17.5q5 19 -7 24q-6 -1 -23 -1.5t-28.5 -3
t-20.5 -9.5q5 -19 3.5 -44.5t-18.5 -37.5q-11 -3 -24 4q-5 4 -7 10t-2 11t0.5 13t0.5 12q1 3 6.5 15t8.5 17t10 12t15 10q10 -6 33 1l49 1q3 3 4 13t2 13q10 30 33 52t53 24q41 4 64 -8q1 -7 11.5 -13t11.5 -13q11 -17 1 -68q22 0 87 12zM541 -54q-5 -4 -16 2t-17 2
q-10 -7 -14.5 -24.5t-9.5 -23.5q-1 -7 -4.5 -24.5t-3.5 -27.5q-10 -5 -14 -4q-5 1 -3 18t2 18q5 6 5.5 22t3.5 22q-2 4 -2.5 13.5t-1.5 11.5q-2 1 -7.5 -2t-7.5 1q2 10 14 18q10 0 19 -18q3 1 9.5 8.5t10 9t12.5 -3.5zM408 -9q0 -21 2 -73t0.5 -79.5t-14 -65t-39.5 -63.5
q-65 -41 -145 -19q-12 7 -12 14q7 29 22 34q-1 -4 -4 -10.5t-5 -12t-3 -10.5q28 -15 63 -12.5t63 17.5q17 6 26.5 17.5t17 34t10.5 27.5q10 60 6 146q3 6 1 24t-1 24q-2 6 -12 1q-5 -5 -11 -17t-11 -16q2 -10 -10 -20t-12 -18q-31 -35 -72 -94q-1 -2 -3 -5t-3 -5t-3 -4
t-4 -2.5t-5 -0.5q-8 5 -5.5 29.5t1.5 31.5q2 5 5.5 21t8 27.5t12.5 21.5q22 58 66 86q15 4 46 -16q8 10 12 24q12 -4 12 -20q-5 -2 -2 -8t2 -9zM731 209q-14 -2 -62 -16t-76 -12q-5 -4 -6 -16t3.5 -21t15.5 -5q1 1 4 10t8 11q8 -15 -8 -33q-5 -1 -15 -2t-18 12.5t-5 38.5
q-7 10 -5 14q5 4 8 10t4 10.5t1.5 13t1.5 12.5q-1 0 -2 2t-2 2q-13 -9 -27.5 -31.5t-20.5 -29.5q0 -9 -12 -23.5t-10 -25.5q-2 -2 -4 -15.5t-12 -14.5q-11 3 -13.5 10t-1 19t0.5 17q-2 13 1 35t1 33q-7 -4 -12.5 -15.5t-8.5 -15.5q-2 -3 -11 -17.5t-17 -20.5t-21 -3
q-16 23 13 72q2 3 7 9l8 9.5t9 8.5t10.5 4.5t12.5 -1.5q5 -2 10 0q17 39 20 90l10 8q6 -2 7 -5.5t-0.5 -7t-3 -8t-0.5 -7.5q-2 -13 -8.5 -51.5t-8.5 -58.5q0 -6 -2 -19.5t-2 -19t2 -19.5q4 5 26.5 40t39.5 52q14 19 32 30l14.5 -14t15.5 -14v-40q7 2 44.5 9t57.5 13
q8 -5 7 -13zM1064 581q-6 77 -60 101q5 7 10 8t10.5 -3t9 -7.5t9 -11t6.5 -8.5q57 -70 11 -182q-33 -78 -104 -108q34 24 48 48q42 42 48 80q18 29 12 83zM974 480q-8 -21 -24 -25q-9 3 -20 17l2 14q3 -1 4.5 -7.5t6.5 -8.5q6 -2 16 11q8 49 -15 87l-6 -3q-3 -3 -11 -10
t-12 -11t-9 -10.5t-8 -13.5l-8 -4q-9 -9 -23.5 -28.5t-22.5 -27.5q-7 -1 -10 3t-4 11.5t-3 10.5q4 10 -3 17q-5 1 -7 -4t-3 -6q-15 -15 -32 -16q-10 3 -13.5 9.5t-2 13l4 17t2.5 16.5q5 20 33 50q2 1 10 3.5t12 3t10 -1t10 -7.5l4 -6q-3 -8 -11 -72q3 -10 8 -10q9 0 15 11
t8 13q29 25 78 78q10 -3 11.5 -20.5t4.5 -21.5q5 -2 3 -8q11 -22 5 -64zM838 676q-9 -16 -24 -14q-6 11 -12 6q-24 -19 -38.5 -32t-31 -34t-23.5 -42q-19 -115 33 -156q6 -4 13 -5.5t18 -1t15 0.5q4 2 10.5 8t10.5 9q1 -5 -2.5 -9t-9.5 -7.5t-9 -6.5q-33 -13 -62 12
q-23 21 -27 46q-7 3 -4 11t-2 11q2 4 -1.5 14t0.5 16q-2 54 29 96.5t85 85.5q2 0 7 1t8.5 1.5t7.5 0.5t6 -3t3 -8zM655 498q-7 -18 -22.5 -30t-34.5 -12q-47 0 -64 32q-11 16 -5 50q1 6 7 15t7 15q29 24 64 12q1 -1 3.5 -2.5t4 -2t2.5 -2.5t1 -5q-3 -2 -4.5 -1t-5 3t-6.5 2
q-27 7 -50 -16q-20 -32 -10 -55q22 -30 54 -34q1 1 16.5 3.5t21.5 10.5q3 2 6 8t6.5 9t8.5 0zM501 470q-2 -5 -5.5 -15.5t-7.5 -18t-9 -14.5q-13 -6 -21 10q-16 37 -10 75q-1 1 0.5 24.5t-2.5 30.5q-6 -15 -7.5 -58t-19.5 -62q-3 -3 -10.5 -4t-17 9t-13.5 33q2 12 4 36t4 36
q0 2 -2 14.5t4 13.5q7 4 13 -4q1 -15 -2 -40.5t-3 -45t7 -30.5q8 -6 12 -0.5t5.5 16t3.5 12.5q2 11 3 40t5 44q2 2 4.5 7.5t4.5 8.5t6 5t9 -3q9 -26 7 -76t6 -76q1 -3 4.5 -4t6.5 3l2 5q2 6 4.5 12t6.5 11t8 5zM345 440q-15 -12 -84 -17q-71 -6 -127 -25q-6 -13 -28 -2
q-1 7 7 13.5t9 10.5q11 21 19 48q-1 5 9 26q57 132 74 208q-4 14 3 21q4 1 6 0t4 -4.5t3 -4.5q-10 -56 -50.5 -152t-51.5 -140l2 -2q13 2 45 8t55.5 9.5t47.5 3.5q31 -6 54 3zM706 -154q11 23 -10 54q-6 -8 -8 -27q5 -25 18 -27zM586 -73l-14 -19q-6 -31 -1 -46q2 -2 6 -2.5
t8 1t7 5t3.5 8.5t-1.5 11q10 39 -8 42zM372 -6q-3 10 -15 13t-21 -2q-29 -25 -40 -40q-4 -13 -15.5 -37.5t-17 -45t-3.5 -40.5q2 0 6 4q11 14 37 43.5t43 54t26 50.5zM599 208q9 22 -2 24l-5 -29q2 0 7 5zM463 210l-2 20q-13 3 -23 -14q-31 -39 -21 -63q6 -3 11 7
q24 26 35 50zM828 575q-3 3 -6.5 -0.5t-5.5 -2.5q-39 -20 -37 -80q5 -1 12.5 4t11.5 4q2 5 8.5 14t10.5 15.5t5.5 16t-5.5 16.5q6 0 6 13z" />
    </font>
</defs>
</svg>
